<?xml version="1.0" standalone="no"?>
<!DOCTYPE svg PUBLIC "-//W3C//DTD SVG 1.1//EN" "http://www.w3.org/Graphics/SVG/1.1/DTD/svg11.dtd">
<svg xmlns:xlink="http://www.w3.org/1999/xlink" width="11.44ex" height="7.509ex" style="vertical-align: -3.171ex;" viewBox="0 -1867.7 4925.7 3233.2" xmlns="http://www.w3.org/2000/svg">
<defs>
<path stroke-width="10" id="E1-MJMAIN-7B" d="M434 -231Q434 -244 428 -250H410Q281 -250 230 -184Q225 -177 222 -172T217 -161T213 -148T211 -133T210 -111T209 -84T209 -47T209 0Q209 21 209 53Q208 142 204 153Q203 154 203 155Q189 191 153 211T82 231Q71 231 68 234T65 250T68 266T82 269Q116 269 152 289T203 345Q208 356 208 377T209 529V579Q209 634 215 656T244 698Q270 724 324 740Q361 748 377 749Q379 749 390 749T408 750H428Q434 744 434 732Q434 719 431 716Q429 713 415 713Q362 710 332 689T296 647Q291 634 291 499V417Q291 370 288 353T271 314Q240 271 184 255L170 250L184 245Q202 239 220 230T262 196T290 137Q291 131 291 1Q291 -134 296 -147Q306 -174 339 -192T415 -213Q429 -213 431 -216Q434 -219 434 -231Z"></path>
<path stroke-width="10" id="E1-MJSZ4-7B" d="M661 -1243L655 -1249H622L604 -1240Q503 -1190 434 -1107T348 -909Q346 -897 346 -499L345 -98L343 -82Q335 3 287 87T157 223Q146 232 145 236Q144 240 144 250Q144 265 145 268T157 278Q242 333 288 417T343 583L345 600L346 1001Q346 1398 348 1410Q379 1622 600 1739L622 1750H655L661 1744V1727V1721Q661 1712 661 1710T657 1705T648 1700T630 1690T602 1668Q589 1659 574 1643T531 1593T484 1508T459 1398Q458 1389 458 1001Q458 614 457 605Q441 435 301 316Q254 277 202 251L250 222Q260 216 301 185Q443 66 457 -104Q458 -113 458 -501Q458 -888 459 -897Q463 -944 478 -988T509 -1060T548 -1114T580 -1149T602 -1167Q620 -1183 634 -1192T653 -1202T659 -1207T661 -1220V-1226V-1243Z"></path>
<path stroke-width="10" id="E1-MJMAIN-2026" d="M78 60Q78 84 95 102T138 120Q162 120 180 104T199 61Q199 36 182 18T139 0T96 17T78 60ZM525 60Q525 84 542 102T585 120Q609 120 627 104T646 61Q646 36 629 18T586 0T543 17T525 60ZM972 60Q972 84 989 102T1032 120Q1056 120 1074 104T1093 61Q1093 36 1076 18T1033 0T990 17T972 60Z"></path>
<path stroke-width="10" id="E1-MJMAIN-7C" d="M139 -249H137Q125 -249 119 -235V251L120 737Q130 750 139 750Q152 750 159 735V-235Q151 -249 141 -249H139Z"></path>
<path stroke-width="10" id="E1-MJMAIN-2223" d="M139 -249H137Q125 -249 119 -235V251L120 737Q130 750 139 750Q152 750 159 735V-235Q151 -249 141 -249H139Z"></path>
<path stroke-width="10" id="E1-MJMAIN-7D" d="M65 731Q65 745 68 747T88 750Q171 750 216 725T279 670Q288 649 289 635T291 501Q292 362 293 357Q306 312 345 291T417 269Q428 269 431 266T434 250T431 234T417 231Q380 231 345 210T298 157Q293 143 292 121T291 -28V-79Q291 -134 285 -156T256 -198Q202 -250 89 -250Q71 -250 68 -247T65 -230Q65 -224 65 -223T66 -218T69 -214T77 -213Q91 -213 108 -210T146 -200T183 -177T207 -139Q208 -134 209 3L210 139Q223 196 280 230Q315 247 330 250Q305 257 280 270Q225 304 212 352L210 362L209 498Q208 635 207 640Q195 680 154 696T77 713Q68 713 67 716T65 731Z"></path>
<path stroke-width="10" id="E1-MJSZ4-7D" d="M144 1727Q144 1743 146 1746T162 1750H167H183L203 1740Q274 1705 325 1658T403 1562T440 1478T456 1410Q458 1398 458 1001Q459 661 459 624T465 558Q470 526 480 496T502 441T529 395T559 356T588 325T615 301T637 284T654 273L660 269V266Q660 263 660 259T661 250V239Q661 236 661 234T660 232T656 229T649 224Q577 179 528 105T465 -57Q460 -86 460 -123T458 -499V-661Q458 -857 457 -893T447 -955Q425 -1048 359 -1120T203 -1239L183 -1249H168Q150 -1249 147 -1246T144 -1226Q144 -1213 145 -1210T153 -1202Q169 -1193 186 -1181T232 -1140T282 -1081T322 -1000T345 -897Q346 -888 346 -501Q346 -113 347 -104Q359 58 503 184Q554 226 603 250Q504 299 430 393T347 605Q346 614 346 1002Q346 1389 345 1398Q338 1493 288 1573T153 1703Q146 1707 145 1710T144 1727Z"></path>
</defs>
<g stroke="currentColor" fill="currentColor" stroke-width="0" transform="matrix(1 0 0 -1 0 0)">
 <use xlink:href="#E1-MJSZ4-7B" x="0" y="-1"></use>
 <use xlink:href="#E1-MJMAIN-2026" x="977" y="0"></use>
<g transform="translate(2321,0)">
<g transform="translate(0,1485)">
 <use xlink:href="#E1-MJMAIN-2223" x="0" y="-760"></use>
<g transform="translate(0,-1365.7811579980373) scale(1,0.5220804710500491)">
 <use xlink:href="#E1-MJMAIN-2223"></use>
</g>
 <use xlink:href="#E1-MJMAIN-2223" x="0" y="-2211"></use>
</g>
</g>
 <use xlink:href="#E1-MJMAIN-2026" x="2770" y="0"></use>
 <use xlink:href="#E1-MJSZ4-7D" x="4114" y="-1"></use>
</g>
</svg>