<?xml version="1.0" standalone="no"?>
<!DOCTYPE svg PUBLIC "-//W3C//DTD SVG 1.1//EN" "http://www.w3.org/Graphics/SVG/1.1/DTD/svg11.dtd">
<svg xmlns:xlink="http://www.w3.org/1999/xlink" width="10.408ex" height="3.176ex" style="vertical-align: -1.171ex;" viewBox="0 -863.1 4481 1367.4" xmlns="http://www.w3.org/2000/svg">
<defs>
<path stroke-width="10" id="E1-MJAMS-22E6" d="M86 450Q93 455 380 592T673 730Q680 730 686 724T693 710Q693 702 688 699Q686 693 417 568L151 439L417 310Q685 185 688 179Q693 176 693 168Q693 161 687 155T675 148Q668 148 380 285T86 428Q74 438 86 450ZM55 -205Q55 -175 64 -142T92 -76T145 -22T222 -1Q288 -1 362 -66Q369 -72 372 -75T378 -79T382 -81T384 -79Q389 -74 439 21Q483 100 490 111T504 122Q510 122 518 118T526 103Q526 101 510 69T467 -12T419 -99L413 -112L433 -128Q498 -180 553 -180Q605 -180 646 -139Q672 -112 681 -77T693 -21T706 -1Q719 -1 719 -33Q719 -39 717 -57Q708 -141 655 -190Q625 -224 586 -232Q568 -237 551 -237Q487 -237 413 -172L391 -155Q391 -157 335 -255Q297 -325 286 -342T268 -359Q260 -359 254 -353T248 -339T304 -230L359 -126Q359 -124 337 -107T302 -81Q262 -57 221 -57Q170 -57 130 -93T84 -201Q82 -236 70 -236Q55 -236 55 -205Z"></path>
<path stroke-width="10" id="E1-MJMAIN-2C" d="M78 35T78 60T94 103T137 121Q165 121 187 96T210 8Q210 -27 201 -60T180 -117T154 -158T130 -185T117 -194Q113 -194 104 -185T95 -172Q95 -168 106 -156T131 -126T157 -76T173 -3V9L172 8Q170 7 167 6T161 3T152 1T140 0Q113 0 96 17Z"></path>
<path stroke-width="10" id="E1-MJAMS-22E7" d="M88 723Q95 730 99 730Q106 730 394 593T688 450Q693 447 693 439T688 428Q683 423 395 286T99 148Q94 148 88 155T82 168Q82 175 86 179Q89 184 357 310L624 439L357 568Q88 694 86 699Q81 703 81 711T88 723ZM55 -205Q55 -175 64 -142T92 -76T145 -22T222 -1Q288 -1 362 -66Q369 -72 372 -75T378 -79T382 -81T384 -79Q389 -74 439 21Q483 100 490 111T504 122Q510 122 518 118T526 103Q526 101 510 69T467 -12T419 -99L413 -112L433 -128Q498 -180 553 -180Q605 -180 646 -139Q672 -112 681 -77T693 -21T706 -1Q719 -1 719 -33Q719 -39 717 -57Q708 -141 655 -190Q625 -224 586 -232Q568 -237 551 -237Q487 -237 413 -172L391 -155Q391 -157 335 -255Q297 -325 286 -342T268 -359Q260 -359 254 -353T248 -339T304 -230L359 -126Q359 -124 337 -107T302 -81Q262 -57 221 -57Q170 -57 130 -93T84 -201Q82 -236 70 -236Q55 -236 55 -205Z"></path>
<path stroke-width="10" id="E1-MJAMS-2A89" d="M86 512Q93 518 381 639T673 761Q680 761 686 755T693 741Q693 733 688 730Q685 723 419 612L155 501L419 390Q685 277 688 272Q693 269 693 261Q693 254 687 248T675 241Q669 241 381 362T86 490Q74 500 86 512ZM70 -59Q57 -59 57 -24Q57 40 104 87Q116 102 146 118Q186 136 231 136Q232 136 242 135T258 133T276 128T302 118T334 101T377 74Q386 69 396 63T411 53T417 50Q435 87 453 134Q491 223 495 227Q498 230 505 230Q513 230 519 225T526 212Q526 203 491 118T453 30Q453 22 489 10T553 -3Q589 -3 622 14Q653 28 669 50T688 90T694 122T706 136Q718 136 718 114Q718 113 718 109T717 103Q717 31 668 -14T554 -60Q529 -60 499 -50T451 -32T433 -24Q431 -24 404 -90T375 -157Q375 -159 402 -178T473 -218T553 -239Q599 -239 641 -211T691 -130Q694 -99 706 -99T718 -122Q718 -123 718 -127T717 -133Q717 -204 668 -249T559 -295Q512 -295 470 -275T355 -206L322 -290Q313 -310 304 -332T289 -367T282 -382Q277 -387 270 -387Q262 -387 255 -382T248 -368Q248 -361 322 -186Q311 -177 280 -166T222 -155Q189 -155 153 -173Q122 -186 106 -208T87 -248T82 -280T71 -294Q57 -294 57 -259Q57 -195 104 -148Q122 -126 155 -113T220 -99Q245 -99 276 -109T324 -127T342 -135Q397 -2 397 1Q386 10 367 23T302 58T222 80Q175 80 132 52T84 -28Q82 -59 70 -59Z"></path>
<path stroke-width="10" id="E1-MJAMS-2A8A" d="M86 730Q81 734 81 740Q81 747 88 754T99 761Q103 761 392 640T688 512Q693 509 693 501T688 490Q682 484 394 363T99 241Q94 241 88 248T82 261Q82 268 86 272Q89 277 355 390L619 501L355 612Q89 723 86 730ZM70 -59Q57 -59 57 -24Q57 40 104 87Q116 102 146 118Q186 136 231 136Q232 136 242 135T258 133T276 128T302 118T334 101T377 74Q386 69 396 63T411 53T417 50Q435 87 453 134Q491 223 495 227Q498 230 505 230Q513 230 519 225T526 212Q526 203 491 118T453 30Q453 22 489 10T553 -3Q589 -3 622 14Q653 28 669 50T688 90T694 122T706 136Q718 136 718 114Q718 113 718 109T717 103Q717 31 668 -14T554 -60Q529 -60 499 -50T451 -32T433 -24Q431 -24 404 -90T375 -157Q375 -159 402 -178T473 -218T553 -239Q599 -239 641 -211T691 -130Q694 -99 706 -99T718 -122Q718 -123 718 -127T717 -133Q717 -204 668 -249T559 -295Q512 -295 470 -275T355 -206L322 -290Q313 -310 304 -332T289 -367T282 -382Q277 -387 270 -387Q262 -387 255 -382T248 -368Q248 -361 322 -186Q311 -177 280 -166T222 -155Q189 -155 153 -173Q122 -186 106 -208T87 -248T82 -280T71 -294Q57 -294 57 -259Q57 -195 104 -148Q122 -126 155 -113T220 -99Q245 -99 276 -109T324 -127T342 -135Q397 -2 397 1Q386 10 367 23T302 58T222 80Q175 80 132 52T84 -28Q82 -59 70 -59Z"></path>
</defs>
<g stroke="currentColor" fill="currentColor" stroke-width="0" transform="matrix(1 0 0 -1 0 0)">
 <use xlink:href="#E1-MJAMS-22E6" x="0" y="0"></use>
 <use xlink:href="#E1-MJMAIN-2C" x="783" y="0"></use>
 <use xlink:href="#E1-MJAMS-22E7" x="1232" y="0"></use>
 <use xlink:href="#E1-MJMAIN-2C" x="2015" y="0"></use>
 <use xlink:href="#E1-MJAMS-2A89" x="2465" y="0"></use>
 <use xlink:href="#E1-MJMAIN-2C" x="3248" y="0"></use>
 <use xlink:href="#E1-MJAMS-2A8A" x="3698" y="0"></use>
</g>
</svg>