<?xml version="1.0" standalone="no"?>
<!DOCTYPE svg PUBLIC "-//W3C//DTD SVG 1.1//EN" "http://www.w3.org/Graphics/SVG/1.1/DTD/svg11.dtd">
<svg xmlns:xlink="http://www.w3.org/1999/xlink" width="20.927ex" height="2.343ex" style="vertical-align: -0.505ex;" viewBox="0 -791.3 9010 1008.6" xmlns="http://www.w3.org/2000/svg">
<defs>
<path stroke-width="10" id="E1-MJAMS-41" d="M130 -1H63Q34 -1 26 2T17 17Q17 24 22 29T35 35Q49 35 64 44T88 66Q101 93 210 383Q331 693 335 697T346 701T357 697Q358 696 493 399Q621 104 633 83Q656 35 686 35Q693 35 698 30T703 17Q703 5 693 2T643 -1H541Q388 -1 386 1Q378 6 378 16Q378 24 383 29T397 35Q412 35 434 45T456 65Q456 93 428 170L419 197H197L195 179Q184 134 184 97Q184 82 186 71T190 55T198 45T205 39T214 36L219 35Q241 31 241 17Q241 5 233 2T196 -1H130ZM493 68Q493 51 481 35H619Q604 56 515 256Q486 321 468 361L348 637Q347 637 330 592T313 543Q313 538 358 436T448 219T493 68ZM404 235Q404 239 355 355T295 488L275 430Q241 348 208 232H306Q404 232 404 235ZM155 48Q151 55 148 88V117L135 86Q118 47 117 46L110 37L135 35H159Q157 41 155 48Z"></path>
<path stroke-width="10" id="E1-MJAMS-42" d="M11 665Q11 672 22 683H213Q407 681 431 677Q582 649 582 515Q582 488 573 468Q554 413 484 372L474 366H475Q620 317 620 178Q620 115 568 69T420 6Q393 1 207 -1H22Q11 10 11 18Q11 35 51 35Q79 37 88 39T102 52Q107 70 107 341T102 630Q97 640 88 643T51 648H46Q11 648 11 665ZM142 341Q142 129 141 88T134 37Q133 36 133 35H240L233 48L229 61V623L233 635L240 648H133L138 639Q142 621 142 341ZM284 370Q365 378 391 411T417 508Q417 551 406 581T378 624T347 643T320 648Q298 648 278 635Q267 628 266 611T264 492V370H284ZM546 515Q546 551 531 577T494 617T454 635T422 641L411 643L420 630Q439 604 445 579T452 510V504Q452 481 451 467T441 430T415 383Q420 383 439 391T483 413T527 455T546 515ZM585 185Q585 221 570 249T534 294T490 320T453 334T436 337L435 336L440 330Q445 325 452 315T467 288T479 246T484 188Q484 145 474 110T454 62T442 48Q442 47 444 47Q450 47 470 54T517 75T564 119T585 185ZM449 184Q449 316 358 332Q355 332 335 333T302 335H264V199Q266 68 270 57Q275 50 289 43Q300 37 324 37Q449 37 449 184Z"></path>
<path stroke-width="10" id="E1-MJAMS-43" d="M684 131Q684 125 672 109T633 71T573 29T489 -5T386 -19Q330 -19 276 -3T174 46T91 134T44 261Q39 283 39 341T44 421Q66 538 143 611T341 699Q344 699 364 700T395 701Q449 698 503 677T585 655Q603 655 611 662T620 678T625 694T639 702Q650 702 657 690V481L653 474Q640 467 628 472Q624 476 618 496T595 541Q562 587 507 625T390 663H381Q337 663 299 625Q212 547 212 336Q212 249 233 179Q274 30 405 30Q533 30 641 130Q658 147 666 147Q671 147 677 143T684 131ZM250 625Q264 643 261 643Q238 635 214 620T161 579T110 510T79 414Q74 384 74 341T79 268Q89 213 113 169T164 101T217 61T260 39L277 34Q270 41 264 48Q199 111 181 254Q178 281 178 344T181 434Q200 559 250 625ZM621 565V625Q617 623 613 623Q603 619 590 619H575L588 605Q608 583 610 579L621 565Z"></path>
<path stroke-width="10" id="E1-MJAMS-44" d="M16 666Q16 675 28 683H193Q329 683 364 682T430 672Q534 650 600 585T686 423Q688 406 688 352Q688 274 673 226Q641 130 565 72T381 1Q368 -1 195 -1H28Q16 5 16 16Q16 35 53 35Q68 36 75 37T87 42T95 52Q98 61 98 341T95 630Q91 640 83 643T53 648Q16 648 16 666ZM237 646Q237 648 184 648H128Q128 647 133 632Q136 620 136 341Q136 64 133 50L128 35H237L230 48L226 61V343Q228 620 231 633Q232 636 237 646ZM264 61Q278 40 310 35Q363 35 401 55T461 112T496 193T513 295Q515 333 515 349Q515 411 504 459Q481 598 373 641Q351 648 321 648Q304 648 292 643T277 635T264 621V61ZM461 628Q462 627 471 616T489 594T509 559T529 509T544 441T550 352Q550 165 479 75L468 59Q474 61 484 65T522 87T573 128T618 195T650 290Q654 322 654 354Q654 418 638 464T581 552Q559 576 529 595T480 621L461 628Z"></path>
<path stroke-width="10" id="E1-MJAMS-45" d="M12 666Q12 675 24 683H582Q590 680 593 672V588Q593 514 591 502T575 490Q567 490 563 495T555 517Q552 556 517 590Q486 623 445 634T340 648H282Q266 636 264 620T260 492V370H277Q329 375 358 391T404 439Q420 480 420 506Q420 529 436 529Q445 529 451 521Q455 517 455 361Q455 333 455 298T456 253Q456 217 453 207T437 197Q420 196 420 217Q420 240 406 270Q377 328 284 335H260V201Q261 174 261 134Q262 73 264 61T278 38Q281 36 282 35H331Q400 35 449 50Q571 93 602 179Q605 203 622 203Q629 203 634 197T640 183Q638 181 624 95T604 3L600 -1H24Q12 5 12 16Q12 35 51 35Q92 38 97 52Q102 60 102 341T97 632Q91 645 51 648Q12 648 12 666ZM137 341Q137 131 136 89T130 37Q129 36 129 35H235Q233 41 231 48L226 61V623L231 635L235 648H129Q132 641 133 638T135 603T137 517T137 341ZM557 603V648H504Q504 646 515 639Q527 634 542 619L557 603ZM420 317V397L406 383Q394 370 380 363L366 355Q373 350 382 346Q400 333 409 328L420 317ZM582 61L586 88Q585 88 582 83Q557 61 526 46L511 37L542 35H577Q577 36 578 39T580 49T582 61Z"></path>
<path stroke-width="10" id="E1-MJAMS-46" d="M584 499Q569 490 566 490Q558 490 552 497T546 515Q546 535 533 559Q526 574 506 593T469 621Q415 648 326 648Q293 648 287 647T275 641Q264 630 263 617Q262 609 260 492V370L275 372Q323 376 350 392T393 441Q409 473 409 506Q409 529 427 529Q437 529 442 519Q444 511 444 362Q444 212 442 206Q436 197 426 197Q409 197 409 217Q409 265 375 299Q346 328 280 335H260V206Q260 70 262 63Q265 46 276 41T326 35Q362 35 366 28Q377 17 366 3L360 -1H24Q12 5 12 16Q12 35 51 35Q92 38 97 52Q102 60 102 341T97 632Q91 645 51 648Q12 648 12 666Q12 675 24 683H573Q576 678 584 670V499ZM137 341Q137 131 136 89T130 37Q129 36 129 35H182Q233 35 233 39Q226 54 225 92T224 346L226 623L231 635L235 648H129Q132 641 133 638T135 603T137 517T137 341ZM549 603V648H495L506 641Q531 621 533 619L549 603ZM409 317V395L400 386Q390 376 375 366L357 355L373 346Q394 331 397 328L409 317Z"></path>
<path stroke-width="10" id="E1-MJAMS-47" d="M737 285Q749 277 749 268Q749 260 744 255T730 250Q695 250 677 217Q666 195 666 119Q666 52 664 50Q656 36 555 3Q483 -16 415 -19Q364 -19 348 -17Q226 -3 146 70T44 261Q39 283 39 341T44 421Q66 538 143 611T341 699Q344 699 364 700T395 701Q449 698 503 677T585 655Q603 655 611 662T620 678T625 694T639 702Q650 702 657 690V481L653 474Q640 467 628 472Q624 476 618 496T595 541Q562 587 507 625T390 663H381Q337 663 299 625Q213 547 213 337Q213 75 341 23Q357 19 397 19Q440 19 462 22T492 30T513 45V119Q513 184 506 203Q491 237 435 250Q421 250 415 257Q404 267 415 281L421 285H737ZM250 43Q250 45 243 55T225 87T203 139T185 224T177 343V361Q184 533 250 625Q264 643 261 643Q238 635 214 620T161 579T110 510T79 414Q74 384 74 341T79 268Q106 117 230 52L250 43ZM621 565V625Q617 623 613 623Q603 619 590 619H575L588 605Q608 583 610 579L621 565ZM655 250H517L524 241Q548 213 548 149V114V39Q549 39 562 44T592 55T615 63L630 70V134Q632 190 634 204T648 237Q655 245 655 250Z"></path>
<path stroke-width="10" id="E1-MJAMS-48" d="M14 666Q14 675 26 683H344L351 679Q361 665 351 655Q344 648 317 648Q287 645 282 641Q270 637 269 623T266 497V370H511V497Q511 519 510 553Q509 615 507 626T496 641H495Q489 645 459 648Q420 648 420 665Q420 672 426 679L433 683H751Q762 676 762 666Q762 648 724 648Q684 645 677 632Q675 626 675 341Q675 57 677 52Q684 38 724 35Q762 35 762 16Q762 6 751 -1H433L426 3Q420 10 420 17Q420 35 459 35Q501 38 506 52Q511 64 511 190V323H266V190Q266 60 271 52Q276 38 317 35Q342 35 351 28Q360 17 351 3L344 -1H26Q14 5 14 16Q14 35 53 35Q94 38 99 52Q104 60 104 341T99 632Q93 645 53 648Q14 648 14 666ZM233 341V553Q233 635 239 648H131Q134 641 135 638T137 603T139 517T139 341Q139 131 138 89T132 37Q131 36 131 35H239Q233 47 233 129V341ZM639 341V489Q639 548 639 576T640 620T642 639T646 648H537L542 639Q546 625 546 341Q546 130 545 88T538 37Q537 36 537 35H646Q643 41 643 42T641 55T639 84T639 140V341Z"></path>
<path stroke-width="10" id="E1-MJAMS-49" d="M20 666Q20 676 31 683H358Q369 676 369 666Q369 648 331 648Q288 645 282 632Q278 626 278 341Q278 57 282 50Q286 42 295 40T331 35Q369 35 369 16Q369 6 358 -1H31Q20 4 20 16Q20 35 58 35Q84 37 93 39T107 50Q113 60 113 341Q113 623 107 632Q101 645 58 648Q20 648 20 666ZM249 35Q246 40 246 41T244 54T242 83T242 139V341Q242 632 244 639L249 648H140Q146 634 147 596T149 341Q149 124 148 86T140 35H249Z"></path>
<path stroke-width="10" id="E1-MJAMS-4A" d="M79 103Q108 103 129 83T151 38Q151 9 130 -15Q116 -34 130 -37Q133 -39 157 -39Q208 -39 219 -8L226 3V305Q226 612 224 621Q220 636 211 641T166 647Q137 647 128 654Q119 665 128 679L135 683H466Q478 677 478 666Q478 647 439 647Q399 644 393 632Q388 620 388 347Q386 69 384 59Q364 -6 316 -39T184 -77H172Q102 -77 56 -48T6 30Q6 62 26 82T79 103ZM353 354Q353 556 354 596T361 645Q362 646 362 647H253Q257 639 258 628T261 547T262 312V-4L255 -17Q248 -29 250 -29Q253 -29 258 -28T277 -20T302 -5T327 22T348 65Q350 74 353 354ZM115 36Q115 47 105 57T79 67Q73 67 67 66T52 56T44 34Q44 9 62 -8Q66 -11 71 -15T81 -22T86 -24L90 -13Q100 3 102 5Q115 22 115 36Z"></path>
<path stroke-width="10" id="E1-MJAMS-4B" d="M22 666Q22 676 33 683H351L358 679Q368 665 358 655Q351 648 324 648Q288 645 280 637Q275 631 274 605T273 477L275 343L382 446Q473 530 492 553T512 599Q512 617 502 631T475 648Q455 651 455 666Q455 677 465 680T510 683H593H720Q732 676 732 666Q732 659 727 654T713 648Q670 648 589 581Q567 562 490 489T413 415Q413 413 554 245T711 61Q737 35 751 35Q758 35 763 29T768 15Q768 6 758 -1H624Q491 -1 486 3Q480 10 480 17Q480 25 487 30T506 35Q518 36 520 38T520 48L400 195L302 310L286 297L273 283V170Q275 65 277 57Q280 41 300 38Q302 37 324 35Q349 35 358 28Q367 17 358 3L351 -1H33Q22 4 22 16Q22 35 60 35Q101 38 106 52Q111 60 111 341T106 632Q100 645 60 648Q22 648 22 666ZM240 341V553Q240 635 246 648H138Q141 641 142 638T144 603T146 517T146 341Q146 131 145 89T139 37Q138 36 138 35H246Q240 47 240 129V341ZM595 632L615 648H535L542 637Q542 636 544 625T549 610V595L562 606Q565 608 577 618T595 632ZM524 226L386 388Q386 389 378 382T358 361Q330 338 330 333Q330 332 330 332L331 330L533 90Q558 55 558 41V35H684L671 50Q667 54 524 226Z"></path>
<path stroke-width="10" id="E1-MJAMS-4C" d="M12 666Q12 675 24 683H333L340 679Q350 665 340 655Q333 648 309 648Q287 646 279 643T266 630Q264 623 264 346Q264 68 266 57Q274 40 284 35H340Q413 37 460 55Q514 78 553 117T602 197Q605 221 622 221Q629 221 634 215T640 201Q638 194 625 105T611 12Q611 6 600 -1H24Q12 5 12 16Q12 35 51 35Q92 38 97 52Q102 60 102 341T97 632Q91 645 51 648Q12 648 12 666ZM137 341Q137 131 136 89T130 37Q129 36 129 35H237Q235 41 233 48L229 61L226 339Q226 621 229 628Q230 630 231 636T233 643V648H129Q132 641 133 638T135 603T137 517T137 341ZM580 48Q580 59 583 74T586 97Q586 98 585 97T579 92T571 86Q549 64 513 43L500 35H577L580 48Z"></path>
<path stroke-width="10" id="E1-MJAMS-4D" d="M18 666Q18 677 27 680T73 683H146Q261 683 266 679L465 215Q469 215 566 443Q663 676 668 681Q673 683 790 683H908L915 679Q924 664 915 655Q912 648 897 648Q851 639 835 606L833 346Q833 86 835 79Q838 69 849 58T873 41Q877 40 887 38T901 35Q926 35 926 16Q926 6 915 -1H604L597 3Q588 19 597 28Q600 35 615 35Q660 42 673 68L679 79V339Q679 409 679 443T679 520T679 580T677 597Q646 521 584 375T473 117T424 3Q416 -1 410 -1T401 1Q399 3 273 301L148 599L146 343Q146 86 148 79Q152 69 163 58T186 41Q190 40 200 38T215 35Q226 35 235 28Q244 17 235 3L228 -1H28Q17 4 17 17Q17 35 39 35Q84 42 97 68L104 79V639L88 641Q72 644 53 648Q34 648 26 651T18 666ZM457 166Q451 169 449 171T435 198T404 268T344 412L244 648H157L166 637Q169 633 293 346L413 66Q424 88 435 117L457 166ZM817 646Q817 648 766 648H715V72L708 57Q701 45 697 41L695 37Q695 35 757 35H819L813 46Q802 61 800 76Q797 105 797 346L799 612L804 626Q812 638 815 641L817 646ZM124 42Q119 42 119 38Q119 35 128 35Q132 35 132 36Q125 42 124 42Z"></path>
</defs>
<g stroke="currentColor" fill="currentColor" stroke-width="0" transform="matrix(1 0 0 -1 0 0)">
 <use xlink:href="#E1-MJAMS-41" x="0" y="0"></use>
 <use xlink:href="#E1-MJAMS-42" x="727" y="0"></use>
 <use xlink:href="#E1-MJAMS-43" x="1399" y="0"></use>
 <use xlink:href="#E1-MJAMS-44" x="2126" y="0"></use>
 <use xlink:href="#E1-MJAMS-45" x="2853" y="0"></use>
 <use xlink:href="#E1-MJAMS-46" x="3525" y="0"></use>
 <use xlink:href="#E1-MJAMS-47" x="4141" y="0"></use>
 <use xlink:href="#E1-MJAMS-48" x="4924" y="0"></use>
 <use xlink:href="#E1-MJAMS-49" x="5707" y="0"></use>
 <use xlink:href="#E1-MJAMS-4A" x="6101" y="0"></use>
 <use xlink:href="#E1-MJAMS-4B" x="6606" y="0"></use>
 <use xlink:href="#E1-MJAMS-4C" x="7389" y="0"></use>
 <use xlink:href="#E1-MJAMS-4D" x="8061" y="0"></use>
</g>
</svg>