<?xml version="1.0" standalone="no"?>
<!DOCTYPE svg PUBLIC "-//W3C//DTD SVG 1.1//EN" "http://www.w3.org/Graphics/SVG/1.1/DTD/svg11.dtd">
<svg xmlns:xlink="http://www.w3.org/1999/xlink" width="4.682ex" height="2.509ex" style="vertical-align: -0.505ex;" viewBox="0 -863.1 2016 1080.4" xmlns="http://www.w3.org/2000/svg">
<defs>
<path stroke-width="10" id="E1-MJAMS-25CA" d="M318 709Q325 716 332 716Q340 716 344 713T474 511Q611 298 611 292Q611 285 526 152Q494 103 474 72Q347 -128 344 -130Q340 -132 333 -132T322 -130Q319 -128 257 -31T131 169T60 278Q56 285 56 292Q56 298 60 305Q73 326 194 516T318 709ZM567 290T567 291T451 475T333 658L100 293Q100 288 215 108L333 -74Q334 -74 450 108Z"></path>
<path stroke-width="10" id="E1-MJAMS-29EB" d="M318 709Q325 716 332 716Q340 716 344 713T474 511Q611 298 611 292Q611 285 526 152Q494 103 474 72Q347 -128 344 -130Q340 -132 333 -132T322 -130Q319 -128 257 -31T131 169T60 278Q56 285 56 292Q56 298 60 305Q73 326 194 516T318 709Z"></path>
</defs>
<g stroke="currentColor" fill="currentColor" stroke-width="0" transform="matrix(1 0 0 -1 0 0)">
 <use xlink:href="#E1-MJAMS-25CA" x="0" y="0"></use>
 <use xlink:href="#E1-MJAMS-25CA" x="672" y="0"></use>
 <use xlink:href="#E1-MJAMS-29EB" x="1344" y="0"></use>
</g>
</svg>