<?xml version="1.0" standalone="no"?>
<!DOCTYPE svg PUBLIC "-//W3C//DTD SVG 1.1//EN" "http://www.w3.org/Graphics/SVG/1.1/DTD/svg11.dtd">
<svg xmlns:xlink="http://www.w3.org/1999/xlink" width="21.958ex" height="2.509ex" style="vertical-align: -0.671ex;" viewBox="0 -791.3 9454 1080.4" xmlns="http://www.w3.org/2000/svg">
<defs>
<path stroke-width="10" id="E1-MJAMS-4E" d="M20 664Q20 666 31 683H142Q256 683 258 681Q259 680 279 653T342 572T422 468L582 259V425Q582 451 582 490T583 541Q583 611 573 628T522 648Q500 648 493 654Q484 665 493 679L500 683H691Q702 676 702 666Q702 657 698 652Q688 648 680 648Q633 648 627 612Q624 601 624 294V-8Q616 -20 607 -20Q601 -20 596 -15Q593 -13 371 270L156 548L153 319Q153 284 153 234T152 167Q152 103 156 78T172 44T213 34Q236 34 242 28Q253 17 242 3L236 -1H36Q24 6 24 16Q24 34 56 34Q58 35 69 36T86 40T100 50T109 72Q111 83 111 345V603L96 619Q72 643 44 648Q20 648 20 664ZM413 419L240 648H120L136 628Q137 626 361 341T587 54L589 68Q589 78 589 121V192L413 419Z"></path>
<path stroke-width="10" id="E1-MJAMS-4F" d="M131 601Q180 652 249 676T387 701Q485 701 562 661Q628 629 671 575T731 448Q742 410 742 341T731 234Q707 140 646 81Q549 -19 389 -19Q228 -19 131 81Q57 155 37 274Q34 292 34 341Q34 392 37 410Q58 528 131 601ZM568 341Q568 613 437 659Q406 664 395 665Q329 665 286 625Q232 571 213 439Q210 408 210 341Q210 275 213 245Q232 111 286 57Q309 37 342 23Q357 19 389 19Q420 19 437 23Q469 38 491 57Q568 132 568 341ZM174 341Q174 403 177 441T197 535T249 639Q246 639 224 627T193 608Q189 606 183 601T169 589T155 577Q69 488 69 344Q69 133 231 52Q244 45 246 45Q248 45 246 48Q231 69 222 85T200 141T177 239Q174 269 174 341ZM708 341Q708 415 684 475T635 563T582 610Q578 612 565 619T546 630Q533 637 531 637Q530 637 530 636V635L531 634Q562 591 577 543Q602 471 602 341V316Q602 264 599 230T580 144T531 48L530 47V46Q530 45 531 45Q533 45 547 52T583 75T622 105Q708 195 708 341Z"></path>
<path stroke-width="10" id="E1-MJAMS-50" d="M16 666Q16 675 28 683H195Q334 683 370 682T437 672Q511 657 554 611T597 495Q597 343 404 309Q402 308 401 308Q381 303 319 303H261V181Q261 157 262 120Q262 60 267 50T304 36Q310 35 313 35Q352 35 352 17Q352 10 346 3L339 -1H28Q16 5 16 16Q16 35 53 35Q68 36 75 37T87 42T95 52Q98 61 98 341T95 630Q91 640 83 643T53 648Q16 648 16 666ZM235 35Q228 46 227 84Q226 129 226 337V621L230 635L237 648H128Q128 647 133 632Q136 620 136 341Q136 64 133 50L128 35H235ZM301 341H313Q339 341 354 344T389 362T417 410T426 498Q426 586 401 616T322 647Q301 647 293 643Q271 637 264 621Q261 617 261 479V341H301ZM429 350Q431 350 443 353T476 367T515 391T548 432T562 490Q562 550 524 592Q507 607 484 619Q481 621 448 635L433 639L439 621Q462 578 462 506Q462 448 454 413T437 366T428 350H429Z"></path>
<path stroke-width="10" id="E1-MJAMS-51" d="M480 -10Q480 -13 486 -24T507 -50T541 -80T588 -104T648 -114Q666 -114 688 -110T714 -106Q724 -106 728 -114T729 -130Q723 -145 663 -163T548 -181Q503 -181 463 -169T395 -139T343 -97T307 -56T284 -19L280 -3L262 1Q188 24 131 81Q57 155 37 275Q34 292 34 342T37 410Q58 528 131 601Q179 652 248 676T388 701Q485 701 562 661Q698 595 731 448Q742 410 742 341T731 235Q707 141 646 81Q616 50 575 27T493 -5L480 -10ZM568 342Q568 613 437 659L395 666Q329 666 286 626Q232 570 213 439Q210 408 210 342T213 246Q231 113 286 57Q309 37 342 23Q357 19 389 19Q420 19 437 23Q469 38 491 57Q568 134 568 342ZM174 341V354Q174 393 175 419T183 484T205 561T246 635L249 639Q246 639 224 627T193 608Q189 606 183 601T169 589T155 577Q69 491 69 344Q69 133 231 52Q247 42 247 46Q247 46 246 48Q231 69 222 85T200 141T177 239Q174 269 174 341ZM708 341Q708 410 689 467T640 556T588 606T546 630Q532 638 531 638Q530 638 531 635Q563 590 577 543Q602 472 602 341V316Q602 264 599 230T580 144T531 48Q529 44 532 45T546 52Q575 68 596 84T642 128T683 200T706 299Q708 327 708 341ZM391 -17H333Q329 -15 326 -15Q324 -15 324 -17Q324 -21 362 -68Q424 -130 506 -143Q518 -144 544 -144Q569 -144 577 -143L589 -141L575 -139Q544 -127 509 -101T453 -37L442 -19L391 -17Z"></path>
<path stroke-width="10" id="E1-MJAMS-52" d="M17 665Q17 672 28 683H221Q415 681 439 677Q461 673 481 667T516 654T544 639T566 623T584 607T597 592T607 578T614 565T618 554L621 548Q626 530 626 497Q626 447 613 419Q578 348 473 326L455 321Q462 310 473 292T517 226T578 141T637 72T686 35Q705 30 705 16Q705 7 693 -1H510Q503 6 404 159L306 310H268V183Q270 67 271 59Q274 42 291 38Q295 37 319 35Q344 35 353 28Q362 17 353 3L346 -1H28Q16 5 16 16Q16 35 55 35Q96 38 101 52Q106 60 106 341T101 632Q95 645 55 648Q17 648 17 665ZM241 35Q238 42 237 45T235 78T233 163T233 337V621L237 635L244 648H133Q136 641 137 638T139 603T141 517T141 341Q141 131 140 89T134 37Q133 36 133 35H241ZM457 496Q457 540 449 570T425 615T400 634T377 643Q374 643 339 648Q300 648 281 635Q271 628 270 610T268 481V346H284Q327 346 375 352Q421 364 439 392T457 496ZM492 537T492 496T488 427T478 389T469 371T464 361Q464 360 465 360Q469 360 497 370Q593 400 593 495Q593 592 477 630L457 637L461 626Q474 611 488 561Q492 537 492 496ZM464 243Q411 317 410 317Q404 317 401 315Q384 315 370 312H346L526 35H619L606 50Q553 109 464 243Z"></path>
<path stroke-width="10" id="E1-MJAMS-53" d="M54 238Q72 238 72 212Q72 174 106 121Q113 110 132 90T166 59Q221 23 264 23Q315 23 348 41Q368 50 384 79Q393 102 393 129Q393 181 356 219T221 299Q120 343 74 390T28 501Q28 561 55 610Q98 682 212 699Q214 699 231 700T261 701Q309 698 340 687T408 675Q431 678 445 690T465 702Q474 702 481 690V497L477 490Q464 481 450 490Q446 500 446 501Q446 546 386 606T260 666Q215 666 182 639T148 565Q148 528 186 496T319 428Q352 414 370 405T418 379T468 338T506 284Q528 239 528 191Q528 102 456 46T266 -10Q211 -10 176 2T110 15Q86 9 73 -1T53 -12Q44 -12 37 -1V112V182Q37 214 40 226T54 238ZM446 619Q446 648 444 648Q439 646 435 644Q425 644 415 639H404L417 624Q435 606 439 601L446 592V619ZM124 619L128 635Q126 635 108 617Q64 576 64 502Q64 489 65 479T76 449T102 414T150 376T228 335Q335 291 381 245T427 128Q427 94 419 75L415 61Q421 61 448 88Q490 127 490 190Q490 233 475 264Q456 299 430 321Q402 349 369 367T287 404T204 441Q138 481 119 526Q113 544 113 565Q113 596 124 619ZM75 43Q76 43 90 46T110 50H119L106 64L74 101Q72 101 72 72T75 43Z"></path>
<path stroke-width="10" id="E1-MJAMS-54" d="M33 672Q36 680 44 683H624Q632 680 635 672V490L631 483Q621 479 617 479Q611 479 606 485T600 499Q600 525 584 552Q577 567 558 588T524 617Q479 642 426 646L415 648V355Q415 62 422 52Q425 42 434 40T473 35Q500 35 509 28Q518 17 509 3L502 -1H166L160 3Q149 17 160 28Q167 35 195 35Q224 37 234 39T249 52Q253 66 253 355V648L242 646Q192 642 144 617Q129 609 110 588T84 552Q69 527 69 499Q69 490 64 484T50 478Q39 478 33 490V672ZM113 639L126 648H69V597L84 612Q93 623 113 639ZM389 35Q382 46 381 86Q380 134 380 350V648H289V350Q289 199 288 131T286 53T280 35H389ZM600 597V648H542L555 639Q575 623 584 612L600 597Z"></path>
<path stroke-width="10" id="E1-MJAMS-55" d="M16 666Q16 677 28 683H341L348 679Q359 665 348 654Q342 648 315 648Q270 644 266 632Q262 627 262 598T261 399Q261 372 261 325T260 260Q260 149 274 99T339 30Q355 25 393 25Q430 25 457 33T494 49T519 72Q562 115 575 205Q576 219 576 379Q576 538 575 550Q568 597 550 622T506 648Q498 648 493 654T487 667T499 683H697Q709 675 709 667T704 654T690 648Q653 648 633 597Q624 573 622 546T619 377Q617 193 613 174Q596 95 544 41Q477 -19 355 -19H344Q275 -16 226 5T153 57T120 110T106 154Q101 172 99 399Q99 618 95 632Q88 644 53 648Q16 648 16 666ZM228 639L233 648H128Q128 647 133 632Q135 621 135 412Q135 197 137 185Q148 115 181 79Q209 51 235 41Q242 36 258 31T277 25Q276 27 268 38T254 59T241 92T228 145Q226 161 226 399Q226 632 228 639ZM604 621Q606 626 619 648H577L586 634Q587 632 591 625T595 614L597 608L604 621Z"></path>
<path stroke-width="10" id="E1-MJAMS-56" d="M316 683Q327 676 327 666Q327 648 302 648Q272 642 258 628Q249 621 249 608Q252 589 263 556T289 485T322 406T357 325T388 256T411 205L420 185Q423 185 473 317Q547 497 547 590Q547 621 541 632T516 648Q501 648 498 654Q488 664 498 679L504 683H607H660Q695 683 707 680T719 667Q719 660 714 654T700 648Q678 648 658 628L642 614L513 301Q484 231 449 148T397 25T380 -15Q373 -20 368 -20Q361 -20 358 -15Q354 -13 287 135T149 438T67 610Q45 648 18 648Q11 648 6 653T0 666Q0 677 9 680T59 683H164H316ZM216 614Q216 620 216 622T216 628T216 633T217 635T218 638T219 640T221 644T224 648H84L96 632Q118 592 236 330L367 43L387 88L404 132L380 185Q250 468 222 568Q216 590 216 614ZM576 645Q584 628 584 597L587 568L598 597Q609 624 618 637L624 648H600Q576 648 576 645Z"></path>
<path stroke-width="10" id="E1-MJAMS-57" d="M785 664Q785 670 795 683H982Q994 675 994 665Q994 650 975 648Q953 643 939 619Q931 593 823 292T710 -15Q706 -19 699 -19T688 -15Q682 -6 639 107T555 328T513 437Q513 438 500 409T462 325T413 212Q315 -14 310 -17Q308 -19 302 -19T288 -15L57 619Q45 643 24 648Q5 650 5 665Q5 677 17 683H146H200Q256 683 270 681T285 666Q285 659 280 654T268 648Q253 648 239 634Q230 630 230 619Q230 598 264 481L362 192Q363 193 428 341T493 492Q493 496 473 546T446 608Q426 648 399 648Q392 648 387 653T382 667Q382 678 393 683H679Q690 670 690 665Q690 662 685 655T673 648Q653 648 633 632L622 625V610Q626 576 657 479T719 300T751 218Q754 218 779 294Q847 492 847 581Q847 648 802 648Q796 648 791 652T785 664ZM194 623Q194 630 199 648H82L90 632Q99 616 199 332L302 50Q303 50 322 94T342 141Q342 142 305 245T231 467T194 623ZM585 620Q585 634 593 648H530Q466 648 466 645Q479 632 595 323L699 54Q701 56 718 103T735 154L702 245Q585 562 585 620ZM884 572L890 587Q896 602 903 620T915 645Q915 648 893 648H868L875 634Q883 598 883 576Q883 572 884 572Z"></path>
<path stroke-width="10" id="E1-MJAMS-58" d="M22 666Q22 677 31 680T80 683H184H335Q346 675 346 667Q346 660 341 655Q335 648 315 648Q280 644 273 637Q273 630 300 583T356 492T386 448Q430 504 450 535T474 577T478 601Q478 620 469 634T444 648Q428 648 428 666Q428 678 436 680T488 683H559H630Q673 683 681 681T690 666Q690 648 673 648Q652 648 619 637Q571 615 517 550Q490 517 450 464T410 408Q415 399 501 273T617 106Q648 61 661 48T688 35Q705 35 705 16Q705 5 695 -1H539Q384 -1 379 3Q373 10 373 17Q373 27 380 31T408 35Q459 40 459 49Q459 59 418 129T335 259Q334 260 332 260Q328 260 273 197Q210 127 208 117Q199 104 199 82Q199 57 213 46T239 35Q247 35 252 29T257 15Q257 10 256 7T253 3T248 0L246 -1H28Q16 7 16 15T21 29T35 35Q61 35 117 88Q289 279 304 297Q307 303 255 377Q117 586 79 626Q60 648 39 648Q32 648 27 653T22 666ZM237 639V648H173Q113 647 113 646Q113 642 137 612Q186 546 302 373T453 139Q497 63 497 43Q497 39 495 35H559Q622 35 622 37Q622 38 583 94T486 233T373 399T277 552T237 639ZM553 637L566 648H504L508 637Q510 630 515 615V603L528 615Q529 616 539 625T553 637ZM170 46Q169 49 167 58T164 70V83L137 59L113 35H175Q175 38 170 46Z"></path>
<path stroke-width="10" id="E1-MJAMS-59" d="M16 659T16 667T28 683H295Q306 676 306 666Q306 648 284 648Q258 648 255 641Q255 634 265 615T339 479Q418 339 421 339L455 394Q489 448 523 502L557 557Q560 566 560 582Q560 637 504 648Q489 648 486 655Q475 664 486 679L493 683H693Q704 675 704 667Q704 650 684 648Q672 645 653 623Q633 604 614 576T517 426L439 301V183Q442 62 444 59Q449 35 504 35Q521 35 528 30Q538 16 528 3L521 -1H195L188 3Q178 16 188 30Q195 35 213 35Q266 35 273 59Q274 61 277 163V261L75 621Q64 638 58 643T37 648Q28 648 22 653ZM219 637V648H101Q110 634 215 446L313 270V166Q310 59 306 48L301 35H415L410 48Q404 65 404 175V290L317 443Q230 601 226 612Q219 625 219 637ZM608 630L624 648H575Q584 632 588 623L595 610L608 630Z"></path>
<path stroke-width="10" id="E1-MJAMS-5A" d="M39 -1Q29 9 29 12Q29 23 60 77T219 337L410 648H364Q261 648 210 628Q168 612 142 588T109 545T97 509T88 490Q85 489 80 489Q72 489 61 503L70 588Q72 607 75 628T79 662T81 675Q84 677 88 681Q90 683 341 683H592Q604 673 604 666Q604 662 412 348L221 37Q221 35 301 35Q406 35 446 48Q504 68 543 111T597 212Q602 239 617 239Q624 239 629 234T635 223Q635 215 621 113T604 8L597 1Q595 -1 317 -1H39ZM148 637L166 648H112V632Q111 629 110 622T108 612Q108 608 110 608T116 612T129 623T148 637ZM552 646Q552 648 504 648Q452 648 450 643Q448 639 266 343T77 37Q77 35 128 35H179L366 339L552 646ZM572 35Q581 89 581 97L561 77Q542 59 526 48L508 37L539 35H572Z"></path>
</defs>
<g stroke="currentColor" fill="currentColor" stroke-width="0" transform="matrix(1 0 0 -1 0 0)">
 <use xlink:href="#E1-MJAMS-4E" x="0" y="0"></use>
 <use xlink:href="#E1-MJAMS-4F" x="727" y="0"></use>
 <use xlink:href="#E1-MJAMS-50" x="1510" y="0"></use>
 <use xlink:href="#E1-MJAMS-51" x="2126" y="0"></use>
 <use xlink:href="#E1-MJAMS-52" x="2909" y="0"></use>
 <use xlink:href="#E1-MJAMS-53" x="3636" y="0"></use>
 <use xlink:href="#E1-MJAMS-54" x="4197" y="0"></use>
 <use xlink:href="#E1-MJAMS-55" x="4869" y="0"></use>
 <use xlink:href="#E1-MJAMS-56" x="5596" y="0"></use>
 <use xlink:href="#E1-MJAMS-57" x="6323" y="0"></use>
 <use xlink:href="#E1-MJAMS-58" x="7328" y="0"></use>
 <use xlink:href="#E1-MJAMS-59" x="8055" y="0"></use>
 <use xlink:href="#E1-MJAMS-5A" x="8782" y="0"></use>
</g>
</svg>