<?xml version="1.0" standalone="no"?>
<!DOCTYPE svg PUBLIC "-//W3C//DTD SVG 1.1//EN" "http://www.w3.org/Graphics/SVG/1.1/DTD/svg11.dtd">
<svg xmlns:xlink="http://www.w3.org/1999/xlink" width="4.487ex" height="2.176ex" style="vertical-align: -0.338ex;" viewBox="0 -791.3 1932 936.9" xmlns="http://www.w3.org/2000/svg">
<defs>
<path stroke-width="10" id="E1-MJAMS-2132" d="M457 681Q471 695 477 695Q485 695 497 681V12L484 -1H68Q55 14 55 19T68 39H457V328H215L211 335Q198 346 211 359L217 368H457V681Z"></path>
<path stroke-width="10" id="E1-MJAMS-2141" d="M239 665Q194 665 154 653T90 629T66 617Q59 617 53 623T46 637Q46 652 66 659Q129 695 197 701Q218 705 248 705Q293 705 335 693Q371 684 435 644Q543 562 573 417Q577 393 577 341Q577 290 573 266Q531 83 384 10Q346 -9 315 -16T234 -23H206Q202 -23 183 -23T152 -21T120 -18T88 -10T63 3T44 24L37 35V297L50 310H235Q248 297 248 290Q248 285 235 270H77V103Q77 88 77 80T77 63T78 50T80 43T82 38T85 35T89 32T95 30Q126 20 206 17Q289 17 330 30Q407 55 460 120T533 275Q538 305 538 342Q538 486 452 575T239 665Z"></path>
<path stroke-width="10" id="E1-MJAMS-2127" d="M126 584Q119 584 110 539T97 493Q95 490 73 490Q44 490 44 501Q44 515 62 590Q75 672 82 679Q84 684 177 684Q193 684 214 684T241 685Q265 685 271 682T277 664V648Q271 572 229 434T186 231Q186 173 203 132T247 70T302 42T360 33Q391 33 419 42T474 72T517 133T533 231Q533 297 491 437T442 648Q442 675 446 679Q448 684 542 684Q635 684 637 681Q640 678 657 594T675 501Q675 490 646 490Q624 490 622 493Q620 493 609 538T593 584Q591 585 585 585T569 586T551 588H513Q514 586 518 573T538 531T582 453Q647 340 660 277Q663 259 663 232Q663 194 657 177Q652 151 629 112T560 39Q495 -5 424 -19Q403 -22 360 -22Q318 -22 297 -19Q239 -8 193 18T120 74T80 131T62 177Q56 194 56 229Q56 281 74 328T137 453Q160 491 174 518T193 555T201 575T206 588H168Q160 587 150 587T134 586T126 584Z"></path>
</defs>
<g stroke="currentColor" fill="currentColor" stroke-width="0" transform="matrix(1 0 0 -1 0 0)">
 <use xlink:href="#E1-MJAMS-2132" x="0" y="0"></use>
 <use xlink:href="#E1-MJAMS-2141" x="561" y="0"></use>
 <use xlink:href="#E1-MJAMS-2127" x="1205" y="0"></use>
</g>
</svg>