<?xml version="1.0" standalone="no"?>
<!DOCTYPE svg PUBLIC "-//W3C//DTD SVG 1.1//EN" "http://www.w3.org/Graphics/SVG/1.1/DTD/svg11.dtd">
<svg xmlns:xlink="http://www.w3.org/1999/xlink" width="5.713ex" height="2.176ex" style="vertical-align: -0.671ex;" viewBox="0 -647.8 2459.7 936.9" xmlns="http://www.w3.org/2000/svg">
<defs>
<path stroke-width="10" id="E1-MJAMS-21CC" d="M755 512Q755 514 778 514H801L804 503Q805 501 812 486T824 462T839 437T862 408T892 381T932 354L944 347V327H507Q70 327 67 329Q55 335 55 347T67 365Q70 367 454 367H837L828 376Q803 403 785 437T761 489T755 512ZM55 153V173H492Q928 173 932 171Q944 166 944 153T932 135Q928 133 545 133H162L171 124Q198 95 216 61T239 8L244 -12Q244 -14 221 -14H198L195 -4Q160 95 67 146L55 153Z"></path>
<path stroke-width="10" id="E1-MJMAIN-2C" d="M78 35T78 60T94 103T137 121Q165 121 187 96T210 8Q210 -27 201 -60T180 -117T154 -158T130 -185T117 -194Q113 -194 104 -185T95 -172Q95 -168 106 -156T131 -126T157 -76T173 -3V9L172 8Q170 7 167 6T161 3T152 1T140 0Q113 0 96 17Z"></path>
<path stroke-width="10" id="E1-MJAMS-21CB" d="M195 504L198 514H221Q244 514 244 512Q244 508 239 490T215 437T171 376L162 367H545Q928 367 932 365Q944 360 944 347T932 329Q928 327 492 327H55V347L67 354Q113 379 146 420T195 504ZM67 171Q70 173 507 173H944V153L932 146Q839 95 804 -4L801 -14H778Q755 -14 755 -12Q768 59 828 124L837 133H454Q71 133 67 135Q55 140 55 153Q55 165 67 171Z"></path>
</defs>
<g stroke="currentColor" fill="currentColor" stroke-width="0" transform="matrix(1 0 0 -1 0 0)">
 <use xlink:href="#E1-MJAMS-21CC" x="0" y="0"></use>
 <use xlink:href="#E1-MJMAIN-2C" x="1005" y="0"></use>
 <use xlink:href="#E1-MJAMS-21CB" x="1454" y="0"></use>
</g>
</svg>