<?xml version="1.0" standalone="no"?>
<!DOCTYPE svg PUBLIC "-//W3C//DTD SVG 1.1//EN" "http://www.w3.org/Graphics/SVG/1.1/DTD/svg11.dtd">
<svg xmlns:xlink="http://www.w3.org/1999/xlink" width="6.771ex" height="2.343ex" style="vertical-align: -0.671ex;" viewBox="0 -719.6 2915.3 1008.6" xmlns="http://www.w3.org/2000/svg">
<defs>
<path stroke-width="10" id="E1-MJMAIN-228E" d="M591 598H592Q604 598 611 583V376Q611 345 611 296Q610 162 606 148Q605 146 605 145Q586 68 507 23T333 -22Q268 -22 209 -1T106 66T56 173Q55 180 55 384L56 585Q66 598 75 598Q85 598 95 585V378L96 172L98 162Q112 95 181 57T332 18Q415 18 487 58T570 175Q571 180 571 383V583Q579 598 591 598ZM313 406Q313 417 313 435T312 459Q312 483 316 493T333 503T349 494T353 461V406V325H515Q516 325 519 323T527 316T531 305T527 294T520 287T515 285H353V204V152Q353 127 350 117T333 107T316 117T312 152Q312 158 312 175T313 204V285H151Q150 285 147 287T139 294T135 305T139 316T146 323T151 325H313V406Z"></path>
<path stroke-width="10" id="E1-MJMAIN-2C" d="M78 35T78 60T94 103T137 121Q165 121 187 96T210 8Q210 -27 201 -60T180 -117T154 -158T130 -185T117 -194Q113 -194 104 -185T95 -172Q95 -168 106 -156T131 -126T157 -76T173 -3V9L172 8Q170 7 167 6T161 3T152 1T140 0Q113 0 96 17Z"></path>
<path stroke-width="10" id="E1-MJMAIN-2294" d="M77 0Q65 4 61 16V301L62 585Q72 598 81 598Q94 598 101 583V40H565V583Q573 598 585 598Q598 598 605 583V15Q602 10 592 1L335 0H77Z"></path>
<path stroke-width="10" id="E1-MJMAIN-2293" d="M83 0Q79 0 76 1T71 3T67 6T65 9T63 13T61 16V301L62 585Q70 595 76 598H592Q602 590 605 583V15Q598 2 587 0Q583 0 580 1T575 3T571 6T569 9T567 13T565 16V558H101V15Q94 2 83 0Z"></path>
</defs>
<g stroke="currentColor" fill="currentColor" stroke-width="0" transform="matrix(1 0 0 -1 0 0)">
 <use xlink:href="#E1-MJMAIN-228E" x="0" y="0"></use>
 <use xlink:href="#E1-MJMAIN-2C" x="672" y="0"></use>
 <use xlink:href="#E1-MJMAIN-2294" x="1121" y="0"></use>
 <use xlink:href="#E1-MJMAIN-2C" x="1793" y="0"></use>
 <use xlink:href="#E1-MJMAIN-2293" x="2243" y="0"></use>
</g>
</svg>