<?xml version="1.0" standalone="no"?>
<!DOCTYPE svg PUBLIC "-//W3C//DTD SVG 1.1//EN" "http://www.w3.org/Graphics/SVG/1.1/DTD/svg11.dtd">
<svg xmlns:xlink="http://www.w3.org/1999/xlink" width="4.022ex" height="2.509ex" style="vertical-align: -0.671ex; margin-left: -0.116ex;" viewBox="-50 -791.3 1731.7 1080.4" xmlns="http://www.w3.org/2000/svg">
<defs>
<path stroke-width="10" id="E1-MJAMS-22AC" d="M56 681Q70 695 76 695T96 681V368H243L381 530Q521 692 525 692Q537 700 547 688Q554 682 554 674Q554 671 553 669T548 661T539 649T522 631T499 604T465 565T421 512Q296 373 296 368H416H476Q525 368 539 365T554 348Q554 334 543 328H261L96 141V12Q81 -1 75 -1Q65 -1 58 10L56 50V92L18 48Q7 37 -1 28T-13 14T-19 6T-23 1T-27 0T-33 -1Q-42 -1 -48 4T-55 19Q-55 24 -47 34T12 103L56 155V681ZM205 326Q205 328 152 328H96V263Q96 203 98 203Q99 203 123 231T174 290T205 326Z"></path>
<path stroke-width="10" id="E1-MJMAIN-2C" d="M78 35T78 60T94 103T137 121Q165 121 187 96T210 8Q210 -27 201 -60T180 -117T154 -158T130 -185T117 -194Q113 -194 104 -185T95 -172Q95 -168 106 -156T131 -126T157 -76T173 -3V9L172 8Q170 7 167 6T161 3T152 1T140 0Q113 0 96 17Z"></path>
<path stroke-width="10" id="E1-MJAMS-22AD" d="M56 681Q70 695 76 695T96 681V466H327L425 579Q522 692 527 692Q529 693 534 693Q542 693 547 688T553 674Q553 668 549 663Q549 662 538 650T504 611T463 563L381 468L461 466H543Q554 453 554 446T541 426H345L209 272L376 270H543Q554 257 554 251T541 230H174L96 141V12Q81 -1 75 -1Q65 -1 58 10L56 50V92L18 48Q7 37 -1 28T-13 14T-19 6T-23 1T-27 0T-33 -1Q-42 -1 -48 4T-55 19Q-55 24 -47 34T12 103L56 155V681ZM267 399L292 426H96V270H158L201 321Q256 382 267 399ZM118 228L119 229Q119 230 109 230H96V201L107 212Q118 227 118 228Z"></path>
</defs>
<g stroke="currentColor" fill="currentColor" stroke-width="0" transform="matrix(1 0 0 -1 0 0)">
 <use xlink:href="#E1-MJAMS-22AC" x="0" y="0"></use>
 <use xlink:href="#E1-MJMAIN-2C" x="616" y="0"></use>
 <use xlink:href="#E1-MJAMS-22AD" x="1065" y="0"></use>
</g>
</svg>