<?xml version="1.0" standalone="no"?>
<!DOCTYPE svg PUBLIC "-//W3C//DTD SVG 1.1//EN" "http://www.w3.org/Graphics/SVG/1.1/DTD/svg11.dtd">
<svg xmlns:xlink="http://www.w3.org/1999/xlink" width="9.376ex" height="2.343ex" style="vertical-align: -0.671ex;" viewBox="0 -719.6 4037 1008.6" xmlns="http://www.w3.org/2000/svg">
<defs>
<path stroke-width="10" id="E1-MJAMS-22D3" d="M591 598H592Q604 598 611 583V376Q611 345 611 296Q610 162 606 148Q605 146 605 145Q586 68 507 23T333 -22Q268 -22 209 -1T106 66T56 173Q55 180 55 384L56 585Q66 598 75 598Q85 598 95 585V378L96 172L98 162Q112 95 181 57T332 18Q415 18 487 58T570 175Q571 180 571 383V583Q579 598 591 598ZM437 598Q450 598 457 583V410Q457 237 455 229Q448 189 414 161T333 132Q291 132 255 157T211 230Q209 237 209 412L210 585Q220 598 229 598Q242 598 249 583V412Q249 273 249 251T255 218Q279 173 333 173T411 218Q416 229 416 251T417 412V583Q425 598 437 598Z"></path>
<path stroke-width="10" id="E1-MJMAIN-2C" d="M78 35T78 60T94 103T137 121Q165 121 187 96T210 8Q210 -27 201 -60T180 -117T154 -158T130 -185T117 -194Q113 -194 104 -185T95 -172Q95 -168 106 -156T131 -126T157 -76T173 -3V9L172 8Q170 7 167 6T161 3T152 1T140 0Q113 0 96 17Z"></path>
<path stroke-width="10" id="E1-MJAMS-22D2" d="M88 -21T75 -21T55 -7V200Q55 231 55 280Q56 414 60 428Q61 430 61 431Q77 500 152 549T332 598Q443 598 522 544T610 405Q611 399 611 194V-7Q604 -22 591 -22Q582 -22 572 -9L570 405Q563 433 556 449T529 485Q498 519 445 538T334 558Q251 558 179 518T96 401Q95 396 95 193V-7Q88 -21 75 -21ZM229 -21H227Q215 -21 209 -7V166Q209 304 209 327T215 363Q226 398 259 421T333 444Q380 444 414 416T455 347Q457 339 457 166V-7Q449 -21 439 -21H437H435Q423 -21 417 -7V164Q417 303 417 325T411 358Q387 403 333 403T255 358Q250 347 250 325T249 164V-7Q241 -21 231 -21H229Z"></path>
</defs>
<g stroke="currentColor" fill="currentColor" stroke-width="0" transform="matrix(1 0 0 -1 0 0)">
 <use xlink:href="#E1-MJAMS-22D3" x="0" y="0"></use>
 <use xlink:href="#E1-MJMAIN-2C" x="672" y="0"></use>
 <use xlink:href="#E1-MJAMS-22D3" x="1121" y="0"></use>
 <use xlink:href="#E1-MJMAIN-2C" x="1793" y="0"></use>
 <use xlink:href="#E1-MJAMS-22D2" x="2243" y="0"></use>
 <use xlink:href="#E1-MJMAIN-2C" x="2915" y="0"></use>
 <use xlink:href="#E1-MJAMS-22D2" x="3365" y="0"></use>
</g>
</svg>