<?xml version="1.0" standalone="no"?>
<!DOCTYPE svg PUBLIC "-//W3C//DTD SVG 1.1//EN" "http://www.w3.org/Graphics/SVG/1.1/DTD/svg11.dtd">
<svg xmlns:xlink="http://www.w3.org/1999/xlink" width="11.439ex" height="2.343ex" style="vertical-align: -0.671ex;" viewBox="0 -719.6 4925 1008.6" xmlns="http://www.w3.org/2000/svg">
<defs>
<path stroke-width="10" id="E1-MJMAIN-3C" d="M694 -11T694 -19T688 -33T678 -40Q671 -40 524 29T234 166L90 235Q83 240 83 250Q83 261 91 266Q664 540 678 540Q681 540 687 534T694 519T687 505Q686 504 417 376L151 250L417 124Q686 -4 687 -5Q694 -11 694 -19Z"></path>
<path stroke-width="10" id="E1-MJMAIN-2C" d="M78 35T78 60T94 103T137 121Q165 121 187 96T210 8Q210 -27 201 -60T180 -117T154 -158T130 -185T117 -194Q113 -194 104 -185T95 -172Q95 -168 106 -156T131 -126T157 -76T173 -3V9L172 8Q170 7 167 6T161 3T152 1T140 0Q113 0 96 17Z"></path>
<path stroke-width="10" id="E1-MJMAIN-3E" d="M84 520Q84 528 88 533T96 539L99 540Q106 540 253 471T544 334L687 265Q694 260 694 250T687 235Q685 233 395 96L107 -40H101Q83 -38 83 -20Q83 -19 83 -17Q82 -10 98 -1Q117 9 248 71Q326 108 378 132L626 250L378 368Q90 504 86 509Q84 513 84 520Z"></path>
<path stroke-width="10" id="E1-MJMAIN-226A" d="M639 -48Q639 -54 634 -60T619 -67H618Q612 -67 536 -26Q430 33 329 88Q61 235 59 239Q56 243 56 250T59 261Q62 266 336 415T615 567L619 568Q622 567 625 567Q639 562 639 548Q639 540 633 534Q632 532 374 391L117 250L374 109Q632 -32 633 -34Q639 -40 639 -48ZM944 -48Q944 -54 939 -60T924 -67H923Q917 -67 841 -26Q735 33 634 88Q366 235 364 239Q361 243 361 250T364 261Q367 266 641 415T920 567L924 568Q927 567 930 567Q944 562 944 548Q944 540 938 534Q937 532 679 391L422 250L679 109Q937 -32 938 -34Q944 -40 944 -48Z"></path>
<path stroke-width="10" id="E1-MJMAIN-226B" d="M55 539T55 547T60 561T74 567Q81 567 207 498Q297 449 365 412Q633 265 636 261Q639 255 639 250Q639 241 626 232Q614 224 365 88Q83 -65 79 -66Q76 -67 73 -67Q65 -67 60 -61T55 -47Q55 -39 61 -33Q62 -33 95 -15T193 39T320 109L321 110H322L323 111H324L325 112L326 113H327L329 114H330L331 115H332L333 116L334 117H335L336 118H337L338 119H339L340 120L341 121H342L343 122H344L345 123H346L347 124L348 125H349L351 126H352L353 127H354L355 128L356 129H357L358 130H359L360 131H361L362 132L363 133H364L365 134H366L367 135H368L369 136H370L371 137L372 138H373L374 139H375L376 140L378 141L576 251Q63 530 62 533Q55 539 55 547ZM360 539T360 547T365 561T379 567Q386 567 512 498Q602 449 670 412Q938 265 941 261Q944 255 944 250Q944 241 931 232Q919 224 670 88Q388 -65 384 -66Q381 -67 378 -67Q370 -67 365 -61T360 -47Q360 -39 366 -33Q367 -33 400 -15T498 39T625 109L626 110H627L628 111H629L630 112L631 113H632L634 114H635L636 115H637L638 116L639 117H640L641 118H642L643 119H644L645 120L646 121H647L648 122H649L650 123H651L652 124L653 125H654L656 126H657L658 127H659L660 128L661 129H662L663 130H664L665 131H666L667 132L668 133H669L670 134H671L672 135H673L674 136H675L676 137L677 138H678L679 139H680L681 140L683 141L881 251Q368 530 367 533Q360 539 360 547Z"></path>
</defs>
<g stroke="currentColor" fill="currentColor" stroke-width="0" transform="matrix(1 0 0 -1 0 0)">
 <use xlink:href="#E1-MJMAIN-3C" x="0" y="0"></use>
 <use xlink:href="#E1-MJMAIN-2C" x="783" y="0"></use>
 <use xlink:href="#E1-MJMAIN-3E" x="1232" y="0"></use>
 <use xlink:href="#E1-MJMAIN-2C" x="2015" y="0"></use>
 <use xlink:href="#E1-MJMAIN-226A" x="2465" y="0"></use>
 <use xlink:href="#E1-MJMAIN-2C" x="3470" y="0"></use>
 <use xlink:href="#E1-MJMAIN-226B" x="3920" y="0"></use>
</g>
</svg>