<?xml version="1.0" standalone="no"?>
<!DOCTYPE svg PUBLIC "-//W3C//DTD SVG 1.1//EN" "http://www.w3.org/Graphics/SVG/1.1/DTD/svg11.dtd">
<svg xmlns:xlink="http://www.w3.org/1999/xlink" width="10.408ex" height="2.676ex" style="vertical-align: -0.838ex;" viewBox="0 -791.3 4481 1152.1" xmlns="http://www.w3.org/2000/svg">
<defs>
<path stroke-width="10" id="E1-MJAMS-2276" d="M734 181Q734 173 728 167T714 161Q711 161 386 280T54 404Q44 408 44 421Q44 432 52 437Q66 443 388 562T714 681Q721 681 727 675T734 661Q734 651 722 645Q711 639 462 546Q441 539 420 531L122 421L420 311L723 198Q734 192 734 181ZM44 247Q44 255 50 261T63 267Q66 267 391 148T723 24Q734 18 734 7T723 -10Q716 -14 391 -133T63 -253Q56 -253 50 -247T44 -233Q44 -223 55 -217Q67 -210 317 -118Q337 -110 357 -103L655 7L357 117L54 230Q44 236 44 247Z"></path>
<path stroke-width="10" id="E1-MJMAIN-2C" d="M78 35T78 60T94 103T137 121Q165 121 187 96T210 8Q210 -27 201 -60T180 -117T154 -158T130 -185T117 -194Q113 -194 104 -185T95 -172Q95 -168 106 -156T131 -126T157 -76T173 -3V9L172 8Q170 7 167 6T161 3T152 1T140 0Q113 0 96 17Z"></path>
<path stroke-width="10" id="E1-MJAMS-2277" d="M83 661Q83 668 88 674T104 681Q111 679 396 560Q686 437 687 436Q694 431 694 421T687 406Q686 405 543 344T253 222T101 161Q83 163 83 180Q83 194 95 199Q96 199 130 213T232 257T361 311L621 421L357 532Q307 553 233 584Q121 631 102 640T83 661ZM673 267Q694 267 694 248Q694 237 687 232Q684 229 420 118L156 7L416 -103L683 -215Q694 -222 694 -233Q694 -251 676 -253Q670 -253 524 -192T235 -70T90 -8Q83 -1 83 7Q83 19 94 24Q97 25 378 144T667 266Q669 267 673 267Z"></path>
<path stroke-width="10" id="E1-MJAMS-22D6" d="M86 261Q92 267 381 404T673 541Q680 541 686 535T693 521T689 510Q684 504 418 379L151 250L418 121Q686 -4 689 -10Q693 -14 693 -21T687 -34T675 -41Q668 -41 380 96T86 239Q82 244 82 250Q82 257 86 261ZM610 250Q610 224 592 198T531 172Q498 172 475 195Q453 214 453 250Q453 308 513 328Q515 330 535 330Q569 328 589 304T610 250Z"></path>
<path stroke-width="10" id="E1-MJAMS-22D7" d="M82 521Q82 529 89 535T100 541Q107 541 395 404T689 261Q693 257 693 250T689 239Q684 234 396 97T100 -41Q95 -41 89 -35T82 -21Q82 -12 96 -4Q118 9 358 121L624 250L358 379Q91 503 86 510Q82 514 82 521ZM165 250Q165 282 188 306T239 330Q262 330 275 323Q303 312 318 283Q322 272 322 250Q322 213 300 195Q277 172 246 172Q224 172 213 177Q165 200 165 250Z"></path>
</defs>
<g stroke="currentColor" fill="currentColor" stroke-width="0" transform="matrix(1 0 0 -1 0 0)">
 <use xlink:href="#E1-MJAMS-2276" x="0" y="0"></use>
 <use xlink:href="#E1-MJMAIN-2C" x="783" y="0"></use>
 <use xlink:href="#E1-MJAMS-2277" x="1232" y="0"></use>
 <use xlink:href="#E1-MJMAIN-2C" x="2015" y="0"></use>
 <use xlink:href="#E1-MJAMS-22D6" x="2465" y="0"></use>
 <use xlink:href="#E1-MJMAIN-2C" x="3248" y="0"></use>
 <use xlink:href="#E1-MJAMS-22D7" x="3698" y="0"></use>
</g>
</svg>