<?xml version="1.0" standalone="no"?>
<!DOCTYPE svg PUBLIC "-//W3C//DTD SVG 1.1//EN" "http://www.w3.org/Graphics/SVG/1.1/DTD/svg11.dtd">
<svg xmlns:xlink="http://www.w3.org/1999/xlink" width="20.56ex" height="2.509ex" style="vertical-align: -0.671ex;" viewBox="0 -791.3 8852 1080.4" xmlns="http://www.w3.org/2000/svg">
<defs>
<path stroke-width="10" id="E1-MJSS-73" d="M33 326Q33 376 60 408T117 450T175 460H190Q245 460 272 454T345 429Q345 428 338 388L331 349Q278 386 188 386H183Q119 386 119 336Q119 307 142 295T210 276T278 256Q360 213 360 130Q360 108 354 88T332 43T281 5T195 -10Q152 -10 111 1T49 22T28 35Q29 36 32 56T39 95T43 115T51 110T72 99T102 85T143 73T193 68Q274 68 274 123Q274 152 248 167Q234 178 187 186T115 207Q66 229 46 273Q33 298 33 326Z"></path>
<path stroke-width="10" id="E1-MJSS-74" d="M333 27Q333 24 314 16T257 -1T184 -10H172Q146 -10 128 14T105 58T99 91Q95 113 95 251V371H18V444H98V571H182V444H316V371H182V253Q183 128 189 104Q199 68 234 68Q277 72 314 98Q315 93 323 61T333 27Z"></path>
<path stroke-width="10" id="E1-MJSS-75" d="M353 39Q352 38 344 34T331 27T315 19T295 11T270 3T241 -3T207 -8T168 -10H162Q148 -10 137 -8T111 2T87 30T74 81Q73 89 73 268V444H166V268L167 92Q171 79 174 74T192 64T238 59Q317 59 344 116Q349 128 349 148T350 291V444H443V0H353V39Z"></path>
<path stroke-width="10" id="E1-MJSS-76" d="M178 0Q15 441 14 442Q14 444 60 444Q107 444 107 442Q108 441 136 364T196 194T232 67Q233 98 280 234T356 442Q356 444 401 444T446 442L282 0H178Z"></path>
<path stroke-width="10" id="E1-MJSS-77" d="M14 444H105L108 434Q192 160 200 74V65L201 75Q206 144 282 399L296 444H381L399 381Q480 112 480 69L481 70Q481 113 562 386L580 444H668L534 1L483 0H432L429 10Q343 294 338 367L337 377Q336 375 336 370Q336 340 313 250T269 88T245 11L242 0H195L148 1L14 444Z"></path>
<path stroke-width="10" id="E1-MJSS-78" d="M187 229L6 444H107L227 294L344 444H393L442 443Q439 437 299 268L267 229L460 0H359L294 88Q280 107 262 131T236 166L227 177L100 0H0Q1 1 47 58T140 171T187 229Z"></path>
<path stroke-width="10" id="E1-MJSS-79" d="M113 -204Q83 -204 63 -200L43 -197Q43 -196 40 -157T36 -117L48 -121Q79 -133 114 -133Q124 -133 130 -132T145 -121T163 -94Q169 -82 184 -42T200 1L188 29Q176 57 152 115T107 223T62 330T26 416L14 443Q14 444 61 444H109L122 411Q230 155 236 75L237 65V74Q245 161 348 424L356 444H401Q446 444 446 443L396 313Q345 183 293 49T236 -93Q191 -204 123 -204H113Z"></path>
<path stroke-width="10" id="E1-MJSS-7A" d="M42 370V444H400V395L156 76L279 77H402V0H28V51L273 371L157 370H42Z"></path>
<path stroke-width="10" id="E1-MJSS-30" d="M117 621Q174 678 247 678Q305 678 351 647Q396 617 424 557Q460 472 460 328Q460 271 455 224Q448 154 427 104T376 27T314 -10T249 -22Q201 -22 160 1T91 67Q39 154 39 316Q39 541 117 621ZM250 55Q274 55 293 66T324 93T344 136T357 185T364 240T366 291T367 340Q367 373 367 393T363 449T352 507T332 553T299 589T250 601Q217 601 194 584T159 542T141 479T133 411T132 340V331Q132 299 133 277T137 219T147 157T167 107T201 68T250 55Z"></path>
<path stroke-width="10" id="E1-MJSS-31" d="M94 612Q172 616 211 632T284 678H307V73H430V0H88V73H213V317Q213 560 212 560Q210 558 197 554T155 546T96 540L83 539V612H94Z"></path>
<path stroke-width="10" id="E1-MJSS-32" d="M222 599Q190 599 166 585T128 550T108 509T97 474T93 459L67 492L42 526L47 539Q72 608 120 642T225 677Q304 677 355 644Q449 579 449 454Q449 373 361 290Q351 280 315 250T199 144Q156 103 137 85L293 86H449V0H50V79L216 242Q284 302 317 349T351 456Q351 517 315 558T222 599Z"></path>
<path stroke-width="10" id="E1-MJSS-33" d="M333 521Q333 554 313 579T243 604Q154 604 99 514L78 546Q56 577 56 579Q56 580 62 589T82 611T114 637T162 662T222 677Q224 677 231 677T242 678H245Q318 678 374 634T430 520Q430 483 417 452T382 398T351 369T329 354L328 353Q369 333 373 330Q408 306 432 268T457 184Q457 103 397 41T242 -22Q131 -22 51 58L42 68L49 105L55 142L58 138Q62 134 66 130T77 120T91 108T108 96T129 83T152 72T179 63T209 57T242 54Q285 54 319 86T353 184Q353 231 331 267T260 315L213 316H166V354Q166 392 167 392Q233 395 257 405Q290 418 311 450T333 521Z"></path>
<path stroke-width="10" id="E1-MJSS-34" d="M271 654L272 656H380V235H471V159H380V0H286V159H28V235L149 443Q269 652 271 654ZM292 235V607Q292 604 290 591T286 571T280 548T269 517T252 476T226 422T189 354T140 267Q136 260 132 253T126 240L123 236Q123 235 207 235H292Z"></path>
<path stroke-width="10" id="E1-MJSS-35" d="M257 350Q236 350 218 342T189 323T171 301T160 281L157 273Q157 272 116 272H75V656H416V577H162V486Q162 396 163 396T174 403T207 418T258 426Q339 426 394 360T449 203Q449 113 386 46T226 -21H223Q188 -21 156 -11T102 13T64 42T41 66T33 77Q34 78 44 95T64 128L73 144Q93 112 117 93Q165 54 223 54Q270 54 306 86T345 197Q345 350 257 350Z"></path>
<path stroke-width="10" id="E1-MJSS-36" d="M42 318Q42 396 61 460T109 564T173 629T237 666T289 677H301H317Q359 677 408 658V621Q408 585 407 585H406Q359 605 308 605Q246 605 203 556T146 421Q143 403 144 403Q145 402 152 409Q216 469 299 469Q333 469 357 457T407 405Q457 330 457 226Q457 126 402 57Q340 -22 251 -22Q216 -22 183 -7T116 43T63 149T42 318ZM260 393Q216 393 188 365T150 306T141 243Q141 153 172 104Q192 68 230 56Q238 54 251 54Q311 54 342 116Q360 152 360 226Q360 297 344 332Q320 382 277 392Q275 392 270 392T260 393Z"></path>
<path stroke-width="10" id="E1-MJSS-37" d="M42 570V656H457V577L447 564Q345 439 295 289T244 0V-11H145V12Q160 330 356 550Q360 556 365 561T374 571L208 570H42Z"></path>
<path stroke-width="10" id="E1-MJSS-38" d="M55 500Q55 568 109 623T250 678Q327 678 385 627T444 501Q444 445 410 410T336 357L329 353H330Q378 335 417 293T456 184Q456 93 393 36T249 -22T106 35T43 184Q43 251 82 293T169 353Q171 354 166 356Q165 356 163 357Q113 378 84 416T55 500ZM358 496Q358 557 325 581T250 605Q206 605 174 580T141 496Q141 446 171 420T250 393Q298 393 328 419T358 496ZM245 316Q205 316 172 285T139 185V179Q139 79 222 57Q231 55 250 55H254Q295 55 327 84Q360 120 360 188Q360 254 326 285Q295 316 245 316Z"></path>
<path stroke-width="10" id="E1-MJSS-39" d="M44 476Q57 561 116 619T245 677H255Q308 677 349 647Q392 619 424 545T457 334Q457 178 382 78T205 -22Q168 -22 135 -10T86 14L72 25Q73 25 91 58L110 91Q127 78 136 72T163 60T203 54Q238 54 265 71T308 110T335 164T350 214T357 253V257L347 248Q284 187 200 187Q165 187 140 201T87 258Q42 332 42 430Q42 458 44 476ZM269 604Q265 605 254 605Q222 605 199 591T164 554T148 517T141 487Q140 478 140 430T141 373Q146 335 164 307T207 269Q223 263 247 263Q299 266 328 308T358 417Q358 435 356 456T346 511T318 570T269 604Z"></path>
</defs>
<g stroke="currentColor" fill="currentColor" stroke-width="0" transform="matrix(1 0 0 -1 0 0)">
 <use xlink:href="#E1-MJSS-73" x="0" y="0"></use>
 <use xlink:href="#E1-MJSS-74" x="388" y="0"></use>
 <use xlink:href="#E1-MJSS-75" x="754" y="0"></use>
 <use xlink:href="#E1-MJSS-76" x="1276" y="0"></use>
 <use xlink:href="#E1-MJSS-77" x="1742" y="0"></use>
 <use xlink:href="#E1-MJSS-78" x="2430" y="0"></use>
 <use xlink:href="#E1-MJSS-79" x="2896" y="0"></use>
 <use xlink:href="#E1-MJSS-7A" x="3362" y="0"></use>
<g transform="translate(3802,0)">
 <use xlink:href="#E1-MJSS-30"></use>
 <use xlink:href="#E1-MJSS-31" x="505" y="0"></use>
 <use xlink:href="#E1-MJSS-32" x="1010" y="0"></use>
 <use xlink:href="#E1-MJSS-33" x="1515" y="0"></use>
 <use xlink:href="#E1-MJSS-34" x="2020" y="0"></use>
 <use xlink:href="#E1-MJSS-35" x="2525" y="0"></use>
 <use xlink:href="#E1-MJSS-36" x="3030" y="0"></use>
 <use xlink:href="#E1-MJSS-37" x="3535" y="0"></use>
 <use xlink:href="#E1-MJSS-38" x="4040" y="0"></use>
 <use xlink:href="#E1-MJSS-39" x="4545" y="0"></use>
</g>
</g>
</svg>