<?xml version="1.0" standalone="no"?>
<!DOCTYPE svg PUBLIC "-//W3C//DTD SVG 1.1//EN" "http://www.w3.org/Graphics/SVG/1.1/DTD/svg11.dtd">
<svg xmlns:xlink="http://www.w3.org/1999/xlink" width="7.504ex" height="2.676ex" style="vertical-align: -0.838ex;" viewBox="0 -791.3 3231 1152.1" xmlns="http://www.w3.org/2000/svg">
<defs>
<path stroke-width="10" id="E1-MJAMS-22BA" d="M318 -182Q302 -212 280 -212H278H275Q249 -212 239 -182L238 84V351H162L87 352Q57 362 57 391T84 429Q89 431 280 431H470L474 429Q477 427 479 426T484 423T490 417T495 410T499 402T500 391Q500 365 470 352L394 351H318V-182Z"></path>
<path stroke-width="10" id="E1-MJMAIN-2C" d="M78 35T78 60T94 103T137 121Q165 121 187 96T210 8Q210 -27 201 -60T180 -117T154 -158T130 -185T117 -194Q113 -194 104 -185T95 -172Q95 -168 106 -156T131 -126T157 -76T173 -3V9L172 8Q170 7 167 6T161 3T152 1T140 0Q113 0 96 17Z"></path>
<path stroke-width="10" id="E1-MJMAIN-22C5" d="M78 250Q78 274 95 292T138 310Q162 310 180 294T199 251Q199 226 182 208T139 190T96 207T78 250Z"></path>
<path stroke-width="10" id="E1-MJMAIN-2A3F" d="M28 660Q28 676 31 679T46 683H50Q87 681 182 681Q217 681 247 681T294 682T315 682Q321 682 323 682T328 679T331 673T332 660Q332 643 328 640T304 637Q239 637 231 626Q229 620 229 334V46H520V334Q520 620 518 626Q510 637 445 637Q426 637 422 640T417 660Q417 675 420 678T432 682H435Q437 682 467 682T569 681T671 681T703 682Q714 682 717 679T721 660Q721 643 717 640T693 637Q628 637 620 626Q619 623 619 342Q619 60 620 57Q628 46 693 46Q714 46 717 43T721 23Q721 5 715 1Q713 0 374 0Q36 0 34 1Q28 5 28 23Q28 40 31 43T56 46Q121 46 129 57Q131 63 131 342Q131 620 129 626Q121 637 56 637Q35 637 32 640T28 660Z"></path>
<path stroke-width="10" id="E1-MJMAIN-2240" d="M55 569Q55 583 83 583Q122 583 151 565T194 519T215 464T222 411Q222 360 194 304T139 193T111 89Q111 38 134 -7T195 -55Q222 -57 222 -69Q222 -83 189 -83Q130 -83 93 -33T55 90Q55 130 72 174T110 252T148 328T166 411Q166 462 144 507T83 555Q55 556 55 569Z"></path>
</defs>
<g stroke="currentColor" fill="currentColor" stroke-width="0" transform="matrix(1 0 0 -1 0 0)">
 <use xlink:href="#E1-MJAMS-22BA" x="0" y="0"></use>
 <use xlink:href="#E1-MJMAIN-2C" x="561" y="0"></use>
 <use xlink:href="#E1-MJMAIN-22C5" x="1010" y="0"></use>
 <use xlink:href="#E1-MJMAIN-2C" x="1293" y="0"></use>
 <use xlink:href="#E1-MJMAIN-2A3F" x="1743" y="0"></use>
 <use xlink:href="#E1-MJMAIN-2C" x="2498" y="0"></use>
 <use xlink:href="#E1-MJMAIN-2240" x="2947" y="0"></use>
</g>
</svg>