<?xml version="1.0" standalone="no"?>
<!DOCTYPE svg PUBLIC "-//W3C//DTD SVG 1.1//EN" "http://www.w3.org/Graphics/SVG/1.1/DTD/svg11.dtd">
<svg xmlns:xlink="http://www.w3.org/1999/xlink" width="21.823ex" height="2.509ex" style="vertical-align: -0.671ex;" viewBox="0 -791.3 9396 1080.4" xmlns="http://www.w3.org/2000/svg">
<defs>
<path stroke-width="10" id="E1-MJFRAK-41" d="M22 505Q22 563 94 624T271 685H280Q416 685 443 560Q447 535 447 504Q444 414 405 330L399 319L229 155Q233 154 241 153T253 150T265 145T281 135T301 119T328 93L357 64L402 92Q438 116 473 137L500 154V339Q500 528 495 593V601L559 649Q621 696 624 696L638 686L629 677Q599 650 593 638Q582 614 581 504Q580 490 580 443Q580 314 584 238Q584 235 584 224T584 210T585 199T586 187T588 176T591 164T595 152T601 137T609 121Q630 77 640 77Q661 77 703 101Q704 95 706 90L707 86V84L636 29Q618 15 601 2T574 -19T564 -25L500 121Q499 121 399 48L299 -26Q298 -26 291 -15T272 11T245 42T209 69T165 80Q120 80 58 43L48 37L40 42L32 48L122 117Q196 173 241 211Q319 280 343 327T368 447Q368 535 317 582Q264 633 199 633Q155 633 122 605T86 542Q86 518 133 467T181 387Q181 348 140 309Q113 281 73 260L64 255L50 265L59 273Q112 307 112 345Q112 363 90 387T45 441T22 505Z"></path>
<path stroke-width="10" id="E1-MJFRAK-42" d="M48 506Q48 568 120 629T268 691Q362 691 425 594L431 585L441 594Q478 628 528 657T629 686Q665 686 687 670Q703 658 718 584T753 506Q756 505 763 505Q778 505 804 512L815 516L820 496Q820 494 808 490T774 476T732 454Q720 445 708 437L675 415L640 394L625 383Q626 382 635 382Q652 382 670 379T712 364T754 336T784 289T797 220Q797 172 776 122Q769 106 766 102T745 84Q654 11 619 -8T538 -27Q483 -27 387 10T249 47Q218 47 186 34T133 8T112 -5T104 7T97 21L196 82Q259 120 284 140Q333 181 351 214Q368 251 368 353Q368 588 228 620Q222 621 205 621Q160 621 139 596Q117 569 117 548Q117 526 162 470T208 387Q208 352 179 320T104 264Q88 256 86 256Q83 256 70 266L82 274Q134 309 134 343Q134 352 130 359Q118 377 100 401T72 439T56 470T48 506ZM453 528Q457 496 457 419L458 357L488 367Q554 390 622 425Q673 449 673 453L671 454Q669 456 665 460T657 473T648 498T639 541Q629 597 616 613Q599 633 567 633Q534 633 493 599Q471 577 457 540L453 528ZM713 176Q713 252 661 295T528 339Q512 339 494 336T466 330T455 325Q454 325 452 311T444 270T425 217L420 207L304 118L319 116Q381 111 475 74T602 37Q655 37 684 79T713 176Z"></path>
<path stroke-width="10" id="E1-MJFRAK-43" d="M299 585Q333 609 384 634T470 672L505 685Q506 685 513 662T531 613T548 580Q553 576 563 576Q575 576 605 585Q607 585 607 575V564Q537 532 496 527Q475 542 456 567T427 610T415 627Q410 627 398 618T382 603Q373 588 373 558T386 475T400 399Q400 337 366 303Q343 281 309 266T254 247T226 242L214 257Q214 258 223 260T251 272T287 299Q304 316 304 360Q304 396 289 451T274 532Q274 553 277 561V564H269Q205 558 172 501T139 358Q139 207 226 127T443 46Q448 46 457 46T470 47L485 48L601 106Q602 106 602 93V80Q551 48 517 25T474 -4T460 -13T443 -19Q409 -24 367 -24Q360 -24 351 -24T335 -23T326 -22Q190 -2 125 87T59 319V328Q62 412 96 487L101 500L118 512Q189 563 245 591L266 601L299 585Z"></path>
<path stroke-width="10" id="E1-MJFRAK-44" d="M346 611Q300 611 261 604T194 584T144 555T107 519T82 481T65 443T55 410T50 383T48 367L37 372L27 378V393Q33 524 115 603Q160 648 230 666T365 685Q423 685 434 684Q745 653 745 405Q745 281 694 151L687 133L657 103Q524 -27 470 -27Q456 -27 331 18T157 64Q122 64 84 28Q67 9 57 -6L50 -16L43 -8L35 0Q35 3 46 22T83 74T141 133H154Q208 136 253 161T299 230Q299 259 277 290T232 348T209 392Q209 434 254 479T358 556L368 561L382 550Q382 549 381 548T377 545T371 541Q353 527 326 496T298 444Q298 430 343 365T389 277Q389 240 353 202T267 136L252 127Q304 118 400 83T513 47Q548 47 582 79T635 145Q671 208 671 323Q671 390 651 441T599 524T523 576T436 603T346 611Z"></path>
<path stroke-width="10" id="E1-MJFRAK-45" d="M301 564Q240 564 203 507T165 361Q165 280 190 218T260 119T358 64T474 46Q491 46 499 47L511 48L628 106V80L499 -5Q498 -6 497 -7T494 -10T490 -12T485 -15T478 -17T468 -19T456 -21T439 -22T418 -23T392 -24Q252 -20 169 67T86 315Q86 409 124 491Q128 500 139 508Q211 560 272 591L293 601L325 585L338 594Q374 617 422 639T502 674L532 685Q533 685 540 663T557 614T574 581Q580 575 591 575Q600 575 616 580T634 585V564L623 559Q572 535 532 529L522 527Q491 547 442 627Q442 628 440 627T435 624T428 620Q410 610 405 597T399 559V553Q399 534 409 487Q419 431 427 369L476 400Q526 431 526 432Q531 426 537 420Q565 382 602 359Q611 353 610 352Q609 351 575 332T537 312Q536 312 505 335T463 358Q451 358 439 352T425 337Q394 243 263 223L251 221L243 229L235 236L245 239Q274 247 303 266Q320 277 325 290T330 336Q330 394 315 451T300 531Q300 549 303 561Q303 564 301 564Z"></path>
<path stroke-width="10" id="E1-MJFRAK-46" d="M198 617Q177 617 159 609T128 587T106 557T91 524T82 494T76 472L75 463Q74 463 67 468T59 474Q59 488 63 510T80 564T114 622T170 667T253 686Q272 686 295 680Q330 672 384 645T468 598Q498 580 524 580Q549 580 595 626L612 643V616L599 599Q522 500 482 500Q466 500 435 514L420 521Q388 516 349 486T309 415Q309 396 323 366T352 315T367 294Q367 293 375 301T398 322T429 352L490 410Q537 355 542 332Q542 330 531 315T510 286L499 273Q479 313 449 313Q437 313 419 303T390 282L378 271L394 250Q444 183 470 129Q484 96 484 71Q484 -19 402 -86T223 -153H220Q175 -153 137 -120Q103 -89 103 -8Q103 12 106 40T109 96Q109 132 103 146T72 161Q46 161 16 143L14 154L11 165Q88 219 143 219Q163 219 177 197T192 127Q192 102 186 65T179 4Q179 -60 210 -88T272 -117Q319 -117 362 -75T405 33Q405 72 363 139T278 271T235 368Q235 385 243 404T264 439T292 472T324 500T353 522T374 538L382 543Q382 544 351 562T274 598T198 617Z"></path>
<path stroke-width="10" id="E1-MJFRAK-47" d="M373 560Q373 543 378 509T388 448T394 421Q396 421 416 433T474 474T548 537L538 543Q481 570 452 628L487 659Q521 690 522 690L526 684Q529 677 535 667T551 646T575 625T607 608Q617 606 621 606Q644 606 660 622L664 600L497 455Q495 453 527 453H546Q628 453 665 407L666 406Q710 357 710 297Q710 196 631 109L621 98L577 69Q471 -7 452 -15Q413 -26 370 -26Q239 -26 155 59Q66 148 66 319Q66 442 113 505L191 552Q269 600 270 600H271Q273 600 280 596T293 589T299 586Q300 586 357 623Q413 659 415 659L426 649Q373 604 373 560ZM219 228Q305 262 305 329V343Q305 384 294 434T282 519Q282 562 287 567Q287 569 286 569Q222 556 191 520Q144 464 144 362Q144 213 228 128T420 42Q514 42 568 103T622 255V260Q622 320 578 357Q526 400 453 400Q434 400 410 396L399 394L400 378V372Q400 330 388 301T348 254T305 232T252 217Q245 215 242 214L234 213L226 220L219 228Z"></path>
<path stroke-width="10" id="E1-MJFRAK-48" d="M11 -16L1 0Q7 6 25 27T57 62T91 88T128 101Q159 99 195 66L203 59L211 67Q239 95 239 133Q239 158 210 213T152 330T123 430Q123 477 173 536T269 630T320 666Q376 610 440 606H443Q457 606 466 611T519 647L542 664Q543 664 543 654V643L522 622Q434 537 403 537Q388 537 366 543T329 555T293 570T270 580L261 585L253 574Q206 517 206 475Q206 452 218 416T242 356L255 331Q256 331 270 345T324 391T421 459L437 468H453Q545 463 608 421L618 415L623 392Q644 307 644 233Q644 97 612 9Q604 -10 601 -15T581 -35Q505 -104 467 -124Q446 -133 431 -133Q414 -132 399 -126T376 -115T368 -107Q368 -106 392 -75L415 -43Q432 -67 444 -73T472 -79H474Q479 -79 484 -78T501 -69T521 -50T538 -13T551 46Q558 97 558 180Q558 232 557 245Q553 277 547 300T528 349T488 389T424 404Q344 404 276 295Q272 288 273 285Q300 216 300 168Q300 161 300 156T298 145T297 137T293 129T289 123T283 116T277 107Q212 23 178 -13L166 -26L149 -9Q108 32 81 32Q63 32 21 -7L11 -16Z"></path>
<path stroke-width="10" id="E1-MJFRAK-49" d="M190 601Q161 601 137 587T97 553T71 512T55 477T48 463Q44 465 39 468L30 473L35 488Q73 594 106 636T199 685Q200 686 211 686Q250 686 326 652T417 617Q435 617 455 626T497 652T522 670Q532 660 532 654Q469 591 390 550L378 543L343 556Q223 601 190 601ZM378 208Q378 249 369 318T360 424Q360 430 360 439T361 451L362 462Q416 526 482 571L495 580L503 577L511 575L499 562Q442 502 442 465Q442 436 452 368T462 246Q462 169 442 128T385 56Q292 -26 195 -26Q150 -26 104 14L96 21L43 -16Q43 -15 43 -14T41 -10T38 0L48 13Q76 50 123 97L150 125Q154 131 159 131Q166 131 171 116T182 81T193 53Q199 43 216 33T261 22Q307 22 344 68Q378 113 378 208Z"></path>
<path stroke-width="10" id="E1-MJFRAK-4A" d="M194 601Q175 601 155 590T121 564T95 533T76 506L69 495Q55 503 55 507Q55 509 60 521Q87 586 132 636T222 686Q251 686 289 660T363 607T422 580Q442 580 466 588T506 604L522 612V591L487 574Q371 517 359 517H357Q332 522 280 561T194 601ZM383 39Q383 96 356 203T329 361Q329 364 329 370T330 378L331 388L339 399Q362 429 394 462T446 513T469 531Q470 531 477 527T484 521L474 509Q411 434 411 379Q411 341 434 223T458 82Q458 1 390 -69T239 -139Q191 -139 162 -123T123 -83T108 -30T101 23T88 64T52 80Q27 80 -4 64L-10 80Q-5 85 13 98T63 128T118 144Q149 144 163 129T179 93T182 38T187 -19Q199 -96 278 -96Q294 -96 309 -91T343 -73T372 -31T383 39Z"></path>
<path stroke-width="10" id="E1-MJFRAK-4B" d="M154 37Q219 41 219 142Q219 203 190 302T160 434Q160 445 172 472T209 534T269 602T354 657T460 680H472Q576 680 618 617V599Q618 578 615 555T608 517T602 501Q596 495 587 495Q586 495 586 499Q586 500 586 505T585 513Q567 628 415 628Q384 628 356 621T302 596T260 546T244 466Q244 416 258 377L261 367L276 382Q294 401 317 422T386 471T468 500Q500 500 518 477T544 422T554 386Q555 382 560 376T576 364T601 357Q612 357 623 361Q623 360 621 351T617 340L541 305L465 272Q469 271 476 270T488 266T502 260L512 255L519 242Q533 211 546 157T564 93Q584 53 617 53Q649 53 682 74V54L675 46Q646 17 612 -5T554 -27Q546 -27 538 -23T517 -9T494 28T478 91Q465 172 448 200T378 228Q337 228 289 207L288 196Q288 160 284 138Q283 125 262 98Q185 1 112 -24L102 -27L91 -25Q47 -13 17 31Q17 33 49 69L80 106Q111 37 154 37ZM421 434Q411 436 405 436Q370 436 336 407T275 337L267 325L271 313Q288 257 288 234Q289 234 395 276T502 319Q501 320 499 323T493 330T485 345T475 371Q473 378 468 388T449 416T421 434Z"></path>
<path stroke-width="10" id="E1-MJFRAK-4C" d="M251 231Q251 254 206 341T160 468Q160 529 238 605Q313 677 425 685L432 686Q440 686 445 686Q520 686 545 657T571 576Q571 548 568 517T564 480Q564 466 572 460T608 452H623V431L619 430Q618 430 611 428T591 423T566 417L516 404Q497 415 491 419T480 433T475 461Q475 470 477 498T480 546Q480 561 480 569T474 592T459 615T429 631T379 638Q322 638 283 606T239 526Q237 480 280 394Q319 310 320 268V250Q308 235 244 169L203 128H210Q215 128 256 112T357 80T466 64Q526 64 564 88T625 186L629 196Q643 187 644 186Q618 70 604 41Q577 -15 513 -24Q496 -26 476 -26Q418 -26 344 -3T211 45T133 69Q115 69 97 50T65 7T49 -20L45 -16Q41 -11 37 -6T33 0Q33 8 66 69T111 134Q251 156 251 231Z"></path>
<path stroke-width="10" id="E1-MJFRAK-4D" d="M687 578Q690 586 719 612T794 665T877 692Q909 692 926 670T953 614T973 570Q983 561 1000 560Q1023 560 1048 569V553L1034 546Q1003 528 972 504T933 466Q905 403 905 264Q905 205 909 172T920 126T940 91Q951 74 959 74T997 87L1027 100V79L956 27Q940 15 922 2T894 -19L885 -26Q883 -26 854 27L825 80V192Q826 314 830 341Q831 345 833 356Q840 398 844 404Q871 444 920 489L917 491Q914 493 911 495T903 501T898 508Q893 516 877 562T852 616Q840 628 818 628Q751 628 702 541L697 532L700 515Q708 467 708 419Q706 348 690 276T662 169T643 126L634 116Q626 105 611 87T581 51L522 -22L514 -15Q470 21 452 21Q431 21 394 -16L384 5L386 9L426 60Q449 87 460 95T486 104Q487 104 491 104T497 103Q514 99 541 81L559 69Q595 96 606 169T618 350Q618 486 598 543T517 601Q484 601 458 570T432 523Q432 516 434 492T436 443Q436 250 369 133L363 122L280 50Q207 -16 192 -27L182 -18Q136 26 106 26Q83 26 62 9T37 -16L27 0L33 10Q41 22 54 39T94 81T143 106Q178 106 225 62L235 53Q283 82 307 117Q352 190 352 359Q352 408 345 451T320 534T267 597T183 621Q159 621 147 617T120 598Q97 574 96 556Q96 528 143 469T191 377T161 311T102 262T70 245Q69 245 59 252T49 260L56 264Q63 268 73 275T94 291T111 312T118 338Q118 355 95 384T50 446T27 506Q31 567 101 626T255 686Q297 686 330 671T382 632T409 595T421 572V571L430 580Q454 610 496 634T588 659H590Q655 659 683 585L687 578Z"></path>
</defs>
<g stroke="currentColor" fill="currentColor" stroke-width="0" transform="matrix(1 0 0 -1 0 0)">
 <use xlink:href="#E1-MJFRAK-41" x="0" y="0"></use>
 <use xlink:href="#E1-MJFRAK-42" x="723" y="0"></use>
 <use xlink:href="#E1-MJFRAK-43" x="1612" y="0"></use>
 <use xlink:href="#E1-MJFRAK-44" x="2230" y="0"></use>
 <use xlink:href="#E1-MJFRAK-45" x="3067" y="0"></use>
 <use xlink:href="#E1-MJFRAK-46" x="3735" y="0"></use>
 <use xlink:href="#E1-MJFRAK-47" x="4352" y="0"></use>
 <use xlink:href="#E1-MJFRAK-48" x="5142" y="0"></use>
 <use xlink:href="#E1-MJFRAK-49" x="5867" y="0"></use>
 <use xlink:href="#E1-MJFRAK-4A" x="6426" y="0"></use>
 <use xlink:href="#E1-MJFRAK-4B" x="6983" y="0"></use>
 <use xlink:href="#E1-MJFRAK-4C" x="7670" y="0"></use>
 <use xlink:href="#E1-MJFRAK-4D" x="8341" y="0"></use>
</g>
</svg>