<?xml version="1.0" standalone="no"?>
<!DOCTYPE svg PUBLIC "-//W3C//DTD SVG 1.1//EN" "http://www.w3.org/Graphics/SVG/1.1/DTD/svg11.dtd">
<svg xmlns:xlink="http://www.w3.org/1999/xlink" width="7.545ex" height="2.009ex" style="vertical-align: -0.671ex;" viewBox="0 -576.1 3248.3 865.1" xmlns="http://www.w3.org/2000/svg">
<defs>
<path stroke-width="10" id="E1-MJAMS-2323" d="M389 143Q324 143 266 164T171 215T107 277T67 330T55 358T60 371T77 378Q85 377 92 367T116 331T158 280Q256 182 389 182Q475 182 552 227T675 351Q688 378 704 378Q722 376 722 358Q722 352 710 330T670 276T605 215T511 164T389 143Z"></path>
<path stroke-width="10" id="E1-MJMAIN-2C" d="M78 35T78 60T94 103T137 121Q165 121 187 96T210 8Q210 -27 201 -60T180 -117T154 -158T130 -185T117 -194Q113 -194 104 -185T95 -172Q95 -168 106 -156T131 -126T157 -76T173 -3V9L172 8Q170 7 167 6T161 3T152 1T140 0Q113 0 96 17Z"></path>
<path stroke-width="10" id="E1-MJAMS-2322" d="M77 122Q68 122 63 126T57 135T55 142Q55 151 68 176T111 235T177 302T271 356T388 378Q451 378 508 355T602 300T668 233T709 174T722 142Q722 124 704 122Q692 122 685 134T658 179T606 243Q511 338 390 338Q354 338 320 329Q251 312 193 263T97 141Q87 123 77 122Z"></path>
<path stroke-width="10" id="E1-MJMAIN-224D" d="M55 464Q55 471 60 477T74 484Q80 484 108 464T172 420T268 376T389 356Q436 356 483 368T566 399T630 436T675 467T695 482Q701 484 703 484Q711 484 716 478T722 464Q722 454 707 442Q550 316 389 316Q338 316 286 329T195 362T124 402T76 437T57 456Q55 462 55 464ZM57 45Q66 58 109 88T230 151T381 183Q438 183 494 168T587 135T658 94T703 61T720 45Q722 39 722 36Q722 28 717 22T703 16Q697 16 669 36T606 80T510 124T389 144Q341 144 294 132T211 101T147 64T102 33T82 18Q76 16 74 16Q66 16 61 22T55 36Q55 39 57 45Z"></path>
</defs>
<g stroke="currentColor" fill="currentColor" stroke-width="0" transform="matrix(1 0 0 -1 0 0)">
 <use xlink:href="#E1-MJAMS-2323" x="0" y="0"></use>
 <use xlink:href="#E1-MJMAIN-2C" x="783" y="0"></use>
 <use xlink:href="#E1-MJAMS-2322" x="1232" y="0"></use>
 <use xlink:href="#E1-MJMAIN-2C" x="2015" y="0"></use>
 <use xlink:href="#E1-MJMAIN-224D" x="2465" y="0"></use>
</g>
</svg>