<?xml version="1.0" standalone="no"?>
<!DOCTYPE svg PUBLIC "-//W3C//DTD SVG 1.1//EN" "http://www.w3.org/Graphics/SVG/1.1/DTD/svg11.dtd">
<svg xmlns:xlink="http://www.w3.org/1999/xlink" width="6.989ex" height="2.843ex" style="vertical-align: -0.838ex;" viewBox="0 -863.1 3009.3 1223.9" xmlns="http://www.w3.org/2000/svg">
<defs>
<path stroke-width="10" id="E1-MJMATHI-61" d="M33 157Q33 258 109 349T280 441Q331 441 370 392Q386 422 416 422Q429 422 439 414T449 394Q449 381 412 234T374 68Q374 43 381 35T402 26Q411 27 422 35Q443 55 463 131Q469 151 473 152Q475 153 483 153H487Q506 153 506 144Q506 138 501 117T481 63T449 13Q436 0 417 -8Q409 -10 393 -10Q359 -10 336 5T306 36L300 51Q299 52 296 50Q294 48 292 46Q233 -10 172 -10Q117 -10 75 30T33 157ZM351 328Q351 334 346 350T323 385T277 405Q242 405 210 374T160 293Q131 214 119 129Q119 126 119 118T118 106Q118 61 136 44T179 26Q217 26 254 59T298 110Q300 114 325 217T351 328Z"></path>
<path stroke-width="10" id="E1-MJMAIN-2F" d="M423 750Q432 750 438 744T444 730Q444 725 271 248T92 -240Q85 -250 75 -250Q68 -250 62 -245T56 -231Q56 -221 230 257T407 740Q411 750 423 750Z"></path>
<path stroke-width="10" id="E1-MJMAIN-2C" d="M78 35T78 60T94 103T137 121Q165 121 187 96T210 8Q210 -27 201 -60T180 -117T154 -158T130 -185T117 -194Q113 -194 104 -185T95 -172Q95 -168 106 -156T131 -126T157 -76T173 -3V9L172 8Q170 7 167 6T161 3T152 1T140 0Q113 0 96 17Z"></path>
<path stroke-width="10" id="E1-MJAMS-226E" d="M693 -14T693 -20T687 -33T675 -41Q667 -41 506 37L344 112Q342 112 262 -46Q184 -196 176 -205Q172 -209 168 -209T162 -208Q155 -208 151 -203T146 -190Q146 -178 171 -137Q193 -91 251 21L306 132L198 183Q142 208 118 220T88 238T82 249Q82 253 86 261Q92 267 278 357L464 443L529 572Q561 637 577 667T597 703T607 708Q615 708 622 702T629 688Q629 680 575 579L524 474Q524 473 545 482T598 508Q666 541 673 541T686 535T693 521Q693 512 679 504T589 459L493 414L360 150Q366 148 378 142T431 116T529 70Q686 -8 689 -10Q693 -14 693 -20ZM380 277L433 383Q432 385 292 319T151 250T237 209T324 170L380 277Z"></path>
<path stroke-width="10" id="E1-MJMAIN-2282" d="M84 250Q84 372 166 450T360 539Q361 539 370 539T395 539T430 540T475 540T524 540H679Q694 532 694 520Q694 511 681 501L522 500H470H441Q366 500 338 496T266 472Q244 461 224 446T179 404T139 337T124 250V245Q124 157 185 89Q244 25 328 7Q348 2 366 2T522 0H681Q694 -10 694 -20Q694 -32 679 -40H526Q510 -40 480 -40T434 -41Q350 -41 289 -25T172 45Q84 127 84 250Z"></path>
<path stroke-width="10" id="E1-MJMAIN-338" d="M-612 -215T-619 -215T-631 -212T-637 -204T-639 -197Q-639 -190 -634 -183Q-621 -157 -400 274T-176 707Q-173 716 -160 716Q-153 716 -148 712T-142 703T-140 696Q-140 691 -372 241T-608 -212Q-612 -215 -619 -215Z"></path>
</defs>
<g stroke="currentColor" fill="currentColor" stroke-width="0" transform="matrix(1 0 0 -1 0 0)">
 <use xlink:href="#E1-MJMATHI-61" x="0" y="0"></use>
 <use xlink:href="#E1-MJMAIN-2F" x="34" y="0"></use>
 <use xlink:href="#E1-MJMAIN-2C" x="539" y="0"></use>
 <use xlink:href="#E1-MJAMS-226E" x="988" y="0"></use>
 <use xlink:href="#E1-MJMAIN-2C" x="1771" y="0"></use>
<g transform="translate(2221,0)">
 <use xlink:href="#E1-MJMAIN-2282"></use>
 <use xlink:href="#E1-MJMAIN-338" x="783" y="0"></use>
</g>
</g>
</svg>