<?xml version="1.0" standalone="no"?>
<!DOCTYPE svg PUBLIC "-//W3C//DTD SVG 1.1//EN" "http://www.w3.org/Graphics/SVG/1.1/DTD/svg11.dtd">
<svg xmlns:xlink="http://www.w3.org/1999/xlink" width="6.281ex" height="2.176ex" style="vertical-align: -0.671ex; margin-right: -0.063ex;" viewBox="0 -647.8 2704.3 936.9" xmlns="http://www.w3.org/2000/svg">
<defs>
<path stroke-width="10" id="E1-MJMAIN-2208" d="M84 250Q84 372 166 450T360 539Q361 539 377 539T419 540T469 540H568Q583 532 583 520Q583 511 570 501L466 500Q355 499 329 494Q280 482 242 458T183 409T147 354T129 306T124 272V270H568Q583 262 583 250T568 230H124V228Q124 207 134 177T167 112T231 48T328 7Q355 1 466 0H570Q583 -10 583 -20Q583 -32 568 -40H471Q464 -40 446 -40T417 -41Q262 -41 172 45Q84 127 84 250Z"></path>
<path stroke-width="10" id="E1-MJMAIN-2C" d="M78 35T78 60T94 103T137 121Q165 121 187 96T210 8Q210 -27 201 -60T180 -117T154 -158T130 -185T117 -194Q113 -194 104 -185T95 -172Q95 -168 106 -156T131 -126T157 -76T173 -3V9L172 8Q170 7 167 6T161 3T152 1T140 0Q113 0 96 17Z"></path>
<path stroke-width="10" id="E1-MJMAIN-220B" d="M83 520Q83 532 98 540H195Q202 540 220 540T249 541Q404 541 494 455Q582 374 582 250Q582 165 539 99T434 0T304 -39Q297 -40 195 -40H98Q83 -32 83 -20Q83 -10 96 0H200Q311 1 337 6Q369 14 401 28Q422 39 445 55Q484 85 508 127T537 191T542 228V230H98Q84 237 84 250T98 270H542V272Q542 280 539 295T527 336T497 391T445 445Q422 461 401 472Q386 479 374 483T347 491T325 495T298 498T273 499T239 500T200 500L96 501Q83 511 83 520Z"></path>
<path stroke-width="10" id="E1-MJAMS-220D" d="M154 -1Q122 -1 112 3T102 26Q102 63 158 63H178Q192 64 206 65T228 66T240 68Q301 85 324 146L329 157H244Q158 157 153 161Q149 162 145 169T140 183Q140 201 158 215L167 221H256L344 223L349 237Q352 262 352 287Q352 308 351 315Q341 352 315 368T256 385Q231 385 206 376T166 356T149 346Q143 346 138 364T132 388Q132 396 147 406Q198 440 252 440Q291 440 318 435Q421 404 451 301Q456 288 456 248V234Q456 151 391 86Q330 25 240 3Q212 -1 154 -1Z"></path>
</defs>
<g stroke="currentColor" fill="currentColor" stroke-width="0" transform="matrix(1 0 0 -1 0 0)">
 <use xlink:href="#E1-MJMAIN-2208" x="0" y="0"></use>
 <use xlink:href="#E1-MJMAIN-2C" x="672" y="0"></use>
 <use xlink:href="#E1-MJMAIN-220B" x="1121" y="0"></use>
 <use xlink:href="#E1-MJMAIN-2C" x="1793" y="0"></use>
 <use xlink:href="#E1-MJAMS-220D" x="2243" y="0"></use>
</g>
</svg>