<?xml version="1.0" standalone="no"?>
<!DOCTYPE svg PUBLIC "-//W3C//DTD SVG 1.1//EN" "http://www.w3.org/Graphics/SVG/1.1/DTD/svg11.dtd">
<svg xmlns:xlink="http://www.w3.org/1999/xlink" width="2.204ex" height="2.343ex" style="vertical-align: -0.505ex;" viewBox="0 -791.3 949 1008.6" xmlns="http://www.w3.org/2000/svg">
<defs>
<path stroke-width="10" id="E1-MJAMS-2605" d="M367 395Q374 416 398 492T442 627T463 688Q463 692 467 692Q471 694 472 694Q478 694 484 680T523 562Q553 469 576 400L577 395H731H819Q872 395 883 394T895 384Q895 380 891 376T832 333Q794 305 767 285Q643 195 643 194L690 47Q737 -96 737 -103Q737 -111 727 -111Q721 -111 594 -18L472 71L350 -18Q223 -111 217 -111Q207 -111 207 -103Q207 -96 254 47L301 194Q301 195 241 239T118 328T51 378Q49 382 49 384Q49 392 58 393T110 395H213H367Z"></path>
</defs>
<g stroke="currentColor" fill="currentColor" stroke-width="0" transform="matrix(1 0 0 -1 0 0)">
 <use xlink:href="#E1-MJAMS-2605" x="0" y="0"></use>
</g>
</svg>