<?xml version="1.0" standalone="no"?>
<!DOCTYPE svg PUBLIC "-//W3C//DTD SVG 1.1//EN" "http://www.w3.org/Graphics/SVG/1.1/DTD/svg11.dtd">
<svg xmlns:xlink="http://www.w3.org/1999/xlink" width="8.986ex" height="2.843ex" style="vertical-align: -0.838ex;" viewBox="0 -863.1 3869 1223.9" xmlns="http://www.w3.org/2000/svg">
<defs>
<path stroke-width="10" id="E1-MJMAIN-22C4" d="M242 486Q245 488 250 488Q256 488 258 486Q262 484 373 373T486 258T488 250T486 242T373 127T258 14Q256 12 250 12Q245 12 242 14Q237 16 127 126T14 242Q12 245 12 250T14 258Q16 263 126 373T242 486ZM439 250L250 439L61 250L250 61L439 250Z"></path>
<path stroke-width="10" id="E1-MJMAIN-2C" d="M78 35T78 60T94 103T137 121Q165 121 187 96T210 8Q210 -27 201 -60T180 -117T154 -158T130 -185T117 -194Q113 -194 104 -185T95 -172Q95 -168 106 -156T131 -126T157 -76T173 -3V9L172 8Q170 7 167 6T161 3T152 1T140 0Q113 0 96 17Z"></path>
<path stroke-width="10" id="E1-MJMAIN-2218" d="M55 251Q55 328 112 386T249 444T386 388T444 249Q444 171 388 113T250 55Q170 55 113 112T55 251ZM245 403Q188 403 142 361T96 250Q96 183 141 140T250 96Q284 96 313 109T354 135T375 160Q403 197 403 250Q403 313 360 358T245 403Z"></path>
<path stroke-width="10" id="E1-MJMAIN-2219" d="M55 251Q55 328 112 386T249 444T386 388T444 249Q444 171 388 113T250 55Q170 55 113 112T55 251Z"></path>
<path stroke-width="10" id="E1-MJMAIN-25EF" d="M56 250Q56 353 95 442T196 589T335 681T491 715Q573 715 635 693Q694 673 747 635T846 543T917 412T944 250Q944 58 815 -78T500 -215Q457 -215 429 -210Q274 -183 165 -56T56 250ZM500 -176Q664 -176 784 -54T904 250Q904 418 799 536T543 674Q534 675 493 675Q425 675 357 647T229 567T133 432T96 250Q96 160 129 80T217 -56T346 -144T500 -176Z"></path>
</defs>
<g stroke="currentColor" fill="currentColor" stroke-width="0" transform="matrix(1 0 0 -1 0 0)">
 <use xlink:href="#E1-MJMAIN-22C4" x="0" y="0"></use>
 <use xlink:href="#E1-MJMAIN-2C" x="505" y="0"></use>
 <use xlink:href="#E1-MJMAIN-2218" x="954" y="0"></use>
 <use xlink:href="#E1-MJMAIN-2C" x="1459" y="0"></use>
 <use xlink:href="#E1-MJMAIN-2219" x="1909" y="0"></use>
 <use xlink:href="#E1-MJMAIN-2C" x="2414" y="0"></use>
 <use xlink:href="#E1-MJMAIN-25EF" x="2863" y="0"></use>
</g>
</svg>