<?xml version="1.0" standalone="no"?>
<!DOCTYPE svg PUBLIC "-//W3C//DTD SVG 1.1//EN" "http://www.w3.org/Graphics/SVG/1.1/DTD/svg11.dtd">
<svg xmlns:xlink="http://www.w3.org/1999/xlink" width="11.412ex" height="2.343ex" style="vertical-align: -0.671ex;" viewBox="0 -719.6 4913.3 1008.6" xmlns="http://www.w3.org/2000/svg">
<defs>
<path stroke-width="10" id="E1-MJAMS-22D8" d="M639 -48Q639 -54 634 -60T619 -67H618Q612 -67 536 -26Q430 33 329 88Q61 235 59 239Q56 243 56 250T59 261Q62 266 336 415T615 567L619 568Q622 567 625 567Q639 562 639 548Q639 540 633 534Q632 532 374 391L117 250L374 109Q632 -32 633 -34Q639 -40 639 -48ZM958 -48Q958 -54 953 -60T938 -67H937Q931 -67 855 -26Q749 33 648 88Q380 235 378 239Q375 243 375 250T378 261Q381 266 655 415T934 567L938 568Q941 567 944 567Q958 562 958 548Q958 540 952 534Q951 532 693 391L436 250L693 109Q951 -32 952 -34Q958 -40 958 -48ZM1277 -48Q1277 -54 1272 -60T1257 -67H1256Q1250 -67 1174 -26Q1068 33 967 88Q699 235 697 239Q694 243 694 250T697 261Q700 266 974 415T1253 567L1257 568Q1260 567 1263 567Q1277 562 1277 548Q1277 540 1271 534Q1270 532 1012 391L755 250L1012 109Q1270 -32 1271 -34Q1277 -40 1277 -48Z"></path>
<path stroke-width="10" id="E1-MJMAIN-2C" d="M78 35T78 60T94 103T137 121Q165 121 187 96T210 8Q210 -27 201 -60T180 -117T154 -158T130 -185T117 -194Q113 -194 104 -185T95 -172Q95 -168 106 -156T131 -126T157 -76T173 -3V9L172 8Q170 7 167 6T161 3T152 1T140 0Q113 0 96 17Z"></path>
<path stroke-width="10" id="E1-MJAMS-22D9" d="M75 -67Q65 -67 60 -61T55 -48Q55 -40 61 -34Q62 -32 329 109L595 250L329 391Q62 532 61 534Q55 540 55 548Q55 562 69 567H77Q81 567 222 493T506 342T653 264Q667 250 653 236Q649 234 504 157T220 7T77 -67H75ZM364 547Q364 563 381 567L384 568Q387 568 518 499T795 353T955 269Q967 261 967 250T955 231Q925 216 780 139T513 -3T383 -67Q373 -67 369 -60T364 -47Q364 -40 370 -34Q373 -31 639 109L904 250L639 391Q373 531 370 534Q364 540 364 547ZM674 538T674 548T681 562T693 567Q699 567 816 505Q915 453 993 412Q1050 382 1132 339Q1241 282 1259 271T1277 250Q1277 241 1263 232Q1246 221 985 84Q698 -67 692 -67Q674 -67 674 -47Q674 -38 680 -33Q683 -30 947 109L1213 250L947 391Q683 530 680 533Q674 538 674 548Z"></path>
</defs>
<g stroke="currentColor" fill="currentColor" stroke-width="0" transform="matrix(1 0 0 -1 0 0)">
 <use xlink:href="#E1-MJAMS-22D8" x="0" y="0"></use>
 <use xlink:href="#E1-MJMAIN-2C" x="1338" y="0"></use>
 <use xlink:href="#E1-MJAMS-22D9" x="1787" y="0"></use>
 <use xlink:href="#E1-MJMAIN-2C" x="3125" y="0"></use>
 <use xlink:href="#E1-MJAMS-22D9" x="3575" y="0"></use>
</g>
</svg>