<?xml version="1.0" standalone="no"?>
<!DOCTYPE svg PUBLIC "-//W3C//DTD SVG 1.1//EN" "http://www.w3.org/Graphics/SVG/1.1/DTD/svg11.dtd">
<svg xmlns:xlink="http://www.w3.org/1999/xlink" width="2.964ex" height="3.176ex" style="vertical-align: -0.838ex;" viewBox="0 -1006.6 1276.3 1367.4" xmlns="http://www.w3.org/2000/svg">
<defs>
<path stroke-width="10" id="E1-MJMAIN-30" d="M96 585Q152 666 249 666Q297 666 345 640T423 548Q460 465 460 320Q460 165 417 83Q397 41 362 16T301 -15T250 -22Q224 -22 198 -16T137 16T82 83Q39 165 39 320Q39 494 96 585ZM321 597Q291 629 250 629Q208 629 178 597Q153 571 145 525T137 333Q137 175 145 125T181 46Q209 16 250 16Q290 16 318 46Q347 76 354 130T362 333Q362 478 354 524T321 597Z"></path>
<path stroke-width="10" id="E1-MJMAIN-2F" d="M423 750Q432 750 438 744T444 730Q444 725 271 248T92 -240Q85 -250 75 -250Q68 -250 62 -245T56 -231Q56 -221 230 257T407 740Q411 750 423 750Z"></path>
</defs>
<g stroke="currentColor" fill="currentColor" stroke-width="0" transform="matrix(1 0 0 -1 0 0)">
<g transform="translate(0,412)">
 <use transform="scale(0.707)" xlink:href="#E1-MJMAIN-30" x="0" y="0"></use>
</g>
 <use xlink:href="#E1-MJMAIN-2F" x="123" y="0"></use>
<g transform="translate(628,0)">
<g transform="translate(-167,-150)">
 <use transform="scale(0.707)" xlink:href="#E1-MJMAIN-30"></use>
 <use transform="scale(0.707)" xlink:href="#E1-MJMAIN-30" x="505" y="0"></use>
</g>
</g>
</g>
</svg>