<?xml version="1.0" standalone="no"?>
<!DOCTYPE svg PUBLIC "-//W3C//DTD SVG 1.1//EN" "http://www.w3.org/Graphics/SVG/1.1/DTD/svg11.dtd">
<svg xmlns:xlink="http://www.w3.org/1999/xlink" width="4.682ex" height="2.509ex" style="vertical-align: -0.838ex;" viewBox="0 -719.6 2015.7 1080.4" xmlns="http://www.w3.org/2000/svg">
<defs>
<path stroke-width="10" id="E1-MJAMS-E01A" d="M693 -115T693 -122T680 -144H315L269 -199Q221 -255 213 -255H212Q203 -255 197 -248T193 -231Q195 -225 229 -184L262 -144H186L113 -142L106 -137Q102 -130 102 -125Q102 -119 115 -104H298L426 52H386Q342 54 309 63Q236 79 180 129T98 249Q84 289 84 343Q84 398 98 436Q126 514 193 567T346 632Q347 632 373 632T440 633T520 634H680Q682 631 686 627T691 621T693 614T680 594H526Q364 594 353 592Q268 581 207 528T126 394Q123 378 123 343T126 292Q141 231 181 185T280 114Q329 92 415 92H462L506 147Q554 203 562 203H563Q572 203 578 196T582 178Q579 173 546 132L513 94L598 92H682Q693 81 693 73T680 52H480L349 -102L515 -104H682Q693 -115 693 -122Z"></path>
<path stroke-width="10" id="E1-MJMAIN-2C" d="M78 35T78 60T94 103T137 121Q165 121 187 96T210 8Q210 -27 201 -60T180 -117T154 -158T130 -185T117 -194Q113 -194 104 -185T95 -172Q95 -168 106 -156T131 -126T157 -76T173 -3V9L172 8Q170 7 167 6T161 3T152 1T140 0Q113 0 96 17Z"></path>
<path stroke-width="10" id="E1-MJAMS-E01B" d="M82 610T82 614T83 620T89 627T95 634H251Q378 634 409 633T469 623Q540 604 596 554T678 436Q691 397 691 343T678 249Q653 181 597 131T469 63Q427 52 362 52H315L213 -102L438 -104H662Q673 -115 673 -123Q673 -129 660 -144H186L151 -197Q114 -250 109 -253Q106 -254 104 -254Q100 -254 98 -253Q91 -253 87 -248T82 -235Q82 -230 109 -186L138 -144H115Q82 -144 82 -125Q82 -119 95 -104H166L266 49Q266 52 182 52H95Q82 65 82 72Q82 76 83 78T89 85T95 92H295L329 143Q365 195 369 198Q372 203 380 203Q385 203 391 197T398 185Q398 184 398 184L399 182Q399 175 369 129L344 94Q344 92 376 92Q402 92 422 94Q496 104 554 147T638 256Q651 295 651 343Q651 390 638 429Q613 494 555 537T422 592Q411 594 249 594H95Q82 610 82 614Z"></path>
</defs>
<g stroke="currentColor" fill="currentColor" stroke-width="0" transform="matrix(1 0 0 -1 0 0)">
 <use xlink:href="#E1-MJAMS-E01A" x="0" y="0"></use>
 <use xlink:href="#E1-MJMAIN-2C" x="783" y="0"></use>
 <use xlink:href="#E1-MJAMS-E01B" x="1232" y="0"></use>
</g>
</svg>