<?xml version="1.0" standalone="no"?>
<!DOCTYPE svg PUBLIC "-//W3C//DTD SVG 1.1//EN" "http://www.w3.org/Graphics/SVG/1.1/DTD/svg11.dtd">
<svg xmlns:xlink="http://www.w3.org/1999/xlink" width="3.906ex" height="2.509ex" style="vertical-align: -0.671ex;" viewBox="0 -791.3 1681.7 1080.4" xmlns="http://www.w3.org/2000/svg">
<defs>
<path stroke-width="10" id="E1-MJMAIN-21D1" d="M228 -179Q227 -180 226 -182T223 -186T221 -189T218 -192T214 -193T208 -194Q196 -194 189 -181L188 125V430L176 419Q122 369 59 338Q46 330 40 330Q38 330 31 337V350Q31 362 33 365T46 374Q60 381 77 390T128 426T190 484T247 567T292 677Q295 688 298 692Q302 694 305 694Q313 694 318 677Q334 619 363 568T420 485T481 427T532 391T564 374Q575 368 577 365T579 350V337Q572 330 570 330Q564 330 551 338Q487 370 435 419L423 430L422 125V-181Q409 -194 401 -194Q397 -194 394 -193T388 -189T385 -184T382 -180V-177V475L373 487Q331 541 305 602Q304 601 300 591T290 571T278 548T260 519T238 488L229 476L228 148V-179Z"></path>
<path stroke-width="10" id="E1-MJMAIN-2C" d="M78 35T78 60T94 103T137 121Q165 121 187 96T210 8Q210 -27 201 -60T180 -117T154 -158T130 -185T117 -194Q113 -194 104 -185T95 -172Q95 -168 106 -156T131 -126T157 -76T173 -3V9L172 8Q170 7 167 6T161 3T152 1T140 0Q113 0 96 17Z"></path>
<path stroke-width="10" id="E1-MJMAIN-21D3" d="M401 694Q412 694 422 681V375L423 70L435 81Q487 130 551 162Q564 170 570 170Q572 170 579 163V150Q579 138 577 135T564 126Q541 114 518 99T453 48T374 -46T318 -177Q313 -194 305 -194T293 -178T272 -119T225 -31Q158 70 46 126Q35 132 33 135T31 150V163Q38 170 40 170Q46 170 59 162Q122 131 176 81L188 70V375L189 681Q199 694 208 694Q219 694 228 680V352L229 25L238 12Q279 -42 305 -102Q344 -23 373 13L382 25V678Q387 692 401 694Z"></path>
</defs>
<g stroke="currentColor" fill="currentColor" stroke-width="0" transform="matrix(1 0 0 -1 0 0)">
 <use xlink:href="#E1-MJMAIN-21D1" x="0" y="0"></use>
 <use xlink:href="#E1-MJMAIN-2C" x="616" y="0"></use>
 <use xlink:href="#E1-MJMAIN-21D3" x="1065" y="0"></use>
</g>
</svg>