<?xml version="1.0" standalone="no"?>
<!DOCTYPE svg PUBLIC "-//W3C//DTD SVG 1.1//EN" "http://www.w3.org/Graphics/SVG/1.1/DTD/svg11.dtd">
<svg xmlns:xlink="http://www.w3.org/1999/xlink" width="10.408ex" height="2.176ex" style="vertical-align: -0.671ex;" viewBox="0 -647.8 4481 936.9" xmlns="http://www.w3.org/2000/svg">
<defs>
<path stroke-width="10" id="E1-MJAMS-22C9" d="M146 479Q159 492 166 492Q171 492 189 475T279 386L386 279L495 386Q598 492 608 492Q615 492 621 486T628 472Q628 464 522 357L415 250L522 144Q628 37 628 28Q628 21 622 15T608 8Q599 8 495 115L386 221L279 115Q204 40 188 24T166 8Q162 8 160 9T153 15T146 21V479ZM186 77L359 250L186 424V77Z"></path>
<path stroke-width="10" id="E1-MJMAIN-2C" d="M78 35T78 60T94 103T137 121Q165 121 187 96T210 8Q210 -27 201 -60T180 -117T154 -158T130 -185T117 -194Q113 -194 104 -185T95 -172Q95 -168 106 -156T131 -126T157 -76T173 -3V9L172 8Q170 7 167 6T161 3T152 1T140 0Q113 0 96 17Z"></path>
<path stroke-width="10" id="E1-MJAMS-22CA" d="M146 472Q146 479 152 485T166 492Q171 492 189 475T279 386L386 279L495 386Q598 492 608 492Q615 492 628 479V21Q615 8 608 8Q599 8 495 115L386 221L279 115Q204 40 188 24T166 8Q159 8 153 14T146 28Q146 37 253 144L359 250L253 357Q146 464 146 472ZM588 77V424L499 337L415 250L588 77Z"></path>
<path stroke-width="10" id="E1-MJMAIN-D7" d="M630 29Q630 9 609 9Q604 9 587 25T493 118L389 222L284 117Q178 13 175 11Q171 9 168 9Q160 9 154 15T147 29Q147 36 161 51T255 146L359 250L255 354Q174 435 161 449T147 471Q147 480 153 485T168 490Q173 490 175 489Q178 487 284 383L389 278L493 382Q570 459 587 475T609 491Q630 491 630 471Q630 464 620 453T522 355L418 250L522 145Q606 61 618 48T630 29Z"></path>
<path stroke-width="10" id="E1-MJAMS-22C7" d="M366 543Q374 545 382 545Q405 545 419 538Q429 534 443 521T462 496Q466 478 466 467Q466 438 444 412Q422 390 388 390Q352 390 331 412Q311 434 311 467Q311 499 331 518Q345 533 366 543ZM146 472Q146 479 153 485T166 492Q171 492 187 476T279 385L386 278L495 385Q600 492 608 492Q615 492 621 486T628 472Q628 467 614 452T531 367L435 270H706Q720 256 720 250Q720 241 706 230H435L531 132Q600 63 614 48T628 27Q628 20 622 14T608 7Q600 7 495 114L386 221L279 114Q204 39 188 23T166 7Q159 7 153 13T146 27Q146 32 160 47T244 132L339 230H68Q55 243 55 250Q55 255 68 270H339L244 367Q175 436 161 451T146 472ZM466 34Q466 4 447 -20T388 -44Q353 -44 331 -22Q311 1 311 34Q311 66 331 85Q347 101 366 110Q374 112 382 112Q405 112 419 105Q429 100 443 87T462 63Q466 45 466 34Z"></path>
</defs>
<g stroke="currentColor" fill="currentColor" stroke-width="0" transform="matrix(1 0 0 -1 0 0)">
 <use xlink:href="#E1-MJAMS-22C9" x="0" y="0"></use>
 <use xlink:href="#E1-MJMAIN-2C" x="783" y="0"></use>
 <use xlink:href="#E1-MJAMS-22CA" x="1232" y="0"></use>
 <use xlink:href="#E1-MJMAIN-2C" x="2015" y="0"></use>
 <use xlink:href="#E1-MJMAIN-D7" x="2465" y="0"></use>
 <use xlink:href="#E1-MJMAIN-2C" x="3248" y="0"></use>
 <use xlink:href="#E1-MJAMS-22C7" x="3698" y="0"></use>
</g>
</svg>