<?xml version="1.0" standalone="no"?>
<!DOCTYPE svg PUBLIC "-//W3C//DTD SVG 1.1//EN" "http://www.w3.org/Graphics/SVG/1.1/DTD/svg11.dtd">
<svg xmlns:xlink="http://www.w3.org/1999/xlink" width="20.894ex" height="2.676ex" style="vertical-align: -0.838ex; margin-left: -0.03ex;" viewBox="-13 -791.3 8996 1152.1" xmlns="http://www.w3.org/2000/svg">
<defs>
<path stroke-width="10" id="E1-MJFRAK-73" d="M272 33Q284 33 290 70T296 138Q296 181 290 198T262 230Q257 232 246 232Q231 232 218 227T156 194L108 167L101 176Q90 192 75 219L69 230V284Q69 346 70 357V377L146 427Q181 450 202 464T223 477L225 476Q227 475 229 474Q231 472 242 466T270 450T296 431Q309 418 326 418Q342 418 361 429T392 450T403 459Q406 445 406 442Q406 440 384 421T338 382L316 363Q315 362 310 362Q292 362 251 371T173 396Q156 403 155 403Q143 386 143 342Q143 305 150 278T168 244Q171 242 181 242L190 243L315 300Q330 295 357 274Q358 273 362 270T366 266T369 261T372 253T373 239T374 217T374 185Q374 157 372 133T368 98T363 71T358 50L336 40Q288 20 255 2T211 -22T198 -29L190 -22Q181 -14 168 -3T138 19T104 38T70 46Q50 46 32 37T3 20T-9 11L-18 23L-1 41Q46 89 62 99T112 110Q141 110 157 103T225 62Q268 33 272 33Z"></path>
<path stroke-width="10" id="E1-MJFRAK-74" d="M228 640L242 627L227 613Q213 599 211 593T203 553Q197 500 196 435V389H301L272 353H195V274Q195 178 196 159L197 123Q249 71 273 68H280L312 83Q344 99 345 99Q348 99 348 78Q348 76 314 52T246 4L212 -20Q211 -20 164 19T112 62Q112 122 113 196Q113 228 113 262T114 318T114 341V353H27L62 389H116L117 431V558L228 640Z"></path>
<path stroke-width="10" id="E1-MJFRAK-75" d="M171 315Q171 252 165 199T153 124L147 103Q147 102 196 80L244 57L335 107V116Q339 161 339 268Q339 315 338 351T337 412V424L420 468Q424 465 427 461L424 435Q412 331 412 226Q412 170 415 145T434 96Q442 84 452 83Q461 83 492 96L506 102Q507 102 510 96T513 88L493 71Q445 32 401 -9Q392 -18 388 -17L384 -16Q358 39 355 44Q336 77 333 77Q261 45 203 -9Q186 -23 181 -23Q177 -23 162 -11T121 18T69 44L57 48L61 54Q65 60 71 73T82 102Q100 156 100 262Q100 305 93 335T80 373T62 396L23 376Q18 377 9 386L119 474Q149 437 171 421V339V315Z"></path>
<path stroke-width="10" id="E1-MJFRAK-76" d="M55 418Q55 443 100 503Q121 530 123 530Q125 528 127 528T131 528T134 528T135 524T131 516Q123 499 123 486Q123 457 159 416L169 405L170 388L171 372Q171 371 244 424L317 477L334 466Q394 428 432 416L433 402Q433 400 433 377T434 336V305Q434 195 420 131Q413 94 406 87Q403 84 298 29L192 -28L172 -8Q139 25 106 52L92 64V70Q95 97 95 198Q95 293 94 318L92 355L84 367Q55 406 55 418ZM174 306Q174 297 173 255T171 184Q171 153 175 136T198 100Q207 94 224 80T255 57T282 49Q304 49 328 80Q359 129 359 243Q359 284 352 345Q351 358 348 360Q333 373 304 384T265 396L251 390Q215 372 186 351L175 344V337Q175 319 174 306Z"></path>
<path stroke-width="10" id="E1-MJFRAK-77" d="M45 425Q45 439 82 485T126 532Q127 532 128 532T131 531T137 529L132 519Q121 499 121 483Q121 473 131 454T156 419L167 408L169 376L185 388Q237 425 291 473L301 466Q337 443 394 416L419 405L418 387V369Q419 369 487 418T560 471L581 459Q597 450 621 437T664 415T684 406Q688 406 688 323Q688 254 679 193T662 103T648 71Q647 70 554 20L464 -28L443 -15Q416 1 386 17T343 40T331 49Q331 52 333 73T337 133T339 216Q339 309 334 339Q333 341 316 353T277 377T246 389Q235 389 201 369T166 346Q166 345 164 247Q164 232 164 210T163 179Q163 139 170 116T205 57L212 48L136 -27Q115 16 87 44L78 53L80 67Q88 124 88 211Q88 282 87 315T83 356T74 371Q45 410 45 425ZM591 352Q580 359 565 365T540 374T517 381T504 385L418 342L417 318V220Q417 212 417 194T417 170T418 152T420 134T424 120T431 106T440 95T454 83Q508 44 544 44Q566 44 583 77Q603 120 605 235Q605 289 600 322Q598 343 597 345T591 352Z"></path>
<path stroke-width="10" id="E1-MJFRAK-78" d="M14 377Q63 428 117 472Q130 462 144 449L193 408V392V376L247 420Q300 464 301 464L310 451Q331 417 363 390L333 365Q303 340 301 340Q293 343 277 364T250 386Q241 386 215 361L195 341Q194 333 193 327T191 318T190 304T188 269Q188 220 192 148Q193 122 195 118T210 101Q255 60 271 60Q276 60 278 61L318 82Q327 86 336 91T351 98L356 101Q359 82 356 79Q354 77 283 27T210 -24L192 -7Q160 23 137 40L126 49L116 40Q66 -13 66 -54Q66 -117 167 -140L179 -142V-147L180 -152L123 -188L112 -185Q58 -170 31 -145Q10 -122 10 -96Q10 -80 22 -53Q44 -10 95 49Q97 51 100 54T104 59T107 64T109 71T111 81T112 97T113 119T114 149T114 188Q114 284 108 347V354L96 365Q76 385 67 385Q62 385 45 377L27 368L14 377Z"></path>
<path stroke-width="10" id="E1-MJFRAK-79" d="M74 58Q89 124 89 241Q89 265 89 278T89 305T88 324T87 336T84 346T81 352T77 359T71 368Q57 388 52 398L45 409Q62 454 98 507L113 528Q128 528 128 524Q128 523 125 518T120 503T117 483V471Q123 456 130 445Q135 438 140 432T148 422T153 415T157 409T160 405T162 402T163 399T163 395V384V365Q165 365 237 419L311 473Q383 430 420 416Q426 414 426 411V404Q426 398 426 388T427 367Q431 233 431 201Q431 -3 391 -52Q387 -58 305 -138T221 -218L218 -217Q216 -216 211 -214T202 -210L184 -202L199 -194Q259 -162 288 -127T334 -19T350 184Q350 257 342 328L340 356Q282 390 262 390Q248 390 178 346L163 336V111L216 45L131 -26L124 -15Q114 3 85 44L74 58Z"></path>
<path stroke-width="10" id="E1-MJFRAK-7A" d="M47 335L36 347L52 362Q112 421 167 461L181 471L192 465Q236 444 260 417T284 369Q284 355 276 343T233 291Q195 246 195 245T205 242T241 228T300 198L302 187Q314 138 314 74Q314 -24 291 -95Q290 -100 222 -157L154 -214H145Q102 -214 53 -189T-7 -117Q41 -21 183 122L207 147Q205 149 186 157T140 172T100 180H97V192L140 231Q192 280 199 293Q205 303 205 315Q205 339 185 363T137 388Q119 388 63 347L47 335ZM179 -153Q212 -153 226 -113T240 14Q240 67 233 98T223 132T211 143L222 130Q216 125 206 116T170 82T124 33T88 -20T72 -70Q72 -99 105 -126T179 -153Z"></path>
<path stroke-width="10" id="E1-MJFRAK-30" d="M212 -13Q184 -13 156 -2T101 32T59 97T42 195Q42 311 132 396Q170 433 211 462T262 492Q272 492 301 477T366 434T429 360T456 258Q456 161 378 74T212 -13ZM381 209Q381 257 365 295T328 355T282 390T243 408T223 413Q220 413 204 403T167 376T137 341Q119 305 119 250Q119 168 159 114T263 59Q308 59 344 93T381 209Z"></path>
<path stroke-width="10" id="E1-MJFRAK-31" d="M123 459Q145 459 170 460T217 462T256 464T284 466L295 467Q296 467 296 467T297 468Q299 468 302 466T307 462L309 459Q307 454 304 424T299 341T297 235Q297 139 298 101T302 55T313 44Q316 43 367 43L460 46Q460 35 459 22V-1H450Q402 2 281 6Q222 6 171 4T91 1T56 -1L47 -2V43H121H170Q195 43 201 45T209 56Q212 69 212 214Q212 333 209 365T194 409Q183 417 161 423T121 430L104 432Q103 432 103 446V459H123Z"></path>
<path stroke-width="10" id="E1-MJFRAK-32" d="M104 384Q115 394 133 409T199 449T281 474Q321 474 351 447T385 378Q385 328 333 255T228 127T176 72Q176 67 183 65Q184 65 203 65T260 67T331 69L475 73L484 67Q484 64 472 33L460 1H60V17L107 61Q210 159 249 208Q309 283 309 331Q309 363 285 389T228 415Q212 415 184 403T134 379L114 367L104 384Z"></path>
<path stroke-width="10" id="E1-MJFRAK-33" d="M305 328Q305 372 279 396T214 421H211Q172 421 128 384L107 398L116 405Q151 437 191 455T251 473H260Q314 473 341 455T382 394Q384 386 384 367T382 338Q362 263 271 217L256 210L257 206L259 202Q260 202 272 201T296 198T324 192T355 179T384 157T410 123T427 75Q429 64 429 41Q429 -59 353 -120T183 -182L88 -164Q81 -162 69 -157T48 -147T39 -141Q39 -139 46 -127L53 -114L69 -122Q129 -149 171 -149Q218 -149 253 -131T305 -83T330 -26T338 29Q338 41 336 55T328 89T308 127T273 153Q228 171 162 171Q158 171 152 171T142 170H127V204H134Q232 214 275 257Q305 292 305 328Z"></path>
<path stroke-width="10" id="E1-MJFRAK-34" d="M299 -179Q306 -156 306 -48V0H11V7Q10 10 10 18Q10 23 154 236L298 449Q298 450 339 463L379 476Q385 473 384 470V466Q384 463 384 457T384 444T383 427T383 408Q381 328 381 248Q381 46 384 40H387Q422 40 460 44Q465 44 470 44T478 44L481 45Q481 43 478 24T473 1Q473 -1 464 -1Q462 -1 451 -1T430 0H387V-76L389 -156V-161L311 -191Q299 -181 299 -179ZM299 364H287L277 352Q234 297 186 224T112 104T79 43Q79 42 192 42H306V115Q306 300 299 359V364Z"></path>
<path stroke-width="10" id="E1-MJFRAK-35" d="M334 25Q334 99 296 134T207 169Q154 169 107 123L98 114L89 120L80 125V458H420Q420 456 409 418L397 379Q397 378 264 378H131Q130 377 128 376T125 374T124 371T122 368T122 363T121 356T121 345V279V190L130 186L140 190Q196 214 260 214Q311 214 348 197T404 153T431 99T440 42T433 -16T406 -76T356 -130T276 -169T163 -184H156Q110 -184 57 -163L47 -159L53 -147L58 -134Q61 -134 74 -139T110 -148T156 -153Q206 -153 243 -135T299 -87T326 -30T334 25Z"></path>
<path stroke-width="10" id="E1-MJFRAK-36" d="M45 240Q45 328 73 406T143 536T235 626T327 681T399 699Q400 699 404 699T411 700Q424 700 441 696T459 689Q459 671 451 637Q451 633 447 632L444 629L434 633Q413 640 384 640H377Q299 640 222 565Q182 531 156 463T129 315V306H136L149 315Q229 376 316 376H318Q393 376 432 326T471 213Q471 129 402 58T237 -13T93 59T45 240ZM391 172Q391 231 354 272T258 314Q230 314 200 302T154 279T133 262L134 249Q154 32 266 32Q315 32 353 64T391 172Z"></path>
<path stroke-width="10" id="E1-MJFRAK-37" d="M395 377L391 382H225Q59 382 59 383L74 423Q89 464 89 465Q90 468 94 468Q146 460 350 458H498V442L473 406Q241 75 125 -156L113 -181H40L37 -168L57 -140Q115 -58 199 70T339 287T395 377Z"></path>
<path stroke-width="10" id="E1-MJFRAK-38" d="M220 -10Q168 -10 131 6T75 50T48 103T40 157Q40 223 77 266Q103 295 156 328T225 375Q247 393 247 394L206 361Q205 361 193 368T164 391T131 426T102 474T90 531Q90 580 114 615Q146 660 238 698L254 705L262 704Q288 704 332 693T402 656Q434 620 434 568Q434 518 401 475T321 402L305 391L336 368Q339 366 353 356T372 343T389 330T406 316T420 301T434 283T445 265T454 244T458 222T461 195Q461 106 389 48T220 -10ZM350 545Q350 578 337 601T304 634T266 649T234 653L224 654L204 639Q196 634 191 629T182 621T176 614T173 609T170 603T168 597Q165 585 165 567Q165 497 261 424L273 415Q350 467 350 545ZM261 405L263 407Q262 407 261 405ZM258 403Q257 403 255 401L254 399L256 400Q258 402 258 403ZM252 398Q251 398 249 396L248 394L250 395Q252 397 252 398ZM245 36Q276 36 300 45T338 69T360 102T371 136T374 168Q374 211 341 255Q324 275 305 289T235 332Q231 330 215 321T193 307T173 292T153 271T138 247T127 216T123 177Q123 146 132 117T170 62T245 36Z"></path>
<path stroke-width="10" id="E1-MJFRAK-39" d="M353 93T352 93T320 79T251 49T201 34Q127 37 87 79Q28 138 28 234Q28 273 37 304T60 355T101 396T152 429T218 462L234 469H243Q348 461 395 417Q466 348 466 201Q466 72 397 -29T211 -163Q155 -179 91 -182H72V-154H80Q144 -154 202 -131T297 -60Q318 -31 333 7T352 68L357 92Q353 93 352 93ZM369 208Q369 240 362 272T339 339T290 394T214 415Q171 415 144 372T116 266Q116 193 154 144T238 95H249Q369 95 369 208Z"></path>
</defs>
<g stroke="currentColor" fill="currentColor" stroke-width="0" transform="matrix(1 0 0 -1 0 0)">
 <use xlink:href="#E1-MJFRAK-73" x="0" y="0"></use>
 <use xlink:href="#E1-MJFRAK-74" x="448" y="0"></use>
 <use xlink:href="#E1-MJFRAK-75" x="801" y="0"></use>
 <use xlink:href="#E1-MJFRAK-76" x="1323" y="0"></use>
 <use xlink:href="#E1-MJFRAK-77" x="1840" y="0"></use>
 <use xlink:href="#E1-MJFRAK-78" x="2619" y="0"></use>
 <use xlink:href="#E1-MJFRAK-79" x="3013" y="0"></use>
 <use xlink:href="#E1-MJFRAK-7A" x="3517" y="0"></use>
<g transform="translate(3913,0)">
 <use xlink:href="#E1-MJFRAK-30"></use>
 <use xlink:href="#E1-MJFRAK-31" x="507" y="0"></use>
 <use xlink:href="#E1-MJFRAK-32" x="1014" y="0"></use>
 <use xlink:href="#E1-MJFRAK-33" x="1521" y="0"></use>
 <use xlink:href="#E1-MJFRAK-34" x="2028" y="0"></use>
 <use xlink:href="#E1-MJFRAK-35" x="2535" y="0"></use>
 <use xlink:href="#E1-MJFRAK-36" x="3042" y="0"></use>
 <use xlink:href="#E1-MJFRAK-37" x="3549" y="0"></use>
 <use xlink:href="#E1-MJFRAK-38" x="4056" y="0"></use>
 <use xlink:href="#E1-MJFRAK-39" x="4563" y="0"></use>
</g>
</g>
</svg>