<?xml version="1.0" standalone="no"?>
<!DOCTYPE svg PUBLIC "-//W3C//DTD SVG 1.1//EN" "http://www.w3.org/Graphics/SVG/1.1/DTD/svg11.dtd">
<svg xmlns:xlink="http://www.w3.org/1999/xlink" width="6.489ex" height="2.676ex" style="vertical-align: -0.671ex;" viewBox="0 -863.1 2794 1152.1" xmlns="http://www.w3.org/2000/svg">
<defs>
<path stroke-width="10" id="E1-MJAMS-F0" d="M75 566V604Q75 624 79 629T102 635Q124 635 127 629T131 588L133 550L191 588L249 628L231 635Q176 654 124 657Q116 657 106 658L95 659Q94 661 94 687T95 715Q99 717 113 717Q195 717 282 679L309 668L331 681Q351 697 391 721Q428 748 435 748Q437 749 446 749Q470 749 473 746Q478 744 478 681V621Q466 615 456 615Q435 615 424 624L422 661V699L382 675L344 648Q353 639 366 630Q480 538 504 413Q509 393 509 333V313Q509 284 507 257T495 184T466 102T413 33T329 -16Q311 -21 275 -21Q226 -21 195 -10Q150 7 110 50T53 141Q42 179 42 227Q42 332 101 403T245 474Q282 474 314 461T359 436T380 415Q386 405 389 408Q389 426 378 475Q368 505 355 529T329 567T306 590T288 603L282 606L120 501Q116 500 102 500Q84 500 75 506V566ZM388 225Q388 376 309 410Q299 416 273 419Q216 419 191 390Q174 371 168 342T162 218Q162 112 184 79Q212 39 273 39Q312 39 342 62T380 121Q388 159 388 225Z"></path>
<path stroke-width="10" id="E1-MJMAINI-210F" d="M150 475Q147 475 118 466T82 457Q73 457 64 467T54 487Q54 490 55 492Q63 506 64 506Q67 512 118 526Q162 541 169 546Q173 559 175 575Q181 596 181 604Q181 613 166 617Q164 617 153 618T135 619Q119 619 114 621T109 630Q109 636 114 656T122 681Q125 685 202 688Q272 695 286 695Q304 695 304 684Q304 682 291 628L278 577L386 612Q466 635 476 635T492 627T499 607Q499 593 489 586Q485 583 373 546L262 512Q262 511 248 455T233 397T236 397T244 404Q295 441 357 441Q405 441 445 417T485 333Q485 284 449 178T412 58T426 44Q447 44 466 68Q485 87 500 130L509 152H531H543Q562 152 562 144Q562 128 546 93T494 23T415 -13Q385 -13 359 3T322 44Q318 52 318 77Q318 99 352 196T386 337Q386 386 346 386Q318 386 286 370Q267 361 245 338T211 292Q207 287 193 235T162 113T138 21Q128 7 122 4Q105 -12 83 -12Q66 -12 54 -2T42 26Q42 45 98 257L151 475H150Z"></path>
<path stroke-width="10" id="E1-MJMAINI-131" d="M75 287Q75 292 82 313T103 362T142 413T196 441H214Q248 441 270 419T293 357Q292 338 289 330T245 208Q193 72 193 46Q193 26 209 26Q228 26 247 43Q273 71 292 136Q295 148 297 150T311 153H317Q327 153 330 153T337 150T340 143Q340 133 330 105T292 41T228 -8Q220 -10 204 -10Q160 -10 141 15T122 71Q122 98 171 227T221 384Q221 396 218 400T203 405Q175 403 156 374T128 312T116 279Q115 278 97 278H81Q75 284 75 287Z"></path>
<path stroke-width="10" id="E1-MJMAINI-237" d="M75 284T75 287T81 305T101 343T133 389T180 426T240 442Q273 440 300 420T327 350V332L278 134Q267 92 253 37T233 -45T225 -73Q208 -123 162 -163T54 -204Q8 -204 -15 -181Q-32 -164 -32 -140Q-32 -112 -14 -96T27 -79Q48 -79 57 -91T67 -114Q67 -146 39 -166L44 -167H59H60Q112 -167 145 -74Q148 -65 198 134T251 347Q252 353 252 370Q252 382 251 388T245 399T230 405Q204 405 175 378Q157 360 145 337T126 298T117 280T98 278H81Q75 284 75 287Z"></path>
<path stroke-width="10" id="E1-MJAMS-6B" d="M519 443Q519 426 497 426Q458 422 361 335Q328 308 315 295Q307 289 310 286T383 193T466 88Q507 35 517 35Q534 35 534 16Q534 5 524 -1H304L297 3Q288 19 297 28Q300 35 317 35Q320 36 324 36T330 37T333 39Q334 39 334 40Q334 47 304 86T244 162L215 199Q212 202 206 199Q201 195 201 137V121Q201 35 230 35Q238 35 243 29T248 15Q248 4 237 -1H28L21 3Q17 13 17 17Q17 24 22 29T35 35Q55 35 61 70Q63 78 63 341T61 612Q55 648 35 648Q27 648 22 654T17 668Q17 678 26 682Q27 683 28 683H108H147Q156 683 162 683T174 683T182 683T187 682T191 681T194 680T197 678T201 675V461L204 246L244 281Q254 291 272 307Q317 349 326 360T339 386Q340 390 340 398Q340 426 321 426Q314 426 309 431T304 445Q304 456 315 461H508Q519 448 519 443ZM166 359V648H126Q89 648 89 645Q89 644 89 644T90 643T91 640T93 634T95 626Q99 612 99 341T95 57Q94 53 93 49T91 43T90 39L89 37Q89 35 133 35Q176 35 176 37Q175 38 175 39Q175 42 170 57Q166 70 166 359ZM410 423Q412 425 407 426Q404 426 393 426Q373 426 373 423Q374 422 375 417T377 410Q377 399 379 399Q406 419 410 423ZM460 37Q460 41 368 152L281 263Q280 263 259 246L239 228Q298 157 355 79Q370 61 370 41V35H417Q460 35 460 37Z"></path>
<path stroke-width="10" id="E1-MJMAIN-2113" d="M345 104T349 104T361 95T369 80T352 59Q268 -20 206 -20Q170 -20 146 3T113 53T99 104L94 129Q94 130 79 116T48 86T28 70Q22 70 15 79T7 94Q7 98 12 103T58 147L91 179V185Q91 186 91 191T92 200Q92 282 128 400T223 612T336 705Q397 705 397 636V627Q397 453 194 233Q185 223 180 218T174 211T171 208T165 201L163 186Q159 142 159 123Q159 17 208 17Q228 17 253 30T293 56T335 94Q345 104 349 104ZM360 634Q360 655 354 661T336 668Q328 668 322 666T302 645T272 592Q252 547 229 467T192 330L179 273Q179 272 186 280T204 300T221 322Q327 453 355 590Q360 612 360 634Z"></path>
</defs>
<g stroke="currentColor" fill="currentColor" stroke-width="0" transform="matrix(1 0 0 -1 0 0)">
 <use xlink:href="#E1-MJAMS-F0" x="0" y="0"></use>
 <use xlink:href="#E1-MJMAINI-210F" x="561" y="0"></use>
 <use xlink:href="#E1-MJMAINI-131" x="1128" y="0"></use>
 <use xlink:href="#E1-MJMAINI-237" x="1474" y="0"></use>
 <use xlink:href="#E1-MJAMS-6B" x="1811" y="0"></use>
 <use xlink:href="#E1-MJMAIN-2113" x="2372" y="0"></use>
</g>
</svg>