<?xml version="1.0" standalone="no"?>
<!DOCTYPE svg PUBLIC "-//W3C//DTD SVG 1.1//EN" "http://www.w3.org/Graphics/SVG/1.1/DTD/svg11.dtd">
<svg xmlns:xlink="http://www.w3.org/1999/xlink" width="10.408ex" height="3.009ex" style="vertical-align: -0.671ex;" viewBox="0 -1006.6 4481 1295.7" xmlns="http://www.w3.org/2000/svg">
<defs>
<path stroke-width="10" id="E1-MJAMS-2256" d="M56 347Q56 360 70 367H707Q722 359 722 347Q722 334 711 331T658 327H586H465L472 318Q496 288 496 250T472 182L465 173H586H663Q700 173 711 170T722 153T707 133H70Q56 140 56 153Q56 168 72 173H312L305 182Q281 212 281 250T305 318L312 327H72Q56 332 56 347ZM473 250Q473 265 472 273T460 297T428 327H349Q328 313 318 298T306 273T304 250Q304 235 305 227T317 203T349 173H428Q449 187 459 202T471 227T473 250Z"></path>
<path stroke-width="10" id="E1-MJMAIN-2C" d="M78 35T78 60T94 103T137 121Q165 121 187 96T210 8Q210 -27 201 -60T180 -117T154 -158T130 -185T117 -194Q113 -194 104 -185T95 -172Q95 -168 106 -156T131 -126T157 -76T173 -3V9L172 8Q170 7 167 6T161 3T152 1T140 0Q113 0 96 17Z"></path>
<path stroke-width="10" id="E1-MJAMS-2257" d="M279 612Q279 656 310 688T388 721Q433 721 465 689T498 612Q498 573 470 538T389 503Q336 503 308 538T279 612ZM458 614Q458 637 452 651T433 672T411 679T383 680T352 675T333 664T324 647T321 629T320 611Q320 593 321 584T332 562T359 545Q366 543 389 543H391Q406 543 414 544T435 552T452 573T458 614ZM56 347Q56 360 70 367H707Q722 359 722 347Q722 336 708 328L390 327H72Q56 332 56 347ZM56 153Q56 168 72 173H708Q722 163 722 153Q722 140 707 133H70Q56 140 56 153Z"></path>
<path stroke-width="10" id="E1-MJMAIN-3D" d="M56 347Q56 360 70 367H707Q722 359 722 347Q722 336 708 328L390 327H72Q56 332 56 347ZM56 153Q56 168 72 173H708Q722 163 722 153Q722 140 707 133H70Q56 140 56 153Z"></path>
<path stroke-width="10" id="E1-MJMAIN-5E" d="M112 560L249 694L257 686Q387 562 387 560L361 531Q359 532 303 581L250 627L195 580Q182 569 169 557T148 538L140 532Q138 530 125 546L112 560Z"></path>
<path stroke-width="10" id="E1-MJAMS-225C" d="M192 482H190Q187 483 185 484T181 488T177 493T175 501Q175 506 178 512Q184 523 278 687T375 853Q379 857 383 857Q385 857 387 858T390 859Q397 859 403 853Q405 851 499 687T600 512Q603 506 603 501Q603 488 587 482H192ZM548 523L389 798Q388 798 309 661T230 523T389 522T548 523ZM56 347Q56 360 70 367H708Q723 359 723 347Q723 336 709 328L390 327H72Q56 332 56 347ZM56 153Q56 168 72 173H709Q723 163 723 153Q723 140 708 133H70Q56 140 56 153Z"></path>
</defs>
<g stroke="currentColor" fill="currentColor" stroke-width="0" transform="matrix(1 0 0 -1 0 0)">
 <use xlink:href="#E1-MJAMS-2256" x="0" y="0"></use>
 <use xlink:href="#E1-MJMAIN-2C" x="783" y="0"></use>
 <use xlink:href="#E1-MJAMS-2257" x="1232" y="0"></use>
 <use xlink:href="#E1-MJMAIN-2C" x="2015" y="0"></use>
<g transform="translate(2465,0)">
 <use xlink:href="#E1-MJMAIN-3D" x="0" y="0"></use>
 <use xlink:href="#E1-MJMAIN-5E" x="139" y="-37"></use>
</g>
 <use xlink:href="#E1-MJMAIN-2C" x="3248" y="0"></use>
 <use xlink:href="#E1-MJAMS-225C" x="3698" y="0"></use>
</g>
</svg>