<?xml version="1.0" standalone="no"?>
<!DOCTYPE svg PUBLIC "-//W3C//DTD SVG 1.1//EN" "http://www.w3.org/Graphics/SVG/1.1/DTD/svg11.dtd">
<svg xmlns:xlink="http://www.w3.org/1999/xlink" width="12.652ex" height="3.843ex" style="vertical-align: -1.338ex;" viewBox="0 -1078.4 5447.3 1654.5" xmlns="http://www.w3.org/2000/svg">
<defs>
<path stroke-width="10" id="E1-MJSZ2-2A01" d="M668 944Q697 949 744 949Q803 949 814 948Q916 937 1006 902T1154 826T1262 730T1336 638T1380 563Q1454 415 1454 250Q1454 113 1402 -14T1258 -238T1036 -391T755 -449Q608 -449 477 -392T255 -240T110 -16T56 250Q56 387 105 510T239 723T434 871T668 944ZM706 299V850H704Q519 832 386 725T198 476Q181 433 169 379T156 300Q156 299 431 299H706ZM1116 732Q1054 778 982 807T871 842T810 849L804 850V299H1079Q1354 299 1354 300Q1354 311 1352 329T1336 402T1299 506T1228 620T1116 732ZM706 -350V201H431Q156 201 156 200Q156 189 158 171T174 98T211 -6T282 -120T395 -232Q428 -257 464 -277T527 -308T587 -328T636 -339T678 -346T706 -350ZM1354 200Q1354 201 1079 201H804V-350Q808 -349 838 -345T887 -338T940 -323T1010 -295Q1038 -282 1067 -265T1144 -208T1229 -121T1301 0T1349 158Q1354 188 1354 200Z"></path>
<path stroke-width="10" id="E1-MJMAIN-2C" d="M78 35T78 60T94 103T137 121Q165 121 187 96T210 8Q210 -27 201 -60T180 -117T154 -158T130 -185T117 -194Q113 -194 104 -185T95 -172Q95 -168 106 -156T131 -126T157 -76T173 -3V9L172 8Q170 7 167 6T161 3T152 1T140 0Q113 0 96 17Z"></path>
<path stroke-width="10" id="E1-MJSZ2-2A00" d="M668 944Q697 949 744 949Q803 949 814 948Q916 937 1006 902T1154 826T1262 730T1336 638T1380 563Q1454 415 1454 250Q1454 113 1402 -14T1258 -238T1036 -391T755 -449Q608 -449 477 -392T255 -240T110 -16T56 250Q56 387 105 510T239 723T434 871T668 944ZM755 -352Q922 -352 1061 -269T1278 -48T1356 250Q1356 479 1202 652T809 850Q798 851 747 851Q634 851 527 806T337 682T204 491T154 251Q154 128 201 17T329 -176T521 -304T755 -352ZM665 250Q665 290 692 315T758 341Q792 339 818 315T845 250Q845 211 819 186T755 160Q716 160 691 186T665 250Z"></path>
<path stroke-width="10" id="E1-MJSZ2-2A02" d="M668 944Q697 949 744 949Q803 949 814 948Q916 937 1006 902T1154 826T1262 730T1336 638T1380 563Q1454 415 1454 250Q1454 113 1402 -14T1258 -238T1036 -391T755 -449Q608 -449 477 -392T255 -240T110 -16T56 250Q56 387 105 510T239 723T434 871T668 944ZM1143 709Q1138 714 1129 722T1086 752T1017 791T925 826T809 850Q798 851 747 851H728Q659 851 571 823T408 741Q367 713 367 709L755 320L1143 709ZM297 639Q296 639 282 622T247 570T205 491T169 382T154 250T168 118T204 9T247 -70T282 -122L297 -139L685 250L297 639ZM1213 -139Q1214 -139 1228 -122T1263 -70T1305 9T1341 118T1356 250T1342 382T1306 491T1263 570T1228 622L1213 639L825 250L1213 -139ZM367 -209Q373 -215 384 -224T434 -258T514 -302T622 -336T755 -352T887 -338T996 -302T1075 -259T1126 -224L1143 -209L755 180Q754 180 561 -14T367 -209Z"></path>
</defs>
<g stroke="currentColor" fill="currentColor" stroke-width="0" transform="matrix(1 0 0 -1 0 0)">
 <use xlink:href="#E1-MJSZ2-2A01" x="0" y="0"></use>
 <use xlink:href="#E1-MJMAIN-2C" x="1516" y="0"></use>
 <use xlink:href="#E1-MJSZ2-2A00" x="1965" y="0"></use>
 <use xlink:href="#E1-MJMAIN-2C" x="3481" y="0"></use>
 <use xlink:href="#E1-MJSZ2-2A02" x="3931" y="0"></use>
</g>
</svg>