<?xml version="1.0" standalone="no"?>
<!DOCTYPE svg PUBLIC "-//W3C//DTD SVG 1.1//EN" "http://www.w3.org/Graphics/SVG/1.1/DTD/svg11.dtd">
<svg xmlns:xlink="http://www.w3.org/1999/xlink" width="13.218ex" height="2.343ex" style="vertical-align: -0.338ex;" viewBox="0 -863.1 5691 1008.6" xmlns="http://www.w3.org/2000/svg">
<defs>
<path stroke-width="10" id="E1-MJMAIN-49" d="M328 0Q307 3 180 3T32 0H21V46H43Q92 46 106 49T126 60Q128 63 128 342Q128 620 126 623Q122 628 118 630T96 635T43 637H21V683H32Q53 680 180 680T328 683H339V637H317Q268 637 254 634T234 623Q232 620 232 342Q232 63 234 60Q238 55 242 53T264 48T317 46H339V0H328Z"></path>
<path stroke-width="10" id="E1-MJMAIN-4B" d="M128 622Q121 629 117 631T101 634T58 637H25V683H36Q57 680 180 680Q315 680 324 683H335V637H313Q235 637 233 620Q232 618 232 462L233 307L379 449Q425 494 479 546Q518 584 524 591T531 607V608Q531 630 503 636Q501 636 498 636T493 637H489V683H499Q517 680 630 680Q704 680 716 683H722V637H708Q633 633 589 597Q584 592 495 506T406 419T515 254T631 80Q644 60 662 54T715 46H736V0H728Q719 3 615 3Q493 3 472 0H461V46H469Q515 46 515 72Q515 78 512 84L336 351Q332 348 278 296L232 251V156Q232 62 235 58Q243 47 302 46H335V0H324Q303 3 180 3Q45 3 36 0H25V46H58Q100 47 109 49T128 61V622Z"></path>
<path stroke-width="10" id="E1-MJMAINI-39B" d="M71 0Q58 0 58 11Q58 33 68 43Q71 46 77 46Q106 46 128 59T156 79T173 104Q174 106 255 256T416 556T497 707Q502 716 519 716H525Q543 716 547 711Q550 707 561 398T572 65Q573 57 574 54T587 49T623 46Q646 46 646 36Q646 35 643 23Q642 21 641 17T640 12T639 8T638 5T636 3T633 1T629 1T624 0Q622 0 612 0T578 1T514 2Q466 2 434 2T398 1Q381 1 381 11Q381 13 383 23Q387 40 390 43T406 46Q460 46 472 63L464 298Q457 533 455 536V537Q452 537 335 317T214 90Q211 80 211 75Q211 53 244 47Q246 47 251 47T258 46Q270 46 270 34Q270 33 268 19Q264 6 258 0H247Q185 2 143 2Q77 2 71 0Z"></path>
<path stroke-width="10" id="E1-MJMAIN-4D" d="M132 622Q125 629 121 631T105 634T62 637H29V683H135Q221 683 232 682T249 675Q250 674 354 398L458 124L562 398Q666 674 668 675Q671 681 683 682T781 683H887V637H854Q814 636 803 634T785 622V61Q791 51 802 49T854 46H887V0H876Q855 3 736 3Q605 3 596 0H585V46H618Q660 47 669 49T688 61V347Q688 424 688 461T688 546T688 613L687 632Q454 14 450 7Q446 1 430 1T410 7Q409 9 292 316L176 624V606Q175 588 175 543T175 463T175 356L176 86Q187 50 261 46H278V0H269Q254 3 154 3Q52 3 37 0H29V46H46Q78 48 98 56T122 69T132 86V622Z"></path>
<path stroke-width="10" id="E1-MJMAIN-4E" d="M42 46Q74 48 94 56T118 69T128 86V634H124Q114 637 52 637H25V683H232L235 680Q237 679 322 554T493 303L578 178V598Q572 608 568 613T544 627T492 637H475V683H483Q498 680 600 680Q706 680 715 683H724V637H707Q634 633 622 598L621 302V6L614 0H600Q585 0 582 3T481 150T282 443T171 605V345L172 86Q183 50 257 46H274V0H265Q250 3 150 3Q48 3 33 0H25V46H42Z"></path>
<path stroke-width="10" id="E1-MJSS-39E" d="M47 600V688H619V600H47ZM111 314V401H555V314H111ZM42 0V88H624V0H42Z"></path>
<path stroke-width="10" id="E1-MJMAIN-4F" d="M56 340Q56 423 86 494T164 610T270 680T388 705Q521 705 621 601T722 341Q722 260 693 191T617 75T510 4T388 -22T267 3T160 74T85 189T56 340ZM467 647Q426 665 388 665Q360 665 331 654T269 620T213 549T179 439Q174 411 174 354Q174 144 277 61Q327 20 385 20H389H391Q474 20 537 99Q603 188 603 354Q603 411 598 439Q577 592 467 647Z"></path>
<path stroke-width="10" id="E1-MJSS-3A0" d="M86 0V691H621V0H517V615H190V0H86Z"></path>
</defs>
<g stroke="currentColor" fill="currentColor" stroke-width="0" transform="matrix(1 0 0 -1 0 0)">
 <use xlink:href="#E1-MJMAIN-49" x="0" y="0"></use>
 <use xlink:href="#E1-MJMAIN-4B" x="366" y="0"></use>
 <use xlink:href="#E1-MJMAINI-39B" x="1149" y="0"></use>
 <use xlink:href="#E1-MJMAIN-4D" x="1846" y="0"></use>
<g transform="translate(2768,0)">
 <use xlink:href="#E1-MJMAIN-4E" x="0" y="0"></use>
 <use xlink:href="#E1-MJSS-39E" x="755" y="0"></use>
 <use xlink:href="#E1-MJMAIN-4F" x="1427" y="0"></use>
 <use xlink:href="#E1-MJSS-3A0" x="2210" y="0"></use>
</g>
</g>
</svg>