<?xml version="1.0" standalone="no"?>
<!DOCTYPE svg PUBLIC "-//W3C//DTD SVG 1.1//EN" "http://www.w3.org/Graphics/SVG/1.1/DTD/svg11.dtd">
<svg xmlns:xlink="http://www.w3.org/1999/xlink" width="5.713ex" height="1.843ex" style="vertical-align: -0.671ex;" viewBox="0 -504.3 2459.7 793.3" xmlns="http://www.w3.org/2000/svg">
<defs>
<path stroke-width="10" id="E1-MJMAIN-2323" d="M923 378Q944 378 944 358Q944 345 912 311T859 259Q710 134 500 134Q288 134 140 259Q55 336 55 358Q55 366 61 372T75 378Q78 378 84 376Q86 376 101 356T147 310T221 257T339 212T500 193Q628 193 734 236Q841 282 903 363Q914 378 923 378Z"></path>
<path stroke-width="10" id="E1-MJMAIN-2C" d="M78 35T78 60T94 103T137 121Q165 121 187 96T210 8Q210 -27 201 -60T180 -117T154 -158T130 -185T117 -194Q113 -194 104 -185T95 -172Q95 -168 106 -156T131 -126T157 -76T173 -3V9L172 8Q170 7 167 6T161 3T152 1T140 0Q113 0 96 17Z"></path>
<path stroke-width="10" id="E1-MJMAIN-2322" d="M55 141Q55 149 72 174T125 234T209 303T329 360T478 388H526Q649 383 765 319Q814 291 858 250T923 179T944 141Q944 133 938 128T924 122Q914 124 912 125T902 139Q766 328 500 328Q415 328 342 308T225 258T150 199T102 148T84 124Q81 122 75 122Q55 127 55 141Z"></path>
</defs>
<g stroke="currentColor" fill="currentColor" stroke-width="0" transform="matrix(1 0 0 -1 0 0)">
 <use xlink:href="#E1-MJMAIN-2323" x="0" y="0"></use>
 <use xlink:href="#E1-MJMAIN-2C" x="1005" y="0"></use>
 <use xlink:href="#E1-MJMAIN-2322" x="1454" y="0"></use>
</g>
</svg>