<?xml version="1.0" standalone="no"?>
<!DOCTYPE svg PUBLIC "-//W3C//DTD SVG 1.1//EN" "http://www.w3.org/Graphics/SVG/1.1/DTD/svg11.dtd">
<svg xmlns:xlink="http://www.w3.org/1999/xlink" width="4.692ex" height="2.843ex" style="vertical-align: -0.838ex;" viewBox="0 -863.1 2020 1223.9" xmlns="http://www.w3.org/2000/svg">
<defs>
<path stroke-width="10" id="E1-MJMAIN-266D" d="M200 467Q254 467 293 428T332 321Q332 147 104 -11L88 -22H75Q62 -22 56 -16L55 362V647Q55 743 60 748Q63 750 76 750H83Q87 750 95 744V434L104 440Q144 467 200 467ZM237 322Q237 360 225 388T183 417Q158 417 134 407T101 378Q96 370 96 349T95 197V34Q152 91 194 167T237 322Z"></path>
<path stroke-width="10" id="E1-MJMAIN-266E" d="M65 721Q78 734 94 734Q100 734 104 727V444L116 449Q129 454 157 465T208 486Q313 527 314 527Q318 527 324 521V-210Q306 -223 294 -223Q289 -223 284 -216V-13L270 -18Q257 -24 231 -34T180 -54Q77 -96 74 -96T65 -90V721ZM104 13Q282 84 283 85Q284 85 284 252Q284 418 283 418L230 396L140 360L104 346V13Z"></path>
<path stroke-width="10" id="E1-MJMAIN-266F" d="M101 -223Q94 -223 93 -217T91 -188V-151Q91 -88 90 -88Q87 -88 80 -92T68 -96Q62 -96 56 -90L55 -50V-22Q55 -8 58 -4T78 5L91 10V177Q91 343 90 343Q87 343 80 339T68 335Q62 335 56 341L55 381V409Q55 423 58 427T78 436L91 441V543V616Q91 643 93 648T106 656Q119 662 126 659Q130 657 130 645T131 554V456L257 503V607L258 710L260 712Q261 715 272 719T286 723Q293 723 295 715T297 671V617Q297 519 298 519Q301 519 307 522T319 526Q327 526 333 521V437L330 435Q328 432 312 427L297 421V254Q297 88 298 88Q301 88 307 91T319 95Q327 95 333 90V6L330 4Q328 1 312 -4L297 -10V-78V-122Q297 -145 295 -149T282 -156Q274 -160 268 -160Q257 -160 257 -130V-89V-25L131 -72V-210Q123 -215 116 -218T104 -222L101 -223ZM257 72V406L131 359V25L257 72Z"></path>
<path stroke-width="10" id="E1-MJMAIN-23" d="M56 347Q56 360 70 367H313L355 524Q394 676 401 686Q406 694 416 694Q434 694 436 676Q436 672 396 522Q355 374 355 369L354 367H543L585 524Q626 679 630 685Q636 694 646 694Q653 694 659 689T665 678Q665 668 626 522Q585 374 585 369L584 367H762Q777 359 777 347Q777 334 767 331T722 327H667H572L552 251L531 174Q531 173 647 173H720Q756 173 766 170T777 153T762 133H519L477 -24Q436 -179 432 -185Q426 -194 416 -194Q409 -194 403 -189T397 -177Q397 -167 436 -21Q477 125 477 131L478 133H289L247 -24Q206 -179 202 -185Q196 -194 186 -194Q179 -194 173 -189T167 -177Q167 -167 206 -21Q247 125 247 131L248 133H70Q56 140 56 153Q56 168 72 173H260L280 249L301 326Q301 327 186 327H72Q56 332 56 347ZM531 326Q531 327 437 327H342L322 251L301 174Q301 173 395 173H490L510 249L531 326Z"></path>
</defs>
<g stroke="currentColor" fill="currentColor" stroke-width="0" transform="matrix(1 0 0 -1 0 0)">
 <use xlink:href="#E1-MJMAIN-266D" x="0" y="0"></use>
 <use xlink:href="#E1-MJMAIN-266E" x="394" y="0"></use>
 <use xlink:href="#E1-MJMAIN-266F" x="788" y="0"></use>
 <use xlink:href="#E1-MJMAIN-23" x="1182" y="0"></use>
</g>
</svg>