<?xml version="1.0" standalone="no"?>
<!DOCTYPE svg PUBLIC "-//W3C//DTD SVG 1.1//EN" "http://www.w3.org/Graphics/SVG/1.1/DTD/svg11.dtd">
<svg xmlns:xlink="http://www.w3.org/1999/xlink" width="4.682ex" height="2.509ex" style="vertical-align: -0.671ex;" viewBox="0 -791.3 2015.7 1080.4" xmlns="http://www.w3.org/2000/svg">
<defs>
<path stroke-width="10" id="E1-MJMAIN-2AAF" d="M84 346Q84 359 91 363T117 367Q120 367 126 367T137 366Q388 370 512 430T653 609Q657 636 676 636Q685 635 689 629T694 618V612Q689 566 672 528T626 463T569 417T500 383T435 362T373 346Q379 345 404 339T440 330T477 318T533 296Q592 266 630 223T681 145T694 78Q694 57 674 57Q662 57 657 67T652 92T640 135T606 191Q500 320 137 326H114Q104 326 98 327T88 332T84 346ZM84 -131T84 -118T98 -98H679Q694 -106 694 -118T679 -138H98Q84 -131 84 -118Z"></path>
<path stroke-width="10" id="E1-MJMAIN-2C" d="M78 35T78 60T94 103T137 121Q165 121 187 96T210 8Q210 -27 201 -60T180 -117T154 -158T130 -185T117 -194Q113 -194 104 -185T95 -172Q95 -168 106 -156T131 -126T157 -76T173 -3V9L172 8Q170 7 167 6T161 3T152 1T140 0Q113 0 96 17Z"></path>
<path stroke-width="10" id="E1-MJMAIN-2AB0" d="M84 614Q84 636 102 636Q115 636 119 626T125 600T137 556T171 501Q277 372 640 366H661Q694 366 694 346T661 326H640Q578 325 526 321T415 307T309 280T222 237T156 172T124 83Q122 66 118 62T103 57Q100 57 98 57T95 58T93 59T90 62T85 67Q83 71 83 80Q88 126 105 164T151 229T208 275T277 309T342 330T404 346Q401 347 380 351T345 360T302 373T245 396Q125 455 92 565Q84 599 84 614ZM84 -131T84 -118T98 -98H679Q694 -106 694 -118T679 -138H98Q84 -131 84 -118Z"></path>
</defs>
<g stroke="currentColor" fill="currentColor" stroke-width="0" transform="matrix(1 0 0 -1 0 0)">
 <use xlink:href="#E1-MJMAIN-2AAF" x="0" y="0"></use>
 <use xlink:href="#E1-MJMAIN-2C" x="783" y="0"></use>
 <use xlink:href="#E1-MJMAIN-2AB0" x="1232" y="0"></use>
</g>
</svg>