<?xml version="1.0" standalone="no"?>
<!DOCTYPE svg PUBLIC "-//W3C//DTD SVG 1.1//EN" "http://www.w3.org/Graphics/SVG/1.1/DTD/svg11.dtd">
<svg xmlns:xlink="http://www.w3.org/1999/xlink" width="19.226ex" height="2.676ex" style="vertical-align: -0.838ex;" viewBox="0 -791.3 8278 1152.1" xmlns="http://www.w3.org/2000/svg">
<defs>
<path stroke-width="10" id="E1-MJSS-61" d="M236 387Q209 387 184 382T141 370T111 355T91 342T83 337L82 355Q80 373 79 393T77 417Q77 419 81 421Q86 423 91 426Q155 460 227 460H238Q319 460 368 400Q393 371 400 341T408 252Q408 240 408 207T407 152V0H317V39L306 32Q244 -10 159 -10H152Q109 -10 77 22Q38 61 38 126Q38 142 39 146Q55 199 130 223T295 252H314V277Q314 305 313 310Q308 342 287 364T236 387ZM303 186Q124 180 124 126Q124 105 144 86T208 66Q284 66 309 124Q314 137 314 166V186H303Z"></path>
<path stroke-width="10" id="E1-MJSS-62" d="M303 -11Q280 -11 259 -6T222 6T194 21T176 33T168 38V0H75V694H165V550L166 405Q247 455 336 455Q397 455 439 389T482 226Q482 115 428 52T303 -11ZM390 221Q390 283 361 331T265 379Q214 379 177 342L168 334V118Q203 66 258 66Q316 66 353 106T390 221Z"></path>
<path stroke-width="10" id="E1-MJSS-63" d="M34 223Q34 327 99 393T245 460Q290 460 301 459Q328 455 354 445T395 427T410 415L396 338L386 344Q377 349 362 357T335 370Q305 381 258 381H252Q182 381 146 315Q126 275 126 224Q126 158 159 113T255 68Q329 68 394 106L408 114L410 93Q411 72 412 52L414 32Q407 27 394 20T338 2T252 -10Q156 -10 95 58T34 223Z"></path>
<path stroke-width="10" id="E1-MJSS-64" d="M33 224Q33 321 81 388T197 455Q277 455 342 414L351 408V694H441V0H348V44L338 37Q278 -10 198 -10Q177 -10 168 -8Q99 11 62 90Q33 148 33 224ZM348 337Q307 378 263 378Q260 378 256 378T251 379Q239 379 223 374T182 355T142 305T126 220Q126 90 225 67Q231 66 250 66H255Q306 66 342 115L348 124V337Z"></path>
<path stroke-width="10" id="E1-MJSS-65" d="M28 226Q28 329 91 395T235 461Q258 461 279 456T325 436T368 397T399 332T415 238V219H113V215Q113 163 151 114T248 65Q273 65 298 70T341 82T373 96T396 108L403 113Q403 106 406 76T409 38Q409 34 408 33T393 24Q325 -10 252 -10Q155 -10 92 59T28 226ZM340 289L338 297Q335 305 333 310T327 326T317 343T304 358T286 372T263 381T233 385Q212 385 193 376T162 353T140 325T127 301T123 289H340Z"></path>
<path stroke-width="10" id="E1-MJSS-66" d="M262 705H267Q300 705 347 694V612L336 616Q303 628 274 628H266Q224 628 199 605Q187 590 184 579T181 541V507V444H287V371H184V0H94V371H27V444H94V492Q94 544 95 550Q102 617 151 661T262 705Z"></path>
<path stroke-width="10" id="E1-MJSS-67" d="M55 286Q55 357 105 406T224 455Q280 455 323 421L322 423L318 427Q318 428 339 434T396 448T465 455H471L478 416L485 377Q484 377 474 379T445 383T401 385Q397 385 391 385T381 384L362 383L357 387Q358 386 364 375T375 354T384 325T389 287Q389 217 340 168T221 119Q178 119 138 142Q133 145 131 143Q125 131 125 117Q125 82 155 72L227 71Q230 71 251 71T280 71T310 69T343 65T373 57T403 46T428 30T449 7Q471 -26 471 -62V-71Q471 -136 384 -178Q326 -206 250 -206Q159 -206 102 -172T30 -92Q28 -84 28 -68T31 -37T40 -12T52 7T64 21T75 31T82 38Q60 68 60 106Q60 145 80 180L86 189L80 199Q55 240 55 286ZM304 233T304 287T279 362T220 383Q189 383 165 361T140 287Q140 243 161 217T220 191Q253 191 278 212ZM250 -134Q298 -134 331 -122T375 -96T387 -69Q387 -21 306 -7Q288 -5 216 -5Q161 -5 153 -7Q146 -9 139 -13T122 -31T113 -66Q113 -75 113 -80T127 -97T166 -121Q203 -134 250 -134Z"></path>
<path stroke-width="10" id="E1-MJSS-68" d="M163 395Q223 455 307 455Q417 455 438 354Q442 331 443 164V0H350V157Q349 315 348 320Q334 378 259 378H253Q224 378 204 358Q180 334 173 301T165 209Q165 198 165 172T166 129V0H73V694H163V395Z"></path>
<path stroke-width="10" id="E1-MJSS-69" d="M67 576V680H171V576H67ZM74 0V444H164V0H74Z"></path>
<path stroke-width="10" id="E1-MJSS-6A" d="M88 576V680H192V576H88ZM31 -126Q40 -126 48 -125T62 -122T73 -117T82 -111T89 -105T94 -99T98 -92L102 -86V444H192V180Q191 -45 191 -70T184 -113Q171 -152 140 -178T63 -205Q34 -205 4 -197T-43 -181T-59 -171T-51 -133T-41 -96L-38 -99Q-34 -102 -28 -106T-13 -115T7 -123T31 -126Z"></path>
<path stroke-width="10" id="E1-MJSS-6B" d="M76 0V694H163V257L340 444H449L286 272L292 263Q296 259 378 138T463 12L471 0H372L309 92Q294 114 277 139T250 179T237 198L228 211L160 139V0H76Z"></path>
<path stroke-width="10" id="E1-MJSS-6C" d="M74 0V694H164V0H74Z"></path>
<path stroke-width="10" id="E1-MJSS-6D" d="M160 392Q223 455 304 455Q359 455 386 436T430 383L437 391Q495 455 584 455Q694 455 715 354Q719 331 720 164V0H627V157Q626 315 625 320Q611 378 536 378H530Q501 378 481 358Q457 334 450 301T442 209Q442 198 442 172T443 129V0H350V157Q349 315 348 320Q334 378 259 378H253Q224 378 204 358Q180 334 173 301T165 209Q165 198 165 172T166 129V0H73V450H160V392Z"></path>
<path stroke-width="10" id="E1-MJSS-6E" d="M160 392Q214 446 283 454Q285 454 292 454T303 455H306Q417 455 438 354Q442 331 443 164V0H350V157Q349 315 348 320Q334 378 259 378H253Q224 378 204 358Q180 334 173 301T165 209Q165 198 165 172T166 129V0H73V450H160V392Z"></path>
<path stroke-width="10" id="E1-MJSS-6F" d="M28 222Q28 323 95 391T244 460Q275 460 281 459Q364 445 417 377T471 219Q471 124 408 57T250 -10Q158 -10 93 57T28 222ZM377 230Q377 277 364 310T328 358T287 379T248 385Q233 385 219 382T186 369T155 342T132 297T122 230Q122 146 159 108T250 69H253Q263 69 274 70T305 81T339 106T365 154T377 230Z"></path>
<path stroke-width="10" id="E1-MJSS-70" d="M166 404Q194 424 241 439T337 455H341Q410 455 451 370Q483 307 483 222Q483 128 433 59T306 -10Q282 -10 260 -5T222 7T194 21T176 33T168 38V-194H75V444H165V424L166 404ZM390 222Q390 287 354 331T266 376T177 340L168 332V118Q200 66 257 66Q313 66 351 112T390 222Z"></path>
<path stroke-width="10" id="E1-MJSS-71" d="M33 220Q33 325 87 389T206 454Q286 454 341 406L351 398V455H441V-194H348V41L338 35Q276 -8 198 -11Q171 -11 154 -5Q102 12 68 74T33 220ZM126 220Q126 160 161 113T251 65Q305 65 351 123V298L350 301Q349 304 347 308T342 319T336 331T327 343T315 355T300 365T283 373Q273 375 256 375Q208 375 167 332T126 220Z"></path>
<path stroke-width="10" id="E1-MJSS-72" d="M171 389Q237 455 320 455H327V373H317Q262 369 220 336T167 248Q165 239 164 119V0H74V450H159V377L171 389Z"></path>
</defs>
<g stroke="currentColor" fill="currentColor" stroke-width="0" transform="matrix(1 0 0 -1 0 0)">
 <use xlink:href="#E1-MJSS-61" x="0" y="0"></use>
 <use xlink:href="#E1-MJSS-62" x="486" y="0"></use>
 <use xlink:href="#E1-MJSS-63" x="1008" y="0"></use>
 <use xlink:href="#E1-MJSS-64" x="1457" y="0"></use>
 <use xlink:href="#E1-MJSS-65" x="1979" y="0"></use>
 <use xlink:href="#E1-MJSS-66" x="2428" y="0"></use>
 <use xlink:href="#E1-MJSS-67" x="2780" y="0"></use>
 <use xlink:href="#E1-MJSS-68" x="3285" y="0"></use>
 <use xlink:href="#E1-MJSS-69" x="3807" y="0"></use>
 <use xlink:href="#E1-MJSS-6A" x="4051" y="0"></use>
 <use xlink:href="#E1-MJSS-6B" x="4323" y="0"></use>
 <use xlink:href="#E1-MJSS-6C" x="4817" y="0"></use>
 <use xlink:href="#E1-MJSS-6D" x="5061" y="0"></use>
 <use xlink:href="#E1-MJSS-6E" x="5860" y="0"></use>
 <use xlink:href="#E1-MJSS-6F" x="6382" y="0"></use>
 <use xlink:href="#E1-MJSS-70" x="6887" y="0"></use>
 <use xlink:href="#E1-MJSS-71" x="7409" y="0"></use>
 <use xlink:href="#E1-MJSS-72" x="7931" y="0"></use>
</g>
</svg>