<?xml version="1.0" standalone="no"?>
<!DOCTYPE svg PUBLIC "-//W3C//DTD SVG 1.1//EN" "http://www.w3.org/Graphics/SVG/1.1/DTD/svg11.dtd">
<svg xmlns:xlink="http://www.w3.org/1999/xlink" width="21.247ex" height="2.343ex" style="vertical-align: -0.338ex; margin-right: -0.262ex;" viewBox="0 -863.1 9148 1008.6" xmlns="http://www.w3.org/2000/svg">
<defs>
<path stroke-width="10" id="E1-MJMAINI-41" d="M85 46Q112 48 132 56T161 73T176 92T185 104Q185 106 353 407T524 709Q527 716 551 716Q568 716 572 712Q573 711 574 710Q576 708 594 384Q613 54 617 52H618Q626 46 672 46H689Q696 41 696 36Q696 13 683 0H670Q639 2 557 2Q526 2 500 2T459 2T441 1Q425 1 425 10Q425 12 427 24Q428 27 429 31T430 36T432 40T434 43T437 45T443 46T450 46Q514 46 514 69Q514 74 511 136L506 209H292L260 152Q222 84 222 74Q222 48 264 46Q280 46 280 35Q280 33 278 21Q275 7 272 4T259 0Q256 0 232 1T159 2Q135 2 109 1T78 0Q58 0 58 10Q58 14 61 26T66 40Q68 46 85 46ZM504 260Q503 263 496 407T486 553L466 520Q446 486 402 406L318 256Q318 255 411 255H504V260Z"></path>
<path stroke-width="10" id="E1-MJMAINI-42" d="M57 11Q57 38 69 45L74 46Q78 46 85 46T99 46Q134 47 145 50T162 62Q164 66 233 344T303 626Q303 627 302 629V631Q296 637 241 637H223Q217 642 217 645T219 664Q223 677 229 683H411L593 682L605 680Q616 678 628 675T660 662T694 639T720 601T732 547Q732 519 726 503Q710 452 662 414T556 360L545 357L556 355Q604 346 641 312T678 221Q678 155 622 92T482 8Q459 2 439 2T256 0H154H105Q74 0 66 2T57 11ZM629 549Q628 550 629 557T627 576T619 600T601 622T570 636Q564 637 490 637Q472 637 454 637T424 636T411 636Q399 635 395 622T364 500Q333 377 332 376Q332 374 408 374L485 375L495 377Q547 390 588 437T629 549ZM504 336Q500 337 410 337Q323 337 322 336Q322 334 305 263T270 122T252 51Q252 47 337 46Q346 46 361 46T384 45Q425 45 455 55T515 95Q574 156 574 235Q574 276 555 304T504 336Z"></path>
<path stroke-width="10" id="E1-MJMAINI-43" d="M395 -21Q279 -21 215 56T150 244Q150 402 265 543Q339 630 421 667T562 704Q596 704 604 703Q627 698 647 689T679 669T699 649T711 633T716 627L753 665Q790 704 792 704Q793 705 798 705Q812 705 812 698Q812 694 780 561Q744 422 744 421Q742 416 739 415T721 413H705Q699 419 699 426Q701 432 701 444Q705 464 705 493Q705 524 700 551T681 604T643 644T583 659Q480 659 387 570Q321 502 287 397T252 213Q252 123 297 74Q347 24 421 24Q500 24 564 89T653 240Q656 253 659 255T677 257Q700 257 700 248Q700 242 694 222Q681 183 656 143T593 65T504 3T395 -21Z"></path>
<path stroke-width="10" id="E1-MJMAINI-44" d="M56 11Q56 38 68 45L72 46Q77 46 84 46T98 46Q133 47 144 50T161 62Q163 66 232 344T302 626Q302 627 302 629L301 631Q295 637 240 637H222Q216 642 216 645T218 664Q222 677 228 683H403Q582 683 589 682Q672 674 723 608T775 440Q775 312 709 209T562 54Q502 14 432 2Q423 1 243 0H148H102Q72 0 64 2T56 11ZM254 51Q254 46 348 46Q395 46 422 50T484 71Q585 121 633 255Q679 396 679 477Q679 522 665 554T629 603T587 626T548 636Q547 636 536 636T510 636T480 637Q420 637 411 636T398 627Q396 623 325 339T254 51Z"></path>
<path stroke-width="10" id="E1-MJMAINI-45" d="M248 634Q216 634 214 638Q213 641 213 646Q213 674 224 678Q226 680 481 680H736Q743 676 743 669Q743 665 729 557T713 447Q711 440 690 440H675Q667 445 667 454Q667 455 671 481T675 536Q675 583 658 604T592 632Q574 634 475 634Q439 634 424 633T405 631T399 625Q397 622 367 501T336 377Q336 376 367 376H388Q451 376 477 389Q493 399 503 419T520 462T528 489Q531 493 549 493Q557 493 561 492T566 491T569 488T572 483L539 351Q507 221 503 216Q503 216 500 213H484Q468 213 465 216Q461 219 461 225Q461 228 466 250T472 290Q472 317 452 323T368 330H324Q323 326 289 191T255 51T331 46H360Q413 46 444 49T511 67T570 113Q589 137 608 175T638 242T652 272Q656 274 670 274Q693 274 693 262L648 148Q590 4 588 2Q585 0 323 0H61Q54 4 54 11Q54 27 61 41Q65 46 95 46Q131 47 142 50T159 62L194 200Q229 337 264 477T299 623Q299 630 292 631T248 634Z"></path>
<path stroke-width="10" id="E1-MJMAINI-46" d="M299 623Q299 630 292 631T247 634H219Q213 640 213 642T215 661Q218 673 225 680H724Q731 676 731 669Q731 665 717 557T701 447Q699 440 678 440H663Q656 444 656 452Q656 457 659 485T663 538Q663 586 644 607T566 633Q564 633 535 633T486 634H458Q404 634 399 625Q396 620 364 492L332 363H380Q446 365 464 373Q496 389 514 458Q518 477 523 479Q527 480 541 480H556Q563 475 563 470Q563 467 532 339T498 207Q496 200 475 200H460Q453 207 453 212Q454 213 456 225T461 254T464 278Q464 304 445 310T369 317H321L289 190Q257 66 257 59Q257 54 261 52T283 48T337 46Q348 46 352 46T360 45T366 42T368 37Q368 32 365 23Q360 4 355 2Q352 1 342 1Q336 1 297 1T199 2Q138 2 106 2T71 1H68Q54 1 54 11Q54 38 66 45L70 46Q75 46 82 46T96 46Q131 47 142 50T159 62L194 200Q229 337 264 477T299 623Z"></path>
<path stroke-width="10" id="E1-MJMAINI-47" d="M632 -1Q629 -1 622 5T604 25T583 53Q508 -22 394 -22Q287 -22 219 52T150 244Q150 402 265 543Q339 630 421 667T562 704Q596 704 604 703Q627 698 647 689T679 669T699 649T711 633T716 627L753 665Q790 704 792 704Q793 705 798 705Q812 705 812 698Q812 694 780 561Q744 422 744 421Q742 416 739 415T721 413H705Q699 419 699 426Q701 432 701 444Q705 464 705 493Q705 524 700 551T681 604T643 644T583 659Q480 659 387 570Q319 501 286 394T252 208Q252 156 269 118T314 61T369 33T425 24Q470 24 509 46T566 104Q571 116 583 162T595 214Q595 222 583 223Q561 227 517 227H495Q488 230 488 238Q488 254 495 268Q500 273 511 273Q515 273 532 273T581 272T649 271Q731 271 752 273H761Q767 267 767 264T765 246Q761 233 755 227H742Q698 227 693 213L639 4Q636 -1 632 -1Z"></path>
<path stroke-width="10" id="E1-MJMAINI-48" d="M61 0Q54 7 54 11Q54 27 61 41Q65 46 95 46Q131 47 142 50T159 62Q161 66 230 344T300 626Q300 627 300 629L299 631Q293 637 238 637H220Q214 642 214 645T216 664Q220 677 226 683H239Q307 681 372 681Q480 681 486 683H496Q502 677 502 674T500 656Q496 643 490 637H472Q418 637 406 630Q400 627 396 612T367 500Q360 474 352 442T340 395L336 380Q336 378 466 378H596Q657 622 657 626Q657 627 656 629V631Q650 637 595 637H577Q571 642 571 645T573 664Q577 677 583 683H596Q664 681 729 681Q837 681 843 683H853Q860 676 860 672Q858 647 848 637H819Q783 636 772 634T756 623Q753 618 684 340T614 57Q614 50 621 49T666 46Q697 46 699 40Q701 37 698 21Q693 3 689 1Q686 0 677 0Q673 0 657 0T611 1T546 2Q453 2 428 0H418Q411 7 411 11Q411 27 418 41Q422 46 452 46Q488 47 499 50T516 62Q517 64 550 196T584 331Q584 332 454 332H324L291 197Q257 64 257 56Q257 50 265 49T309 46Q340 46 342 40Q344 37 341 21Q336 3 332 1Q329 0 320 0Q316 0 300 0T254 1T189 2Q96 2 71 0H61Z"></path>
<path stroke-width="10" id="E1-MJMAINI-49" d="M235 637Q217 637 213 638T209 649Q209 673 220 682Q222 683 237 683Q278 681 369 681Q404 681 441 682T483 683Q499 683 503 681T508 672Q508 670 505 658T500 643Q498 637 464 637Q425 635 415 633T398 621Q396 618 327 340T257 58T260 52T278 48T322 46Q349 46 349 36Q349 31 346 22Q342 4 337 1Q336 1 334 1T329 0Q325 0 307 0T258 1T190 2Q95 2 67 0H56Q49 7 49 11Q51 38 62 46H91Q129 47 141 50T159 62Q161 66 230 344T300 625Q300 637 235 637Z"></path>
<path stroke-width="10" id="E1-MJMAINI-4A" d="M361 637Q333 637 331 641Q330 644 330 649Q330 673 341 682Q343 683 360 683Q405 681 500 681Q551 681 577 681T607 682Q622 682 622 673Q622 665 616 647Q614 640 610 639T587 637Q547 636 541 624Q538 618 477 374T413 124Q391 64 333 22T207 -21T109 12T78 86Q78 130 101 150T149 170Q193 170 196 129Q196 100 178 80T137 58L132 57Q134 52 138 46T160 28T205 16Q242 16 273 48T319 122Q322 129 383 371T444 627Q444 637 361 637Z"></path>
<path stroke-width="10" id="E1-MJMAINI-4B" d="M668 621Q668 635 645 637Q629 637 629 648Q629 650 632 662T637 677Q640 682 653 682Q657 682 688 681T764 680Q786 680 810 681T839 682Q859 682 859 672Q859 655 852 643Q849 637 839 637Q804 637 768 621T717 595T697 578Q696 578 600 497L505 417L508 408Q543 311 574 227T618 106T632 69Q645 47 688 46H707Q713 38 713 37T710 19Q706 6 700 0H688Q659 2 587 2Q557 2 532 2T492 2T474 1Q458 1 458 10Q458 13 460 23Q464 39 466 42T480 46Q526 46 526 72Q526 75 476 213L427 350Q426 350 396 325T334 272T302 242Q302 241 299 230T290 194T279 150Q257 61 257 55Q257 50 265 49T309 46H337Q343 40 343 38T341 19Q337 6 331 0H316Q280 2 190 2Q158 2 131 2T89 2T70 1Q54 1 54 11Q54 38 66 45L70 46Q75 46 82 46T96 46Q131 47 142 50T159 62Q161 66 230 344T300 626Q300 627 300 629L299 631Q293 637 238 637H220Q214 642 214 645T216 664Q220 677 226 683H239Q307 681 372 681Q386 681 414 681T464 682L487 683H496Q502 677 502 674T500 656Q495 641 491 637H462Q426 636 415 634T399 623Q396 618 358 467L320 314Q321 314 484 452Q510 474 552 509Q625 570 646 590T668 621Z"></path>
<path stroke-width="10" id="E1-MJMAINI-4C" d="M61 0Q54 4 54 11Q54 27 61 41Q65 46 95 46Q131 47 142 50T159 62Q161 66 230 344T300 626Q300 627 300 629L299 631Q293 637 238 637H220Q214 642 214 645T216 664Q220 677 226 683H240Q275 681 371 681Q407 681 438 681T487 682T509 682Q527 682 527 674Q527 670 524 659Q523 657 523 654T522 649T520 645T519 642T517 640T515 639T512 638T507 637T502 637T494 637H478Q433 636 417 633T396 617Q395 614 325 334T255 51Q255 47 319 47Q387 47 410 52Q459 65 494 98T543 163T570 229T589 273H622Q628 264 628 262Q628 259 584 133T539 5Q537 1 511 1Q482 0 296 0H61Z"></path>
<path stroke-width="10" id="E1-MJMAINI-4D" d="M72 1Q58 1 58 11Q58 33 66 41Q68 46 87 46Q150 50 168 84Q172 91 238 356T304 626Q304 627 304 629L303 631Q297 637 242 637H224Q218 642 218 645T220 664Q224 677 230 683H326H394Q417 683 422 682T429 676L480 127L502 163Q523 199 560 262T642 400Q801 668 805 676L817 683H1003Q1010 678 1010 672Q1010 650 997 637H979Q915 637 906 623Q903 618 834 340T764 57Q764 50 771 49T817 46H845Q851 38 851 37T848 19Q845 7 838 0H824Q789 2 701 2Q670 2 644 2T603 2T584 1Q569 1 569 11Q569 13 571 25Q576 42 581 45L586 46Q590 46 597 46T611 46Q646 47 657 50T674 62L813 616L634 313Q453 7 452 7Q446 0 428 0Q409 0 407 6Q405 10 379 304T351 604L285 348Q220 83 220 82Q220 65 233 57T279 46H295Q301 38 301 37T298 19Q295 7 288 0H275Q244 2 171 2Q145 2 123 2T88 2T72 1Z"></path>
</defs>
<g stroke="currentColor" fill="currentColor" stroke-width="0" transform="matrix(1 0 0 -1 0 0)">
 <use xlink:href="#E1-MJMAINI-41" x="0" y="0"></use>
 <use xlink:href="#E1-MJMAINI-42" x="748" y="0"></use>
 <use xlink:href="#E1-MJMAINI-43" x="1457" y="0"></use>
 <use xlink:href="#E1-MJMAINI-44" x="2178" y="0"></use>
 <use xlink:href="#E1-MJMAINI-45" x="2938" y="0"></use>
 <use xlink:href="#E1-MJMAINI-46" x="3621" y="0"></use>
 <use xlink:href="#E1-MJMAINI-47" x="4279" y="0"></use>
 <use xlink:href="#E1-MJMAINI-48" x="5058" y="0"></use>
 <use xlink:href="#E1-MJMAINI-49" x="5806" y="0"></use>
 <use xlink:href="#E1-MJMAINI-4A" x="6197" y="0"></use>
 <use xlink:href="#E1-MJMAINI-4B" x="6727" y="0"></use>
 <use xlink:href="#E1-MJMAINI-4C" x="7501" y="0"></use>
 <use xlink:href="#E1-MJMAINI-4D" x="8133" y="0"></use>
</g>
</svg>