<?xml version="1.0" standalone="no"?>
<!DOCTYPE svg PUBLIC "-//W3C//DTD SVG 1.1//EN" "http://www.w3.org/Graphics/SVG/1.1/DTD/svg11.dtd">
<svg xmlns:xlink="http://www.w3.org/1999/xlink" width="10.408ex" height="2.343ex" style="vertical-align: -0.671ex;" viewBox="0 -719.6 4481 1008.6" xmlns="http://www.w3.org/2000/svg">
<defs>
<path stroke-width="10" id="E1-MJMAIN-2297" d="M56 250Q56 394 156 488T384 583Q530 583 626 485T722 250Q722 110 625 14T390 -83Q249 -83 153 14T56 250ZM582 471Q531 510 496 523Q446 542 381 542Q324 542 272 519T196 471L389 278L485 375L582 471ZM167 442Q95 362 95 250Q95 137 167 58L359 250L167 442ZM610 58Q682 138 682 250Q682 363 610 442L418 250L610 58ZM196 29Q209 16 230 2T295 -27T388 -42Q409 -42 429 -40T465 -33T496 -23T522 -11T544 1T561 13T574 22T582 29L388 222L196 29Z"></path>
<path stroke-width="10" id="E1-MJMAIN-2C" d="M78 35T78 60T94 103T137 121Q165 121 187 96T210 8Q210 -27 201 -60T180 -117T154 -158T130 -185T117 -194Q113 -194 104 -185T95 -172Q95 -168 106 -156T131 -126T157 -76T173 -3V9L172 8Q170 7 167 6T161 3T152 1T140 0Q113 0 96 17Z"></path>
<path stroke-width="10" id="E1-MJAMS-229B" d="M57 250Q57 327 87 392T166 497T270 560T382 582H394Q512 582 610 500Q721 401 721 250Q721 112 626 15T389 -82Q251 -82 154 13T57 250ZM682 129T682 250T596 457T390 543Q269 543 183 457T96 250Q96 132 180 45T389 -43Q511 -43 596 43ZM204 339Q204 357 215 366T238 375Q247 375 283 348Q300 336 311 328L368 286Q369 286 366 323T359 398T355 437Q357 456 379 465Q380 465 384 465T391 466Q403 465 412 457T423 437Q423 436 420 398T413 323T410 286L467 328Q476 334 486 341T501 353T513 361T523 368T529 372T535 374T541 375Q554 375 564 365T575 339Q575 325 566 318T519 292Q504 285 496 281L430 250L496 219Q552 192 559 188T572 175Q575 168 575 161Q575 148 566 137T541 126H538Q530 126 499 149Q480 163 467 172L410 214Q409 214 412 177T419 102T423 63Q423 59 421 54T411 43T389 36T368 42T357 54T355 63Q355 64 358 102T365 177T368 214L311 172Q302 165 293 159T279 148T268 140T260 134T254 131T250 128T246 127T242 126T238 126Q223 126 214 135T204 161T213 183T282 219L348 250L282 281Q226 308 219 312T206 325Q204 330 204 339Z"></path>
<path stroke-width="10" id="E1-MJAMS-229A" d="M57 250Q57 327 87 392T166 497T270 560T382 582H394Q512 582 610 500Q721 401 721 250Q721 112 626 15T389 -82Q251 -82 154 13T57 250ZM682 129T682 250T596 457T390 543Q269 543 183 457T96 250Q96 132 180 45T389 -43Q511 -43 596 43ZM250 250Q250 316 295 352T384 388Q451 388 489 347T528 250Q528 192 487 152T389 112Q331 112 291 152T250 250ZM488 250Q488 290 460 319T389 349Q348 349 319 320T290 250Q290 208 320 180T389 151Q431 151 459 181T488 250Z"></path>
<path stroke-width="10" id="E1-MJAMS-229D" d="M57 250Q57 327 87 392T166 497T270 560T382 582H394Q512 582 610 500Q721 401 721 250Q721 112 626 15T389 -82Q251 -82 154 13T57 250ZM682 129T682 250T596 457T390 543Q269 543 183 457T96 250Q96 132 180 45T389 -43Q511 -43 596 43ZM223 250Q223 263 233 267T280 271Q289 271 325 271T389 270H490Q535 270 545 267T555 250Q555 241 549 235Q544 231 527 231T389 230Q239 230 235 232Q223 236 223 250Z"></path>
</defs>
<g stroke="currentColor" fill="currentColor" stroke-width="0" transform="matrix(1 0 0 -1 0 0)">
 <use xlink:href="#E1-MJMAIN-2297" x="0" y="0"></use>
 <use xlink:href="#E1-MJMAIN-2C" x="783" y="0"></use>
 <use xlink:href="#E1-MJAMS-229B" x="1232" y="0"></use>
 <use xlink:href="#E1-MJMAIN-2C" x="2015" y="0"></use>
 <use xlink:href="#E1-MJAMS-229A" x="2465" y="0"></use>
 <use xlink:href="#E1-MJMAIN-2C" x="3248" y="0"></use>
 <use xlink:href="#E1-MJAMS-229D" x="3698" y="0"></use>
</g>
</svg>