<?xml version="1.0" standalone="no"?>
<!DOCTYPE svg PUBLIC "-//W3C//DTD SVG 1.1//EN" "http://www.w3.org/Graphics/SVG/1.1/DTD/svg11.dtd">
<svg xmlns:xlink="http://www.w3.org/1999/xlink" width="9.372ex" height="2.509ex" style="vertical-align: -0.671ex;" viewBox="0 -791.3 4035 1080.4" xmlns="http://www.w3.org/2000/svg">
<defs>
<path stroke-width="10" id="E1-MJMAIN-2191" d="M27 414Q17 414 17 433Q17 437 17 439T17 444T19 447T20 450T22 452T26 453T30 454T36 456Q80 467 120 494T180 549Q227 607 238 678Q240 694 251 694Q259 694 261 684Q261 677 265 659T284 608T320 549Q340 525 363 507T405 479T440 463T467 455T479 451Q483 447 483 433Q483 413 472 413Q467 413 458 416Q342 448 277 545L270 555V-179Q262 -193 252 -193H250H248Q236 -193 230 -179V555L223 545Q192 499 146 467T70 424T27 414Z"></path>
<path stroke-width="10" id="E1-MJMAIN-2C" d="M78 35T78 60T94 103T137 121Q165 121 187 96T210 8Q210 -27 201 -60T180 -117T154 -158T130 -185T117 -194Q113 -194 104 -185T95 -172Q95 -168 106 -156T131 -126T157 -76T173 -3V9L172 8Q170 7 167 6T161 3T152 1T140 0Q113 0 96 17Z"></path>
<path stroke-width="10" id="E1-MJMAIN-2193" d="M473 86Q483 86 483 67Q483 63 483 61T483 56T481 53T480 50T478 48T474 47T470 46T464 44Q428 35 391 14T316 -55T264 -168Q264 -170 263 -173T262 -180T261 -184Q259 -194 251 -194Q242 -194 238 -176T221 -121T180 -49Q169 -34 155 -21T125 2T95 20T67 33T44 42T27 47L21 49Q17 53 17 67Q17 87 28 87Q33 87 42 84Q158 52 223 -45L230 -55V312Q230 391 230 482T229 591Q229 662 231 676T243 693Q244 694 251 694Q264 692 270 679V-55L277 -45Q307 1 353 33T430 76T473 86Z"></path>
<path stroke-width="10" id="E1-MJAMS-21C8" d="M83 551Q190 590 250 694Q251 689 263 671T307 621T380 567Q409 551 416 551Q422 551 447 563T511 608T577 684L582 694Q642 591 749 551V528Q749 505 748 505Q745 505 724 515T669 546T612 590L602 599V-181Q595 -193 585 -193H582H581Q568 -193 565 -183L563 -179L562 209V598L552 589Q517 556 473 531T414 506H412Q411 506 393 514T361 530T324 553T280 589L270 598V-179Q255 -192 250 -193H247Q237 -193 230 -181V599L220 590Q197 567 164 546T110 515T84 505Q83 505 83 528V551Z"></path>
<path stroke-width="10" id="E1-MJAMS-21CA" d="M230 681Q240 694 251 694Q260 693 270 680V-98L280 -89Q297 -73 314 -60T348 -38T374 -24T397 -13T412 -6H414Q428 -6 473 -32T552 -89L562 -98V291L563 680Q570 693 582 693Q593 694 602 681V-99L612 -90Q635 -68 668 -47T723 -15T748 -5Q749 -5 749 -28V-51Q642 -91 582 -194L577 -184Q551 -141 512 -108T447 -63T416 -51T385 -63T321 -108T255 -184L250 -194Q189 -89 83 -51V-28Q83 -5 84 -5Q88 -5 109 -15T164 -46T220 -90L230 -99V681Z"></path>
</defs>
<g stroke="currentColor" fill="currentColor" stroke-width="0" transform="matrix(1 0 0 -1 0 0)">
 <use xlink:href="#E1-MJMAIN-2191" x="0" y="0"></use>
 <use xlink:href="#E1-MJMAIN-2C" x="505" y="0"></use>
 <use xlink:href="#E1-MJMAIN-2193" x="954" y="0"></use>
 <use xlink:href="#E1-MJMAIN-2C" x="1459" y="0"></use>
 <use xlink:href="#E1-MJAMS-21C8" x="1909" y="0"></use>
 <use xlink:href="#E1-MJMAIN-2C" x="2747" y="0"></use>
 <use xlink:href="#E1-MJAMS-21CA" x="3196" y="0"></use>
</g>
</svg>