<?xml version="1.0" standalone="no"?>
<!DOCTYPE svg PUBLIC "-//W3C//DTD SVG 1.1//EN" "http://www.w3.org/Graphics/SVG/1.1/DTD/svg11.dtd">
<svg xmlns:xlink="http://www.w3.org/1999/xlink" width="12.47ex" height="2.176ex" style="vertical-align: -0.671ex;" viewBox="0 -647.8 5369 936.9" xmlns="http://www.w3.org/2000/svg">
<defs>
<path stroke-width="10" id="E1-MJMAIN-21C0" d="M691 500Q691 511 711 511Q720 511 723 510T730 504T735 490T746 464T768 425Q796 378 835 339T897 285T933 263Q941 258 942 256T944 245T937 230H70Q56 237 56 250T70 270H852Q802 308 762 364T707 455T691 500Z"></path>
<path stroke-width="10" id="E1-MJMAIN-2C" d="M78 35T78 60T94 103T137 121Q165 121 187 96T210 8Q210 -27 201 -60T180 -117T154 -158T130 -185T117 -194Q113 -194 104 -185T95 -172Q95 -168 106 -156T131 -126T157 -76T173 -3V9L172 8Q170 7 167 6T161 3T152 1T140 0Q113 0 96 17Z"></path>
<path stroke-width="10" id="E1-MJMAIN-21BC" d="M62 230Q56 236 55 244Q55 252 57 255T69 265Q114 292 151 326T208 391T243 448T265 491T273 509Q276 511 288 511Q304 511 306 505Q309 501 303 484Q293 456 279 430T251 383T223 344T196 313T173 291T156 276L148 270H929Q944 261 944 250T929 230H62Z"></path>
<path stroke-width="10" id="E1-MJMAIN-21C1" d="M56 237T56 250T70 270H937Q944 263 944 256Q944 251 944 250T943 246T940 242T933 238Q794 153 734 7Q729 -7 726 -9T711 -11Q695 -11 693 -5Q690 -1 696 16Q721 84 763 139T852 230H70Q56 237 56 250Z"></path>
<path stroke-width="10" id="E1-MJMAIN-21BD" d="M55 256Q56 264 62 270H929Q944 261 944 250T929 230H148Q149 229 165 215T196 185T231 145T270 87T303 16Q309 -1 306 -5Q304 -11 288 -11Q279 -11 276 -10T269 -4T264 10T253 36T231 75Q172 173 69 235Q59 242 57 245T55 256Z"></path>
</defs>
<g stroke="currentColor" fill="currentColor" stroke-width="0" transform="matrix(1 0 0 -1 0 0)">
 <use xlink:href="#E1-MJMAIN-21C0" x="0" y="0"></use>
 <use xlink:href="#E1-MJMAIN-2C" x="1005" y="0"></use>
 <use xlink:href="#E1-MJMAIN-21BC" x="1454" y="0"></use>
 <use xlink:href="#E1-MJMAIN-2C" x="2459" y="0"></use>
 <use xlink:href="#E1-MJMAIN-21C1" x="2909" y="0"></use>
 <use xlink:href="#E1-MJMAIN-2C" x="3914" y="0"></use>
 <use xlink:href="#E1-MJMAIN-21BD" x="4364" y="0"></use>
</g>
</svg>