<?xml version="1.0" standalone="no"?>
<!DOCTYPE svg PUBLIC "-//W3C//DTD SVG 1.1//EN" "http://www.w3.org/Graphics/SVG/1.1/DTD/svg11.dtd">
<svg xmlns:xlink="http://www.w3.org/1999/xlink" width="24.192ex" height="2.843ex" style="vertical-align: -0.838ex;" viewBox="0 -863.1 10416 1223.9" xmlns="http://www.w3.org/2000/svg">
<defs>
<path stroke-width="10" id="E1-MJFRAK-4E" d="M112 334Q112 356 70 410T27 497Q27 553 94 619T229 685Q230 685 236 685T246 686Q303 686 349 654Q373 636 392 607T419 558L426 538L454 576Q474 604 486 618T520 651T569 678T633 686Q668 684 687 673T713 651T730 609Q730 608 732 600T736 588T741 578T747 568T754 561T765 555T779 553Q789 553 817 562Q819 557 819 555V547L790 526Q743 492 730 479T712 447Q697 369 697 281Q697 166 726 108Q741 76 755 68Q759 66 767 66Q789 66 825 93V82Q825 71 822 70Q821 69 763 27T701 -18L692 -25L668 15Q662 25 650 45T635 70L627 85V107Q627 122 626 162T624 285Q624 381 632 398Q638 409 651 425T675 454T696 477T707 489H696Q683 490 679 492T669 507T653 551Q642 588 627 608T584 628Q572 628 560 625T538 616T519 602T502 586T486 568T473 549T463 532T454 517T448 504L445 497Q437 480 437 474Q437 472 439 461T444 421T446 348Q446 205 405 124Q396 105 392 100T368 78Q312 32 278 9T235 -18T214 -22Q191 -22 170 -10T139 12T129 25T160 66T192 105Q193 102 194 98T200 83T213 64T233 49T261 42Q303 42 339 90Q373 134 373 268Q373 397 339 493T235 618Q215 628 191 628Q155 628 126 604T97 548Q97 524 120 493T168 431T192 381Q192 346 164 318T86 260L70 250L54 266L63 272Q112 300 112 334Z"></path>
<path stroke-width="10" id="E1-MJFRAK-4F" d="M428 596Q412 596 386 595T350 593Q289 593 270 625Q267 632 267 640Q267 656 280 672T312 705T336 729H343Q351 729 351 728Q342 710 342 703Q342 683 382 676T493 662T604 643Q648 627 677 599T720 535T739 466T744 392Q744 317 732 260T696 166T659 116T621 83Q617 80 615 78Q485 -27 377 -27Q320 -25 272 -9T187 21T122 36H116Q65 36 29 -13L27 -15L12 0Q12 1 32 26T76 78T109 109Q145 123 166 150T187 207Q187 244 134 318T80 412Q80 454 112 498T176 566T213 590Q216 590 224 585L234 580L225 573Q216 566 207 557T188 536T172 511T165 484Q165 448 213 368T261 259Q261 241 252 219T228 179T200 146T176 122L167 112Q170 111 174 111Q188 110 233 91T339 55T453 37Q508 37 556 68T626 152Q655 219 655 328Q655 543 532 582Q484 596 428 596Z"></path>
<path stroke-width="10" id="E1-MJFRAK-50" d="M112 339Q112 354 91 380T49 438T28 497Q28 565 95 628T242 692Q261 692 277 689T307 682T331 670T351 655T367 637T379 619T388 600T395 582T401 565T405 550Q409 554 422 570T453 603T500 641Q573 692 637 692Q656 692 670 686T692 672T705 647T713 618T718 584Q720 568 721 562T728 546T742 534T768 530Q776 531 782 532T791 535T796 536Q799 536 804 521Q801 519 789 513T764 499T738 480Q697 447 680 414Q677 407 677 396Q677 370 713 312T750 210Q750 125 686 57T560 -11Q540 -11 475 13L410 37V31Q410 -9 412 -50T417 -118T420 -150Q419 -150 373 -184T326 -218L305 -208Q305 -207 307 -196T314 -165T322 -116T328 -46T331 43V63L318 66Q270 80 250 80Q233 80 213 70Q183 57 138 -3L128 -16L118 5L125 20Q193 154 282 154Q309 154 331 146V287Q331 444 327 469Q321 522 301 560Q284 590 251 611T184 633Q146 633 119 607T92 550Q92 539 94 534Q100 516 143 460T186 386Q186 366 170 336T119 281Q102 264 70 250L49 260L56 266Q64 271 72 278T90 296T106 317T112 339ZM602 345Q602 357 608 371T622 397T642 421T661 441T678 456L686 462Q663 473 652 486T639 512T634 553Q631 594 624 608T593 631Q587 632 567 632Q539 632 497 600T416 497L410 484V122L467 103Q481 99 502 92T533 82T557 75T578 69T594 66T610 64Q647 64 672 87T697 144Q697 180 650 250T602 345Z"></path>
<path stroke-width="10" id="E1-MJFRAK-51" d="M428 596Q412 596 386 595T350 593Q313 593 291 605T268 638Q268 644 269 648T274 658T284 669T301 689T326 718L336 729H343Q351 729 351 728Q342 710 342 703Q342 683 382 676T493 662T604 643Q744 592 744 398Q744 299 708 213T646 104L603 68L614 55Q670 -5 710 -5Q726 -5 744 1T772 14L781 20Q782 20 782 7V-6L771 -13Q673 -69 665 -69L647 -63Q552 -30 514 8H512Q509 8 500 3T471 -9T428 -23Q405 -27 377 -27Q305 -24 228 6T124 36Q69 36 27 -16Q23 -13 19 -8L11 0L27 20Q93 102 109 109Q145 123 166 150T187 207Q187 244 134 318T80 412Q80 454 112 498T176 566T213 590Q216 590 224 585L234 580L225 573Q216 566 207 557T188 536T172 511T165 484Q165 448 213 368T261 259Q261 241 252 219T228 179T200 146T176 122L167 112Q170 111 174 111Q188 110 233 91T339 55T453 37Q508 37 556 68T626 152Q655 219 655 328Q655 543 532 582Q484 596 428 596Z"></path>
<path stroke-width="10" id="E1-MJFRAK-52" d="M27 496Q31 569 102 627T234 685Q236 685 241 685T251 686Q287 686 318 672T367 638T399 598T418 564L423 550Q424 554 434 567T463 601T505 639T561 671T626 685Q672 685 688 659T710 572Q713 533 721 523T766 513Q781 513 787 514T794 516Q796 512 798 509T801 504T802 501T787 493Q702 461 624 401L607 389Q655 383 688 358L697 352V342Q699 330 699 297Q704 209 710 173T734 103Q751 69 765 69Q769 69 806 83L824 90V74Q823 73 759 24T693 -26Q692 -26 660 32L628 90L629 111Q631 159 631 177Q631 278 614 300Q584 340 523 340Q500 340 467 333T431 325Q429 325 429 322Q428 321 426 308T420 275T410 230T392 178T366 125L358 112L342 99Q306 70 269 38T213 -10T193 -26Q192 -26 163 0T116 26Q82 26 50 -8L42 -16L35 -8L27 0L35 10Q43 21 58 38T104 80T158 106Q179 106 218 65L235 48Q238 48 255 60T295 99T329 158Q352 231 352 359Q352 555 242 614Q210 628 187 628Q140 628 116 600T91 548Q91 522 138 464T185 382V376Q185 345 158 313T103 263L76 246Q74 244 64 253L54 260L65 267Q91 285 100 302Q111 318 111 337Q111 355 69 410T27 496ZM562 628Q504 628 443 507L435 491L436 479Q437 471 437 446Q437 396 432 351L529 389L602 426Q673 462 673 463H672Q644 470 637 483T622 553Q608 628 562 628Z"></path>
<path stroke-width="10" id="E1-MJFRAK-53" d="M750 276Q750 141 645 57T378 -27Q224 -27 146 67Q66 163 66 307Q66 361 80 412T127 515T217 609T356 676L388 684L420 692L442 681Q545 625 586 608T654 591Q688 591 710 609T737 646L742 665Q742 665 756 654L752 642Q736 594 706 566T621 515L607 510Q580 513 528 542T421 599T335 627Q272 627 214 569Q139 500 139 373Q139 308 159 247T217 136T316 56T455 26Q520 26 566 43T634 90T666 148T676 207Q676 264 649 297T580 338Q574 339 552 339Q516 339 442 325T327 310H324Q303 310 290 312T259 328T232 369Q230 375 230 390Q230 426 259 461Q286 488 338 507Q351 498 351 495L346 492Q342 490 339 488T330 482T320 473T312 462T305 447T303 428Q303 368 366 368Q393 368 487 388T613 409Q656 409 696 385T748 306Q750 294 750 276Z"></path>
<path stroke-width="10" id="E1-MJFRAK-54" d="M289 686Q338 686 439 668T565 649Q606 649 641 672Q656 683 664 690T674 700L675 701Q676 698 676 692V681L641 636Q608 591 602 588Q577 575 528 575Q490 575 438 583L426 585L416 578Q335 520 335 465Q335 437 393 366T452 259Q452 226 406 171Q387 146 351 115L341 106L358 97Q438 58 475 58Q525 58 598 124L608 133Q617 119 617 118Q617 114 606 103Q513 0 448 -27L438 -25Q401 -19 337 14T234 48Q186 48 122 -3L112 -11L106 -3L101 5L110 15Q160 63 209 105L224 117H310Q384 163 384 210Q384 238 329 303T263 398Q262 400 262 404Q262 427 290 476T368 580Q383 596 381 596Q315 622 228 622Q159 622 118 593T76 516Q76 482 96 461T139 431L107 399L75 367Q34 403 34 472Q34 525 64 572T148 652Q207 686 289 686Z"></path>
<path stroke-width="10" id="E1-MJFRAK-55" d="M160 247Q160 291 110 382T59 505Q59 542 106 597T207 690L218 697L229 682Q229 680 216 669T187 644T158 604T144 552Q144 526 165 482T207 387T228 291Q228 277 228 267T224 247T219 232T210 217T199 202T184 184T166 163L118 107Q124 105 132 105T160 98T220 77Q298 47 317 47Q354 47 409 105Q444 142 451 161T458 244V277Q458 339 455 457T447 596L575 686L591 676L583 668Q550 632 541 587T532 449V372V298Q532 198 550 147Q572 79 605 79Q617 79 631 84T656 95L665 100V79L595 27Q578 15 560 2T532 -19L523 -26Q522 -26 490 42L458 111L397 50Q389 42 374 27T355 8T340 -5T325 -16T311 -22T294 -26T274 -27Q232 -25 152 6T35 37Q28 36 19 30T4 18T-8 4T-16 -5Q-25 10 -25 11T-20 18Q-5 34 15 57L54 101Q70 103 86 116Q94 121 113 140T137 166Q160 201 160 247Z"></path>
<path stroke-width="10" id="E1-MJFRAK-56" d="M54 266Q118 307 118 339Q118 360 74 413T27 493Q26 530 59 578T133 651Q187 686 256 686Q299 686 332 673T382 640T409 600T424 567T429 553Q431 553 463 586T542 653T624 686Q663 686 715 652T798 617Q812 617 825 622V606L815 599Q785 576 762 546Q724 495 724 432Q724 397 737 317T750 217Q750 148 711 96Q697 75 639 34T578 -10Q563 -21 555 -23T522 -26Q458 -26 363 29Q253 89 211 89Q192 89 173 83T139 67T114 49T96 34L90 27L80 43L95 59Q121 87 148 110T191 143T213 154Q261 154 300 195Q328 222 340 267T352 406Q352 562 255 611Q222 627 187 627H182Q143 627 115 598Q96 579 96 559Q96 528 144 470T192 381Q192 348 156 314T80 256L70 250L54 266ZM727 548Q701 550 650 583T567 617Q560 617 554 615Q532 610 501 580T445 501L437 485V465Q432 326 378 223L294 150Q321 143 421 87T560 31Q608 31 634 64Q660 102 660 198Q660 226 655 292T650 387Q650 418 658 452L660 462L735 548H727ZM264 150Q265 151 263 151H261Q261 150 264 150ZM280 150H276V149Q280 149 280 150Z"></path>
<path stroke-width="10" id="E1-MJFRAK-57" d="M32 501Q35 564 103 625T264 686Q326 686 365 652Q402 618 420 564L441 585Q486 630 539 670L559 686L572 672Q637 606 665 559L682 576Q787 686 845 686Q877 686 929 656T992 623Q999 621 1016 621Q1041 621 1054 628L1051 617L1047 606Q1042 602 1037 597Q983 557 969 522T954 434Q954 394 961 336T968 221Q968 201 966 184T963 155T956 131T948 113T936 96T923 82T906 66T887 50L816 -2Q815 -3 810 -6T801 -11T791 -16T777 -20T759 -23T735 -25Q691 -25 619 4T505 37H496L463 21Q420 0 389 -20L378 -27H362Q316 -27 275 -9T202 28T150 46H146Q114 46 59 -5L48 -16L41 -6Q40 -4 38 -2T34 2L33 4Q33 8 77 54Q111 87 142 112L154 122H166Q239 127 288 182Q346 244 346 406Q346 489 326 537T259 610Q227 628 195 628Q155 628 128 606T101 549Q101 517 146 465T192 382Q192 348 156 310T85 254L75 250L64 258L55 266Q56 267 74 276T105 301T118 339Q118 362 75 413T32 501ZM952 547Q927 555 877 586T796 617Q744 617 682 525L676 516L677 498Q678 486 678 425Q678 301 652 206Q649 195 613 151T577 102Q577 100 582 100Q618 100 720 51Q761 32 790 32H794Q843 32 869 83Q884 110 884 189Q884 233 879 294T873 400Q874 433 879 451T889 478T915 507T952 547ZM241 105Q249 98 263 88T317 60T393 42Q478 42 547 109Q607 171 607 358Q607 371 607 380T604 417T595 467T577 517T546 566T500 601L479 580Q449 550 433 526L426 516V503Q426 311 357 200L352 191L296 149Q241 107 241 105Z"></path>
<path stroke-width="10" id="E1-MJFRAK-58" d="M96 511L78 527L149 603Q207 666 227 686L237 685Q278 680 306 667T351 631T376 588T395 533L400 516L406 527Q439 600 523 653Q538 664 587 688Q589 688 596 672T613 635T629 606Q643 588 665 588Q677 588 693 596L709 603V585L607 526Q583 536 554 564T512 614Q461 571 435 507T405 381V367H581L563 347Q561 344 558 341T553 335T549 330T546 326L545 325H541Q537 325 488 329T411 334H405V325Q405 198 454 123Q497 54 568 54Q594 54 619 64T660 84L676 95V74L565 -16L553 -20Q528 -27 512 -27Q492 -27 475 -21T444 -5T418 19T398 47T382 77T371 105T363 128T358 145L357 151Q354 151 339 136T294 91T232 37Q152 -22 113 -22Q90 -22 69 -9T38 17T28 32Q28 33 58 68L86 101Q94 81 115 64T165 47Q206 47 249 84Q302 128 325 222Q334 263 336 312V334H312Q198 334 163 324H161Q162 326 182 348L198 367H336V398Q333 508 308 550Q295 570 274 585T227 601Q204 601 181 589T145 565T115 533T96 511Z"></path>
<path stroke-width="10" id="E1-MJFRAK-59" d="M123 345Q123 358 75 415T27 496Q27 533 63 578T121 639Q181 685 256 685Q305 685 332 676T384 635Q419 588 425 542Q468 585 526 628T618 686Q632 667 658 645T704 609T724 594Q740 512 740 385V375V361Q740 128 682 -3Q656 -64 554 -141T361 -218Q319 -218 287 -203T243 -173T230 -150Q230 -148 267 -109L304 -69Q311 -115 341 -142T411 -170Q474 -170 534 -119T624 11Q660 111 660 312Q660 447 633 528L612 549Q578 583 552 596L543 601L528 592Q501 574 483 558Q454 528 436 494L431 484V473Q431 330 376 230Q366 213 359 206T306 159L250 112Q278 105 327 82T399 58Q421 58 440 69T471 92T484 104H485L493 90L480 73Q453 39 429 13Q393 -22 372 -22Q342 -22 260 15T153 53Q97 53 48 -16L38 5Q46 22 74 54T128 108L143 122H155Q226 127 275 168Q352 236 352 399Q352 501 309 564T197 628Q156 628 129 607T102 553Q102 517 147 463T192 383Q192 323 75 250L59 266Q123 314 123 345Z"></path>
<path stroke-width="10" id="E1-MJFRAK-5A" d="M148 590Q95 592 91 627V633L160 729H176Q169 713 169 705Q169 670 244 670Q269 670 305 672T357 675Q405 675 432 661T468 609Q469 605 469 596Q469 572 460 540Q433 463 301 372Q325 378 359 378Q431 378 472 350T519 297Q532 249 532 198Q532 115 500 40T442 -57Q335 -139 202 -139Q165 -139 125 -131L112 -129V-100Q112 -49 106 -33T75 -17Q55 -17 31 -35L22 -42L11 -26L22 -18Q94 36 151 36H160Q171 36 178 33T188 27T194 13T196 -5T197 -32Q198 -79 206 -90Q217 -107 251 -107Q336 -107 389 -33T442 155Q442 240 407 274Q362 319 285 319Q236 319 192 298Q188 298 181 309L224 372Q227 373 234 374T246 376T257 379T271 384T285 391T302 402T321 417Q384 471 384 540Q384 562 366 581T306 600Q292 600 233 595T148 590Z"></path>
</defs>
<g stroke="currentColor" fill="currentColor" stroke-width="0" transform="matrix(1 0 0 -1 0 0)">
 <use xlink:href="#E1-MJFRAK-4E" x="0" y="0"></use>
 <use xlink:href="#E1-MJFRAK-4F" x="837" y="0"></use>
 <use xlink:href="#E1-MJFRAK-50" x="1669" y="0"></use>
 <use xlink:href="#E1-MJFRAK-51" x="2502" y="0"></use>
 <use xlink:href="#E1-MJFRAK-52" x="3334" y="0"></use>
 <use xlink:href="#E1-MJFRAK-53" x="4167" y="0"></use>
 <use xlink:href="#E1-MJFRAK-54" x="5001" y="0"></use>
 <use xlink:href="#E1-MJFRAK-55" x="5682" y="0"></use>
 <use xlink:href="#E1-MJFRAK-56" x="6352" y="0"></use>
 <use xlink:href="#E1-MJFRAK-57" x="7188" y="0"></use>
 <use xlink:href="#E1-MJFRAK-58" x="8247" y="0"></use>
 <use xlink:href="#E1-MJFRAK-59" x="8971" y="0"></use>
 <use xlink:href="#E1-MJFRAK-5A" x="9809" y="0"></use>
</g>
</svg>