<?xml version="1.0" standalone="no"?>
<!DOCTYPE svg PUBLIC "-//W3C//DTD SVG 1.1//EN" "http://www.w3.org/Graphics/SVG/1.1/DTD/svg11.dtd">
<svg xmlns:xlink="http://www.w3.org/1999/xlink" width="9.808ex" height="2.343ex" style="vertical-align: -0.671ex;" viewBox="0 -719.6 4223 1008.6" xmlns="http://www.w3.org/2000/svg">
<defs>
<path stroke-width="10" id="E1-MJAMS-22CE" d="M83 558Q83 566 89 572T104 578Q108 578 116 577T146 570T190 555T239 526T286 480Q308 453 325 420T351 358T367 304T376 265T380 251T381 253Q381 262 395 312Q428 434 492 499T642 576Q654 578 655 578Q664 578 670 572T676 558Q676 543 657 540T599 524T525 476Q406 362 400 29V8Q400 -21 380 -21Q369 -21 362 -11Q360 -7 360 12Q360 115 348 200T308 360T231 480T111 537Q83 540 83 558Z"></path>
<path stroke-width="10" id="E1-MJMAIN-2C" d="M78 35T78 60T94 103T137 121Q165 121 187 96T210 8Q210 -27 201 -60T180 -117T154 -158T130 -185T117 -194Q113 -194 104 -185T95 -172Q95 -168 106 -156T131 -126T157 -76T173 -3V9L172 8Q170 7 167 6T161 3T152 1T140 0Q113 0 96 17Z"></path>
<path stroke-width="10" id="E1-MJAMS-22CF" d="M104 -22Q95 -22 89 -16T83 -2Q83 11 98 16T135 23T192 46T256 103Q360 233 360 549Q360 554 360 557T361 563T362 567T364 569T367 572T371 576Q377 578 380 578Q401 578 401 547Q401 543 401 537T400 527Q409 53 648 19Q676 16 676 -2Q676 -10 670 -16T655 -22Q654 -22 642 -20Q556 -9 492 56T395 244Q381 294 381 303Q381 305 380 305T374 275T352 201T310 110T234 27T117 -20Q105 -22 104 -22Z"></path>
<path stroke-width="10" id="E1-MJMAIN-222A" d="M591 598H592Q604 598 611 583V376Q611 345 611 296Q610 162 606 148Q605 146 605 145Q586 68 507 23T333 -22Q268 -22 209 -1T106 66T56 173Q55 180 55 384L56 585Q66 598 75 598Q85 598 95 585V378L96 172L98 162Q112 95 181 57T332 18Q415 18 487 58T570 175Q571 180 571 383V583Q579 598 591 598Z"></path>
<path stroke-width="10" id="E1-MJMAIN-2229" d="M88 -21T75 -21T55 -7V200Q55 231 55 280Q56 414 60 428Q61 430 61 431Q77 500 152 549T332 598Q443 598 522 544T610 405Q611 399 611 194V-7Q604 -22 591 -22Q582 -22 572 -9L570 405Q563 433 556 449T529 485Q498 519 445 538T334 558Q251 558 179 518T96 401Q95 396 95 193V-7Q88 -21 75 -21Z"></path>
</defs>
<g stroke="currentColor" fill="currentColor" stroke-width="0" transform="matrix(1 0 0 -1 0 0)">
 <use xlink:href="#E1-MJAMS-22CE" x="0" y="0"></use>
 <use xlink:href="#E1-MJMAIN-2C" x="765" y="0"></use>
 <use xlink:href="#E1-MJAMS-22CF" x="1214" y="0"></use>
 <use xlink:href="#E1-MJMAIN-2C" x="1979" y="0"></use>
 <use xlink:href="#E1-MJMAIN-222A" x="2429" y="0"></use>
 <use xlink:href="#E1-MJMAIN-2C" x="3101" y="0"></use>
 <use xlink:href="#E1-MJMAIN-2229" x="3551" y="0"></use>
</g>
</svg>