<?xml version="1.0" standalone="no"?>
<!DOCTYPE svg PUBLIC "-//W3C//DTD SVG 1.1//EN" "http://www.w3.org/Graphics/SVG/1.1/DTD/svg11.dtd">
<svg xmlns:xlink="http://www.w3.org/1999/xlink" width="3.13ex" height="2.676ex" style="vertical-align: -0.838ex;" viewBox="0 -791.3 1347.7 1152.1" xmlns="http://www.w3.org/2000/svg">
<defs>
<path stroke-width="10" id="E1-MJMAIN-2020" d="M182 675Q195 705 222 705Q234 705 243 700T253 691T263 675L262 655Q262 620 252 549T240 454V449Q250 451 288 461T346 472T377 461T389 431Q389 417 379 404T346 390Q327 390 288 401T243 412H240V405Q245 367 250 339T258 301T261 274T263 225Q263 124 255 -41T239 -213Q236 -216 222 -216H217Q206 -216 204 -212T200 -186Q199 -175 199 -168Q181 38 181 225Q181 265 182 280T191 327T204 405V412H201Q196 412 157 401T98 390Q76 390 66 403T55 431T65 458T98 472Q116 472 155 462T205 449Q204 452 204 460T201 490T193 547Q182 619 182 655V675Z"></path>
<path stroke-width="10" id="E1-MJMAIN-2C" d="M78 35T78 60T94 103T137 121Q165 121 187 96T210 8Q210 -27 201 -60T180 -117T154 -158T130 -185T117 -194Q113 -194 104 -185T95 -172Q95 -168 106 -156T131 -126T157 -76T173 -3V9L172 8Q170 7 167 6T161 3T152 1T140 0Q113 0 96 17Z"></path>
<path stroke-width="10" id="E1-MJMAIN-2021" d="M181 658Q181 705 222 705T263 658Q263 633 252 572T240 497Q240 496 241 496Q243 496 285 507T345 519Q365 519 376 508T388 478Q388 466 384 458T375 447T361 438H344Q318 438 282 448T241 459Q240 458 240 456Q240 449 251 384T263 297Q263 278 255 267T238 253T222 250T206 252T190 266T181 297Q181 323 192 383T204 458Q204 459 203 459Q198 459 162 449T101 438H84Q74 443 70 446T61 457T56 478Q56 497 67 508T99 519Q117 519 159 508T203 496Q204 496 204 499Q204 507 193 572T181 658ZM181 202Q181 249 222 249T263 202Q263 185 259 161T249 103T240 48V41H243Q248 41 287 52T346 63T377 52T389 22Q389 8 379 -5T346 -19Q327 -19 288 -8T243 3H240V-4Q243 -24 249 -58T259 -117T263 -158Q263 -177 255 -188T238 -202T222 -205T206 -203T190 -189T181 -158Q181 -141 185 -117T195 -59T204 -4V3H201Q196 3 157 -8T98 -19Q76 -19 66 -6T55 22T65 49T98 63Q117 63 156 52T201 41H204V48Q201 68 195 102T185 161T181 202Z"></path>
</defs>
<g stroke="currentColor" fill="currentColor" stroke-width="0" transform="matrix(1 0 0 -1 0 0)">
 <use xlink:href="#E1-MJMAIN-2020" x="0" y="0"></use>
 <use xlink:href="#E1-MJMAIN-2C" x="449" y="0"></use>
 <use xlink:href="#E1-MJMAIN-2021" x="898" y="0"></use>
</g>
</svg>