<?xml version="1.0" standalone="no"?>
<!DOCTYPE svg PUBLIC "-//W3C//DTD SVG 1.1//EN" "http://www.w3.org/Graphics/SVG/1.1/DTD/svg11.dtd">
<svg xmlns:xlink="http://www.w3.org/1999/xlink" width="5.24ex" height="2.843ex" style="vertical-align: -0.671ex; margin-right: -0.046ex;" viewBox="0 -934.9 2256 1223.9" xmlns="http://www.w3.org/2000/svg">
<defs>
<path stroke-width="10" id="E1-MJMAIN-2032" d="M79 43Q73 43 52 49T30 61Q30 68 85 293T146 528Q161 560 198 560Q218 560 240 545T262 501Q262 496 260 486Q259 479 173 263T84 45T79 43Z"></path>
<path stroke-width="10" id="E1-MJAMS-2035" d="M12 501Q12 527 31 542T63 558Q73 560 77 560Q114 560 128 528Q133 518 188 293T244 61Q244 56 223 50T195 43Q192 43 190 45T102 263T14 486Q12 496 12 501Z"></path>
<path stroke-width="10" id="E1-MJAMS-2713" d="M84 231Q84 244 114 264T170 285Q176 285 183 274T224 205Q267 129 268 129Q271 141 279 163T318 250T389 378T502 523T662 673Q702 706 732 706H734Q749 706 749 695Q749 682 730 666T660 607T559 505Q387 299 328 29Q324 0 295 -17T245 -34H241Q234 -34 225 -21T185 46Q166 79 154 101Q84 223 84 231Z"></path>
<path stroke-width="10" id="E1-MJMAIN-221A" d="M95 178Q89 178 81 186T72 200T103 230T169 280T207 309Q209 311 212 311H213Q219 311 227 294T281 177Q300 134 312 108L397 -77Q398 -77 501 136T707 565T814 786Q820 800 834 800Q841 800 846 794T853 782V776L620 293L385 -193Q381 -200 366 -200Q357 -200 354 -197Q352 -195 256 15L160 225L144 214Q129 202 113 190T95 178Z"></path>
</defs>
<g stroke="currentColor" fill="currentColor" stroke-width="0" transform="matrix(1 0 0 -1 0 0)">
 <use xlink:href="#E1-MJMAIN-2032" x="0" y="0"></use>
 <use xlink:href="#E1-MJAMS-2035" x="280" y="0"></use>
 <use xlink:href="#E1-MJAMS-2713" x="560" y="0"></use>
 <use xlink:href="#E1-MJMAIN-221A" x="1398" y="0"></use>
</g>
</svg>