<?xml version="1.0" standalone="no"?>
<!DOCTYPE svg PUBLIC "-//W3C//DTD SVG 1.1//EN" "http://www.w3.org/Graphics/SVG/1.1/DTD/svg11.dtd">
<svg xmlns:xlink="http://www.w3.org/1999/xlink" width="26.979ex" height="2.509ex" style="vertical-align: -0.671ex;" viewBox="0 -791.3 11616 1080.4" xmlns="http://www.w3.org/2000/svg">
<defs>
<path stroke-width="10" id="E1-MJMATHBI-4E" d="M258 624H235Q214 624 209 626T199 639Q203 678 216 684Q220 686 344 686H434Q464 686 477 680Q480 677 607 454Q738 227 739 227Q742 227 789 418T836 618Q836 620 835 620L821 622Q811 622 779 624Q755 624 749 625T740 632Q737 635 737 644Q737 656 742 669T754 685Q755 685 757 685T763 686Q768 686 803 685T890 684Q925 684 951 684T990 685T1006 686Q1014 686 1016 684Q1027 679 1027 668Q1023 632 1011 626Q1007 624 978 624Q912 622 907 617Q907 616 831 314T753 8Q749 0 723 0H712Q699 0 692 7Q692 8 671 44T607 155T526 296L361 580L296 323Q234 74 234 68T302 62H307Q334 62 334 44Q330 6 317 2L313 0L280 1Q260 2 181 2Q125 2 96 1T63 0Q48 0 43 15Q43 19 47 35Q52 55 57 58T94 62Q147 64 164 69L233 345Q302 619 302 622Q302 624 258 624Z"></path>
<path stroke-width="10" id="E1-MJMATHBI-4F" d="M53 245Q53 297 70 356T125 478T216 590T349 671T523 703Q656 703 735 637T815 445Q815 378 791 307Q727 104 527 17Q437 -17 344 -17Q289 -17 242 -5T150 35T79 116T53 245ZM664 489Q664 575 618 611T511 648Q463 648 416 627T334 570Q297 531 270 472T230 355T213 261T208 206Q208 177 215 151T237 98T284 56T358 40Q440 40 510 98T618 270Q664 400 664 489Z"></path>
<path stroke-width="10" id="E1-MJMATHBI-50" d="M162 62L302 623Q302 624 258 624H234Q214 624 209 626T200 638Q200 677 217 684Q220 686 439 686Q667 685 684 682Q686 681 693 680Q713 677 733 671T782 649T829 602T847 528Q847 450 784 382T604 293Q571 288 469 287H373L346 176Q340 151 333 122T321 78L317 64Q317 62 361 62H387Q420 62 420 44Q417 10 404 2L399 0L357 1Q331 2 224 2Q149 2 109 1T65 0Q43 0 43 17Q43 21 47 33Q52 54 57 58T89 62H113H162ZM692 558Q692 611 617 622Q610 623 529 624H452L381 343H458H492Q604 343 641 389Q662 414 677 471T692 558Z"></path>
<path stroke-width="10" id="E1-MJMATHBI-51" d="M53 245Q53 297 70 356T125 478T216 590T349 671T523 703Q656 703 735 637T815 445Q815 410 808 370T781 277T729 178T643 87T519 14L525 4Q540 -19 553 -25T592 -32Q632 -32 654 -24T680 -7T689 10T704 18Q713 18 717 12T722 0Q722 -8 711 -36T681 -101T624 -166T541 -194Q513 -194 494 -183T465 -157T450 -118T444 -79T443 -41V-7L433 -9Q391 -17 344 -17Q301 -17 263 -10T185 15T118 62T71 138T53 245ZM666 482Q666 529 652 563T614 615T565 640T512 648Q412 648 335 573Q268 506 235 389T201 202Q201 164 210 136T230 95T259 66L262 76Q269 109 302 135T382 162Q401 162 415 159T449 140T484 92L491 78L496 82Q502 86 505 88T515 97T528 107T541 120T555 137T570 156T585 179T599 205T612 235Q629 278 647 351T666 482ZM439 56Q439 58 439 62T435 75T426 92T410 106T383 112Q353 112 332 96T311 63Q311 38 355 38H366Q391 39 415 45T439 56Z"></path>
<path stroke-width="10" id="E1-MJMATHBI-52" d="M258 624H235Q214 624 209 626T199 639Q203 678 216 684Q220 686 422 686H446H525Q634 686 698 674T806 620Q843 583 843 535Q843 505 833 478T805 432T768 396T728 370T690 352T662 342L651 338L654 336Q658 334 667 327T688 310Q719 278 719 237Q719 222 710 165T701 94Q701 35 748 35Q775 35 793 57T819 101Q822 112 826 114T843 117H849Q881 117 881 99Q881 78 852 39T781 -11Q765 -17 728 -17Q537 -13 537 94Q537 110 552 169T567 243Q567 292 529 309Q517 316 508 316T441 318H375L374 314Q374 312 343 189T311 64Q311 62 355 62H382Q414 62 414 44Q410 6 397 2L393 0L351 1Q325 2 221 2Q147 2 108 1T65 0Q48 0 43 15Q47 54 60 60Q64 62 113 62H162L302 623Q302 624 258 624ZM687 555Q687 617 589 623Q581 624 513 624H451L420 498Q413 468 405 436T392 388L388 371Q388 369 458 369Q464 369 485 369T515 369T541 372T570 377T596 386T624 400Q649 417 664 457T683 522T687 555Z"></path>
<path stroke-width="10" id="E1-MJMATHBI-53" d="M354 45Q429 45 467 91T506 184Q506 225 477 250Q461 262 384 279T294 300Q238 318 210 362T182 452Q182 493 202 540T257 623Q338 702 449 702Q491 702 501 701Q571 690 610 654Q614 649 617 650Q618 650 650 675T683 702Q685 703 692 703Q714 703 714 690Q714 686 687 578T658 466Q653 458 629 458Q606 458 602 463Q600 465 599 466Q599 467 599 469T598 473Q598 475 599 487T600 511Q600 584 557 614T454 645Q386 645 347 606T308 520Q308 506 311 496T323 477T338 464T360 454T384 446T413 439T441 433Q523 416 549 401Q581 384 602 352Q631 309 631 254Q631 214 615 170T567 83T478 12T347 -16Q322 -16 300 -14T261 -8T230 0T205 10T187 20T172 30L162 37L130 11Q124 7 119 3T110 -4T104 -9T100 -13T96 -15T93 -16T91 -17T88 -17H82Q76 -17 73 -16T69 -14T66 -10T63 -5L90 107Q97 133 106 170Q116 211 120 219T136 228H148Q167 228 173 227T179 218Q179 216 176 200T173 168Q173 102 227 74T354 45Z"></path>
<path stroke-width="10" id="E1-MJMATHBI-54" d="M498 62Q511 58 511 43Q511 10 494 1L490 0Q487 0 482 0T424 1T271 2Q201 2 157 2T94 1T72 0H70Q46 0 46 17Q49 54 62 60L66 62H137Q208 62 209 63L218 98Q227 134 244 203T278 339L347 613H300Q262 612 246 611T198 599T146 564Q128 545 114 512T91 454T79 425Q73 419 52 419Q22 419 22 434Q22 440 41 498T80 611L100 666Q105 673 111 675H434Q758 675 762 673Q772 668 772 657Q772 655 756 549T738 434Q735 419 711 419H707Q690 419 686 421Q677 425 677 434Q676 436 678 449T683 485T686 529Q686 553 679 569T662 594T631 607T593 612T544 613H502L433 340Q418 279 400 207T374 100L365 65L364 62H498Z"></path>
<path stroke-width="10" id="E1-MJMATHBI-55" d="M856 686Q877 686 877 668Q877 663 873 649T867 631Q861 624 828 624Q762 622 757 617Q757 613 705 409T651 200Q620 112 540 48T328 -16Q251 -16 196 2T113 51T75 112T63 176Q63 202 70 232T117 422Q129 469 141 520T160 598L167 623Q167 624 123 624H96Q79 624 73 626T64 639Q68 678 81 684Q85 686 104 686Q155 684 268 684Q340 684 377 685T418 686Q441 686 441 668Q437 632 425 626Q421 624 371 624H322L270 415Q224 232 217 198T209 141Q209 45 336 45Q372 45 406 52T475 77T540 128T585 211L590 229Q594 247 601 274T617 336T636 409T654 482T670 547T681 595T686 618Q686 620 685 620H683Q681 621 678 621T671 622Q660 622 630 624Q616 624 610 624T598 626T589 630T587 640Q587 647 590 659Q594 677 598 681T613 686Q618 686 653 685T740 684Q775 684 801 684T840 685T856 686Z"></path>
<path stroke-width="10" id="E1-MJMATHBI-56" d="M401 686Q415 680 415 668Q415 651 404 629Q398 624 356 624Q318 624 318 623Q318 620 337 508T377 284L397 174L472 285Q548 396 623 507T699 620Q698 621 652 624Q634 624 627 627T619 641Q619 648 622 658Q627 677 631 681T650 686Q654 686 686 685T766 684Q794 684 823 684T858 685Q874 685 878 683T886 671Q886 667 882 651Q877 632 873 628T850 624Q800 624 779 617Q774 617 770 613Q767 610 560 304T350 -5Q346 -9 332 -16H306H291Q270 -16 267 -2Q267 -1 260 37T238 161T210 313L156 624H116H94Q62 624 62 642Q66 678 78 684Q82 686 99 686Q144 684 246 684Q330 684 368 685L401 686Z"></path>
<path stroke-width="10" id="E1-MJMATHBI-57" d="M111 624Q109 624 102 624T91 623Q61 623 61 640Q61 660 70 678Q78 686 98 686Q140 684 239 684Q277 684 309 684T360 685T383 686H385Q407 686 407 668Q404 634 391 626Q387 624 348 624Q307 624 307 622Q307 618 332 409Q359 198 359 195L570 532L564 576L558 622V624H522H504Q472 624 472 641Q475 678 488 684L493 686L529 685Q551 684 645 684Q716 684 753 685T795 686Q818 686 818 669Q815 632 802 626Q798 624 759 624Q718 624 718 622Q718 615 743 410Q770 199 770 196Q770 195 806 253T903 406Q1035 618 1035 619Q1025 624 968 624Q943 624 943 641Q943 648 946 659Q950 675 952 679T963 686L998 685Q1020 684 1093 684Q1113 684 1139 685T1173 686Q1207 686 1207 669Q1207 664 1204 652Q1199 631 1194 628T1164 624Q1113 622 1101 615Q1098 612 905 305Q715 -1 709 -7Q699 -17 673 -17Q645 -17 639 -8L581 441Q581 444 442 221Q331 44 314 18T288 -14Q279 -17 263 -17H254Q229 -17 227 -5Q225 2 186 311L147 620V624H111Z"></path>
<path stroke-width="10" id="E1-MJMATHBI-58" d="M931 686Q953 686 953 670Q953 650 944 632Q936 624 924 624H914Q823 624 803 611Q800 609 696 503T591 396Q591 394 667 229L743 62H787H814Q846 62 846 44Q843 7 829 2Q825 0 817 0Q813 0 775 1T664 2Q590 2 551 1T508 0H507Q484 0 484 18Q484 19 488 37Q492 56 497 58T534 62L566 63Q567 64 520 169T471 274Q469 274 369 172T268 67L315 62Q320 62 328 62L335 61Q347 58 347 44Q344 10 331 2L326 0L287 1Q263 2 177 2Q95 2 78 1L53 0Q38 6 38 17Q38 40 50 57Q56 62 78 62Q169 62 188 75Q194 77 435 324L444 334L439 347Q437 351 373 492L313 624H268H246Q220 624 212 632Q210 636 210 642Q210 655 215 669T227 684Q230 686 247 686Q295 684 398 684Q438 684 472 684T527 685T551 686Q567 686 572 671Q572 667 568 651Q563 631 558 628T523 624T492 623H488L526 540Q563 457 564 457Q564 456 574 466T604 496T645 537L724 619Q716 622 677 624H673Q645 624 645 640Q645 660 654 678Q659 683 666 686L704 685Q728 684 813 684Q847 684 873 684T913 685T931 686Z"></path>
<path stroke-width="10" id="E1-MJMATHBI-59" d="M97 624H73Q40 624 40 640Q40 660 49 678Q57 686 77 686Q122 684 228 684Q269 684 304 684T360 685T385 686Q406 686 406 668Q406 662 403 653Q398 631 393 628T361 624H353Q321 624 321 623T376 491T432 360L448 377Q465 394 493 424T553 490L673 620Q662 624 630 624Q606 624 606 640Q608 678 623 684Q627 686 634 686Q638 686 671 685T755 684Q777 684 805 685T841 686Q861 686 868 683T876 669Q876 664 873 652Q868 631 863 628T829 624Q764 622 747 611Q727 590 590 441L437 275L411 170Q385 65 384 64Q384 62 429 62H453Q473 62 478 60T487 48Q488 44 484 29Q479 6 473 3Q468 0 454 0Q450 0 436 0T386 1T294 2Q220 2 181 1T138 0Q121 0 116 15Q120 54 133 60Q137 62 187 62H236L289 275L142 624H97Z"></path>
<path stroke-width="10" id="E1-MJMATHBI-5A" d="M223 430Q192 430 192 448Q192 450 225 561T261 677Q265 683 270 684Q273 686 534 686Q796 686 797 685Q805 682 805 673Q805 668 804 661T800 648T798 641Q796 637 531 352L266 67L329 66H364Q412 66 446 70T523 96T596 157Q617 186 630 220T649 273T663 297Q667 299 684 299H688Q715 299 715 281Q715 278 673 145T628 8Q626 4 617 0H348Q289 0 221 0T139 -1Q112 -1 99 -1T78 1T69 5T68 12Q68 16 71 31T77 49L84 57Q91 65 104 79T133 110T170 151T213 196L610 624H540Q533 624 514 624T488 624T467 623T443 620T422 616T398 609T373 600Q292 560 255 449Q251 436 246 433T223 430Z"></path>
</defs>
<g stroke="currentColor" fill="currentColor" stroke-width="0" transform="matrix(1 0 0 -1 0 0)">
 <use xlink:href="#E1-MJMATHBI-4E" x="0" y="0"></use>
 <use xlink:href="#E1-MJMATHBI-4F" x="1032" y="0"></use>
 <use xlink:href="#E1-MJMATHBI-50" x="1874" y="0"></use>
 <use xlink:href="#E1-MJMATHBI-51" x="2726" y="0"></use>
 <use xlink:href="#E1-MJMATHBI-52" x="3600" y="0"></use>
 <use xlink:href="#E1-MJMATHBI-53" x="4486" y="0"></use>
 <use xlink:href="#E1-MJMATHBI-54" x="5205" y="0"></use>
 <use xlink:href="#E1-MJMATHBI-55" x="5982" y="0"></use>
 <use xlink:href="#E1-MJMATHBI-56" x="6864" y="0"></use>
 <use xlink:href="#E1-MJMATHBI-57" x="7755" y="0"></use>
 <use xlink:href="#E1-MJMATHBI-58" x="8967" y="0"></use>
 <use xlink:href="#E1-MJMATHBI-59" x="9925" y="0"></use>
 <use xlink:href="#E1-MJMATHBI-5A" x="10806" y="0"></use>
</g>
</svg>