<?xml version="1.0" standalone="no"?>
<!DOCTYPE svg PUBLIC "-//W3C//DTD SVG 1.1//EN" "http://www.w3.org/Graphics/SVG/1.1/DTD/svg11.dtd">
<svg xmlns:xlink="http://www.w3.org/1999/xlink" width="4.682ex" height="2.676ex" style="vertical-align: -0.838ex;" viewBox="0 -791.3 2015.7 1152.1" xmlns="http://www.w3.org/2000/svg">
<defs>
<path stroke-width="10" id="E1-MJAMS-2280" d="M386 292Q388 292 439 393T543 598T598 703Q599 703 603 704T609 705Q616 705 622 699T629 685T533 494Q440 308 440 305Q451 310 462 312Q547 342 592 388T651 505Q654 525 658 532T673 539Q680 539 686 533T693 519Q693 495 678 450Q638 341 500 283Q433 259 418 259Q416 259 411 251T406 241T415 239Q482 224 544 190Q674 121 691 -10Q693 -28 691 -32Q684 -43 672 -43Q664 -43 658 -37Q656 -33 650 -6T634 47T589 109T500 168Q473 179 436 190T388 201H386L284 -1Q261 -45 232 -101T191 -181T178 -206Q176 -206 172 -207T166 -208Q160 -208 153 -202T146 -188Q146 -185 246 12Q344 206 344 210Q344 213 305 217T213 225T124 228H95Q82 241 82 248Q82 253 95 268H124Q172 268 236 273T343 283T386 292Z"></path>
<path stroke-width="10" id="E1-MJMAIN-2C" d="M78 35T78 60T94 103T137 121Q165 121 187 96T210 8Q210 -27 201 -60T180 -117T154 -158T130 -185T117 -194Q113 -194 104 -185T95 -172Q95 -168 106 -156T131 -126T157 -76T173 -3V9L172 8Q170 7 167 6T161 3T152 1T140 0Q113 0 96 17Z"></path>
<path stroke-width="10" id="E1-MJAMS-2281" d="M103 -43Q96 -43 89 -39T82 -26L84 -10Q105 141 275 212Q342 236 355 236Q360 236 364 245L369 256H360Q284 280 275 283Q115 351 86 490Q82 507 82 517Q82 526 88 532T103 538Q110 538 115 534Q119 531 122 517T128 486T143 444T174 397T231 351T320 310Q371 292 389 292L491 496Q595 701 598 703Q599 703 603 704T609 705Q616 705 622 699T629 685Q629 684 531 485Q431 296 431 288Q431 278 520 273T651 268H680Q693 253 693 248Q693 241 680 228H651Q591 228 491 218T386 201L284 -1Q261 -45 232 -101T191 -181T178 -206Q176 -206 172 -207T166 -208Q160 -208 153 -202T146 -188Q146 -182 302 125L335 190L324 185Q313 185 289 172Q241 153 208 128T159 78T135 31T124 -11T118 -37Q112 -43 103 -43Z"></path>
</defs>
<g stroke="currentColor" fill="currentColor" stroke-width="0" transform="matrix(1 0 0 -1 0 0)">
 <use xlink:href="#E1-MJAMS-2280" x="0" y="0"></use>
 <use xlink:href="#E1-MJMAIN-2C" x="783" y="0"></use>
 <use xlink:href="#E1-MJAMS-2281" x="1232" y="0"></use>
</g>
</svg>