<?xml version="1.0" standalone="no"?>
<!DOCTYPE svg PUBLIC "-//W3C//DTD SVG 1.1//EN" "http://www.w3.org/Graphics/SVG/1.1/DTD/svg11.dtd">
<svg xmlns:xlink="http://www.w3.org/1999/xlink" width="9.677ex" height="2.176ex" style="vertical-align: -0.671ex;" viewBox="0 -647.8 4166.3 936.9" xmlns="http://www.w3.org/2000/svg">
<defs>
<path stroke-width="10" id="E2-MJMAIN-21AA" d="M55 347Q55 380 72 404T113 441T159 458T197 464Q222 464 222 444Q222 429 204 426T157 417T110 387Q95 369 95 347Q95 339 98 330T111 307T142 283T196 270H961Q845 357 818 493Q818 494 818 496T817 499Q817 511 834 511H837Q846 511 849 510T855 506T858 497T861 481T869 456Q891 389 942 336T1061 261Q1070 258 1070 250Q1070 244 1065 241T1041 231T1003 212Q962 186 932 152T887 85T866 35T858 4Q856 -6 853 -8T837 -11Q817 -11 817 0Q817 7 822 25Q854 151 961 230H196Q149 230 102 260T55 347Z"></path>
<path stroke-width="10" id="E2-MJMAIN-2C" d="M78 35T78 60T94 103T137 121Q165 121 187 96T210 8Q210 -27 201 -60T180 -117T154 -158T130 -185T117 -194Q113 -194 104 -185T95 -172Q95 -168 106 -156T131 -126T157 -76T173 -3V9L172 8Q170 7 167 6T161 3T152 1T140 0Q113 0 96 17Z"></path>
<path stroke-width="10" id="E2-MJMAIN-21A9" d="M903 424T903 444T929 464Q976 464 1023 434T1070 347Q1070 316 1055 292T1016 256T971 237T929 230H165Q167 228 182 216T211 189T244 152T277 96T303 25Q308 7 308 0Q308 -11 288 -11Q281 -11 278 -11T272 -7T267 2T263 21Q245 94 195 151T73 236Q58 242 55 247Q55 254 59 257T73 264Q121 283 158 314T215 375T247 434T264 480L267 497Q269 503 270 505T275 509T288 511Q308 511 308 500Q308 493 303 475Q293 438 278 406T246 352T215 315T185 287T165 270H926Q929 270 941 271T960 275T978 280T998 290T1015 307Q1030 325 1030 347Q1030 355 1027 364T1014 387T983 411T929 424H928Q903 424 903 444Z"></path>
<path stroke-width="10" id="E2-MJAMS-21DD" d="M76 230Q68 230 62 237T56 250Q56 257 63 264T91 291Q102 300 108 306L159 351Q168 356 177 351L218 316L303 239L353 195Q376 214 403 239L488 316L529 351Q538 356 546 351Q548 350 594 310L638 270H848L841 278Q813 309 792 344T763 396T755 416Q755 417 778 417H801Q817 367 856 323T943 250Q895 221 856 177T801 83H778Q755 83 755 84Q755 86 762 103T791 156T841 222L848 230H737Q625 230 622 232Q620 233 599 251T558 288L537 306Q537 305 451 228T362 149Q353 146 345 149Q341 150 255 227T169 306Q167 306 129 270Q123 265 115 257T102 245T93 237T84 232T76 230Z"></path>
</defs>
<g stroke="currentColor" fill="currentColor" stroke-width="0" transform="matrix(1 0 0 -1 0 0)">
 <use xlink:href="#E2-MJMAIN-21AA" x="0" y="0"></use>
 <use xlink:href="#E2-MJMAIN-2C" x="1131" y="0"></use>
 <use xlink:href="#E2-MJMAIN-21A9" x="1580" y="0"></use>
 <use xlink:href="#E2-MJMAIN-2C" x="2711" y="0"></use>
 <use xlink:href="#E2-MJAMS-21DD" x="3161" y="0"></use>
</g>
</svg>