<?xml version="1.0" standalone="no"?>
<!DOCTYPE svg PUBLIC "-//W3C//DTD SVG 1.1//EN" "http://www.w3.org/Graphics/SVG/1.1/DTD/svg11.dtd">
<svg xmlns:xlink="http://www.w3.org/1999/xlink" width="15.738ex" height="2.176ex" style="vertical-align: -0.338ex;" viewBox="0 -791.3 6776 936.9" xmlns="http://www.w3.org/2000/svg">
<defs>
<path stroke-width="10" id="E1-MJMAINB-50" d="M400 0Q376 3 226 3Q75 3 51 0H39V62H147V624H39V686H253Q435 686 470 685T536 678Q585 668 621 648T675 605T705 557T718 514T721 483T718 451T704 409T673 362T616 322T530 293Q500 288 399 287H304V62H412V0H400ZM553 475Q553 554 537 582T459 622Q451 623 373 624H298V343H372Q457 344 480 350Q527 362 540 390T553 475Z"></path>
<path stroke-width="10" id="E1-MJMAINB-3A3" d="M766 271Q764 266 750 137T735 4V0H407Q74 0 71 4L70 5Q64 9 64 18Q64 24 82 41T213 158L359 288Q360 288 320 336T214 460Q67 633 66 635Q64 638 64 655Q64 679 75 684Q78 686 407 686H735V682Q738 676 751 558T766 434V430H735Q704 430 704 431Q704 434 703 444T696 477T681 520T654 563T613 598Q578 615 527 619T371 624H281L396 489Q506 358 513 351Q517 342 512 334Q503 325 371 208Q338 179 303 147T249 99L231 83L243 81Q258 81 364 81Q382 81 418 81T470 82T513 83T554 88T587 96T619 109T645 129Q689 173 702 260L704 274Q704 275 735 275H766V271Z"></path>
<path stroke-width="10" id="E1-MJMAINB-54" d="M41 425Q41 426 51 545T62 669V675H737V669Q738 665 748 546T758 425V419H696V425Q687 517 669 555T595 607Q578 612 522 613H478V62H631V0H615Q585 3 399 3Q214 3 184 0H168V62H321V613H277H263Q164 613 134 561Q113 527 103 425V419H41V425Z"></path>
<path stroke-width="10" id="E1-MJMAINB-3A5" d="M64 556Q69 619 114 658T224 697Q271 697 310 677T375 622T417 554T444 484L447 477V479Q456 516 473 551T516 620T582 676T670 697Q735 697 780 656T829 556Q829 539 818 532H772Q761 539 761 548Q761 571 681 571Q664 571 653 570T623 562T587 537T555 490Q536 448 531 410T525 300V210V62H660V0H646L447 3Q257 1 247 0H233V62H368V210V301Q368 373 363 410T338 490Q324 518 307 536T270 561T240 569T212 571Q132 571 132 548Q132 539 121 532H75Q64 538 64 556Z"></path>
<path stroke-width="10" id="E1-MJMAINB-3A6" d="M609 0Q582 3 415 3T221 0H207V62H342V168L328 169Q193 180 117 241Q64 286 64 343T117 445Q193 506 328 517L342 518V624H207V686H221Q248 683 415 683T609 686H623V624H488V518L502 517Q637 506 713 445Q766 400 766 343T713 241Q637 180 502 169L488 168V62H623V0H609ZM342 219T342 343T340 467Q328 467 304 459Q277 451 261 439T237 409T228 378T226 343Q226 314 229 296T250 259T301 228Q331 219 341 219Q342 219 342 343ZM604 343Q604 365 602 379T591 413T560 446T503 464L489 467Q488 467 488 343T489 219Q499 219 529 228Q554 236 570 248T593 277T602 308T604 343Z"></path>
<path stroke-width="10" id="E1-MJMAINB-58" d="M327 0Q306 3 174 3Q52 3 43 0H33V62H98L162 63L360 333L157 624H48V686H59Q80 683 217 683Q368 683 395 686H408V624H335L393 540L452 458L573 623Q573 624 528 624H483V686H494Q515 683 646 683Q769 683 778 686H787V624H658L575 511Q493 398 493 397L508 376Q522 356 553 312T611 229L727 62H835V0H824Q803 3 667 3Q516 3 489 0H476V62H513L549 63L401 274L247 63Q247 62 292 62H338V0H327Z"></path>
<path stroke-width="10" id="E1-MJMAINB-3A8" d="M64 515Q64 532 71 536T104 540H139Q200 540 207 538Q225 533 236 521T253 489T260 454T264 414Q264 340 287 296T347 237Q369 226 373 226Q374 226 374 425V624H239V686H253Q280 683 447 683T641 686H655V624H520V226L522 227Q525 228 531 229T552 240T580 261T606 298T624 354Q627 368 628 394T631 440T637 482T654 518T686 538Q693 540 754 540H794Q817 540 823 536T829 515Q829 500 824 495T811 489T796 483T782 461T775 408Q767 212 568 175Q526 168 521 168Q520 168 520 115V62H655V0H641Q614 3 447 3T253 0H239V62H374V168L364 169Q290 178 243 203Q126 261 118 409Q117 443 111 461T98 484T83 489T70 495T64 515Z"></path>
<path stroke-width="10" id="E1-MJMAINB-3A9" d="M598 645T415 645T232 458Q232 385 275 239T318 26Q318 8 311 4T272 -1Q265 -1 240 -1T196 0H88V3Q86 5 70 108Q52 211 51 212V215H113V212Q123 149 132 133Q136 124 149 122T202 118Q241 118 241 119Q241 132 132 277Q64 378 64 457Q64 564 158 630T403 696Q487 696 543 685T661 638Q722 599 744 549T766 458Q766 434 761 410T749 368T729 327T709 293T684 258T663 229Q632 187 614 160T592 126L589 119Q589 118 628 118Q667 119 680 121T698 133Q702 140 706 160T714 196L717 212V215H779V212Q778 211 760 108Q744 5 742 3V0H634H562Q528 0 520 4T512 26Q512 92 555 238T598 458Q598 645 415 645Z"></path>
</defs>
<g stroke="currentColor" fill="currentColor" stroke-width="0" transform="matrix(1 0 0 -1 0 0)">
 <use xlink:href="#E1-MJMAINB-50" x="0" y="0"></use>
 <use xlink:href="#E1-MJMAINB-3A3" x="791" y="0"></use>
 <use xlink:href="#E1-MJMAINB-54" x="1627" y="0"></use>
 <use xlink:href="#E1-MJMAINB-3A5" x="2432" y="0"></use>
 <use xlink:href="#E1-MJMAINB-3A6" x="3331" y="0"></use>
 <use xlink:href="#E1-MJMAINB-58" x="4167" y="0"></use>
 <use xlink:href="#E1-MJMAINB-3A8" x="5041" y="0"></use>
 <use xlink:href="#E1-MJMAINB-3A9" x="5940" y="0"></use>
</g>
</svg>