<?xml version="1.0" standalone="no"?>
<!DOCTYPE svg PUBLIC "-//W3C//DTD SVG 1.1//EN" "http://www.w3.org/Graphics/SVG/1.1/DTD/svg11.dtd">
<svg xmlns:xlink="http://www.w3.org/1999/xlink" width="6.228ex" height="3.843ex" style="vertical-align: -1.338ex;" viewBox="0 -1078.4 2681.7 1654.5" xmlns="http://www.w3.org/2000/svg">
<defs>
<path stroke-width="10" id="E1-MJSZ2-22C1" d="M55 900Q55 919 69 934T103 950Q134 950 147 924Q152 913 353 333L555 -250L757 333Q958 913 963 924Q978 950 1007 950Q1028 950 1041 935T1055 901Q1055 894 1054 891Q1052 884 826 231T597 -426Q583 -450 556 -450Q527 -450 512 -424Q510 -421 285 229T56 890Q55 893 55 900Z"></path>
<path stroke-width="10" id="E1-MJMAIN-2C" d="M78 35T78 60T94 103T137 121Q165 121 187 96T210 8Q210 -27 201 -60T180 -117T154 -158T130 -185T117 -194Q113 -194 104 -185T95 -172Q95 -168 106 -156T131 -126T157 -76T173 -3V9L172 8Q170 7 167 6T161 3T152 1T140 0Q113 0 96 17Z"></path>
<path stroke-width="10" id="E1-MJSZ2-22C0" d="M1055 -401Q1055 -419 1042 -434T1007 -450Q977 -450 963 -423Q959 -417 757 167L555 750L353 167Q151 -417 147 -423Q134 -450 104 -450Q84 -450 70 -436T55 -401Q55 -394 56 -390Q59 -381 284 270T512 925Q525 950 555 950Q583 950 597 926Q599 923 825 270T1054 -391Q1055 -394 1055 -401Z"></path>
</defs>
<g stroke="currentColor" fill="currentColor" stroke-width="0" transform="matrix(1 0 0 -1 0 0)">
 <use xlink:href="#E1-MJSZ2-22C1" x="0" y="0"></use>
 <use xlink:href="#E1-MJMAIN-2C" x="1116" y="0"></use>
 <use xlink:href="#E1-MJSZ2-22C0" x="1565" y="0"></use>
</g>
</svg>