<?xml version="1.0" standalone="no"?>
<!DOCTYPE svg PUBLIC "-//W3C//DTD SVG 1.1//EN" "http://www.w3.org/Graphics/SVG/1.1/DTD/svg11.dtd">
<svg xmlns:xlink="http://www.w3.org/1999/xlink" width="5.713ex" height="2.176ex" style="vertical-align: -0.671ex;" viewBox="0 -647.8 2459.7 936.9" xmlns="http://www.w3.org/2000/svg">
<defs>
<path stroke-width="10" id="E1-MJAMS-21AE" d="M491 272Q491 275 542 352T597 432Q602 437 609 437Q617 437 622 432T628 417T582 341L537 272L608 270H751L822 272L808 288Q786 313 761 355T733 414Q733 424 737 426T766 428H793L806 397Q829 354 864 314Q896 284 928 263Q942 257 942 250T928 237Q887 208 864 185Q829 147 806 103L793 74L766 72Q742 72 738 73T733 85Q735 102 756 137T797 198L817 225L822 230H511L457 148Q440 124 420 93Q404 68 400 64T389 60Q381 60 375 66T368 81Q368 88 415 159L462 230H175L188 214Q210 188 235 145T264 85Q264 75 260 74T231 72L206 74L191 103Q169 142 164 150Q130 195 64 239Q56 244 56 250T64 261Q115 294 142 323T191 397L206 428H231Q255 428 259 426T264 414Q260 397 235 355T188 288L175 272L331 270Q488 270 491 272Z"></path>
<path stroke-width="10" id="E1-MJMAIN-2C" d="M78 35T78 60T94 103T137 121Q165 121 187 96T210 8Q210 -27 201 -60T180 -117T154 -158T130 -185T117 -194Q113 -194 104 -185T95 -172Q95 -168 106 -156T131 -126T157 -76T173 -3V9L172 8Q170 7 167 6T161 3T152 1T140 0Q113 0 96 17Z"></path>
<path stroke-width="10" id="E1-MJAMS-21CE" d="M395 -24T395 -19T417 57T440 132H255L266 116Q308 64 340 -6Q342 -17 337 -21Q335 -26 320 -26T302 -19Q302 -15 294 4T265 54T217 117T145 182T49 236Q30 243 33 254Q40 261 49 263Q98 283 142 315T214 379T263 442T293 493T302 519Q305 525 320 525T337 521Q342 516 340 505Q308 435 266 383L255 370L384 367H515Q561 522 569 530Q574 534 580 534Q587 534 594 528T602 516Q602 512 580 441T557 367H651L742 370L731 383Q689 435 657 505Q655 516 660 521Q662 525 677 525T695 519Q695 515 703 496T732 446T780 383T853 317T949 263Q967 258 964 245Q959 240 949 236Q897 215 852 182T779 116T731 52T703 3T695 -19Q692 -26 677 -26T660 -21Q655 -17 657 -6Q670 21 682 42T702 77T717 99T728 114T735 122T739 126T740 130T613 132H482L460 54Q440 -9 433 -23T415 -37Q408 -37 402 -31ZM502 325Q502 327 360 327H217L195 310Q173 291 120 256L111 250Q114 248 143 229T195 190L217 172H335L453 174L502 325ZM886 250Q885 251 865 263T831 286T802 310L780 327H544L535 299Q531 283 511 223L495 174L637 172H780L802 190Q843 225 877 243L886 250Z"></path>
</defs>
<g stroke="currentColor" fill="currentColor" stroke-width="0" transform="matrix(1 0 0 -1 0 0)">
 <use xlink:href="#E1-MJAMS-21AE" x="0" y="0"></use>
 <use xlink:href="#E1-MJMAIN-2C" x="1005" y="0"></use>
 <use xlink:href="#E1-MJAMS-21CE" x="1454" y="0"></use>
</g>
</svg>