<?xml version="1.0" standalone="no"?>
<!DOCTYPE svg PUBLIC "-//W3C//DTD SVG 1.1//EN" "http://www.w3.org/Graphics/SVG/1.1/DTD/svg11.dtd">
<svg xmlns:xlink="http://www.w3.org/1999/xlink" width="12.47ex" height="2.843ex" style="vertical-align: -0.838ex;" viewBox="0 -863.1 5369 1223.9" xmlns="http://www.w3.org/2000/svg">
<defs>
<path stroke-width="10" id="E1-MJMAIN-2197" d="M582 697Q582 701 591 710T605 720Q607 720 630 706T697 677T795 662Q830 662 863 670T914 686T934 694Q942 694 944 685Q944 680 936 663T921 615T913 545Q913 490 927 446T956 379T970 355Q970 351 961 342T947 332Q940 332 929 349Q874 436 874 541Q874 590 878 598L832 553Q787 508 673 395T482 204Q87 -191 83 -193Q77 -195 75 -195Q67 -195 61 -189T55 -174Q55 -170 56 -168Q58 -164 453 232Q707 487 777 557T847 628Q824 623 787 623Q689 623 599 679Q582 690 582 697Z"></path>
<path stroke-width="10" id="E1-MJMAIN-2C" d="M78 35T78 60T94 103T137 121Q165 121 187 96T210 8Q210 -27 201 -60T180 -117T154 -158T130 -185T117 -194Q113 -194 104 -185T95 -172Q95 -168 106 -156T131 -126T157 -76T173 -3V9L172 8Q170 7 167 6T161 3T152 1T140 0Q113 0 96 17Z"></path>
<path stroke-width="10" id="E1-MJMAIN-2199" d="M126 -41Q126 -92 121 -97Q121 -98 139 -80T200 -20T281 61T394 173T517 296Q909 690 916 693Q922 695 924 695Q932 695 938 689T944 674Q944 670 943 668Q942 664 546 268Q292 13 222 -57T153 -128Q176 -123 212 -123Q310 -123 400 -179Q417 -190 417 -197Q417 -201 408 -210T394 -220Q392 -220 369 -206T302 -177T204 -162Q131 -162 67 -194Q63 -195 59 -192T55 -183Q55 -180 62 -163T78 -115T86 -45Q86 10 72 54T44 120T29 145Q29 149 38 158T52 168Q59 168 70 151Q126 62 126 -41Z"></path>
<path stroke-width="10" id="E1-MJMAIN-2198" d="M55 675Q55 683 60 689T75 695Q77 695 83 693Q87 691 482 296Q532 246 605 174T717 62T799 -20T859 -80T878 -97Q874 -93 874 -41Q874 64 929 151Q940 168 947 168Q951 168 960 159T970 145Q970 143 956 121T928 54T913 -45Q913 -83 920 -114T936 -163T944 -185Q942 -194 934 -194Q932 -194 914 -186T864 -170T795 -162Q743 -162 698 -176T630 -205T605 -220Q601 -220 592 -211T582 -197Q582 -187 611 -170T691 -138T787 -123Q824 -123 847 -128Q848 -128 778 -57T453 268Q58 664 56 668Q55 670 55 675Z"></path>
<path stroke-width="10" id="E1-MJMAIN-2196" d="M204 662Q257 662 301 676T369 705T394 720Q398 720 407 711T417 697Q417 688 389 671T310 639T212 623Q176 623 153 628Q151 628 221 557T546 232Q942 -164 943 -168Q944 -170 944 -174Q944 -182 938 -188T924 -195Q922 -195 916 -193Q912 -191 517 204Q440 281 326 394T166 553L121 598Q126 589 126 541Q126 438 70 349Q59 332 52 332Q48 332 39 341T29 355Q29 358 38 372T57 407T77 464T86 545Q86 583 78 614T63 663T55 683Q55 693 65 693Q73 693 82 688Q136 662 204 662Z"></path>
</defs>
<g stroke="currentColor" fill="currentColor" stroke-width="0" transform="matrix(1 0 0 -1 0 0)">
 <use xlink:href="#E1-MJMAIN-2197" x="0" y="0"></use>
 <use xlink:href="#E1-MJMAIN-2C" x="1005" y="0"></use>
 <use xlink:href="#E1-MJMAIN-2199" x="1454" y="0"></use>
 <use xlink:href="#E1-MJMAIN-2C" x="2459" y="0"></use>
 <use xlink:href="#E1-MJMAIN-2198" x="2909" y="0"></use>
 <use xlink:href="#E1-MJMAIN-2C" x="3914" y="0"></use>
 <use xlink:href="#E1-MJMAIN-2196" x="4364" y="0"></use>
</g>
</svg>