<?xml version="1.0" standalone="no"?>
<!DOCTYPE svg PUBLIC "-//W3C//DTD SVG 1.1//EN" "http://www.w3.org/Graphics/SVG/1.1/DTD/svg11.dtd">
<svg xmlns:xlink="http://www.w3.org/1999/xlink" width="12.5ex" height="2.176ex" style="vertical-align: -0.338ex;" viewBox="0 -791.3 5382 936.9" xmlns="http://www.w3.org/2000/svg">
<defs>
<path stroke-width="10" id="E1-MJMAIN-50" d="M130 622Q123 629 119 631T103 634T60 637H27V683H214Q237 683 276 683T331 684Q419 684 471 671T567 616Q624 563 624 489Q624 421 573 372T451 307Q429 302 328 301H234V181Q234 62 237 58Q245 47 304 46H337V0H326Q305 3 182 3Q47 3 38 0H27V46H60Q102 47 111 49T130 61V622ZM507 488Q507 514 506 528T500 564T483 597T450 620T397 635Q385 637 307 637H286Q237 637 234 628Q231 624 231 483V342H302H339Q390 342 423 349T481 382Q507 411 507 488Z"></path>
<path stroke-width="10" id="E1-MJTT-3A3" d="M40 575Q40 576 40 579T41 583T41 588T43 593T46 597T50 602T55 606T63 610H68Q74 610 84 610T108 610T139 610T176 611T219 611T264 611H462Q464 609 469 606T475 602T479 598T482 593T483 586T484 576T484 562V526V488Q484 452 466 444Q462 442 442 442Q417 442 409 450Q402 457 401 463T400 501V535H153Q153 533 218 430Q233 405 250 378T276 336T286 319Q290 311 290 307Q290 296 239 211Q229 194 223 184L161 78H400V112Q400 142 401 149T409 163Q418 172 442 172Q473 172 482 152Q484 147 484 86V49Q484 25 481 17T462 1H63Q41 10 41 31Q41 39 43 44Q43 45 81 109T157 238L195 303Q195 307 119 430T41 557T40 575Z"></path>
<path stroke-width="10" id="E1-MJMAIN-54" d="M36 443Q37 448 46 558T55 671V677H666V671Q667 666 676 556T685 443V437H645V443Q645 445 642 478T631 544T610 593Q593 614 555 625Q534 630 478 630H451H443Q417 630 414 618Q413 616 413 339V63Q420 53 439 50T528 46H558V0H545L361 3Q186 1 177 0H164V46H194Q264 46 283 49T309 63V339V550Q309 620 304 625T271 630H244H224Q154 630 119 601Q101 585 93 554T81 486T76 443V437H36V443Z"></path>
<path stroke-width="10" id="E1-MJTT-3A5" d="M38 494Q38 549 74 585T152 621Q168 621 179 619T209 606T241 566T262 492Q262 494 265 507T270 526T276 547T285 569T298 589T315 606T337 617T365 622Q416 622 451 584T486 494Q486 470 469 461Q464 459 445 459H437Q416 459 406 476Q404 479 403 502T393 541T365 558Q350 558 340 548T323 519T312 475T307 419T305 354T304 282Q304 254 304 239V76H358Q372 67 376 60T380 38Q380 10 358 1H167Q145 9 145 32V38Q145 54 148 60T167 76H220V239Q220 256 220 289T220 338T219 383T217 426T214 463T209 497T201 522T189 543T174 555Q168 558 159 558Q139 558 131 541T121 502T118 476Q108 459 84 459H79H71Q38 459 38 494Z"></path>
<path stroke-width="10" id="E1-MJMAIN-3A6" d="M312 622Q310 623 307 625T303 629T297 631T286 634T270 635T246 636T211 637H184V683H196Q220 680 361 680T526 683H538V637H511Q468 637 447 635T422 631T411 622V533L425 531Q525 519 595 466T665 342Q665 301 642 267T583 209T506 172T425 152L411 150V61Q417 55 421 53T447 48T511 46H538V0H526Q502 3 361 3T196 0H184V46H211Q231 46 245 46T270 47T286 48T297 51T303 54T307 57T312 61V150H310Q309 151 289 153T232 166T160 195Q149 201 136 210T103 238T69 284T56 342Q56 414 128 467T294 530Q309 532 310 533H312V622ZM170 342Q170 207 307 188H312V495H309Q301 495 282 491T231 469T186 423Q170 389 170 342ZM415 188Q487 199 519 236T551 342Q551 384 539 414T507 459T470 481T434 491T415 495H410V188H415Z"></path>
<path stroke-width="10" id="E1-MJMAIN-39E" d="M47 509L55 676Q55 677 333 677T611 676L619 509Q619 508 599 508T579 510Q579 529 575 557T564 589Q550 594 333 594T102 589Q95 586 91 558T87 510Q87 508 67 508T47 509ZM139 260V445H179V394H487V445H527V260H487V311H179V260H139ZM50 0L42 180H62Q82 180 82 178Q82 133 89 105Q92 93 95 90T108 86Q137 83 333 83Q530 83 558 86Q568 87 571 90T577 105Q584 133 584 178Q584 180 604 180H624L616 0H50Z"></path>
<path stroke-width="10" id="E1-MJMAIN-3A8" d="M340 622Q338 623 335 625T331 629T325 631T314 634T298 635T274 636T239 637H212V683H224Q248 680 389 680T554 683H566V637H539Q479 637 464 635T439 622L438 407Q438 192 439 192Q443 193 449 195T474 207T507 232T536 276T557 344Q560 365 562 417T573 493Q587 536 620 544Q627 546 671 546H715L722 540V515Q714 509 708 509Q680 505 671 476T658 392T644 307Q599 177 451 153L438 151V106L439 61Q446 54 451 52T476 48T539 46H566V0H554Q530 3 389 3T224 0H212V46H239Q259 46 273 46T298 47T314 48T325 51T331 54T335 57T340 61V151Q126 178 117 406Q115 503 69 509Q55 509 55 526Q55 541 59 543T86 546H107H120Q150 546 161 543T184 528Q198 514 204 493Q212 472 213 420T226 316T272 230Q287 216 303 207T330 194L339 192Q340 192 340 407V622Z"></path>
<path stroke-width="10" id="E1-MJMAIN-3A9" d="M55 454Q55 503 75 546T127 617T197 665T272 695T337 704H352Q396 704 404 703Q527 687 596 615T666 454Q666 392 635 330T559 200T499 83V80H543Q589 81 600 83T617 93Q622 102 629 135T636 172L637 177H677V175L660 89Q645 3 644 2V0H552H488Q461 0 456 3T451 20Q451 89 499 235T548 455Q548 512 530 555T483 622T424 656T361 668Q332 668 303 658T243 626T193 560T174 456Q174 380 222 233T270 20Q270 7 263 0H77V2Q76 3 61 89L44 175V177H84L85 172Q85 171 88 155T96 119T104 93Q109 86 120 84T178 80H222V83Q206 132 162 199T87 329T55 454Z"></path>
</defs>
<g stroke="currentColor" fill="currentColor" stroke-width="0" transform="matrix(1 0 0 -1 0 0)">
 <use xlink:href="#E1-MJMAIN-50" x="0" y="0"></use>
 <use xlink:href="#E1-MJTT-3A3" x="686" y="0"></use>
 <use xlink:href="#E1-MJMAIN-54" x="1216" y="0"></use>
 <use xlink:href="#E1-MJTT-3A5" x="1943" y="0"></use>
<g transform="translate(2473,0)">
 <use xlink:href="#E1-MJMAIN-3A6" x="0" y="0"></use>
 <use xlink:href="#E1-MJMAIN-39E" x="727" y="0"></use>
 <use xlink:href="#E1-MJMAIN-3A8" x="1399" y="0"></use>
 <use xlink:href="#E1-MJMAIN-3A9" x="2182" y="0"></use>
</g>
</g>
</svg>