<?xml version="1.0" standalone="no"?>
<!DOCTYPE svg PUBLIC "-//W3C//DTD SVG 1.1//EN" "http://www.w3.org/Graphics/SVG/1.1/DTD/svg11.dtd">
<svg xmlns:xlink="http://www.w3.org/1999/xlink" width="10.408ex" height="2.843ex" style="vertical-align: -0.838ex;" viewBox="0 -863.1 4481 1223.9" xmlns="http://www.w3.org/2000/svg">
<defs>
<path stroke-width="10" id="E1-MJMAIN-2286" d="M84 346Q84 468 166 546T360 635Q361 635 370 635T395 635T430 636T475 636T524 636H679Q694 628 694 616Q694 607 681 597L522 596H470H441Q366 596 338 592T266 568Q244 557 224 542T179 500T139 433T124 346V341Q124 253 185 185Q244 121 328 103Q348 98 366 98T522 96H681Q694 86 694 76Q694 64 679 56H526Q510 56 480 56T434 55Q350 55 289 71T172 141Q84 223 84 346ZM104 -131T104 -118T118 -98H679Q694 -106 694 -118T679 -138H118Q104 -131 104 -118Z"></path>
<path stroke-width="10" id="E1-MJMAIN-2C" d="M78 35T78 60T94 103T137 121Q165 121 187 96T210 8Q210 -27 201 -60T180 -117T154 -158T130 -185T117 -194Q113 -194 104 -185T95 -172Q95 -168 106 -156T131 -126T157 -76T173 -3V9L172 8Q170 7 167 6T161 3T152 1T140 0Q113 0 96 17Z"></path>
<path stroke-width="10" id="E1-MJMAIN-2287" d="M83 616Q83 628 98 636H251Q267 636 297 636T343 637Q427 637 488 621T605 551Q693 470 693 346Q693 261 650 195T545 96T415 57Q407 56 251 56H98Q83 64 83 76Q83 86 96 96H255H308H337Q412 96 439 100T512 124Q533 135 553 150T599 192T639 259T654 346Q654 437 592 507Q557 545 512 568Q468 587 439 591T335 596H306H255L96 597Q83 607 83 616ZM84 -131T84 -118T98 -98H659Q674 -106 674 -118T659 -138H98Q84 -131 84 -118Z"></path>
<path stroke-width="10" id="E1-MJAMS-2AC5" d="M84 463Q84 585 166 663T360 752Q361 752 370 752T395 752T430 752T475 753T524 753H679Q694 746 694 733Q694 724 681 714L522 713H470H441Q366 713 338 709T266 685Q244 674 224 659T179 617T139 550T124 463V458Q124 370 185 302Q244 238 328 220Q348 215 366 215T522 213H681Q694 203 694 193Q694 180 679 173H526Q510 173 480 173T434 172Q350 172 289 188T172 258Q84 340 84 463ZM84 -14T84 -1T98 19H679Q694 11 694 -1Q694 -14 679 -21H98Q84 -14 84 -1ZM84 -208T84 -195T98 -175H679Q694 -183 694 -195Q694 -208 679 -215H98Q84 -208 84 -195Z"></path>
<path stroke-width="10" id="E1-MJAMS-2AC6" d="M83 733Q83 746 98 753H251Q267 753 297 753T343 754Q427 754 488 738T605 668Q693 587 693 463Q693 378 650 312T545 213T415 174Q407 173 251 173H98Q83 180 83 193Q83 203 96 213H255H308H337Q412 213 439 217T512 241Q533 252 553 267T599 309T639 376T654 463Q654 554 592 624Q557 662 512 685Q468 704 439 708T335 713H306H255L96 714Q83 724 83 733ZM84 -14T84 -1T98 19H679Q694 11 694 -1Q694 -14 679 -21H98Q84 -14 84 -1ZM84 -208T84 -195T98 -175H679Q694 -183 694 -195Q694 -208 679 -215H98Q84 -208 84 -195Z"></path>
</defs>
<g stroke="currentColor" fill="currentColor" stroke-width="0" transform="matrix(1 0 0 -1 0 0)">
 <use xlink:href="#E1-MJMAIN-2286" x="0" y="0"></use>
 <use xlink:href="#E1-MJMAIN-2C" x="783" y="0"></use>
 <use xlink:href="#E1-MJMAIN-2287" x="1232" y="0"></use>
 <use xlink:href="#E1-MJMAIN-2C" x="2015" y="0"></use>
 <use xlink:href="#E1-MJAMS-2AC5" x="2465" y="0"></use>
 <use xlink:href="#E1-MJMAIN-2C" x="3248" y="0"></use>
 <use xlink:href="#E1-MJAMS-2AC6" x="3698" y="0"></use>
</g>
</svg>