<?xml version="1.0" standalone="no"?>
<!DOCTYPE svg PUBLIC "-//W3C//DTD SVG 1.1//EN" "http://www.w3.org/Graphics/SVG/1.1/DTD/svg11.dtd">
<svg xmlns:xlink="http://www.w3.org/1999/xlink" width="10.408ex" height="3.343ex" style="vertical-align: -1.171ex;" viewBox="0 -934.9 4481 1439.2" xmlns="http://www.w3.org/2000/svg">
<defs>
<path stroke-width="10" id="E1-MJAMS-E016" d="M82 -6Q82 1 95 14H262L295 94Q331 171 331 174Q324 175 312 178T267 194T206 227T146 283T98 368Q84 406 84 461T98 554Q126 632 194 685T349 750Q360 752 480 752H591L604 783Q620 819 624 821Q631 828 640 828Q653 825 658 810Q658 808 646 781L635 754Q635 752 658 752Q680 752 686 746Q693 739 693 732Q693 728 692 726T686 719T680 712H615L506 466Q479 407 451 344T408 248T393 214Q393 210 535 210H680Q693 194 693 190T680 170H373L340 92L304 14H680Q693 1 693 -6Q693 -11 680 -26H286L253 -103L218 -179L451 -181H682Q694 -193 694 -201Q694 -212 682 -219L440 -221H200L178 -270Q160 -309 154 -319T139 -330Q122 -330 118 -312L155 -223Q155 -221 126 -221H95Q82 -206 82 -201T95 -181H175L206 -108Q237 -35 242 -30Q242 -26 169 -26H95Q82 -11 82 -6ZM571 710Q571 712 469 712Q443 712 416 712T371 711T351 710Q279 700 221 656T138 548Q124 508 124 461T138 374Q186 245 351 212L460 459Q571 709 571 710Z"></path>
<path stroke-width="10" id="E1-MJMAIN-2C" d="M78 35T78 60T94 103T137 121Q165 121 187 96T210 8Q210 -27 201 -60T180 -117T154 -158T130 -185T117 -194Q113 -194 104 -185T95 -172Q95 -168 106 -156T131 -126T157 -76T173 -3V9L172 8Q170 7 167 6T161 3T152 1T140 0Q113 0 96 17Z"></path>
<path stroke-width="10" id="E1-MJAMS-E018" d="M82 732Q82 739 95 752H251H348Q420 752 460 744T551 708Q566 697 566 701Q618 815 624 821Q631 828 640 828Q653 825 658 810L600 677Q600 671 615 656T653 605T689 517Q692 496 692 461T689 406Q668 325 615 266Q572 221 513 196T391 170H373L340 92L304 14H680Q693 1 693 -6Q693 -11 680 -26H286L253 -103L218 -179L451 -181H682Q694 -193 694 -201Q694 -212 682 -219L440 -221H200L178 -270Q160 -309 154 -319T139 -330Q122 -330 118 -312L155 -223Q155 -221 126 -221H95Q82 -206 82 -201T95 -181H175L206 -108Q237 -35 242 -30Q242 -26 169 -26H95Q82 -11 82 -6Q82 1 95 14H262L295 92L331 170H95Q93 172 91 175T87 180T84 185T82 191Q82 199 93 210H220L349 212L549 659Q507 692 462 702T338 712H249H95Q82 727 82 732ZM652 473Q652 513 636 552T603 611T582 632Q581 632 487 422T393 210Q424 210 460 220T535 253T605 316T649 410Q652 427 652 461V473Z"></path>
<path stroke-width="10" id="E1-MJAMS-2ACB" d="M693 221Q693 214 680 201H524Q398 201 367 202T309 212Q236 230 180 280T98 398Q84 438 84 492T98 585Q126 663 193 716T346 781Q347 781 373 781T440 782T520 783H680Q682 780 686 776T691 770T693 763T680 743H526Q364 743 353 741Q279 730 221 687T138 578Q124 540 124 492T138 405Q163 340 221 297T353 243Q364 241 526 241H680Q682 238 686 234T691 228T693 221ZM82 -48T82 -41T95 -19H462L513 41L569 105Q574 110 582 110T596 104T602 90Q602 87 600 83Q600 77 555 30L515 -17L600 -19H682Q693 -30 693 -38T680 -59H480L415 -137L349 -213L515 -215H682Q693 -226 693 -233T680 -255H313L260 -317Q224 -360 212 -372T192 -385Q184 -385 179 -377T173 -362Q174 -361 218 -306L260 -255H178L93 -253L86 -248Q82 -243 82 -235Q82 -226 93 -215H195L295 -213L362 -137L426 -59H260L93 -57L86 -53Q82 -48 82 -41Z"></path>
<path stroke-width="10" id="E1-MJAMS-2ACC" d="M82 759T82 763T83 769T89 776T95 783H251Q378 783 409 782T469 772Q540 753 596 703T678 585Q691 546 691 492T678 398Q649 320 581 267T426 203Q415 201 251 201H95Q82 214 82 221Q82 225 83 227T89 234T95 241H249Q411 241 422 243Q496 253 554 296T638 405Q651 444 651 492Q651 539 638 578Q613 643 555 686T422 741Q411 743 249 743H95Q82 759 82 763ZM82 -48T82 -41T95 -19H462L513 41L569 105Q574 110 582 110T596 104T602 90Q602 87 600 83Q600 77 555 30L515 -17L600 -19H682Q693 -30 693 -38T680 -59H480L415 -137L349 -213L515 -215H682Q693 -226 693 -233T680 -255H313L260 -317Q224 -360 212 -372T192 -385Q184 -385 179 -377T173 -362Q174 -361 218 -306L260 -255H178L93 -253L86 -248Q82 -243 82 -235Q82 -226 93 -215H195L295 -213L362 -137L426 -59H260L93 -57L86 -53Q82 -48 82 -41Z"></path>
</defs>
<g stroke="currentColor" fill="currentColor" stroke-width="0" transform="matrix(1 0 0 -1 0 0)">
 <use xlink:href="#E1-MJAMS-E016" x="0" y="0"></use>
 <use xlink:href="#E1-MJMAIN-2C" x="783" y="0"></use>
 <use xlink:href="#E1-MJAMS-E018" x="1232" y="0"></use>
 <use xlink:href="#E1-MJMAIN-2C" x="2015" y="0"></use>
 <use xlink:href="#E1-MJAMS-2ACB" x="2465" y="0"></use>
 <use xlink:href="#E1-MJMAIN-2C" x="3248" y="0"></use>
 <use xlink:href="#E1-MJAMS-2ACC" x="3698" y="0"></use>
</g>
</svg>