<?xml version="1.0" standalone="no"?>
<!DOCTYPE svg PUBLIC "-//W3C//DTD SVG 1.1//EN" "http://www.w3.org/Graphics/SVG/1.1/DTD/svg11.dtd">
<svg xmlns:xlink="http://www.w3.org/1999/xlink" width="12.47ex" height="2.509ex" style="vertical-align: -0.671ex;" viewBox="0 -791.3 5369 1080.4" xmlns="http://www.w3.org/2000/svg">
<defs>
<path stroke-width="10" id="E1-MJAMS-21C9" d="M55 416Q55 427 70 437H848Q819 466 796 502T764 561L755 583H801Q821 531 857 489T933 423L944 417L934 411Q843 355 802 254Q800 250 809 231Q849 141 934 89L944 83L933 77Q893 53 857 11T801 -83H755Q797 12 848 63H459L70 64Q55 70 55 84Q55 94 65 101Q69 103 459 103H849L840 113Q806 148 779 196T756 254Q756 255 760 264T770 286T786 315T809 351T840 387L849 397H459Q69 397 65 399Q55 406 55 416Z"></path>
<path stroke-width="10" id="E1-MJMAIN-2C" d="M78 35T78 60T94 103T137 121Q165 121 187 96T210 8Q210 -27 201 -60T180 -117T154 -158T130 -185T117 -194Q113 -194 104 -185T95 -172Q95 -168 106 -156T131 -126T157 -76T173 -3V9L172 8Q170 7 167 6T161 3T152 1T140 0Q113 0 96 17Z"></path>
<path stroke-width="10" id="E1-MJAMS-21C7" d="M930 437Q944 426 944 416T934 399Q930 397 540 397H150L159 387Q185 360 205 328T234 277T243 252Q243 237 217 191T159 113L150 103H540Q930 103 934 101Q944 94 944 84Q944 71 930 64L540 63H151Q180 34 203 -2T236 -61L244 -83H198Q178 -31 142 11T66 77L55 83L65 89Q157 145 197 246Q199 250 190 269Q150 359 65 411L55 417L66 423Q106 447 142 489T198 583H244Q202 488 151 437H930Z"></path>
<path stroke-width="10" id="E1-MJAMS-21C4" d="M943 500Q895 471 856 427T801 333H778Q755 333 755 334Q755 336 762 353T791 406T841 472L848 480H459Q70 480 67 482Q55 488 55 500T67 518Q70 520 459 520H848L841 528Q813 559 792 594T763 646T755 666Q755 667 778 667H801Q817 617 856 573T943 500ZM56 167Q102 194 141 238T198 333H221Q244 333 244 332Q221 265 161 198L151 187H539Q928 187 930 186Q944 182 944 167Q944 155 934 149Q930 147 541 147H151L160 137Q185 110 205 77T235 24T244 1Q244 0 221 0H199Q158 106 56 167Z"></path>
<path stroke-width="10" id="E1-MJAMS-21C6" d="M56 500Q103 527 142 572T199 667H221Q244 667 244 666Q244 664 237 647T208 594T158 528L151 520H539Q928 520 932 518Q944 513 944 500T932 482Q928 480 539 480H151L158 472Q186 441 207 406T236 354T244 334Q244 333 221 333H199Q181 383 142 428T56 500ZM943 167Q835 101 801 0H778Q755 0 755 1T758 9T765 25T771 39Q800 94 839 137L848 147H458Q68 147 66 149Q55 154 55 167Q55 182 69 186Q71 187 460 187H848L838 198Q811 228 791 261T762 314L755 332Q755 333 778 333H801Q841 227 943 167Z"></path>
</defs>
<g stroke="currentColor" fill="currentColor" stroke-width="0" transform="matrix(1 0 0 -1 0 0)">
 <use xlink:href="#E1-MJAMS-21C9" x="0" y="0"></use>
 <use xlink:href="#E1-MJMAIN-2C" x="1005" y="0"></use>
 <use xlink:href="#E1-MJAMS-21C7" x="1454" y="0"></use>
 <use xlink:href="#E1-MJMAIN-2C" x="2459" y="0"></use>
 <use xlink:href="#E1-MJAMS-21C4" x="2909" y="0"></use>
 <use xlink:href="#E1-MJMAIN-2C" x="3914" y="0"></use>
 <use xlink:href="#E1-MJAMS-21C6" x="4364" y="0"></use>
</g>
</svg>