<?xml version="1.0" standalone="no"?>
<!DOCTYPE svg PUBLIC "-//W3C//DTD SVG 1.1//EN" "http://www.w3.org/Graphics/SVG/1.1/DTD/svg11.dtd">
<svg xmlns:xlink="http://www.w3.org/1999/xlink" width="3.209ex" height="2.843ex" style="vertical-align: -0.838ex; margin-left: -0.035ex; margin-right: -0.042ex;" viewBox="-15 -863.1 1381.7 1223.9" xmlns="http://www.w3.org/2000/svg">
<defs>
<path stroke-width="10" id="E1-MJAMS-2226" d="M131 737Q134 739 138 743T144 748T151 750T171 737V199L327 357V737Q340 750 347 750Q351 750 353 749T360 743T367 737V397L429 457Q493 518 498 519Q506 519 512 512T518 500Q518 489 442 417L367 339V-237Q352 -250 346 -250L333 -243L327 -237V301L171 143V-237Q156 -250 151 -250T131 -237V101L69 41Q24 -3 15 -12T0 -21Q-8 -21 -14 -14T-20 -2Q-20 5 -7 19T56 81L131 159V737Z"></path>
<path stroke-width="10" id="E1-MJMAIN-2C" d="M78 35T78 60T94 103T137 121Q165 121 187 96T210 8Q210 -27 201 -60T180 -117T154 -158T130 -185T117 -194Q113 -194 104 -185T95 -172Q95 -168 106 -156T131 -126T157 -76T173 -3V9L172 8Q170 7 167 6T161 3T152 1T140 0Q113 0 96 17Z"></path>
<path stroke-width="10" id="E1-MJAMS-E007" d="M56 417Q68 431 76 431L89 426L96 419V317L98 215L193 273L291 330V375L293 419Q301 431 311 431Q331 431 331 388L333 355L356 370Q381 384 388 384Q394 384 400 377T407 363Q407 354 367 328L331 308V-10Q316 -23 310 -23Q300 -23 293 -12L291 135V284L98 168L96 77V-12Q84 -24 76 -24L62 -19L58 -12L56 66V144L31 128Q5 114 -2 114Q-8 114 -14 121T-20 136Q-20 142 -14 147T20 170L56 190V417Z"></path>
</defs>
<g stroke="currentColor" fill="currentColor" stroke-width="0" transform="matrix(1 0 0 -1 0 0)">
 <use xlink:href="#E1-MJAMS-2226" x="0" y="0"></use>
 <use xlink:href="#E1-MJMAIN-2C" x="505" y="0"></use>
 <use xlink:href="#E1-MJAMS-E007" x="954" y="0"></use>
</g>
</svg>