<?xml version="1.0" standalone="no"?>
<!DOCTYPE svg PUBLIC "-//W3C//DTD SVG 1.1//EN" "http://www.w3.org/Graphics/SVG/1.1/DTD/svg11.dtd">
<svg xmlns:xlink="http://www.w3.org/1999/xlink" width="7.545ex" height="2.009ex" style="vertical-align: -0.671ex;" viewBox="0 -576.1 3248.3 865.1" xmlns="http://www.w3.org/2000/svg">
<defs>
<path stroke-width="10" id="E1-MJAMS-223C" d="M73 132Q55 132 55 172Q55 220 79 272Q95 301 111 319Q148 353 195 363Q199 364 212 364Q262 364 294 350T408 272Q472 222 522 212Q537 208 555 208Q606 208 646 243Q671 268 680 296T691 342T702 365Q713 365 716 354T719 314Q714 236 664 179L660 176Q657 173 654 170T644 163T631 154T615 146T596 139T574 134T549 132Q510 132 465 156T386 211T307 265T223 290Q162 290 124 249T86 165Q86 155 82 144T73 132Z"></path>
<path stroke-width="10" id="E1-MJMAIN-2C" d="M78 35T78 60T94 103T137 121Q165 121 187 96T210 8Q210 -27 201 -60T180 -117T154 -158T130 -185T117 -194Q113 -194 104 -185T95 -172Q95 -168 106 -156T131 -126T157 -76T173 -3V9L172 8Q170 7 167 6T161 3T152 1T140 0Q113 0 96 17Z"></path>
<path stroke-width="10" id="E1-MJAMS-2248" d="M55 326Q55 394 101 437T226 481Q268 479 313 460T392 419T469 379T555 361Q622 361 662 401Q686 423 688 450Q693 479 702 479H705Q719 479 719 442Q719 367 670 327T554 286Q512 286 466 304T386 345T307 385T220 404Q184 404 157 394T120 374L111 363Q86 339 86 317Q86 288 71 288Q55 288 55 326ZM55 90Q55 164 105 205T226 246Q269 243 314 224T392 183T470 144T558 126Q622 126 662 166Q686 187 688 214Q693 244 704 244Q716 244 719 210Q719 165 702 132T658 82T605 58T552 50T498 58T447 77T384 110Q322 146 302 152Q263 168 220 168Q179 168 144 152Q128 147 107 125T86 81Q86 52 71 52Q55 52 55 90Z"></path>
<path stroke-width="10" id="E1-MJMAIN-221D" d="M56 124T56 216T107 375T238 442Q260 442 280 438T319 425T352 407T382 385T406 361T427 336T442 315T455 297T462 285L469 297Q555 442 679 442Q687 442 722 437V398H718Q710 400 694 400Q657 400 623 383T567 343T527 294T503 253T495 235Q495 231 520 192T554 143Q625 44 696 44Q717 44 719 46H722V-5Q695 -11 678 -11Q552 -11 457 141Q455 145 454 146L447 134Q362 -11 235 -11Q157 -11 107 56ZM93 213Q93 143 126 87T220 31Q258 31 292 48T349 88T389 137T413 178T421 196Q421 200 396 239T362 288Q322 345 288 366T213 387Q163 387 128 337T93 213Z"></path>
</defs>
<g stroke="currentColor" fill="currentColor" stroke-width="0" transform="matrix(1 0 0 -1 0 0)">
 <use xlink:href="#E1-MJAMS-223C" x="0" y="0"></use>
 <use xlink:href="#E1-MJMAIN-2C" x="783" y="0"></use>
 <use xlink:href="#E1-MJAMS-2248" x="1232" y="0"></use>
 <use xlink:href="#E1-MJMAIN-2C" x="2015" y="0"></use>
 <use xlink:href="#E1-MJMAIN-221D" x="2465" y="0"></use>
</g>
</svg>