<?xml version="1.0" standalone="no"?>
<!DOCTYPE svg PUBLIC "-//W3C//DTD SVG 1.1//EN" "http://www.w3.org/Graphics/SVG/1.1/DTD/svg11.dtd">
<svg xmlns:xlink="http://www.w3.org/1999/xlink" width="10.408ex" height="3.676ex" style="vertical-align: -1.338ex;" viewBox="0 -1006.6 4481 1582.7" xmlns="http://www.w3.org/2000/svg">
<defs>
<path stroke-width="10" id="E1-MJAMS-E011" d="M82 34Q82 44 93 55H198L300 57L342 179Q351 207 362 238T378 286T384 303T238 377Q109 435 86 450Q82 454 82 460T86 472Q90 476 302 579L511 679Q512 679 553 795Q569 842 577 866T592 903T600 917T608 919Q615 919 622 912T629 901Q629 899 595 799Q589 777 581 753T569 717T564 703L618 728Q666 752 673 752T686 746T693 732Q693 723 683 717T615 683L546 650L491 488Q464 410 450 368T438 326Q493 297 562 266Q660 219 677 209T694 190Q694 183 690 177T678 171Q664 171 546 228L424 286Q422 286 382 172L342 57L513 55H682Q694 43 694 34Q694 28 689 21L682 17L506 15H329L322 -8Q320 -13 310 -41T295 -85L275 -141H680Q682 -143 684 -146T688 -151T691 -156T693 -162Q693 -172 682 -179L473 -181H262L220 -303Q192 -388 185 -404T166 -421Q160 -421 153 -415T146 -403Q146 -400 179 -302T220 -185Q220 -181 158 -181L93 -179L86 -174Q82 -169 82 -161Q82 -152 93 -141H164L233 -139L260 -63L286 15H189L93 17L86 21Q82 26 82 34ZM495 623Q495 626 493 626T321 544T151 461L398 343Q399 343 405 360T423 415T446 483Q457 513 469 551T488 606T495 623Z"></path>
<path stroke-width="10" id="E1-MJMAIN-2C" d="M78 35T78 60T94 103T137 121Q165 121 187 96T210 8Q210 -27 201 -60T180 -117T154 -158T130 -185T117 -194Q113 -194 104 -185T95 -172Q95 -168 106 -156T131 -126T157 -76T173 -3V9L172 8Q170 7 167 6T161 3T152 1T140 0Q113 0 96 17Z"></path>
<path stroke-width="10" id="E1-MJAMS-E00E" d="M97 172Q82 172 82 190Q82 197 86 201Q94 209 173 246T327 319T402 357Q405 360 434 448T462 539L278 628Q96 713 86 721Q82 725 82 732T88 745T102 752Q103 752 125 742T198 709T293 666Q342 642 385 622T453 590T478 579Q479 579 506 659T562 824T598 915Q602 919 609 919T622 913T629 901Q629 898 571 728Q546 656 531 608T518 559Q555 539 602 519Q664 488 679 479T694 461Q694 457 689 450Q680 443 616 413T494 356T435 326L389 190L342 57L513 55H682Q694 43 694 34Q694 28 689 21L682 17L506 15H329L322 -8Q320 -13 310 -41T295 -85L275 -141H680Q682 -143 684 -146T688 -151T691 -156T693 -162Q693 -172 682 -179L473 -181H262L220 -303Q192 -388 185 -404T166 -421Q160 -421 153 -415T146 -403Q146 -400 179 -302T220 -185Q220 -181 158 -181L93 -179L86 -174Q82 -169 82 -161Q82 -152 93 -141H164L233 -139L260 -63L286 15H189L93 17L86 21Q82 26 82 34Q82 44 93 55H198L300 57L342 179Q350 204 361 238T378 286T382 301L246 237Q111 172 97 172ZM624 461Q621 464 560 492Q512 518 503 518Q500 518 500 517Q499 513 488 479T465 413T453 379L624 461Z"></path>
<path stroke-width="10" id="E1-MJAMS-2268" d="M86 472Q93 477 381 614T673 752Q680 752 686 746T693 732T689 721Q686 715 418 590L151 461L418 332Q684 207 689 201Q693 195 693 190Q693 183 687 177T675 170Q668 170 380 307T86 450Q82 454 82 461Q82 467 86 472ZM82 33Q82 37 83 40T89 47T95 54H473L520 105Q569 156 571 156Q573 157 578 157Q586 157 592 151T598 136Q598 130 562 92L526 56L604 54H682Q693 43 693 35Q693 31 692 28T686 21T680 14H489L342 -139L513 -142H682Q693 -148 693 -160Q693 -167 680 -182H304L258 -230Q248 -240 237 -251T221 -268T211 -278T203 -284T197 -286Q189 -286 184 -280T178 -264Q178 -257 213 -219L249 -182H171L93 -179L86 -175Q82 -170 82 -163Q82 -155 95 -142H289L360 -64L433 14H262L93 16Q82 23 82 33Z"></path>
<path stroke-width="10" id="E1-MJAMS-2269" d="M89 745Q95 752 100 752Q106 752 394 615T689 472Q693 468 693 461T689 450Q684 445 396 308T100 170Q95 170 89 176T82 190Q82 195 86 201Q91 208 358 332L624 461L358 590Q90 715 86 721Q82 725 82 731Q82 739 89 745ZM82 33Q82 37 83 40T89 47T95 54H473L520 105Q569 156 571 156Q573 157 578 157Q586 157 592 151T598 136Q598 130 562 92L526 56L604 54H682Q693 43 693 35Q693 31 692 28T686 21T680 14H489L342 -139L513 -142H682Q693 -148 693 -160Q693 -167 680 -182H304L258 -230Q248 -240 237 -251T221 -268T211 -278T203 -284T197 -286Q189 -286 184 -280T178 -264Q178 -257 213 -219L249 -182H171L93 -179L86 -175Q82 -170 82 -163Q82 -155 95 -142H289L360 -64L433 14H262L93 16Q82 23 82 33Z"></path>
</defs>
<g stroke="currentColor" fill="currentColor" stroke-width="0" transform="matrix(1 0 0 -1 0 0)">
 <use xlink:href="#E1-MJAMS-E011" x="0" y="0"></use>
 <use xlink:href="#E1-MJMAIN-2C" x="783" y="0"></use>
 <use xlink:href="#E1-MJAMS-E00E" x="1232" y="0"></use>
 <use xlink:href="#E1-MJMAIN-2C" x="2015" y="0"></use>
 <use xlink:href="#E1-MJAMS-2268" x="2465" y="0"></use>
 <use xlink:href="#E1-MJMAIN-2C" x="3248" y="0"></use>
 <use xlink:href="#E1-MJAMS-2269" x="3698" y="0"></use>
</g>
</svg>