<?xml version="1.0" standalone="no"?>
<!DOCTYPE svg PUBLIC "-//W3C//DTD SVG 1.1//EN" "http://www.w3.org/Graphics/SVG/1.1/DTD/svg11.dtd">
<svg xmlns:xlink="http://www.w3.org/1999/xlink" width="15.399ex" height="2.176ex" style="vertical-align: -0.338ex;" viewBox="0 -791.3 6630 936.9" xmlns="http://www.w3.org/2000/svg">
<defs>
<path stroke-width="10" id="E1-MJMAINB-41" d="M296 0Q278 3 164 3Q58 3 49 0H40V62H92Q144 62 144 64Q388 682 397 689Q403 698 434 698Q463 698 471 689Q475 686 538 530T663 218L724 64Q724 62 776 62H828V0H817Q796 3 658 3Q509 3 485 0H472V62H517Q561 62 561 63L517 175H262L240 120Q218 65 217 64Q217 62 261 62H306V0H296ZM390 237L492 238L440 365Q390 491 388 491Q287 239 287 237H390Z"></path>
<path stroke-width="10" id="E1-MJMAINB-42" d="M720 510Q720 476 704 448T665 404T619 377T580 362L564 359L583 356Q602 353 632 342T690 312Q712 292 725 276Q752 235 752 189V183Q752 160 741 125Q698 18 547 2Q543 1 288 0H39V62H147V624H39V686H264H409Q502 686 542 681T624 655Q720 607 720 510ZM563 513Q563 553 548 578T518 611T486 622Q479 624 385 624H293V382H375Q458 383 467 385Q563 405 563 513ZM590 192Q590 307 505 329Q504 330 503 330L398 331H293V62H391H400H444Q496 62 528 75T580 131Q590 155 590 192Z"></path>
<path stroke-width="10" id="E1-MJMAINB-393" d="M425 0L228 3Q63 3 51 0H39V62H147V618H39V680H612V676Q614 670 627 552T643 428V424H581V428Q580 430 576 461T562 524T532 576Q512 596 481 605T426 616T357 618H304V62H439V0H425Z"></path>
<path stroke-width="10" id="E1-MJMAINB-394" d="M901 12Q901 7 892 0H479Q65 0 62 2Q56 6 56 11Q56 14 242 347T433 685Q438 694 450 696Q454 698 480 698H506L523 687Q526 683 711 354T899 17Q901 13 901 12ZM653 137L427 538L202 137L315 136H540L653 137Z"></path>
<path stroke-width="10" id="E1-MJMAINB-45" d="M723 286Q721 284 700 145T677 3V0H39V62H147V618H39V680H660V676Q662 670 675 552T691 428V424H629V428Q629 429 627 448T618 494T601 541Q574 593 527 605T382 618H374H304V384H336Q338 384 347 384T361 384T376 386T392 390T407 397T421 407T432 423Q442 444 443 482V501H505V205H443V224Q442 258 435 278T411 307T380 318T336 322H304V62H375H394Q429 62 449 62T497 66T541 76T577 95T609 126T632 170T651 232Q661 287 661 289H723V286Z"></path>
<path stroke-width="10" id="E1-MJMAINB-5A" d="M80 430L92 686H358Q624 686 628 684Q638 679 638 656Q638 640 637 639Q637 638 445 353Q401 288 351 214T277 103L253 67L256 66Q258 66 265 66T279 66T298 66H343Q380 66 406 68T464 81T518 110T557 164T579 250Q583 278 583 298Q583 299 614 299H645V291Q643 281 636 150T627 8V0H353Q79 0 75 2Q64 7 64 31Q64 48 66 52L259 340L451 623Q451 624 384 624Q294 623 259 612Q155 581 143 446Q142 440 142 432V430H80Z"></path>
<path stroke-width="10" id="E1-MJMAINB-48" d="M400 0Q376 3 226 3Q75 3 51 0H39V62H147V624H39V686H51Q75 683 226 683Q376 683 400 686H412V624H304V388H595V624H487V686H499Q523 683 673 683Q824 683 848 686H860V624H752V62H860V0H848Q824 3 674 3Q523 3 499 0H487V62H595V326H304V62H412V0H400Z"></path>
<path stroke-width="10" id="E1-MJMAINB-398" d="M629 -10T446 -10T164 89T64 340Q64 380 71 420T102 510T163 596T266 662T418 696H438Q488 696 499 695Q582 686 644 655T741 584T796 495T823 409T829 338Q829 188 729 89ZM439 645Q416 645 390 638T333 615T275 564T236 480Q221 423 221 341Q221 272 230 228Q247 144 301 94T447 43T592 93T663 228Q672 272 672 341Q672 645 439 645ZM286 242V446H348V412H545V446H607V242H545V276H348V242H286Z"></path>
</defs>
<g stroke="currentColor" fill="currentColor" stroke-width="0" transform="matrix(1 0 0 -1 0 0)">
 <use xlink:href="#E1-MJMAINB-41" x="0" y="0"></use>
 <use xlink:href="#E1-MJMAINB-42" x="874" y="0"></use>
 <use xlink:href="#E1-MJMAINB-393" x="1697" y="0"></use>
 <use xlink:href="#E1-MJMAINB-394" x="2394" y="0"></use>
 <use xlink:href="#E1-MJMAINB-45" x="3357" y="0"></use>
 <use xlink:href="#E1-MJMAINB-5A" x="4118" y="0"></use>
 <use xlink:href="#E1-MJMAINB-48" x="4826" y="0"></use>
 <use xlink:href="#E1-MJMAINB-398" x="5731" y="0"></use>
</g>
</svg>