<?xml version="1.0" standalone="no"?>
<!DOCTYPE svg PUBLIC "-//W3C//DTD SVG 1.1//EN" "http://www.w3.org/Graphics/SVG/1.1/DTD/svg11.dtd">
<svg xmlns:xlink="http://www.w3.org/1999/xlink" width="4.682ex" height="3.176ex" style="vertical-align: -1.005ex;" viewBox="0 -934.9 2015.7 1367.4" xmlns="http://www.w3.org/2000/svg">
<defs>
<path stroke-width="10" id="E1-MJAMS-22EC" d="M82 -123Q82 -114 93 -103H166L238 -101L293 50Q349 200 349 204L220 266Q166 291 140 304T100 325T84 336T82 344Q82 353 94 360Q112 372 282 453L473 541L482 568Q487 578 529 693Q559 785 569 795Q573 802 581 802Q587 802 593 797T599 786Q599 775 564 675L526 570Q526 568 561 584T633 617T673 635Q679 635 693 621V66Q686 54 679 54Q665 54 526 119Q491 137 458 153T405 177T386 184Q385 182 334 42T282 -101T482 -103H680Q682 -105 684 -108T688 -113T691 -118T693 -124Q693 -134 682 -141L473 -143H266L238 -219Q217 -278 210 -290T193 -303Q178 -303 173 -287Q173 -279 198 -214L222 -145Q222 -143 158 -143L93 -141L86 -136Q82 -131 82 -123ZM653 106V584L506 513L453 370Q442 339 428 300T407 243T400 224Q403 222 527 164T653 106ZM453 486Q453 488 451 488T300 417T151 344L224 308Q247 298 285 279T331 257L364 241L453 486Z"></path>
<path stroke-width="10" id="E1-MJMAIN-2C" d="M78 35T78 60T94 103T137 121Q165 121 187 96T210 8Q210 -27 201 -60T180 -117T154 -158T130 -185T117 -194Q113 -194 104 -185T95 -172Q95 -168 106 -156T131 -126T157 -76T173 -3V9L172 8Q170 7 167 6T161 3T152 1T140 0Q113 0 96 17Z"></path>
<path stroke-width="10" id="E1-MJAMS-22ED" d="M82 621Q96 635 102 635T249 568L420 486L449 473L469 533Q563 789 569 797Q573 801 581 801Q598 801 600 786Q602 781 544 617L484 455Q531 435 584 408Q677 364 689 355Q693 351 693 344Q693 339 692 337T676 325T631 302T538 257Q504 241 465 223T406 195T386 186Q384 184 333 44T282 -101Q282 -103 482 -103H680Q682 -105 684 -108T688 -113T691 -118T693 -124Q693 -134 682 -141L473 -143H266L238 -219Q217 -278 210 -290T193 -303Q178 -303 173 -287Q173 -279 198 -214L222 -145Q222 -143 158 -143L93 -141L86 -136Q82 -131 82 -123Q82 -114 93 -103H166L238 -101L333 159Q326 159 220 106Q110 54 97 54Q89 54 82 66V621ZM298 501Q155 567 142 575L122 584V344Q122 106 124 106Q125 106 180 132T291 185T351 213Q355 217 393 326L433 435Q433 436 298 501ZM549 381Q472 417 471 417L406 241Q408 240 516 291T624 344L549 381Z"></path>
</defs>
<g stroke="currentColor" fill="currentColor" stroke-width="0" transform="matrix(1 0 0 -1 0 0)">
 <use xlink:href="#E1-MJAMS-22EC" x="0" y="0"></use>
 <use xlink:href="#E1-MJMAIN-2C" x="783" y="0"></use>
 <use xlink:href="#E1-MJAMS-22ED" x="1232" y="0"></use>
</g>
</svg>