<?xml version="1.0" standalone="no"?>
<!DOCTYPE svg PUBLIC "-//W3C//DTD SVG 1.1//EN" "http://www.w3.org/Graphics/SVG/1.1/DTD/svg11.dtd">
<svg xmlns:xlink="http://www.w3.org/1999/xlink" width="24.615ex" height="2.509ex" style="vertical-align: -0.671ex;" viewBox="0 -791.3 10598 1080.4" xmlns="http://www.w3.org/2000/svg">
<defs>
<path stroke-width="10" id="E1-MJMATHBI-61" d="M222 -8Q140 -8 89 34T38 158Q38 191 48 227Q72 329 151 390T327 452Q361 452 385 443T421 425T433 416H434L441 421Q448 426 460 430T486 435Q509 435 523 422T538 386Q538 380 522 315T488 179T467 93Q466 87 466 72Q466 42 483 42Q505 42 521 75Q531 94 541 134Q546 155 550 158T571 162H576H587Q607 162 607 148Q606 142 604 132T590 94T566 47T528 9T474 -8Q396 -8 358 40Q295 -8 222 -8ZM404 351Q383 401 324 401Q300 401 270 385T221 330Q206 296 186 220Q166 136 166 106Q166 72 184 58T228 43Q256 43 284 57T328 84T343 103Q343 106 374 228L404 351Z"></path>
<path stroke-width="10" id="E1-MJMATHBI-62" d="M220 -8Q142 -8 94 35T45 155V167Q45 187 52 218T104 426L153 622H149Q148 622 144 622T134 623T122 624T111 624T101 624T96 625Q84 628 84 642Q84 647 88 661T94 679Q98 684 109 685T185 690Q258 694 272 694Q289 694 293 679Q293 676 263 553L232 429L244 434Q256 440 281 446T331 452Q417 452 465 407T513 285Q513 235 494 184T439 90T346 20T220 -8ZM385 337Q385 400 318 400Q269 400 226 360Q214 349 211 341T191 268Q162 149 162 113Q162 44 226 44Q269 44 299 76T339 135T362 215Q364 222 365 226Q385 303 385 337Z"></path>
<path stroke-width="10" id="E1-MJMATHBI-63" d="M362 325Q362 344 371 361T390 386L399 394Q390 401 355 401Q276 401 231 338Q207 301 189 230T170 122Q170 43 264 43Q392 43 457 105Q472 120 480 117Q486 114 497 102T509 83Q509 79 502 70T477 47T432 21T360 1T259 -8Q194 -8 148 9T80 54T49 109T40 167Q40 280 129 365T352 451Q390 451 396 450Q448 442 473 416T499 358T477 302T421 274H417Q393 274 378 288T362 325Z"></path>
<path stroke-width="10" id="E1-MJMATHBI-64" d="M222 -8Q140 -8 89 34T38 158Q38 220 68 285T151 391Q230 452 329 452Q382 452 416 428L422 424Q423 424 447 523L472 622H468Q467 622 463 622T453 623T441 624T430 624T420 624T415 625Q403 628 403 642Q403 647 407 661T413 679Q417 684 428 685T504 690Q577 694 591 694Q608 694 612 679L467 91Q466 87 466 72Q466 43 483 43Q518 43 541 134Q546 155 550 158T571 162H576H587Q607 162 607 148Q606 142 604 132T590 94T566 47T528 9T474 -8Q396 -8 358 40Q295 -8 222 -8ZM404 351Q383 401 324 401Q300 401 270 385T221 330Q206 296 186 220Q166 136 166 106Q166 72 184 58T228 43Q256 43 284 57T328 84T343 103Q343 106 374 228L404 351Z"></path>
<path stroke-width="10" id="E1-MJMATHBI-65" d="M260 -8Q196 -8 151 9T83 54T52 111T42 169Q42 188 44 210Q50 240 58 266Q127 434 335 451L338 452Q342 452 345 452Q347 452 353 452T363 451Q426 451 464 424T502 352Q502 289 442 250Q381 211 222 211H184Q184 210 181 196T175 162T171 126Q171 43 264 43Q391 43 457 105Q472 120 480 117Q486 114 497 102T509 83Q509 79 502 70T477 47T432 21T360 1T260 -8ZM237 262Q427 266 427 349Q427 368 409 384T354 401Q316 401 287 388T242 354T216 314T202 278L197 263Q197 262 237 262Z"></path>
<path stroke-width="10" id="E1-MJMATHBI-66" d="M584 444Q597 439 597 426Q597 409 586 387Q580 382 505 382H434V380Q432 378 421 314T395 162T368 30Q324 -164 203 -199Q194 -201 175 -201Q123 -201 94 -177T64 -117T88 -58T145 -33Q169 -33 184 -47T200 -84Q200 -122 166 -150L174 -151H185Q202 -148 217 -112Q222 -94 240 9Q246 40 262 132T293 303T307 382H247H210Q190 382 182 385T173 400Q177 436 189 442Q193 444 256 444H318L319 446Q337 565 355 602Q373 640 404 664T458 694T503 701Q569 701 596 676T624 617Q624 581 599 557T544 533Q520 533 504 547T488 585Q488 596 491 606T499 624T508 637T516 646L520 650Q515 650 509 651Q459 651 459 561V554L458 518L452 484Q446 448 445 447V444H584Z"></path>
<path stroke-width="10" id="E1-MJMATHBI-67" d="M227 0Q142 0 93 43T43 166Q43 207 58 252T104 341T188 414T310 451L313 452Q316 452 319 452Q321 452 326 452T335 451Q367 451 390 443T425 425L436 416L443 421Q450 426 462 430T488 435Q511 435 525 422T540 386Q540 378 483 151T424 -82Q401 -139 335 -170T167 -202Q72 -202 36 -183T0 -125Q0 -90 24 -67T81 -43Q103 -43 119 -56T136 -99Q133 -124 114 -149L123 -150H183Q222 -150 254 -127T299 -74Q300 -71 306 -47T318 -1T324 23Q323 23 310 18T274 6T227 0ZM407 353Q406 354 404 358T400 365T395 371T388 379T381 385T371 391T360 396T346 400T329 401Q300 401 277 389T240 355T219 317T205 280Q171 148 171 109Q171 77 190 64T235 51T296 67Q322 82 337 98L345 106L407 353Z"></path>
<path stroke-width="10" id="E1-MJMATHBI-68" d="M477 56Q477 48 479 46T490 43Q522 45 544 75T577 140Q582 156 585 159T605 162H611H622Q642 162 642 148Q642 138 632 114T602 62T550 13T478 -8Q429 -8 394 17T358 83Q358 95 395 199T433 350Q433 400 394 400H388H383Q335 400 291 363Q256 332 236 298Q233 293 202 170T169 40Q160 18 141 5T99 -8Q70 -8 58 9T45 39Q45 51 116 336L188 622H184Q183 622 179 622T169 623T157 624T146 624T136 624T131 625Q119 628 119 642Q119 647 123 661T129 679Q133 684 144 685T220 690Q293 694 307 694Q324 694 328 679Q328 672 294 540Q286 507 278 473T264 420L260 403Q260 400 269 408Q327 451 393 451H401H410Q425 451 439 450T476 442T515 424T544 391T556 337Q556 286 517 179T477 56Z"></path>
<path stroke-width="10" id="E1-MJMATHBI-69" d="M205 615Q205 646 229 670T283 694Q310 694 324 679T339 641Q339 610 315 586T258 562Q235 562 220 577T205 615ZM24 296Q24 305 34 328T63 380T115 430T187 452Q205 452 223 448T262 435T295 406T308 360Q308 345 287 290T240 170T207 87Q202 67 202 57Q202 42 215 42Q235 42 257 64Q288 92 302 140Q307 156 310 159T330 162H336H347Q367 162 367 148Q367 140 357 117T329 65T276 14T201 -8Q158 -8 121 15T83 84Q83 104 133 229T184 358Q189 376 189 388Q189 402 177 402Q156 402 134 380Q103 352 89 304Q84 288 81 285T61 282H55H44Q24 282 24 296Z"></path>
<path stroke-width="10" id="E1-MJMATHBI-6A" d="M321 616Q321 648 346 671T400 694Q425 694 440 680T456 640Q456 609 431 586T376 562Q353 562 337 577T321 616ZM297 360T297 373T294 392T288 400T278 401H276Q241 399 210 372T158 303Q151 287 148 285T129 282H123H116Q102 282 97 284T92 298Q96 331 153 391T279 451Q357 451 388 422T420 354V339L371 142Q363 111 353 71T339 13T329 -30T318 -64T308 -88T296 -109T283 -125T264 -142Q190 -202 88 -202Q44 -202 16 -181T-12 -125Q-12 -93 11 -68T68 -43Q92 -43 108 -58T124 -93Q124 -121 106 -144Q101 -150 103 -150Q120 -150 147 -128T191 -64Q194 -57 242 136T294 345Q297 360 297 373Z"></path>
<path stroke-width="10" id="E1-MJMATHBI-6B" d="M99 -8Q71 -8 58 9T45 39Q45 51 116 336L188 622H184Q183 622 179 622T169 623T157 624T146 624T136 624T131 625Q119 628 119 642Q119 647 123 661T129 679Q133 684 144 685T220 690Q293 694 307 694Q324 694 328 679Q328 674 280 482Q231 290 231 287Q231 285 234 286Q259 302 294 334T356 390T420 433T493 452Q528 452 546 427T564 364Q564 308 538 282T480 256Q456 256 441 269T425 308Q425 339 444 359T483 384L502 389Q502 395 496 398Q493 400 483 400Q465 400 449 395T409 374T373 347T323 305T268 257Q274 256 282 256Q312 251 329 247T371 232T411 202Q431 181 431 146Q431 132 427 110T422 73Q422 44 440 44H442Q462 44 478 64T502 102T514 141Q518 157 522 159T547 162H558Q578 162 578 148Q578 118 537 56T440 -7H432Q374 -7 337 21T299 94Q299 103 301 116T304 139Q304 164 281 181T235 202L212 206H211Q176 47 160 24Q137 -8 99 -8Z"></path>
<path stroke-width="10" id="E1-MJMATHBI-6C" d="M157 -8Q138 -8 118 -4T77 11T41 42T27 91V106L156 622H152Q151 622 147 622T137 623T125 624T114 624T104 624T99 625Q87 628 87 642Q87 647 91 661T97 679Q101 684 112 685T188 690Q261 694 275 694Q292 694 296 679L151 91Q150 85 150 71Q150 42 167 42Q186 42 205 75Q216 96 225 134Q230 155 234 158T255 162H260H271Q291 162 291 148Q290 145 289 140T283 118T271 87T254 54T229 23T197 1T157 -8Z"></path>
<path stroke-width="10" id="E1-MJMATHBI-6D" d="M24 296Q25 302 27 312T41 350T65 397T104 435T159 452Q203 452 234 435Q268 419 285 384L295 392Q305 401 317 410T349 429T389 445Q411 451 446 451Q560 451 592 383Q593 380 594 379L595 375L604 384Q675 452 762 452Q893 452 916 367Q918 356 918 334Q918 285 881 183T841 66Q838 43 849 43Q876 43 901 69T940 138Q945 156 949 159T969 162H975H986Q1006 162 1006 148Q1006 138 996 115T966 63T914 13T841 -8Q794 -8 758 16T721 82Q721 96 758 199T796 351Q796 401 753 401Q702 401 662 369T599 298Q597 294 567 172T533 40Q525 22 506 7T462 -8Q435 -8 422 8T409 39Q409 48 425 114T458 248T476 320Q478 330 478 348T474 377T462 393T449 399T433 400H428Q380 400 336 363Q301 332 281 298Q278 293 247 170T214 40Q206 22 187 7T143 -8T104 7T90 39Q90 47 108 124T146 274L164 347Q166 355 166 372Q166 401 149 401Q129 401 115 379T89 306Q84 288 80 285T55 282H44Q24 282 24 296Z"></path>
<path stroke-width="10" id="E1-MJMATHBI-6E" d="M24 296Q25 302 27 312T41 350T65 397T104 435T159 452Q203 452 234 435Q268 419 285 384L293 391Q363 452 454 452Q575 446 597 367Q599 356 599 334Q599 285 562 183T522 66Q519 43 530 43Q557 43 582 69T621 138Q626 156 630 159T650 162H656H667Q687 162 687 148Q687 138 677 115T647 63T595 13T522 -8Q475 -8 439 16T402 82Q402 96 439 199T477 351Q477 401 434 401Q421 401 409 398Q341 388 285 305L278 295L247 170Q216 46 214 40Q206 22 187 7T143 -8T104 7T90 39Q90 47 108 124T146 274L164 347Q166 355 166 372Q166 401 149 401Q129 401 115 379T89 306Q84 288 80 285T55 282H44Q24 282 24 296Z"></path>
<path stroke-width="10" id="E1-MJMATHBI-6F" d="M254 -8Q191 -8 146 9T80 54T49 111T39 169Q39 206 53 247T96 329T176 402T292 446Q317 451 336 451L344 452Q353 452 359 452Q457 452 516 408T576 279Q576 169 488 81T254 -8ZM349 400Q321 400 287 385T231 338Q206 301 188 228T170 126Q170 99 178 83Q198 44 260 44Q367 44 409 157Q419 185 432 238T445 317Q445 336 443 348Q435 372 416 384T384 398T349 400Z"></path>
<path stroke-width="10" id="E1-MJMATHBI-70" d="M24 296Q25 302 27 312T41 350T65 397T103 435T157 452Q235 452 273 404Q336 452 409 452Q434 452 458 448T507 432T550 402T581 354T593 285Q593 221 564 159T480 53Q401 -8 302 -8Q290 -8 279 -7T259 -3T242 3T228 9T218 14T212 18L209 20Q208 19 190 -55T171 -131T198 -132H213Q240 -132 240 -150Q237 -187 223 -192Q219 -194 212 -194Q208 -194 176 -193T95 -192Q48 -192 24 -193T-3 -194Q-11 -194 -16 -190T-22 -182T-23 -176Q-20 -142 -7 -134Q-3 -132 20 -132H44L164 354Q165 357 165 372Q165 401 148 401Q113 401 90 310Q85 289 82 286T60 282H55H44Q24 282 24 296ZM465 339Q465 373 447 387T403 401Q375 401 347 387T303 360T288 341Q288 338 257 216L227 93Q248 43 306 43Q332 43 361 59T410 115Q425 147 445 224Q465 309 465 339Z"></path>
<path stroke-width="10" id="E1-MJMATHBI-71" d="M38 159Q38 209 58 260T113 355T205 425T327 452Q338 452 348 451T366 449T382 444T394 440T405 434T414 429T422 423T429 418Q440 429 481 440T533 452Q540 452 545 447T550 437Q550 432 481 152Q410 -130 410 -131T437 -132H452Q479 -132 479 -150Q476 -187 462 -192Q458 -194 451 -194Q447 -194 414 -193T330 -192Q277 -192 249 -193T217 -194Q202 -194 197 -179Q197 -175 201 -159Q206 -139 211 -136T243 -132H283L319 15L307 10Q295 4 270 -2T220 -8Q134 -8 86 37T38 159ZM402 353Q402 358 395 368T369 390T324 401Q301 401 282 394T249 369T226 338T208 297T196 258T186 218Q166 141 166 107Q166 44 229 44Q265 44 294 61T337 95Q341 100 371 222T402 353Z"></path>
<path stroke-width="10" id="E1-MJMATHBI-72" d="M24 296Q24 298 28 313T42 352T67 398T104 436T154 452Q198 452 230 437T273 404L282 411Q334 452 393 452Q441 452 470 423T500 350Q500 301 473 279T418 256Q395 256 379 270T363 308Q363 366 424 386Q424 388 420 391T405 398T385 401Q363 401 343 390Q321 380 289 341L252 192Q214 42 212 39Q190 -8 142 -8Q117 -8 103 7T89 39Q89 52 127 202T165 369Q165 402 148 402Q139 402 128 393T110 369Q100 348 90 310Q85 289 82 286T60 282H55H44Q24 282 24 296Z"></path>
</defs>
<g stroke="currentColor" fill="currentColor" stroke-width="0" transform="matrix(1 0 0 -1 0 0)">
 <use xlink:href="#E1-MJMATHBI-61" x="0" y="0"></use>
 <use xlink:href="#E1-MJMATHBI-62" x="638" y="0"></use>
 <use xlink:href="#E1-MJMATHBI-63" x="1164" y="0"></use>
 <use xlink:href="#E1-MJMATHBI-64" x="1682" y="0"></use>
 <use xlink:href="#E1-MJMATHBI-65" x="2299" y="0"></use>
 <use xlink:href="#E1-MJMATHBI-66" x="2858" y="0"></use>
 <use xlink:href="#E1-MJMATHBI-67" x="3487" y="0"></use>
 <use xlink:href="#E1-MJMATHBI-68" x="4037" y="0"></use>
 <use xlink:href="#E1-MJMATHBI-69" x="4710" y="0"></use>
 <use xlink:href="#E1-MJMATHBI-6A" x="5120" y="0"></use>
 <use xlink:href="#E1-MJMATHBI-6B" x="5596" y="0"></use>
 <use xlink:href="#E1-MJMATHBI-6C" x="6205" y="0"></use>
 <use xlink:href="#E1-MJMATHBI-6D" x="6558" y="0"></use>
 <use xlink:href="#E1-MJMATHBI-6E" x="7595" y="0"></use>
 <use xlink:href="#E1-MJMATHBI-6F" x="8313" y="0"></use>
 <use xlink:href="#E1-MJMATHBI-70" x="8903" y="0"></use>
 <use xlink:href="#E1-MJMATHBI-71" x="9509" y="0"></use>
 <use xlink:href="#E1-MJMATHBI-72" x="10064" y="0"></use>
</g>
</svg>