<?xml version="1.0" standalone="no"?>
<!DOCTYPE svg PUBLIC "-//W3C//DTD SVG 1.1//EN" "http://www.w3.org/Graphics/SVG/1.1/DTD/svg11.dtd">
<svg xmlns:xlink="http://www.w3.org/1999/xlink" width="15.575ex" height="2.176ex" style="vertical-align: -0.338ex;" viewBox="0 -791.3 6706 936.9" xmlns="http://www.w3.org/2000/svg">
<defs>
<path stroke-width="10" id="E1-MJMAINB-49" d="M397 0Q370 3 218 3Q65 3 38 0H25V62H139V624H25V686H38Q65 683 218 683Q370 683 397 686H410V624H296V62H410V0H397Z"></path>
<path stroke-width="10" id="E1-MJMAINB-4B" d="M400 0Q376 3 226 3Q75 3 51 0H39V62H147V624H39V686H51Q75 683 226 683Q376 683 400 686H412V624H304V338L472 483L634 624H565V686H576Q597 683 728 683Q814 683 829 686H836V624H730L614 524Q507 432 497 422Q496 422 498 418T514 395T553 342T627 241L759 63L805 62H852V0H842Q830 3 701 3Q550 3 526 0H513V62H549Q584 62 584 63Q583 65 486 196T388 328L304 256V62H412V0H400Z"></path>
<path stroke-width="10" id="E1-MJMAINB-39B" d="M285 0Q267 3 154 3Q56 3 47 0H40V62H131Q131 63 167 160T244 369T321 578T359 678Q366 698 393 698H404H413Q437 698 446 678Q448 672 560 369T674 62H765V0H754Q733 3 604 3Q453 3 429 0H416V62H461L507 63L355 470Q353 468 279 265L203 63L249 62H294V0H285Z"></path>
<path stroke-width="10" id="E1-MJMAINB-4D" d="M314 0Q296 3 181 3T48 0H39V62H147V624H39V686H305Q316 679 323 667Q330 653 434 414L546 157L658 414Q766 662 773 674Q778 681 788 686H1052V624H944V62H1052V0H1040Q1016 3 874 3T708 0H696V62H804V341L803 618L786 580Q770 543 735 462T671 315Q540 13 536 9Q528 1 507 1Q485 1 477 9Q472 14 408 162T281 457T217 603Q215 603 215 334V62H323V0H314Z"></path>
<path stroke-width="10" id="E1-MJMAINB-4E" d="M314 0Q296 3 181 3T48 0H39V62H147V624H39V686H171H265Q288 686 297 686T309 684T315 679Q317 676 500 455T684 233V624H576V686H585Q603 683 718 683T851 686H860V624H752V319Q752 15 750 11Q747 4 742 2T718 0H712Q708 0 706 0T700 0T696 1T693 2T690 4T687 7T684 11T679 16T674 23Q671 27 437 311L215 579V62H323V0H314Z"></path>
<path stroke-width="10" id="E1-MJMAINB-39E" d="M54 465L63 674Q63 675 383 675T703 674L712 465Q712 464 681 464H650V467Q650 490 646 516T632 545Q612 550 383 550H283Q169 550 149 548T124 531Q123 530 123 529Q116 506 116 467V464H85Q54 464 54 465ZM160 256V447H222V414H544V447H606V256H544V289H222V256H160ZM57 0L48 222H110V219Q110 147 125 133Q127 130 130 129T160 127T235 126T383 126Q482 126 530 126T604 127T635 129T641 133Q656 146 656 219V222H718L709 0H57Z"></path>
<path stroke-width="10" id="E1-MJMAINB-4F" d="M64 339Q64 431 96 502T182 614T295 675T420 696Q469 696 481 695Q620 680 709 589T798 339Q798 173 697 82T432 -10Q262 -10 163 85T64 339ZM625 454Q618 502 600 538T562 593T515 624T469 639T431 642Q331 642 276 563Q232 493 232 353Q232 315 234 285T244 216T267 148T308 94T372 56Q405 46 432 46Q517 46 567 106T627 267Q631 299 631 353Q631 418 625 454Z"></path>
<path stroke-width="10" id="E1-MJMAINB-3A0" d="M400 0Q376 3 226 3Q75 3 51 0H39V62H147V618H39V680H860V618H752V62H860V0H848Q824 3 674 3Q523 3 499 0H487V62H595V618H304V62H412V0H400Z"></path>
</defs>
<g stroke="currentColor" fill="currentColor" stroke-width="0" transform="matrix(1 0 0 -1 0 0)">
 <use xlink:href="#E1-MJMAINB-49" x="0" y="0"></use>
 <use xlink:href="#E1-MJMAINB-4B" x="441" y="0"></use>
 <use xlink:href="#E1-MJMAINB-39B" x="1347" y="0"></use>
 <use xlink:href="#E1-MJMAINB-4D" x="2158" y="0"></use>
 <use xlink:href="#E1-MJMAINB-4E" x="3255" y="0"></use>
 <use xlink:href="#E1-MJMAINB-39E" x="4160" y="0"></use>
 <use xlink:href="#E1-MJMAINB-4F" x="4932" y="0"></use>
 <use xlink:href="#E1-MJMAINB-3A0" x="5801" y="0"></use>
</g>
</svg>