<?xml version="1.0" standalone="no"?>
<!DOCTYPE svg PUBLIC "-//W3C//DTD SVG 1.1//EN" "http://www.w3.org/Graphics/SVG/1.1/DTD/svg11.dtd">
<svg xmlns:xlink="http://www.w3.org/1999/xlink" width="5.066ex" height="2.343ex" style="vertical-align: -0.338ex;" viewBox="0 -863.1 2181 1008.6" xmlns="http://www.w3.org/2000/svg">
<defs>
<path stroke-width="10" id="E1-MJMAIN-2220" d="M71 0L68 2Q65 3 63 5T58 11T55 20Q55 22 57 28Q67 43 346 361Q397 420 474 508Q595 648 616 671T647 694T661 688T666 674Q666 668 663 663Q662 662 627 622T524 503T390 350L120 41L386 40H653Q666 30 666 20Q666 8 651 0H71Z"></path>
<path stroke-width="10" id="E1-MJAMS-2221" d="M71 0L68 2Q65 3 63 5T58 11T55 20Q55 22 57 28Q64 38 348 373T638 712Q644 714 646 714Q653 714 659 709T666 694V693Q666 687 633 647Q619 631 576 580Q528 524 495 485Q336 296 329 289Q328 288 348 264T395 182T433 54L434 40H651Q666 32 666 20T651 0H436Q431 -20 416 -20Q400 -20 396 -4V0H71ZM394 40Q394 51 389 76T366 149T319 234L302 256L119 41L256 40H394Z"></path>
<path stroke-width="10" id="E1-MJAMS-2222" d="M666 -32Q666 -51 646 -51Q639 -51 365 85L75 228Q55 238 55 250Q55 257 59 262T68 268L72 270L611 536Q642 551 647 551T659 547T666 532Q666 521 657 515L525 449Q525 448 535 424T556 352T566 250T556 148T536 77T525 51L657 -15Q666 -21 666 -32ZM526 250Q526 297 517 342T499 409T488 431Q487 431 304 341T121 250T304 159T488 69Q526 143 526 250Z"></path>
</defs>
<g stroke="currentColor" fill="currentColor" stroke-width="0" transform="matrix(1 0 0 -1 0 0)">
 <use xlink:href="#E1-MJMAIN-2220" x="0" y="0"></use>
 <use xlink:href="#E1-MJAMS-2221" x="727" y="0"></use>
 <use xlink:href="#E1-MJAMS-2222" x="1454" y="0"></use>
</g>
</svg>