<?xml version="1.0" standalone="no"?>
<!DOCTYPE svg PUBLIC "-//W3C//DTD SVG 1.1//EN" "http://www.w3.org/Graphics/SVG/1.1/DTD/svg11.dtd">
<svg xmlns:xlink="http://www.w3.org/1999/xlink" width="4.538ex" height="2.509ex" style="vertical-align: -0.671ex; margin-left: -0.116ex;" viewBox="-50 -791.3 1953.7 1080.4" xmlns="http://www.w3.org/2000/svg">
<defs>
<path stroke-width="10" id="E1-MJAMS-22AE" d="M56 681Q70 695 77 695T96 683V428L98 175L252 323V681Q264 695 272 695Q278 695 292 681V526Q292 368 296 368Q298 368 447 510Q638 695 642 695H645Q651 695 658 688T665 673Q665 666 661 661Q659 660 639 641T578 582T505 512L356 370L505 368H654Q665 357 665 349Q665 343 652 328H314L303 317L292 308V12Q289 10 285 6T279 1T272 -1Q265 -1 252 12V139Q252 266 249 266L96 119V12Q80 -1 76 -1T70 0T63 6T56 12V79L29 55Q-26 -1 -35 -1Q-42 -1 -48 5T-55 19Q-55 25 -51 30T-15 66Q5 86 18 99L56 135V681Z"></path>
<path stroke-width="10" id="E1-MJMAIN-2C" d="M78 35T78 60T94 103T137 121Q165 121 187 96T210 8Q210 -27 201 -60T180 -117T154 -158T130 -185T117 -194Q113 -194 104 -185T95 -172Q95 -168 106 -156T131 -126T157 -76T173 -3V9L172 8Q170 7 167 6T161 3T152 1T140 0Q113 0 96 17Z"></path>
<path stroke-width="10" id="E1-MJAMS-22AF" d="M56 681Q70 695 77 695T96 683V428L98 175L252 323V681Q264 695 272 695Q278 695 292 681V466H401L503 563L621 679Q637 695 645 695Q652 695 658 688T665 673Q665 670 663 666Q663 665 651 652T611 612T561 563L458 468L556 466H654Q665 455 665 447T652 426H416L294 308L292 288V270H652Q665 255 665 250T652 230H292V12Q289 10 285 6T279 1T272 -1Q265 -1 252 12V139Q252 266 249 266L96 119V12Q80 -1 76 -1T70 0T63 6T56 12V79L29 55Q-26 -1 -35 -1Q-42 -1 -48 5T-55 19Q-55 25 -51 30T-15 66Q5 86 18 99L56 135V681ZM358 426H292V361L325 392L358 426Z"></path>
</defs>
<g stroke="currentColor" fill="currentColor" stroke-width="0" transform="matrix(1 0 0 -1 0 0)">
 <use xlink:href="#E1-MJAMS-22AE" x="0" y="0"></use>
 <use xlink:href="#E1-MJMAIN-2C" x="727" y="0"></use>
 <use xlink:href="#E1-MJAMS-22AF" x="1176" y="0"></use>
</g>
</svg>