<?xml version="1.0" standalone="no"?>
<!DOCTYPE svg PUBLIC "-//W3C//DTD SVG 1.1//EN" "http://www.w3.org/Graphics/SVG/1.1/DTD/svg11.dtd">
<svg xmlns:xlink="http://www.w3.org/1999/xlink" width="18.89ex" height="2.676ex" style="vertical-align: -0.838ex;" viewBox="0 -791.3 8133 1152.1" xmlns="http://www.w3.org/2000/svg">
<defs>
<path stroke-width="10" id="E1-MJFRAK-61" d="M86 363Q86 365 128 391T212 444L255 470Q256 470 263 465T283 453T308 442Q338 431 346 431Q350 431 358 436L414 465L421 459L418 434Q404 339 404 262Q404 147 408 119L425 97Q443 74 444 74L467 86L491 97Q492 97 497 83L436 28Q377 -26 374 -26L331 46L329 91L155 -35Q152 -35 114 10T68 65L67 86Q66 100 66 156Q66 177 66 198T68 236T71 268T74 296T77 320T80 338T83 351T86 360V363ZM314 365Q285 367 255 374T206 386L187 392Q181 392 172 376T154 311T145 197Q145 124 151 118Q156 110 187 78L208 56H214Q221 57 253 76L308 109L329 123V136Q328 143 328 257V365H314Z"></path>
<path stroke-width="10" id="E1-MJFRAK-62" d="M177 427Q177 364 181 364Q184 364 192 370T223 395T271 433Q317 469 323 469Q325 469 338 462T377 440T432 413L440 409L441 396Q441 394 441 372T442 334Q442 203 425 108L423 97L400 83Q347 49 296 21T222 -19T196 -31Q192 -29 149 12T87 71L89 89Q100 155 100 319Q100 500 94 627Q94 632 94 638T94 648T94 656T93 662V664Q93 668 97 669T106 670H110Q114 653 118 633L127 596Q127 595 132 597Q136 599 195 642L255 685L272 673Q269 670 256 659T233 637T211 609T190 565T179 508Q177 494 177 427ZM295 377L274 385Q273 385 264 381T242 370T223 361Q213 355 188 340L178 333V123L198 103Q259 42 285 42Q299 42 314 55T339 85Q363 132 363 232Q363 310 358 343V349L345 355Q330 363 295 377Z"></path>
<path stroke-width="10" id="E1-MJFRAK-63" d="M72 208Q72 323 84 361Q84 363 167 414Q248 466 250 466Q255 465 260 465Q283 460 307 450T344 430L357 422L306 343L301 342L296 340Q267 362 247 372T216 384T177 390Q154 349 154 238Q154 220 156 158V145L168 132Q179 121 208 93T244 59Q245 58 246 58Q255 58 302 83T350 108L352 104Q355 100 356 96L358 92Q358 91 274 32T187 -29L177 -20Q160 -6 120 36T77 84Q77 87 75 118T72 208Z"></path>
<path stroke-width="10" id="E1-MJFRAK-64" d="M13 542Q13 544 77 576T147 609Q154 609 185 598T283 551T414 464L427 454V440Q427 436 427 412T428 372Q428 315 426 270T418 197T409 152T400 121T394 103L304 35Q285 21 261 2T225 -25L214 -33Q149 7 97 59L76 80L75 91V171Q75 221 76 254T79 299T80 313Q80 315 78 321Q78 323 78 326L77 330Q79 336 132 384T211 447L219 445Q221 445 224 444L228 443Q229 443 228 441T221 432T206 415L191 395Q175 378 162 339Q152 306 152 250Q152 217 159 140V134L171 121Q194 99 235 74T284 48Q296 48 310 75T337 156T349 267Q349 346 336 400L315 420Q246 489 176 525Q127 545 94 545H73L27 527L13 542Z"></path>
<path stroke-width="10" id="E1-MJFRAK-65" d="M353 103Q353 97 358 87L337 71Q293 38 247 6Q191 -30 189 -30Q188 -30 173 -16T130 26T76 85L74 99Q70 139 70 190Q70 228 73 271T79 338T84 365L94 372Q105 378 126 392T166 417L246 467Q283 417 349 369L364 358L355 349Q249 249 169 180L151 166L152 152V139L165 126Q186 105 215 84T260 62Q267 62 309 82L353 103ZM267 323Q246 337 230 350T204 371T189 385T179 394T174 397Q149 381 149 219V211Q151 211 171 223T220 258T268 299L282 313L267 323Z"></path>
<path stroke-width="10" id="E1-MJFRAK-66" d="M128 387Q128 391 112 456T92 546V555L101 568Q133 617 183 670L193 681L204 673Q238 648 262 648Q276 648 292 656L302 661L308 653Q308 652 278 618L249 585H234Q194 587 159 595Q158 595 156 596H153L150 597Q151 593 152 581T154 564T157 547T164 524T176 494Q199 436 203 400V392H207L323 386Q323 384 309 368L296 351H203V176Q201 -9 198 -32Q194 -61 166 -114Q158 -129 153 -138Q114 -214 110 -221Q105 -221 98 -220L87 -219V-216Q88 -215 106 -150T124 -82Q128 -73 129 155V351H30L64 386H96Q128 386 128 387Z"></path>
<path stroke-width="10" id="E1-MJFRAK-67" d="M27 -144L17 -131L82 -75L146 -20L126 6Q99 37 92 48L78 65L77 79Q75 103 75 158Q75 217 78 268T86 343T91 368Q92 370 109 382T157 413T222 452Q240 465 249 469L251 470Q296 443 350 428L365 424L437 465L442 459Q442 456 441 453T437 444T432 424T427 385T423 317T421 215V133L423 119Q423 111 455 -17Q455 -21 380 -108T290 -201Q290 -202 284 -204T269 -207T252 -209Q172 -209 75 -135L62 -126Q60 -126 44 -135L27 -144ZM349 351Q267 359 178 389Q177 387 173 376T166 358T161 337T157 303T155 259Q155 195 159 135L160 124L170 112Q180 101 204 77T230 53Q231 53 286 88L340 123V141Q340 235 348 329Q348 334 348 339T348 348L349 351ZM364 -59Q364 -37 358 -1T347 64T341 93Q336 93 252 28T149 -57Q226 -134 293 -134Q325 -134 344 -118T364 -69V-59Z"></path>
<path stroke-width="10" id="E1-MJFRAK-68" d="M88 427Q88 486 87 545T84 634T81 667Q81 673 82 673T89 676H94L117 600L200 661Q208 667 218 674T233 684L238 688L254 678Q222 646 216 637Q164 572 164 483V442V371Q187 390 244 431T312 478Q344 446 411 423L428 417L429 396Q434 297 434 218Q430 8 406 -34Q346 -111 262 -195L251 -205L249 -203Q248 -203 244 -199T236 -193Q226 -183 227 -182Q228 -182 244 -169T278 -140T301 -121Q330 -89 340 -22Q355 60 355 171Q355 200 353 244T348 321T344 354Q333 363 307 376T260 390Q241 390 179 350L164 341V121Q180 96 201 66L213 50Q210 46 172 11T131 -24Q130 -24 123 -11T102 25T77 65V78Q80 104 84 227T88 427Z"></path>
<path stroke-width="10" id="E1-MJFRAK-69" d="M72 617Q72 618 102 645T133 673H134Q134 668 175 627L187 615L130 555L116 568Q72 615 72 617ZM27 369Q21 376 14 382L26 392Q83 440 119 474Q158 435 169 427L179 420L176 395Q166 302 166 227Q166 171 174 139Q178 119 186 103T202 81L208 75Q255 100 261 100Q262 100 264 92T267 83Q267 80 208 30T145 -20Q143 -20 118 17L91 55Q98 117 98 193Q98 339 88 369Q71 390 68 390Q63 390 39 376L27 369Z"></path>
<path stroke-width="10" id="E1-MJFRAK-6A" d="M101 644L132 672L145 657Q155 642 169 628L182 614L169 600Q148 579 140 570L125 555L112 568Q109 570 91 592T72 615Q72 617 101 644ZM19 -208Q-9 -185 -9 -183Q57 -134 80 -106Q103 -81 110 -19T118 179Q118 294 113 329T86 383Q78 389 76 389Q73 389 57 379L39 367Q26 380 26 381L33 387Q40 393 53 405T79 428L130 474Q147 457 186 428L195 422L196 376Q196 130 192 58T174 -35Q172 -39 104 -114T19 -208Z"></path>
<path stroke-width="10" id="E1-MJFRAK-6B" d="M93 348Q93 379 90 503T87 658V670Q87 671 94 671L100 672L112 636Q124 603 124 600L144 616Q196 659 234 682L246 689Q252 686 256 685T268 680L254 667Q225 641 211 626T184 579T168 505V497L178 504Q203 523 237 544L300 584L310 573Q359 522 359 481Q359 476 359 472T358 464T355 456T351 448T346 440T340 433T332 424T323 414T312 402T299 389L255 343L300 342H346L320 309H177V128L193 113Q214 92 244 68L254 60L303 84Q351 108 352 108L362 96Q355 85 277 30T194 -25L170 -4Q146 18 120 41T89 68Q94 85 94 168Q94 184 94 218T93 268V309H58L24 310L51 342H93V348ZM172 342Q217 342 252 374T287 445Q287 472 255 504Q242 517 241 517Q202 498 187 468T168 365V342H172Z"></path>
<path stroke-width="10" id="E1-MJFRAK-6C" d="M221 76L267 99Q268 98 269 96T271 88T270 82L262 76Q255 69 241 57T214 34L148 -20L98 56L99 89Q107 247 107 373Q107 494 101 621Q101 653 99 659V665L106 668L113 672L118 655Q122 642 131 617L138 597Q140 597 157 611L240 670L264 685Q265 685 270 680T276 674T269 667T247 647T219 617Q197 587 186 551T173 493T171 438Q171 376 175 282T179 147V117Q184 109 201 93T221 76Z"></path>
<path stroke-width="10" id="E1-MJFRAK-6D" d="M20 367L8 379Q9 380 63 425T118 471Q130 460 143 446L168 421V398L169 376L295 475Q362 433 415 418V399Q415 380 416 380T437 394T484 428T529 462L544 474L556 467Q590 449 614 438T646 424L653 421L665 417L664 412Q664 411 664 407T664 397T663 384Q660 342 660 335Q658 303 658 245Q658 186 660 152L661 126L669 115Q680 96 697 79L707 83Q716 87 723 90T735 96T741 100T746 102L747 103V102L750 95Q753 88 753 87L631 -18Q630 -17 622 -3T589 43L576 60L579 72Q592 146 592 218Q592 265 584 321Q581 345 578 350T560 363Q535 376 496 386L481 390Q475 387 425 358L415 351V238V157Q415 142 415 135T417 120T421 110T430 98T441 81L465 47Q462 44 458 41T443 28T420 8L380 -26L333 47L336 62Q339 77 342 109T345 184Q345 223 341 285T333 348Q322 364 258 382L240 388L169 347L168 240Q168 118 171 110L174 106Q178 101 183 93T195 78L217 48Q217 47 196 30T154 -5T133 -21L130 -16Q127 -10 122 0T111 19Q89 56 89 60Q95 76 95 153Q95 239 88 337V365L62 391L20 367Z"></path>
<path stroke-width="10" id="E1-MJFRAK-6E" d="M31 368Q20 379 20 380T72 427L121 470L129 463Q137 455 155 441T176 425V367L320 475L329 469Q351 454 385 437T434 417L432 402Q429 362 429 231V128L439 111Q442 107 445 102T449 95T453 90T456 86T459 84T463 82T467 82Q468 82 489 93T511 105T514 95V88L395 -18L340 65L341 77Q347 111 348 178Q348 343 343 353V358L332 363Q298 377 264 382Q260 382 254 382L249 383Q247 383 211 362L176 341V229V147Q176 134 176 127T177 115T179 106T183 99T189 91T197 81Q201 76 206 69T214 57L217 53Q217 52 175 15T132 -22Q132 -20 114 5T88 41Q84 45 84 50Q94 116 94 203Q94 227 93 263T92 324L90 364L67 388L50 378Q32 368 31 368Z"></path>
<path stroke-width="10" id="E1-MJFRAK-6F" d="M67 121Q70 265 84 359V364L97 371Q137 394 177 421T238 464T260 480L278 468Q295 457 327 442T394 418L406 414Q412 388 412 300Q412 263 410 228T405 170T399 130T393 103T391 92L381 86Q274 19 165 -28L161 -24Q157 -21 151 -15T136 -2T118 14T101 30T86 46T74 60L67 68V121ZM335 278Q335 286 335 303T334 335L333 349V356H326Q288 360 208 388L183 397Q178 393 172 383T154 333T142 239Q142 192 151 134Q152 124 155 120T175 99Q197 77 219 64T251 47T267 44T281 52T302 80T320 124Q335 182 335 278Z"></path>
<path stroke-width="10" id="E1-MJFRAK-70" d="M23 25Q15 33 12 38L35 59Q82 102 87 105V351L68 378Q42 414 42 422Q42 437 67 472T114 530L125 541Q126 541 132 537T138 532Q121 507 121 488Q121 453 160 413L167 405L166 390L165 372Q169 372 233 421T305 478Q307 479 315 472Q395 421 423 415Q424 415 424 415T425 414L426 410Q426 407 426 401T426 388Q430 335 430 272Q430 139 408 80Q407 78 340 22L273 -33Q200 23 165 23Q164 23 164 -32Q165 -89 168 -155V-170L93 -212L78 -203Q85 -48 87 16V47H79Q53 44 23 25ZM319 41Q346 94 349 212Q349 278 343 343V351L330 357Q318 363 270 381L255 387L245 383Q212 370 178 345L166 336V287Q165 260 165 166V94H175Q219 90 299 51L319 41ZM132 57L129 60Q130 58 132 57ZM158 29Q159 29 155 34T145 45T138 50Q155 29 158 29Z"></path>
<path stroke-width="10" id="E1-MJFRAK-71" d="M399 19Q399 -123 407 -174V-179L332 -219L322 -210L312 -202L314 -185Q320 -83 323 54V95L311 85Q255 40 162 -19Q146 -29 145 -27Q140 -22 103 20L63 65V73Q61 83 61 115Q61 122 61 135T60 154Q60 263 79 353L83 368L94 375Q123 391 147 405T186 429T212 446T229 458T238 466T243 470T247 471L260 464Q274 457 295 448T330 434L341 432L410 479L412 478Q414 476 416 475T419 473L417 461Q399 358 399 19ZM316 367Q287 370 252 377T196 391L176 397H175Q173 397 166 382T149 314T139 187V158Q139 138 141 132T155 114Q158 111 160 109Q210 58 211 58L218 62Q226 67 240 75T266 91L319 124V196Q319 334 325 361V367H316Z"></path>
<path stroke-width="10" id="E1-MJFRAK-72" d="M357 398Q364 398 375 403L386 408Q386 404 387 400V393L369 377Q361 370 350 360T336 347T327 340T316 336T303 335Q270 335 234 371L224 379Q220 375 214 370T198 355L182 340V243Q182 164 183 152T189 129Q195 117 211 100T239 72T254 60T298 81Q342 101 343 101Q344 100 345 92T346 82L200 -21Q174 -5 117 55L97 75L99 92Q106 147 106 196Q106 216 104 282T97 355Q95 359 95 361Q95 364 77 378L65 387L48 380Q30 372 29 372Q28 371 23 375T17 380Q17 384 50 415T107 467L115 474L128 461Q171 421 182 414V382L235 425Q247 435 261 446T283 462L290 468L295 460Q335 398 357 398Z"></path>
</defs>
<g stroke="currentColor" fill="currentColor" stroke-width="0" transform="matrix(1 0 0 -1 0 0)">
 <use xlink:href="#E1-MJFRAK-61" x="0" y="0"></use>
 <use xlink:href="#E1-MJFRAK-62" x="505" y="0"></use>
 <use xlink:href="#E1-MJFRAK-63" x="1023" y="0"></use>
 <use xlink:href="#E1-MJFRAK-64" x="1417" y="0"></use>
 <use xlink:href="#E1-MJFRAK-65" x="1921" y="0"></use>
 <use xlink:href="#E1-MJFRAK-66" x="2327" y="0"></use>
 <use xlink:href="#E1-MJFRAK-67" x="2658" y="0"></use>
 <use xlink:href="#E1-MJFRAK-68" x="3167" y="0"></use>
 <use xlink:href="#E1-MJFRAK-69" x="3693" y="0"></use>
 <use xlink:href="#E1-MJFRAK-6A" x="3977" y="0"></use>
 <use xlink:href="#E1-MJFRAK-6B" x="4263" y="0"></use>
 <use xlink:href="#E1-MJFRAK-6C" x="4657" y="0"></use>
 <use xlink:href="#E1-MJFRAK-6D" x="4942" y="0"></use>
 <use xlink:href="#E1-MJFRAK-6E" x="5714" y="0"></use>
 <use xlink:href="#E1-MJFRAK-6F" x="6246" y="0"></use>
 <use xlink:href="#E1-MJFRAK-70" x="6740" y="0"></use>
 <use xlink:href="#E1-MJFRAK-71" x="7245" y="0"></use>
 <use xlink:href="#E1-MJFRAK-72" x="7739" y="0"></use>
</g>
</svg>