<?xml version="1.0" standalone="no"?>
<!DOCTYPE svg PUBLIC "-//W3C//DTD SVG 1.1//EN" "http://www.w3.org/Graphics/SVG/1.1/DTD/svg11.dtd">
<svg xmlns:xlink="http://www.w3.org/1999/xlink" width="11.316ex" height="2.843ex" style="vertical-align: -0.838ex;" viewBox="0 -863.1 4872 1223.9" xmlns="http://www.w3.org/2000/svg">
<defs>
<path stroke-width="10" id="E1-MJMATHBI-3B9" d="M161 -8Q111 -8 75 16T38 85Q38 95 48 121T80 214T123 368L124 374Q126 381 127 386T132 399T139 414T149 428T162 440T180 448T203 452Q226 452 241 439T257 404Q257 386 230 290T171 111Q157 73 157 57Q157 43 166 43Q209 43 258 69T322 144Q326 157 330 159T348 162H355H366Q386 162 386 148Q386 143 383 132T367 100T335 61Q301 27 253 10T161 -8Z"></path>
<path stroke-width="10" id="E1-MJMATHBI-3BA" d="M258 405Q258 394 251 364T237 308T230 281T238 284T270 306T330 349Q365 377 389 394T450 427T519 444Q545 444 559 430T574 391Q574 360 551 336T491 312Q469 312 454 326T439 364Q439 372 438 372Q433 372 395 344T320 289T283 260H285Q287 260 290 260T297 259Q495 248 495 146Q495 132 491 110T486 74Q486 43 505 43Q520 43 531 53Q559 72 578 141Q582 157 586 159T611 162H622Q642 162 642 148T627 100T578 29T504 -7H495Q435 -7 399 22T363 96Q363 111 366 122T369 142Q369 155 364 165T347 182T326 193T298 200T269 204T238 207T212 210L211 206L190 123L169 40Q161 22 142 7T98 -8T59 7T45 39Q45 48 67 139T112 317L134 404Q142 424 161 438T204 452Q226 452 242 440T258 405Z"></path>
<path stroke-width="10" id="E1-MJMATHBI-3BB" d="M95 -13Q70 -13 55 4T40 41Q40 65 61 88Q65 92 210 207T357 322L235 602Q217 640 185 643Q182 643 178 644T173 645Q161 651 161 666Q161 677 167 684T181 692Q189 694 212 694Q335 694 358 660Q362 653 500 340T647 18Q652 10 652 6Q652 -8 622 -8H589H538L526 -5Q506 1 500 8Q494 16 444 128Q442 133 440 138L387 259L265 134Q156 20 137 4T95 -13Z"></path>
<path stroke-width="10" id="E1-MJMATHBI-3BC" d="M294 -8Q265 -8 244 -5T213 1T201 4Q200 4 192 -32T172 -111T155 -168Q134 -211 86 -211Q62 -211 48 -196T34 -158Q37 -144 103 123T174 404Q182 424 201 438T244 452Q271 452 284 436T298 404Q298 392 267 269T235 114Q235 43 305 43Q342 43 375 68T418 110Q420 112 455 253T492 397Q514 444 562 444Q587 444 601 429T615 397Q615 387 599 320T563 178T542 93Q540 81 540 72Q540 42 558 42Q580 42 596 75Q606 94 616 134Q621 155 624 158T646 162H651H662Q682 162 682 148Q681 142 679 132T665 94T641 47T602 9T548 -8Q523 -8 502 -3T468 11T446 27T432 40L429 46Q367 -8 294 -8Z"></path>
<path stroke-width="10" id="E1-MJMATHBI-3BD" d="M88 382Q70 382 65 385T59 402T64 427T78 443Q79 444 157 448T247 452Q256 452 261 448T266 440L267 437Q267 432 223 252L177 71L192 77Q293 117 371 199T480 388Q489 424 511 438T556 452Q579 452 593 438T608 402Q608 378 593 340T540 251T446 152T299 62T96 -1Q91 -2 78 -2Q38 -2 38 15Q38 22 82 198L127 379Q124 382 88 382Z"></path>
<path stroke-width="10" id="E1-MJMATHBI-3BE" d="M287 648Q291 671 293 680T305 700T329 711Q339 711 347 705T356 687Q356 680 351 653T345 619Q345 615 346 615Q358 618 398 618Q490 618 490 572Q490 553 476 536T434 512Q411 508 378 508H366Q332 508 306 534L298 525Q271 496 254 456T237 375Q237 336 244 336Q272 346 319 346H325Q354 346 372 344T406 331T422 300Q422 252 350 238Q332 236 303 236Q286 236 269 238T240 242T218 247T202 252L196 254Q191 254 174 237T141 191T124 139Q124 108 151 92T267 46Q285 40 295 37Q308 33 332 25T366 13T392 3T415 -8T432 -20T445 -36T451 -55T454 -80Q454 -118 427 -153T358 -199Q349 -201 327 -201Q313 -201 298 -200T271 -196T246 -191T226 -185T210 -180T200 -176L196 -174Q187 -170 187 -158T196 -138T216 -130Q217 -130 254 -140T329 -151Q349 -151 349 -135Q349 -127 340 -122T293 -104Q260 -93 238 -85Q130 -48 115 -41Q71 -19 47 15T23 88Q23 126 48 179T130 277L144 288L136 297Q99 336 99 390Q99 456 148 514T285 602V619Q285 624 286 635T287 648ZM355 563Q362 560 376 558Q424 558 423 564Q405 567 390 567Q369 567 355 563ZM279 292Q297 287 315 287Q355 287 355 293Q355 296 321 296Q316 296 308 296L301 295Q295 295 289 294L279 292Z"></path>
<path stroke-width="10" id="E1-MJMAINB-6F" d="M287 -5Q228 -5 182 10T109 48T63 102T39 161T32 219Q32 272 50 314T94 382T154 423T214 446T265 452H279Q319 452 326 451Q428 439 485 376T542 221Q542 156 514 108T442 33Q384 -5 287 -5ZM399 230V250Q399 280 398 298T391 338T372 372T338 392T282 401Q241 401 212 380Q190 363 183 334T175 230Q175 202 175 189T177 153T183 118T195 91T215 68T245 56T287 50Q348 50 374 84Q388 101 393 132T399 230Z"></path>
<path stroke-width="10" id="E1-MJMATHBI-3C0" d="M55 289H43Q23 289 23 303Q23 308 33 322Q116 434 199 443Q200 444 418 444Q591 444 617 444T652 439Q674 426 674 400Q674 378 661 360T625 335Q621 334 549 333H479L477 321Q476 312 476 279Q476 219 491 174T521 104T536 65Q536 38 511 15T457 -8Q403 -8 386 94Q384 110 384 139Q384 181 391 229T406 304L413 331Q413 333 365 333H316L315 329Q315 328 312 314T301 272T288 220Q274 167 258 103Q244 49 240 38T228 18Q225 16 224 14Q200 -8 172 -8Q146 -8 132 7T118 44Q118 54 121 61Q122 65 142 102T190 195T235 293Q250 329 250 333Q177 333 166 332Q115 328 88 301L77 290L55 289Z"></path>
</defs>
<g stroke="currentColor" fill="currentColor" stroke-width="0" transform="matrix(1 0 0 -1 0 0)">
 <use xlink:href="#E1-MJMATHBI-3B9" x="0" y="0"></use>
 <use xlink:href="#E1-MJMATHBI-3BA" x="417" y="0"></use>
 <use xlink:href="#E1-MJMATHBI-3BB" x="1090" y="0"></use>
 <use xlink:href="#E1-MJMATHBI-3BC" x="1766" y="0"></use>
 <use xlink:href="#E1-MJMATHBI-3BD" x="2479" y="0"></use>
 <use xlink:href="#E1-MJMATHBI-3BE" x="3092" y="0"></use>
 <use xlink:href="#E1-MJMAINB-6F" x="3605" y="0"></use>
 <use xlink:href="#E1-MJMATHBI-3C0" x="4185" y="0"></use>
</g>
</svg>