<?xml version="1.0" standalone="no"?>
<!DOCTYPE svg PUBLIC "-//W3C//DTD SVG 1.1//EN" "http://www.w3.org/Graphics/SVG/1.1/DTD/svg11.dtd">
<svg xmlns:xlink="http://www.w3.org/1999/xlink" width="2.592ex" height="1.343ex" style="vertical-align: 0.19ex; margin-bottom: -0.362ex;" viewBox="0 -504.3 1116 578.1" xmlns="http://www.w3.org/2000/svg">
<defs>
<path stroke-width="10" id="E1-MJAMS-22B8" d="M1055 250Q1055 190 1012 141T896 92Q858 92 828 106T781 140T755 180T741 214L738 228V230H405Q71 230 68 232Q55 238 55 250T68 268Q71 270 405 270H738V272L740 280Q742 287 745 297T754 321T771 348T796 374T832 396T881 408H891Q969 408 1012 360T1055 250ZM896 132Q948 132 981 166T1014 250Q1014 301 985 330T920 367Q914 368 891 368Q853 368 816 338T778 250Q778 198 812 165T896 132Z"></path>
</defs>
<g stroke="currentColor" fill="currentColor" stroke-width="0" transform="matrix(1 0 0 -1 0 0)">
 <use xlink:href="#E1-MJAMS-22B8" x="0" y="0"></use>
</g>
</svg>