<?xml version="1.0" standalone="no"?>
<!DOCTYPE svg PUBLIC "-//W3C//DTD SVG 1.1//EN" "http://www.w3.org/Graphics/SVG/1.1/DTD/svg11.dtd">
<svg xmlns:xlink="http://www.w3.org/1999/xlink" width="22.157ex" height="2.509ex" style="vertical-align: -0.838ex;" viewBox="0 -719.6 9540 1080.4" xmlns="http://www.w3.org/2000/svg">
<defs>
<path stroke-width="10" id="E1-MJTT-73" d="M72 317Q72 361 108 396T229 439Q231 439 245 439T268 440Q303 439 324 435T353 427T363 423L372 432Q380 440 397 440Q430 440 430 395Q430 390 430 380T429 366V335Q429 311 422 302T387 293Q364 293 355 300T346 316T343 336T325 353Q306 364 257 364Q209 364 178 351T147 317Q147 284 231 272Q327 256 357 247Q458 210 458 129V121Q458 74 413 34T271 -6Q246 -6 224 -3T189 5T165 14T150 22T144 26Q142 23 139 18T135 11T132 6T128 1T124 -2T119 -4T113 -5T104 -6Q84 -6 78 6T71 43Q71 48 71 60T72 79Q72 132 73 141T81 157Q90 166 115 166Q135 166 142 162T157 140Q168 108 191 90T260 70Q297 70 323 76T361 91T379 110T384 129Q384 157 346 171T247 195T165 212Q119 228 96 256T72 317Z"></path>
<path stroke-width="10" id="E1-MJTT-74" d="M25 395Q26 405 26 408T29 416T35 423T48 431H145V481L146 532Q154 547 161 550T184 554H189Q218 554 227 534Q229 529 229 480V431H405Q406 430 411 427T418 422T422 416T426 407T427 393Q427 387 427 382T424 374T421 368T417 363T413 360T408 358L405 356L317 355H229V249Q229 237 229 214T228 179Q228 126 241 98T295 70Q354 70 365 149Q366 167 375 174Q383 182 407 182H415Q438 182 446 166Q448 161 448 148Q448 84 398 39T282 -6Q226 -6 189 29T146 128Q145 134 145 247V355H96H72Q45 355 35 362T25 395Z"></path>
<path stroke-width="10" id="E1-MJTT-75" d="M4 393Q4 416 15 423T52 431H90Q141 431 151 429T168 417Q171 412 173 409V254L174 100Q182 70 244 70Q320 70 344 119Q349 130 350 144T351 248V355H320L289 356Q266 363 266 393Q266 408 270 415T289 431H351H386Q409 431 418 428T433 411Q435 406 435 241V76H498Q512 67 516 60T520 38Q520 9 498 1H436H394Q372 1 364 5T351 26L342 21Q293 -5 227 -5Q118 -5 96 67Q91 82 90 101T89 227V355H58L27 356Q4 363 4 393Z"></path>
<path stroke-width="10" id="E1-MJTT-76" d="M24 392Q24 417 36 424T79 432Q85 432 103 432T132 431H215Q229 422 233 415T237 393Q237 355 198 355H193H172L262 77L352 355H331H323Q288 355 288 393Q288 409 291 415T310 431H478Q491 423 495 416T500 393Q500 364 478 356L452 355H426L374 190Q320 24 318 20Q307 -4 273 -4H262H251Q217 -4 206 20Q204 24 150 190L98 355H72L47 356Q24 363 24 392Z"></path>
<path stroke-width="10" id="E1-MJTT-77" d="M54 355Q16 355 16 388V393Q16 423 37 430Q41 431 125 431H162Q206 431 218 425T230 393Q230 366 212 358Q206 355 174 355Q141 355 141 354L150 296Q181 110 181 89V84Q182 85 183 96Q185 118 199 173T218 237Q223 247 245 259H264H268Q294 259 309 240Q315 229 329 174T343 92Q343 84 344 84V86Q344 88 344 91T345 97Q347 125 356 187T374 301T383 354Q383 355 350 355H333Q314 355 304 362T294 393Q294 420 312 428Q318 431 401 431H440Q485 431 496 425T508 393Q508 382 508 377T498 363T470 355L455 354Q455 353 441 271T413 104T396 16Q384 -4 355 -4H351Q315 -4 305 9T280 79Q278 90 276 96Q265 149 265 169Q265 176 264 169Q263 166 263 162Q261 130 248 79T230 18Q220 -4 183 -4H175L151 -3Q134 5 127 17L112 102Q97 188 83 270T69 354Q62 355 54 355Z"></path>
<path stroke-width="10" id="E1-MJTT-78" d="M35 393Q35 417 46 424T89 432Q95 432 112 432T141 431H223Q238 422 241 415T244 393Q244 389 244 383T237 367T216 355Q209 355 209 354L234 319Q259 286 260 286L308 354Q308 355 301 355Q285 356 278 365T270 384L271 393Q271 420 289 428Q295 431 376 431H459Q460 430 465 427T472 422T476 416T480 407T481 393Q481 368 470 362T434 355H425H392L344 290Q295 225 295 223Q294 223 309 203T350 149L405 77L439 76H453Q474 76 484 69T495 38Q495 10 473 1H303Q281 9 281 32V38Q281 49 282 54T290 67T313 76Q324 76 324 77L259 173L197 77Q202 76 209 76Q225 75 233 68T241 55T242 38Q242 28 242 24T236 12T221 1H51Q29 9 29 32V38Q29 48 29 51T31 59T38 67T51 76H117L171 149Q224 222 224 223L124 355H90H78Q54 355 45 361T35 393Z"></path>
<path stroke-width="10" id="E1-MJTT-79" d="M26 393Q26 417 37 424T80 431H134H217Q232 422 235 416T239 393Q239 379 236 371T226 360T214 356T197 355L179 354V353L188 330Q197 306 209 272T235 201T259 133T271 89V84L274 95Q279 122 298 185T335 300T352 354Q352 355 331 355Q312 355 304 358Q288 368 288 393Q288 408 291 415T310 431H478Q479 430 484 427T491 422T495 416T499 407T500 393Q500 376 493 367T479 357T458 355H452Q426 355 425 353Q420 337 351 124T280 -94Q240 -195 168 -220Q147 -228 125 -228Q89 -228 66 -201T42 -139Q42 -116 56 -102T93 -87Q117 -87 130 -102T144 -135V-138H126Q121 -148 121 -150T130 -152Q182 -147 207 -87Q211 -78 223 -40T236 1Q230 10 102 355H75L49 356Q26 363 26 393Z"></path>
<path stroke-width="10" id="E1-MJTT-7A" d="M56 1Q40 7 37 14T34 41Q34 59 36 64Q39 67 43 73Q65 95 191 213T341 355H133V334Q133 306 124 297Q116 289 91 289H83Q60 289 51 308Q49 313 49 361L50 409Q59 427 72 430H78Q83 430 92 430T115 430T144 430T179 431T219 431T262 431H450Q452 430 455 428T459 424T463 422T466 419T468 416T469 413T470 409T471 404T472 398T472 391Q472 374 469 368L462 358Q453 349 315 218Q210 122 164 76H391V103Q391 136 400 146Q409 155 433 155Q464 155 473 135Q475 130 475 78V46Q475 24 472 16T453 1H56Z"></path>
<path stroke-width="10" id="E1-MJTT-30" d="M42 305Q42 450 111 535T257 621Q335 621 390 562Q482 468 482 306Q482 174 418 82T262 -10T106 82T42 305ZM257 545Q209 545 168 481T126 320Q126 220 162 147Q204 65 262 65Q318 65 358 139T398 320V328Q395 411 364 470T284 543Q270 545 257 545Z"></path>
<path stroke-width="10" id="E1-MJTT-31" d="M99 461Q99 470 99 474T104 487T120 498T151 502Q213 517 251 596Q264 622 283 622Q308 622 319 597V76H373H401Q428 76 439 69T450 38Q450 11 428 1H127Q104 10 104 38Q104 62 115 69T153 76H181H235V269Q235 461 234 461Q184 426 137 424H133Q124 424 119 425T109 431T99 447V461Z"></path>
<path stroke-width="10" id="E1-MJTT-32" d="M52 462Q52 528 110 575T247 622H250Q343 622 407 565T472 421Q472 371 446 324T390 248T308 178Q307 177 275 151T214 101L185 77Q185 76 286 76H388V87Q388 105 397 114T430 123T463 114Q470 107 471 100T472 61V42Q472 24 468 16T450 1H75Q53 10 53 32V38V48Q53 57 63 67T127 122Q153 144 169 157L289 256Q388 345 388 419Q388 473 346 509T231 545H224Q176 545 146 499L144 494Q155 476 155 459Q154 459 155 455T154 444T148 430T136 417T114 408Q113 408 110 408T104 407Q80 407 66 422T52 462Z"></path>
<path stroke-width="10" id="E1-MJTT-33" d="M260 546Q233 546 211 541T180 531T171 524L174 514Q177 505 177 497Q177 476 162 461T125 446Q106 446 90 459T73 504Q76 540 98 565T150 601T203 616T239 621Q241 622 265 622Q322 620 362 602T420 558T444 513T451 478Q451 386 369 329L375 326Q381 323 386 320T401 311T419 298T436 283T452 263T466 240T475 212T479 180Q479 99 416 44T259 -11T105 28T44 130Q44 154 59 168T95 183Q117 183 132 169T148 131Q148 119 139 101Q175 65 260 65Q316 65 355 97T395 179Q395 211 375 240Q336 292 253 292H234H215Q194 292 185 299T175 330Q175 350 184 359Q192 368 238 370T309 384Q336 398 351 423T367 474Q367 496 350 513Q321 546 260 546Z"></path>
<path stroke-width="10" id="E1-MJTT-34" d="M235 1Q213 10 213 32V38V46Q213 65 230 73Q236 76 274 76H314V168H183L52 169Q37 175 33 182T29 205V218L30 244Q53 283 155 443T264 613Q276 623 298 623H323H363Q378 616 385 601V244H429H450Q474 244 484 237T495 206Q495 179 477 171Q471 168 429 168H385V76H425H442Q466 76 476 69T487 38Q487 10 465 1H235ZM314 244V554L117 245L215 244H314Z"></path>
<path stroke-width="10" id="E1-MJTT-35" d="M387 189Q387 244 354 278T273 313Q230 313 205 301T163 271T138 249H120Q102 249 97 251Q85 258 83 266T80 311Q80 320 80 359T81 430Q81 587 82 591Q88 605 103 610H108Q112 610 120 610T138 610T163 610T192 611T225 611T260 611H415Q416 610 421 607T428 602T432 596T436 587T437 573Q437 567 437 562T434 554T431 548T427 543T423 540T418 538L415 536L289 535H164V363L170 366Q175 368 184 372T207 380T238 386T276 389Q357 389 414 331T472 187Q472 116 412 53T245 -10Q218 -10 209 -9Q126 5 89 48T52 137Q52 164 68 177T104 191Q130 191 143 175T156 141Q156 132 154 125T149 113T146 107Q146 104 155 95T188 76T245 65Q298 65 342 98T387 189Z"></path>
<path stroke-width="10" id="E1-MJTT-36" d="M357 536Q357 546 318 546Q258 546 205 497T133 357V353L144 361Q210 402 285 402Q362 402 414 350Q479 285 479 193Q479 111 418 50T263 -11Q234 -11 207 -3T149 26T97 81T60 171T45 301Q45 444 129 533T319 622Q388 622 421 589T454 510Q454 491 442 475T402 458Q373 458 362 475T350 510Q350 520 354 528L357 536ZM319 326T269 326T179 298T136 223Q136 202 143 174T176 112T237 68Q246 66 265 66Q319 66 360 107Q395 146 395 197Q395 250 356 289Q319 326 269 326Z"></path>
<path stroke-width="10" id="E1-MJTT-37" d="M204 -10Q162 -10 162 40Q162 146 198 261T310 477Q311 478 321 491T342 517T358 535H128V524Q128 506 119 497Q111 489 86 489H78Q55 489 46 508Q44 513 44 557V580Q44 605 52 616T88 627H93Q114 627 125 611H458Q474 598 477 593T480 573Q480 559 478 553T469 543T446 521T408 477Q252 290 246 49Q246 43 246 37T246 27T245 22Q243 11 233 1T204 -10Z"></path>
<path stroke-width="10" id="E1-MJTT-38" d="M58 460Q58 523 117 572T254 621Q290 621 298 620Q376 607 421 560T466 460Q466 441 460 424T443 393T421 370T397 352T374 340T357 332L350 330L356 328Q363 325 371 321T392 310T415 295T439 274T459 249T473 217T479 179Q479 102 418 46T262 -10T106 46T45 179Q45 202 52 222T70 257T96 284T123 305T148 319T167 328L174 330L170 332Q166 333 159 336T145 343Q104 362 81 393T58 460ZM382 458Q382 491 349 518T263 546Q215 546 179 521T142 458Q142 421 178 395T262 368Q315 368 348 396T382 458ZM396 178Q396 223 358 257T263 292Q206 292 167 258T128 178Q128 137 163 102T262 66Q324 66 360 101T396 178Z"></path>
<path stroke-width="10" id="E1-MJTT-39" d="M392 259Q333 210 236 210H233Q163 210 109 262Q46 325 46 411T99 550Q164 622 264 622Q293 622 319 615T376 587T428 532T464 440T479 304Q479 167 400 78T217 -11Q140 -11 105 22T70 101Q70 124 84 138T122 153Q150 153 162 137T174 101Q174 91 168 76Q179 65 216 65Q267 65 300 93Q322 109 339 130T366 173T380 210T388 242T392 259ZM388 389Q388 438 357 492T268 546T185 520Q129 479 129 415Q129 384 138 363Q145 349 156 334T195 302T255 285Q305 285 345 313T388 389Z"></path>
</defs>
<g stroke="currentColor" fill="currentColor" stroke-width="0" transform="matrix(1 0 0 -1 0 0)">
 <use xlink:href="#E1-MJTT-73" x="0" y="0"></use>
 <use xlink:href="#E1-MJTT-74" x="530" y="0"></use>
 <use xlink:href="#E1-MJTT-75" x="1060" y="0"></use>
 <use xlink:href="#E1-MJTT-76" x="1590" y="0"></use>
 <use xlink:href="#E1-MJTT-77" x="2120" y="0"></use>
 <use xlink:href="#E1-MJTT-78" x="2650" y="0"></use>
 <use xlink:href="#E1-MJTT-79" x="3180" y="0"></use>
 <use xlink:href="#E1-MJTT-7A" x="3710" y="0"></use>
<g transform="translate(4240,0)">
 <use xlink:href="#E1-MJTT-30"></use>
 <use xlink:href="#E1-MJTT-31" x="530" y="0"></use>
 <use xlink:href="#E1-MJTT-32" x="1060" y="0"></use>
 <use xlink:href="#E1-MJTT-33" x="1590" y="0"></use>
 <use xlink:href="#E1-MJTT-34" x="2120" y="0"></use>
 <use xlink:href="#E1-MJTT-35" x="2650" y="0"></use>
 <use xlink:href="#E1-MJTT-36" x="3180" y="0"></use>
 <use xlink:href="#E1-MJTT-37" x="3710" y="0"></use>
 <use xlink:href="#E1-MJTT-38" x="4240" y="0"></use>
 <use xlink:href="#E1-MJTT-39" x="4770" y="0"></use>
</g>
</g>
</svg>