<?xml version="1.0" standalone="no"?>
<!DOCTYPE svg PUBLIC "-//W3C//DTD SVG 1.1//EN" "http://www.w3.org/Graphics/SVG/1.1/DTD/svg11.dtd">
<svg xmlns:xlink="http://www.w3.org/1999/xlink" width="10.408ex" height="2.676ex" style="vertical-align: -0.671ex;" viewBox="0 -863.1 4481 1152.1" xmlns="http://www.w3.org/2000/svg">
<defs>
<path stroke-width="10" id="E1-MJAMS-227C" d="M112 270Q83 270 83 290Q83 301 94 307Q98 310 118 310Q516 310 620 464Q635 486 642 510T651 548T657 571T675 580Q693 577 693 559V552Q684 472 628 410T465 314Q436 303 372 290Q373 290 388 287T425 278T465 266Q674 199 693 28L694 17Q688 5 683 3Q677 0 673 0Q656 0 653 24Q623 270 118 270H112ZM110 116Q83 116 83 136T110 156H113Q134 156 160 155T231 146T318 128T407 95T489 44T550 -30T583 -131Q583 -153 563 -153Q556 -153 553 -152T547 -145T542 -127Q531 -54 478 0Q425 53 333 83T123 116H110Z"></path>
<path stroke-width="10" id="E1-MJMAIN-2C" d="M78 35T78 60T94 103T137 121Q165 121 187 96T210 8Q210 -27 201 -60T180 -117T154 -158T130 -185T117 -194Q113 -194 104 -185T95 -172Q95 -168 106 -156T131 -126T157 -76T173 -3V9L172 8Q170 7 167 6T161 3T152 1T140 0Q113 0 96 17Z"></path>
<path stroke-width="10" id="E1-MJAMS-227D" d="M668 310Q694 310 694 290Q694 285 691 279Q684 271 664 270Q550 268 464 257T301 220T179 146T124 27Q119 0 103 0T83 16Q83 21 83 31T92 68T113 121T157 177T229 231Q295 268 405 290Q404 290 389 293T352 302T312 314Q138 371 96 500Q83 541 83 562Q83 568 89 574T103 580Q115 580 120 570T126 542T138 497T173 442Q289 310 659 310H668ZM194 -131Q201 -60 241 -6T343 82T477 133T628 155Q632 155 644 155T661 156Q685 155 690 147Q694 143 694 136Q694 132 693 129T689 124T685 120T681 117L656 116Q596 114 543 106T436 79T342 35T272 -33T235 -127Q231 -154 212 -154Q203 -153 199 -147T194 -136V-131Z"></path>
<path stroke-width="10" id="E1-MJAMS-22DE" d="M113 424Q83 424 83 444Q83 453 96 464H121Q181 466 234 474T341 501T435 545T505 613T542 707Q545 734 564 734Q583 731 583 714Q583 658 560 613T500 538T414 486T321 453T229 434T156 426T113 424ZM112 270Q83 270 83 290Q83 301 94 307Q98 310 118 310Q624 310 653 556Q657 580 675 580Q693 577 693 559V552Q684 472 628 410T465 314Q436 303 372 290Q373 290 388 287T425 278T465 266Q674 199 693 28L694 17L692 14Q691 11 689 8T683 3T673 0Q657 0 653 24Q623 270 118 270H112Z"></path>
<path stroke-width="10" id="E1-MJAMS-22DF" d="M195 713Q195 725 201 729T214 734Q227 734 231 722T238 691T255 641T299 580Q405 474 656 464H681Q694 451 694 443Q694 424 670 424H664Q535 424 415 465T235 595Q195 657 195 713ZM668 310Q694 310 694 290Q694 285 691 279Q684 271 664 270Q550 268 464 257T301 220T179 146T124 27Q119 0 103 0T83 16Q83 21 83 31T92 68T113 121T157 177T229 231Q295 268 405 290Q404 290 389 293T352 302T312 314Q138 371 96 500Q83 541 83 562Q83 568 89 574T103 580Q115 580 120 570T126 542T138 497T173 442Q289 310 659 310H668Z"></path>
</defs>
<g stroke="currentColor" fill="currentColor" stroke-width="0" transform="matrix(1 0 0 -1 0 0)">
 <use xlink:href="#E1-MJAMS-227C" x="0" y="0"></use>
 <use xlink:href="#E1-MJMAIN-2C" x="783" y="0"></use>
 <use xlink:href="#E1-MJAMS-227D" x="1232" y="0"></use>
 <use xlink:href="#E1-MJMAIN-2C" x="2015" y="0"></use>
 <use xlink:href="#E1-MJAMS-22DE" x="2465" y="0"></use>
 <use xlink:href="#E1-MJMAIN-2C" x="3248" y="0"></use>
 <use xlink:href="#E1-MJAMS-22DF" x="3698" y="0"></use>
</g>
</svg>