<?xml version="1.0" standalone="no"?>
<!DOCTYPE svg PUBLIC "-//W3C//DTD SVG 1.1//EN" "http://www.w3.org/Graphics/SVG/1.1/DTD/svg11.dtd">
<svg xmlns:xlink="http://www.w3.org/1999/xlink" width="10.408ex" height="2.176ex" style="vertical-align: -0.671ex;" viewBox="0 -647.8 4481 936.9" xmlns="http://www.w3.org/2000/svg">
<defs>
<path stroke-width="10" id="E1-MJMAIN-2282" d="M84 250Q84 372 166 450T360 539Q361 539 370 539T395 539T430 540T475 540T524 540H679Q694 532 694 520Q694 511 681 501L522 500H470H441Q366 500 338 496T266 472Q244 461 224 446T179 404T139 337T124 250V245Q124 157 185 89Q244 25 328 7Q348 2 366 2T522 0H681Q694 -10 694 -20Q694 -32 679 -40H526Q510 -40 480 -40T434 -41Q350 -41 289 -25T172 45Q84 127 84 250Z"></path>
<path stroke-width="10" id="E1-MJMAIN-2C" d="M78 35T78 60T94 103T137 121Q165 121 187 96T210 8Q210 -27 201 -60T180 -117T154 -158T130 -185T117 -194Q113 -194 104 -185T95 -172Q95 -168 106 -156T131 -126T157 -76T173 -3V9L172 8Q170 7 167 6T161 3T152 1T140 0Q113 0 96 17Z"></path>
<path stroke-width="10" id="E1-MJMAIN-2283" d="M83 520Q83 532 98 540H251Q267 540 297 540T343 541Q427 541 488 525T605 455Q693 374 693 250Q693 165 650 99T545 0T415 -39Q407 -40 251 -40H98Q83 -32 83 -20Q83 -10 96 0H255H308H337Q412 0 439 4T512 28Q533 39 553 54T599 96T639 163T654 250Q654 341 592 411Q557 449 512 472Q468 491 439 495T335 500H306H255L96 501Q83 511 83 520Z"></path>
<path stroke-width="10" id="E1-MJAMS-22D0" d="M84 250Q84 372 166 450T360 539Q361 539 370 539T395 539T430 540T475 540T524 540H679Q694 532 694 520Q694 511 681 501L522 500H470H441Q366 500 338 496T266 472Q244 461 224 446T179 404T139 337T124 250V245Q124 157 185 89Q244 25 328 7Q348 2 366 2T522 0H681Q694 -10 694 -20Q694 -32 679 -40H526Q510 -40 480 -40T434 -41Q350 -41 289 -25T172 45Q84 127 84 250ZM694 134Q694 123 679 114H425H384Q350 114 326 121T277 154Q238 193 238 251Q238 322 295 361Q318 378 339 382T412 387Q423 387 459 387T520 386H679Q694 377 694 366Q694 354 679 346H519Q493 346 458 346T411 347Q360 347 341 342T303 315Q278 287 278 250Q278 210 301 187T351 156Q358 154 519 154H679Q694 146 694 134Z"></path>
<path stroke-width="10" id="E1-MJAMS-22D1" d="M83 520Q83 532 98 540H251Q267 540 297 540T343 541Q427 541 488 525T605 455Q693 374 693 250Q693 165 650 99T545 0T415 -39Q407 -40 251 -40H98Q83 -32 83 -20Q83 -10 96 0H255H308H337Q412 0 439 4T512 28Q533 39 553 54T599 96T639 163T654 250Q654 341 592 411Q557 449 512 472Q468 491 439 495T335 500H306H255L96 501Q83 511 83 520ZM83 366Q83 376 96 386H244Q280 386 317 386T378 386L402 387Q456 387 498 348T540 250Q540 203 512 168T446 120Q427 114 353 114H99Q84 120 84 134Q84 147 98 154H258Q284 154 319 154T366 153Q416 153 436 158T474 185Q500 214 500 250Q500 290 477 313T426 344Q419 346 258 346H98Q83 354 83 366Z"></path>
</defs>
<g stroke="currentColor" fill="currentColor" stroke-width="0" transform="matrix(1 0 0 -1 0 0)">
 <use xlink:href="#E1-MJMAIN-2282" x="0" y="0"></use>
 <use xlink:href="#E1-MJMAIN-2C" x="783" y="0"></use>
 <use xlink:href="#E1-MJMAIN-2283" x="1232" y="0"></use>
 <use xlink:href="#E1-MJMAIN-2C" x="2015" y="0"></use>
 <use xlink:href="#E1-MJAMS-22D0" x="2465" y="0"></use>
 <use xlink:href="#E1-MJMAIN-2C" x="3248" y="0"></use>
 <use xlink:href="#E1-MJAMS-22D1" x="3698" y="0"></use>
</g>
</svg>