<?xml version="1.0" standalone="no"?>
<!DOCTYPE svg PUBLIC "-//W3C//DTD SVG 1.1//EN" "http://www.w3.org/Graphics/SVG/1.1/DTD/svg11.dtd">
<svg xmlns:xlink="http://www.w3.org/1999/xlink" width="11.439ex" height="2.509ex" style="vertical-align: -0.671ex;" viewBox="0 -791.3 4925 1080.4" xmlns="http://www.w3.org/2000/svg">
<defs>
<path stroke-width="10" id="E1-MJAMS-21B7" d="M972 209Q980 209 981 204T982 179Q982 155 979 151T957 139Q915 121 878 86T815 8Q808 -1 803 -1Q801 -1 797 1Q797 6 783 28T732 84T650 139L628 150Q626 152 626 177Q626 201 630 206Q636 210 637 210Q650 210 697 181Q727 166 764 137L784 119L782 132Q767 239 689 318T499 417Q474 421 442 421Q343 421 261 369T130 219Q86 121 86 28Q86 15 79 8Q73 1 66 1T53 8Q46 15 46 30Q46 102 77 192T186 361Q274 443 386 459Q396 460 426 460Q515 460 588 431T703 361T773 271T812 187T822 132Q822 123 825 123Q936 209 972 209Z"></path>
<path stroke-width="10" id="E1-MJMAIN-2C" d="M78 35T78 60T94 103T137 121Q165 121 187 96T210 8Q210 -27 201 -60T180 -117T154 -158T130 -185T117 -194Q113 -194 104 -185T95 -172Q95 -168 106 -156T131 -126T157 -76T173 -3V9L172 8Q170 7 167 6T161 3T152 1T140 0Q113 0 96 17Z"></path>
<path stroke-width="10" id="E1-MJAMS-21B6" d="M361 210Q373 210 373 182V177Q373 155 370 151T348 139Q303 118 267 84T216 28T201 1Q197 -1 196 -1Q189 -1 184 8Q166 39 143 64T99 104T61 129T32 144T19 150Q17 152 17 179Q17 203 21 208Q28 210 39 206Q106 178 157 135L175 119V126Q179 130 179 155Q182 173 193 201Q228 305 312 374T510 459Q532 461 551 461H567Q678 461 784 386Q835 344 861 301Q902 245 926 173T950 32Q950 15 944 8Q930 -6 917 8Q910 12 910 43Q901 208 801 314T561 421Q453 421 359 359Q300 319 263 258T217 126L216 125Q216 124 216 123T217 122Q219 122 229 131T260 156T301 181Q314 189 336 199T361 210Z"></path>
<path stroke-width="10" id="E1-MJAMS-21BB" d="M170 637L213 650Q270 597 313 581L323 577L337 579Q369 583 380 583Q408 583 408 563T380 543H378L364 542Q305 483 289 408L286 397L264 390Q259 389 254 388T245 385L242 384Q242 387 246 403T261 450T287 506L292 515Q291 519 291 521T290 524T289 526Q284 526 265 517T216 486T160 434T114 354T95 249Q95 132 178 45T388 -42Q513 -42 597 44T682 250Q682 337 638 404T532 506Q529 508 525 510T519 514T515 516T511 519T509 522T508 526T507 531Q507 550 525 550Q533 550 542 545Q569 532 596 511T653 454T702 366T721 250Q721 151 672 74T547 -43T388 -83Q254 -83 155 12T56 250Q56 385 151 485Q164 498 179 509T205 528T228 542T247 551T260 558L267 560L254 568Q215 590 170 637Z"></path>
<path stroke-width="10" id="E1-MJAMS-21BA" d="M369 543T369 563T397 583Q408 583 440 579L454 577L464 581Q492 592 516 609T552 638T565 650Q604 638 607 637Q606 636 598 628T585 614T570 601T548 584T523 568L510 560L516 558Q522 555 527 553T541 546T559 536T580 523T603 506T626 485Q722 384 722 250Q722 106 622 12T387 -83Q253 -83 155 12T56 250Q56 357 110 433T235 545Q244 550 252 550Q270 550 270 531Q270 522 261 515T238 501T202 477T159 433Q95 352 95 250Q95 131 178 45T388 -42Q511 -42 596 43T682 250Q682 340 636 408T522 511Q495 526 488 526Q488 525 488 525T487 522T485 515L490 506Q505 481 516 451T531 404T535 384L532 385Q529 386 524 387T513 390L491 397L488 408Q472 483 413 542L399 543Q369 543 369 563Z"></path>
</defs>
<g stroke="currentColor" fill="currentColor" stroke-width="0" transform="matrix(1 0 0 -1 0 0)">
 <use xlink:href="#E1-MJAMS-21B7" x="0" y="0"></use>
 <use xlink:href="#E1-MJMAIN-2C" x="1005" y="0"></use>
 <use xlink:href="#E1-MJAMS-21B6" x="1454" y="0"></use>
 <use xlink:href="#E1-MJMAIN-2C" x="2459" y="0"></use>
 <use xlink:href="#E1-MJAMS-21BB" x="2909" y="0"></use>
 <use xlink:href="#E1-MJMAIN-2C" x="3692" y="0"></use>
 <use xlink:href="#E1-MJAMS-21BA" x="4142" y="0"></use>
</g>
</svg>