<?xml version="1.0" standalone="no"?>
<!DOCTYPE svg PUBLIC "-//W3C//DTD SVG 1.1//EN" "http://www.w3.org/Graphics/SVG/1.1/DTD/svg11.dtd">
<svg xmlns:xlink="http://www.w3.org/1999/xlink" width="10.408ex" height="3.176ex" style="vertical-align: -1.005ex;" viewBox="0 -934.9 4481 1367.4" xmlns="http://www.w3.org/2000/svg">
<defs>
<path stroke-width="10" id="E1-MJAMS-22E0" d="M82 344Q82 349 95 364H124Q266 364 398 390L429 397L509 595Q519 619 536 659Q581 766 590 783T609 801Q616 801 622 795T629 781Q629 776 553 595Q533 548 516 506T489 439T480 415Q482 415 505 426T538 444Q632 498 651 601Q654 621 658 628T673 635Q680 635 686 629T693 615Q693 591 678 546Q636 433 484 375L458 364L451 348Q443 332 443 329T455 324Q480 316 503 307T560 277T619 233T664 170T691 86Q693 68 691 64Q684 53 672 53Q664 53 658 59Q657 60 650 97T617 174T538 244Q515 257 476 273T428 289Q425 289 412 256Q381 179 344 90L262 -103H680Q682 -105 684 -108T688 -113T691 -118T693 -124Q693 -134 682 -141L464 -143H246L213 -219Q182 -292 178 -299Q172 -303 166 -303T153 -297T146 -283Q146 -282 174 -213T202 -143H95Q82 -128 82 -123T95 -103H220L302 97Q384 288 384 299Q384 302 341 308T235 319T124 324H95Q82 337 82 344ZM399 338Q403 338 406 346L409 353L375 344Q375 343 384 341T399 338Z"></path>
<path stroke-width="10" id="E1-MJMAIN-2C" d="M78 35T78 60T94 103T137 121Q165 121 187 96T210 8Q210 -27 201 -60T180 -117T154 -158T130 -185T117 -194Q113 -194 104 -185T95 -172Q95 -168 106 -156T131 -126T157 -76T173 -3V9L172 8Q170 7 167 6T161 3T152 1T140 0Q113 0 96 17Z"></path>
<path stroke-width="10" id="E1-MJAMS-22E1" d="M146 -283Q146 -282 174 -213T202 -143H95Q82 -127 82 -123T95 -103H220L300 93Q343 196 374 270Q385 294 386 299L373 295Q331 287 289 268Q241 249 208 224T159 174T135 127T124 85T118 59Q112 53 103 53Q91 53 84 64Q82 68 84 86Q96 185 174 248T375 337L400 344Q399 344 381 348T351 355T316 364T276 379T235 398T193 424T155 456T122 497T98 546Q82 587 82 615Q82 622 88 628T102 635Q112 635 116 628T124 601Q128 579 134 562T159 515T207 463T290 418T415 384L422 381L506 586Q571 744 584 772T609 801Q616 801 622 795T629 781T544 577Q525 529 504 478T473 402T462 375Q480 373 500 373Q579 364 651 364H680Q682 361 686 357T691 351T693 344Q693 337 680 324H651Q553 324 451 310L433 308L349 104L262 -101L473 -103H682Q694 -115 694 -123Q694 -133 682 -141L464 -143H246L213 -219Q182 -292 178 -299Q172 -303 166 -303T153 -297T146 -283Z"></path>
<path stroke-width="10" id="E1-MJAMS-2AB5" d="M653 734Q653 738 660 745T673 752T686 745T693 723Q672 555 466 485Q390 463 378 463Q373 463 373 461Q373 458 378 458Q390 458 466 436Q562 404 620 350Q682 283 693 198Q693 183 686 176Q681 170 674 170T660 176T653 187Q653 192 652 200T646 228T631 265T602 307T555 350Q435 431 151 441H95Q82 454 82 460T95 481H151Q165 482 197 483T238 485Q427 500 528 554T649 707Q653 729 653 734ZM82 33Q82 37 83 40T89 47T95 54H473L520 105Q569 156 571 156Q573 157 578 157Q586 157 592 151T598 136Q598 130 562 92L526 56L604 54H682Q693 43 693 35Q693 31 692 28T686 21T680 14H489L342 -139L513 -142H682Q693 -148 693 -160Q693 -167 680 -182H304L258 -230Q248 -240 237 -251T221 -268T211 -278T203 -284T197 -286Q189 -286 184 -280T178 -264Q178 -257 213 -219L249 -182H171L93 -179L86 -175Q82 -170 82 -163Q82 -155 95 -142H289L360 -64L433 14H262L93 16Q82 23 82 33Z"></path>
<path stroke-width="10" id="E1-MJAMS-2AB6" d="M693 466T693 460T680 441H624Q608 439 577 438T538 436Q349 421 248 367T126 214Q122 192 122 187Q122 183 116 177T102 170Q95 170 89 176Q82 183 82 198Q93 283 155 350Q213 404 309 436Q385 458 398 458Q402 458 402 461Q402 463 398 463Q385 463 309 485Q103 555 82 723Q82 738 89 745T102 752T115 745T122 734Q122 721 126 701T155 640T220 572Q340 490 624 481H680Q693 466 693 460ZM82 33Q82 37 83 40T89 47T95 54H473L520 105Q569 156 571 156Q573 157 578 157Q586 157 592 151T598 136Q598 130 562 92L526 56L604 54H682Q693 43 693 35Q693 31 692 28T686 21T680 14H489L342 -139L513 -142H682Q693 -148 693 -160Q693 -167 680 -182H304L258 -230Q248 -240 237 -251T221 -268T211 -278T203 -284T197 -286Q189 -286 184 -280T178 -264Q178 -257 213 -219L249 -182H171L93 -179L86 -175Q82 -170 82 -163Q82 -155 95 -142H289L360 -64L433 14H262L93 16Q82 23 82 33Z"></path>
</defs>
<g stroke="currentColor" fill="currentColor" stroke-width="0" transform="matrix(1 0 0 -1 0 0)">
 <use xlink:href="#E1-MJAMS-22E0" x="0" y="0"></use>
 <use xlink:href="#E1-MJMAIN-2C" x="783" y="0"></use>
 <use xlink:href="#E1-MJAMS-22E1" x="1232" y="0"></use>
 <use xlink:href="#E1-MJMAIN-2C" x="2015" y="0"></use>
 <use xlink:href="#E1-MJAMS-2AB5" x="2465" y="0"></use>
 <use xlink:href="#E1-MJMAIN-2C" x="3248" y="0"></use>
 <use xlink:href="#E1-MJAMS-2AB6" x="3698" y="0"></use>
</g>
</svg>