<?xml version="1.0" standalone="no"?>
<!DOCTYPE svg PUBLIC "-//W3C//DTD SVG 1.1//EN" "http://www.w3.org/Graphics/SVG/1.1/DTD/svg11.dtd">
<svg xmlns:xlink="http://www.w3.org/1999/xlink" width="11.104ex" height="2.676ex" style="vertical-align: -0.838ex;" viewBox="0 -791.3 4781 1152.1" xmlns="http://www.w3.org/2000/svg">
<defs>
<path stroke-width="10" id="E1-MJMATHBI-3B5" d="M224 -17Q126 -17 81 22T36 112Q36 178 84 226L93 236L88 246Q79 264 79 289Q79 341 124 388Q201 461 333 461Q402 461 455 425Q480 409 481 390Q481 365 464 350T428 334Q415 334 387 352T313 370Q141 370 141 293Q141 275 146 270Q147 270 148 270T155 272Q202 291 263 291H270Q349 291 349 244Q349 195 281 183Q274 182 239 182Q201 182 184 185T137 200Q123 188 112 168T100 129T112 98T148 81T189 75T237 74H243H251Q288 74 310 75T359 86T398 112Q405 124 417 124Q426 124 432 117T439 100Q439 88 427 70T390 32T322 -3T224 -17ZM286 238Q286 240 253 240Q245 240 234 239T216 237T209 235Q209 232 250 232Q286 232 286 238Z"></path>
<path stroke-width="10" id="E1-MJMATHBI-3D1" d="M114 132Q114 153 140 253T166 372Q166 402 148 402Q126 402 110 369Q100 350 90 310Q85 289 82 286T60 282H55H44Q24 282 24 296Q25 302 27 312T41 350T65 397T104 435T158 452Q184 452 211 445T263 414T288 354V339L265 245Q237 134 237 118V107V102Q237 87 239 77T257 56T300 43Q395 43 455 254Q479 346 479 347L460 354Q294 408 294 528Q294 606 350 653T464 701Q536 701 579 659Q634 601 634 491Q634 468 630 438T623 388L620 370Q624 370 631 369T647 364T656 352Q656 347 653 335Q647 317 642 316Q640 315 637 315Q635 315 619 317Q606 319 605 316Q605 315 603 308Q587 248 550 177T457 57Q379 -8 293 -8Q192 -8 153 23T114 116V132ZM519 566Q519 600 507 625T464 651Q425 651 391 617T356 529Q356 501 370 478T404 441T443 417T477 404L491 400Q493 400 499 428T512 497T519 566Z"></path>
<path stroke-width="10" id="E1-MJAMS-3F0" d="M228 325Q170 322 156 316T127 309Q108 309 104 314Q99 319 99 322T108 341Q125 376 171 400T268 425H271Q302 425 319 396Q328 377 328 358Q328 332 324 314Q311 270 286 221Q274 194 274 192H275Q339 234 484 325T639 421Q669 434 691 434T723 425T734 406Q734 394 719 381Q715 376 644 330L575 287L566 267Q543 233 526 176Q520 160 515 143T508 115T506 105Q506 103 533 103Q585 103 607 110T641 118Q670 118 670 107Q670 100 661 85Q643 50 598 27T504 3Q465 3 450 36Q441 51 441 73Q441 84 444 96Q452 146 484 205L497 236L324 125Q143 12 135 10Q103 -6 77 -6Q61 -6 49 2T37 21Q37 36 49 46T124 96L195 141L204 156Q219 179 243 248T264 323Q264 325 228 325Z"></path>
<path stroke-width="10" id="E1-MJMATHBI-3D6" d="M55 289H43Q23 289 23 303Q23 308 33 322Q116 434 199 443Q200 444 562 444Q922 444 928 442Q961 434 961 400Q961 376 944 355T886 333H870Q872 322 872 295V279Q872 230 842 165T751 46T618 -8Q581 -8 554 6T513 45T494 84T484 119Q484 121 478 114Q477 113 476 111Q384 -7 268 -7H265Q251 -7 237 -4T199 11T162 54T147 132Q147 149 149 166T155 198T165 229T176 256T189 281T200 301T211 319T220 333H199Q120 333 88 301L77 290L55 289ZM639 103Q674 103 712 122T780 188T811 295Q811 318 808 330V333H289Q274 318 244 263T214 169Q214 133 236 118T288 103Q351 103 412 153T494 278Q497 290 502 292T529 295Q546 295 551 293T556 283Q556 281 553 260T550 218Q550 153 576 128T639 103Z"></path>
<path stroke-width="10" id="E1-MJMATHBI-3F1" d="M371 -168Q357 -168 323 -171T245 -175Q143 -175 109 -150T75 -66Q75 -5 100 108T137 254Q153 299 179 334T232 390T277 419T311 434Q357 451 403 451Q435 451 455 449T506 435T560 400Q603 357 603 282Q603 213 569 148T465 38T304 -8Q273 -8 247 -2T204 14T176 31T159 46T152 53Q152 52 148 27T144 -16Q144 -36 150 -44T189 -58T293 -64Q405 -65 432 -75Q466 -88 466 -127Q466 -140 459 -172Q455 -188 451 -191T426 -194H420Q405 -194 400 -191T395 -176Q396 -170 394 -169T378 -168Q373 -168 371 -168ZM236 116Q236 77 258 60T311 43Q369 43 407 94Q429 123 451 206T474 331Q474 400 409 400H406Q339 400 299 341Q276 305 256 227T236 116Z"></path>
<path stroke-width="10" id="E1-MJMATHBI-3C2" d="M33 209Q33 277 80 334T195 421T330 451H344Q410 451 439 429Q457 417 457 402Q457 386 445 375T420 363Q415 363 406 368T383 383T354 398Q347 400 330 400Q256 400 196 361T135 265V257Q135 242 147 225T174 199L358 107Q400 77 400 28T362 -63T271 -105Q254 -105 229 -99T195 -86Q188 -82 188 -71Q188 -56 197 -50T216 -44Q225 -44 237 -48T270 -53H282Q293 -44 293 -31Q293 -19 283 -10Q278 -4 200 33T115 76Q77 98 55 133T33 209Z"></path>
<path stroke-width="10" id="E1-MJMATHBI-3C6" d="M238 4Q230 5 218 8T174 26T118 58T73 112T53 190Q53 219 60 246Q77 313 103 362T143 426T163 443Q165 444 186 444Q217 444 217 432Q217 425 188 392Q157 351 137 291T116 206Q116 127 263 109L276 107L288 139Q347 304 414 378T566 452Q621 449 662 412T703 286Q698 167 598 82T357 -8H332V-11Q332 -12 327 -46T317 -116T310 -157Q306 -180 286 -198T234 -216Q211 -216 197 -203T183 -168Q183 -160 184 -155Q184 -152 198 -112T225 -34T238 4ZM637 260Q637 303 607 322T541 341Q502 341 466 319T405 264Q368 218 356 159Q348 111 348 104Q348 103 361 103Q502 103 569 152T637 260Z"></path>
</defs>
<g stroke="currentColor" fill="currentColor" stroke-width="0" transform="matrix(1 0 0 -1 0 0)">
 <use xlink:href="#E1-MJMATHBI-3B5" x="0" y="0"></use>
 <use xlink:href="#E1-MJMATHBI-3D1" x="534" y="0"></use>
 <use xlink:href="#E1-MJAMS-3F0" x="1231" y="0"></use>
 <use xlink:href="#E1-MJMATHBI-3D6" x="1970" y="0"></use>
 <use xlink:href="#E1-MJMATHBI-3F1" x="2950" y="0"></use>
 <use xlink:href="#E1-MJMATHBI-3C2" x="3567" y="0"></use>
 <use xlink:href="#E1-MJMATHBI-3C6" x="4029" y="0"></use>
</g>
</svg>