<?xml version="1.0" standalone="no"?>
<!DOCTYPE svg PUBLIC "-//W3C//DTD SVG 1.1//EN" "http://www.w3.org/Graphics/SVG/1.1/DTD/svg11.dtd">
<svg xmlns:xlink="http://www.w3.org/1999/xlink" width="2.306ex" height="2.843ex" style="vertical-align: -0.838ex; margin-left: -0.035ex; margin-right: -0.042ex;" viewBox="-15 -863.1 992.7 1223.9" xmlns="http://www.w3.org/2000/svg">
<defs>
<path stroke-width="10" id="E1-MJAMS-2224" d="M118 737Q131 750 138 750L151 746L158 739V579L160 421L213 470Q269 519 276 519Q284 519 290 513T296 499V498Q296 493 291 488T244 445Q225 428 213 417L158 368V-239Q143 -252 136 -252L124 -248L120 -241L118 44V328L62 279Q4 231 0 230Q-8 230 -14 236T-20 250Q-20 257 -11 265T62 332L118 384V737Z"></path>
<path stroke-width="10" id="E1-MJMAIN-2C" d="M78 35T78 60T94 103T137 121Q165 121 187 96T210 8Q210 -27 201 -60T180 -117T154 -158T130 -185T117 -194Q113 -194 104 -185T95 -172Q95 -168 106 -156T131 -126T157 -76T173 -3V9L172 8Q170 7 167 6T161 3T152 1T140 0Q113 0 96 17Z"></path>
<path stroke-width="10" id="E1-MJAMS-E006" d="M91 417Q104 430 111 430T131 417V301L171 341Q201 373 207 378T220 384Q227 384 233 377T240 366Q240 357 187 299L131 244V-10Q116 -23 111 -23T91 -10V201L49 157Q20 127 14 121T0 115Q-8 115 -14 121T-20 132Q-20 139 17 178Q29 191 36 199L91 257V417Z"></path>
</defs>
<g stroke="currentColor" fill="currentColor" stroke-width="0" transform="matrix(1 0 0 -1 0 0)">
 <use xlink:href="#E1-MJAMS-2224" x="0" y="0"></use>
 <use xlink:href="#E1-MJMAIN-2C" x="283" y="0"></use>
 <use xlink:href="#E1-MJAMS-E006" x="732" y="0"></use>
</g>
</svg>