<?xml version="1.0" standalone="no"?>
<!DOCTYPE svg PUBLIC "-//W3C//DTD SVG 1.1//EN" "http://www.w3.org/Graphics/SVG/1.1/DTD/svg11.dtd">
<svg xmlns:xlink="http://www.w3.org/1999/xlink" width="3.233ex" height="2.176ex" style="vertical-align: -0.338ex;" viewBox="0 -791.3 1392 936.9" xmlns="http://www.w3.org/2000/svg">
<defs>
<path stroke-width="10" id="E1-MJFRAK-49" d="M190 601Q161 601 137 587T97 553T71 512T55 477T48 463Q44 465 39 468L30 473L35 488Q73 594 106 636T199 685Q200 686 211 686Q250 686 326 652T417 617Q435 617 455 626T497 652T522 670Q532 660 532 654Q469 591 390 550L378 543L343 556Q223 601 190 601ZM378 208Q378 249 369 318T360 424Q360 430 360 439T361 451L362 462Q416 526 482 571L495 580L503 577L511 575L499 562Q442 502 442 465Q442 436 452 368T462 246Q462 169 442 128T385 56Q292 -26 195 -26Q150 -26 104 14L96 21L43 -16Q43 -15 43 -14T41 -10T38 0L48 13Q76 50 123 97L150 125Q154 131 159 131Q166 131 171 116T182 81T193 53Q199 43 216 33T261 22Q307 22 344 68Q378 113 378 208Z"></path>
<path stroke-width="10" id="E1-MJFRAK-52" d="M27 496Q31 569 102 627T234 685Q236 685 241 685T251 686Q287 686 318 672T367 638T399 598T418 564L423 550Q424 554 434 567T463 601T505 639T561 671T626 685Q672 685 688 659T710 572Q713 533 721 523T766 513Q781 513 787 514T794 516Q796 512 798 509T801 504T802 501T787 493Q702 461 624 401L607 389Q655 383 688 358L697 352V342Q699 330 699 297Q704 209 710 173T734 103Q751 69 765 69Q769 69 806 83L824 90V74Q823 73 759 24T693 -26Q692 -26 660 32L628 90L629 111Q631 159 631 177Q631 278 614 300Q584 340 523 340Q500 340 467 333T431 325Q429 325 429 322Q428 321 426 308T420 275T410 230T392 178T366 125L358 112L342 99Q306 70 269 38T213 -10T193 -26Q192 -26 163 0T116 26Q82 26 50 -8L42 -16L35 -8L27 0L35 10Q43 21 58 38T104 80T158 106Q179 106 218 65L235 48Q238 48 255 60T295 99T329 158Q352 231 352 359Q352 555 242 614Q210 628 187 628Q140 628 116 600T91 548Q91 522 138 464T185 382V376Q185 345 158 313T103 263L76 246Q74 244 64 253L54 260L65 267Q91 285 100 302Q111 318 111 337Q111 355 69 410T27 496ZM562 628Q504 628 443 507L435 491L436 479Q437 471 437 446Q437 396 432 351L529 389L602 426Q673 462 673 463H672Q644 470 637 483T622 553Q608 628 562 628Z"></path>
</defs>
<g stroke="currentColor" fill="currentColor" stroke-width="0" transform="matrix(1 0 0 -1 0 0)">
 <use xlink:href="#E1-MJFRAK-49" x="0" y="0"></use>
 <use xlink:href="#E1-MJFRAK-52" x="559" y="0"></use>
</g>
</svg>