<?xml version="1.0" standalone="no"?>
<!DOCTYPE svg PUBLIC "-//W3C//DTD SVG 1.1//EN" "http://www.w3.org/Graphics/SVG/1.1/DTD/svg11.dtd">
<svg xmlns:xlink="http://www.w3.org/1999/xlink" width="4.682ex" height="2.676ex" style="vertical-align: -0.671ex;" viewBox="0 -863.1 2015.7 1152.1" xmlns="http://www.w3.org/2000/svg">
<defs>
<path stroke-width="10" id="E1-MJAMS-2266" d="M674 753Q682 753 688 747T694 732T687 718Q686 717 417 589L151 463L399 345Q687 209 691 204Q694 198 694 193Q694 175 676 173H670L382 309Q92 446 90 448Q83 453 83 465Q84 476 96 482Q104 486 382 617T665 751Q669 753 674 753ZM84 39Q84 49 99 59H678Q694 53 694 39Q694 26 679 19H98Q84 26 84 39ZM83 -157Q83 -153 84 -150T86 -145T89 -141T92 -139T96 -137T99 -135H678Q694 -146 694 -155Q694 -168 679 -175H98Q84 -168 83 -157Z"></path>
<path stroke-width="10" id="E1-MJMAIN-2C" d="M78 35T78 60T94 103T137 121Q165 121 187 96T210 8Q210 -27 201 -60T180 -117T154 -158T130 -185T117 -194Q113 -194 104 -185T95 -172Q95 -168 106 -156T131 -126T157 -76T173 -3V9L172 8Q170 7 167 6T161 3T152 1T140 0Q113 0 96 17Z"></path>
<path stroke-width="10" id="E1-MJAMS-2267" d="M83 733Q83 741 89 747T99 753Q107 753 253 685T543 548T687 478Q694 473 694 463T687 448Q685 446 395 309L107 173H101Q83 175 83 193Q83 194 83 196Q82 203 98 212Q117 222 248 284Q326 321 378 345L626 463L360 589Q291 622 200 665Q112 706 98 714T83 733ZM84 39Q84 49 99 59H678Q694 53 694 39Q694 26 679 19H98Q84 26 84 39ZM83 -157Q83 -153 84 -150T86 -145T89 -141T92 -139T96 -137T99 -135H678Q694 -146 694 -155Q694 -168 679 -175H98Q84 -168 83 -157Z"></path>
</defs>
<g stroke="currentColor" fill="currentColor" stroke-width="0" transform="matrix(1 0 0 -1 0 0)">
 <use xlink:href="#E1-MJAMS-2266" x="0" y="0"></use>
 <use xlink:href="#E1-MJMAIN-2C" x="783" y="0"></use>
 <use xlink:href="#E1-MJAMS-2267" x="1232" y="0"></use>
</g>
</svg>