<?xml version="1.0" standalone="no"?>
<!DOCTYPE svg PUBLIC "-//W3C//DTD SVG 1.1//EN" "http://www.w3.org/Graphics/SVG/1.1/DTD/svg11.dtd">
<svg xmlns:xlink="http://www.w3.org/1999/xlink" width="4.682ex" height="2.509ex" style="vertical-align: -0.671ex;" viewBox="0 -791.3 2015.7 1080.4" xmlns="http://www.w3.org/2000/svg">
<defs>
<path stroke-width="10" id="E1-MJAMS-2241" d="M220 366Q258 366 297 347T361 308T391 288Q394 288 464 370Q494 407 510 425T535 454T546 465T552 467H553Q560 467 566 461T573 448Q573 439 499 350Q424 266 424 261Q424 259 442 247T492 222T554 209Q607 209 646 243Q671 268 680 295T690 341T702 366Q719 366 719 314Q716 265 695 226Q682 199 664 179Q614 132 555 132Q517 132 477 151T412 190T383 210T347 172T278 89T233 37Q228 32 220 32Q210 32 206 38T201 48Q201 57 266 137Q272 144 275 148Q351 231 351 237Q351 239 333 251T283 276T221 289Q159 289 123 248T86 166Q86 156 82 145T73 132Q55 132 55 172Q55 220 79 272Q95 301 111 319Q161 366 220 366Z"></path>
<path stroke-width="10" id="E1-MJMAIN-2C" d="M78 35T78 60T94 103T137 121Q165 121 187 96T210 8Q210 -27 201 -60T180 -117T154 -158T130 -185T117 -194Q113 -194 104 -185T95 -172Q95 -168 106 -156T131 -126T157 -76T173 -3V9L172 8Q170 7 167 6T161 3T152 1T140 0Q113 0 96 17Z"></path>
<path stroke-width="10" id="E1-MJAMS-2246" d="M55 417Q55 479 101 528T222 578Q259 578 294 564T393 507Q413 493 434 480T469 460T484 454L537 549Q587 639 595 647Q600 652 607 652Q615 652 621 647T628 634Q628 625 575 536Q524 446 524 443Q527 440 555 440Q603 440 644 469T691 547Q694 578 706 578T718 556Q718 555 718 551T717 545Q717 488 684 445T595 387Q582 384 558 384Q530 384 508 389L493 394L404 238L557 236H708Q720 224 720 217T706 196H379L291 43L499 41H708Q720 29 720 21T706 1H268L226 -71Q186 -143 179 -148Q173 -155 165 -155T152 -150T146 -137Q146 -133 184 -64L222 1H144L66 3L59 7Q54 14 54 20Q54 29 66 41H246L333 194Q333 196 202 196H68Q55 211 55 218T66 236H213L357 238L457 409L437 421Q432 423 393 450T307 500T222 523Q171 523 129 491T84 414Q82 383 70 383Q55 383 55 417Z"></path>
</defs>
<g stroke="currentColor" fill="currentColor" stroke-width="0" transform="matrix(1 0 0 -1 0 0)">
 <use xlink:href="#E1-MJAMS-2241" x="0" y="0"></use>
 <use xlink:href="#E1-MJMAIN-2C" x="783" y="0"></use>
 <use xlink:href="#E1-MJAMS-2246" x="1232" y="0"></use>
</g>
</svg>