<?xml version="1.0" standalone="no"?>
<!DOCTYPE svg PUBLIC "-//W3C//DTD SVG 1.1//EN" "http://www.w3.org/Graphics/SVG/1.1/DTD/svg11.dtd">
<svg xmlns:xlink="http://www.w3.org/1999/xlink" width="10.408ex" height="3.009ex" style="vertical-align: -1.005ex;" viewBox="0 -863.1 4481 1295.7" xmlns="http://www.w3.org/2000/svg">
<defs>
<path stroke-width="10" id="E1-MJAMS-2272" d="M674 732Q682 732 688 726T694 711T687 697Q686 696 417 568L151 442L399 324Q687 188 691 183Q694 177 694 172Q694 154 676 152H670L382 288Q92 425 90 427Q83 432 83 444Q84 455 96 461Q104 465 382 596T665 730Q669 732 674 732ZM56 -194Q56 -107 106 -51T222 6Q260 6 296 -12T362 -56T420 -108T483 -153T554 -171Q616 -171 654 -128T694 -29Q696 6 708 6Q722 6 722 -26Q722 -102 676 -164T557 -227Q518 -227 481 -209T415 -165T358 -113T294 -69T223 -51Q163 -51 125 -93T83 -196Q81 -228 69 -228Q56 -228 56 -202V-194Z"></path>
<path stroke-width="10" id="E1-MJMAIN-2C" d="M78 35T78 60T94 103T137 121Q165 121 187 96T210 8Q210 -27 201 -60T180 -117T154 -158T130 -185T117 -194Q113 -194 104 -185T95 -172Q95 -168 106 -156T131 -126T157 -76T173 -3V9L172 8Q170 7 167 6T161 3T152 1T140 0Q113 0 96 17Z"></path>
<path stroke-width="10" id="E1-MJAMS-2273" d="M90 697Q83 704 83 712T88 726T99 732Q107 732 253 664T543 527T687 457Q694 452 694 442T687 427Q685 425 395 288L107 152H101Q83 154 83 172Q83 173 83 175Q82 182 98 191Q117 201 248 263Q326 300 378 324L626 442L360 568Q91 696 90 697ZM56 -194Q56 -107 106 -51T222 6Q260 6 296 -12T362 -56T420 -108T483 -153T554 -171Q616 -171 654 -128T694 -29Q696 6 708 6Q722 6 722 -26Q722 -102 676 -164T557 -227Q518 -227 481 -209T415 -165T358 -113T294 -69T223 -51Q163 -51 125 -93T83 -196Q81 -228 69 -228Q56 -228 56 -202V-194Z"></path>
<path stroke-width="10" id="E1-MJAMS-2A85" d="M667 761Q669 762 673 762Q682 762 688 756T694 741Q694 731 687 727Q684 724 420 613L156 502L416 392Q476 367 544 338T647 295T682 280Q694 274 694 262Q694 244 676 242Q670 242 524 303T235 425T90 487Q83 493 83 501Q83 514 94 519Q97 520 378 639T667 761ZM55 -23Q55 43 103 90T223 138Q265 138 316 114Q342 100 393 68L443 36Q502 0 554 0Q609 0 650 32T694 109Q694 138 708 138Q710 138 713 136T719 127T722 108Q722 37 673 -9T557 -56Q514 -56 468 -35T387 13T308 60T223 82Q167 82 127 50T83 -27Q81 -56 69 -56Q55 -56 55 -23ZM55 -257Q55 -191 103 -144T223 -96Q265 -96 316 -120Q342 -134 393 -166L443 -198Q502 -234 554 -234Q609 -234 650 -202T694 -125Q694 -96 708 -96Q710 -96 713 -98T719 -107T722 -126Q722 -197 673 -243T557 -290Q514 -290 468 -269T387 -221T308 -174T223 -152Q167 -152 127 -184T83 -261Q80 -290 69 -290Q55 -290 55 -257Z"></path>
<path stroke-width="10" id="E1-MJAMS-2A86" d="M90 727Q83 734 83 743Q83 751 89 756T104 762Q111 760 396 641Q686 518 687 517Q694 512 694 502T687 487Q686 486 543 425T253 303T101 242Q83 244 83 262Q83 274 95 280Q96 280 130 294T232 338T361 392L621 502L357 613Q93 724 90 727ZM55 -23Q55 43 103 90T223 138Q265 138 316 114Q342 100 393 68L443 36Q502 0 554 0Q609 0 650 32T694 109Q694 138 708 138Q710 138 713 136T719 127T722 108Q722 37 673 -9T557 -56Q514 -56 468 -35T387 13T308 60T223 82Q167 82 127 50T83 -27Q81 -56 69 -56Q55 -56 55 -23ZM55 -257Q55 -191 103 -144T223 -96Q265 -96 316 -120Q342 -134 393 -166L443 -198Q502 -234 554 -234Q609 -234 650 -202T694 -125Q694 -96 708 -96Q710 -96 713 -98T719 -107T722 -126Q722 -197 673 -243T557 -290Q514 -290 468 -269T387 -221T308 -174T223 -152Q167 -152 127 -184T83 -261Q80 -290 69 -290Q55 -290 55 -257Z"></path>
</defs>
<g stroke="currentColor" fill="currentColor" stroke-width="0" transform="matrix(1 0 0 -1 0 0)">
 <use xlink:href="#E1-MJAMS-2272" x="0" y="0"></use>
 <use xlink:href="#E1-MJMAIN-2C" x="783" y="0"></use>
 <use xlink:href="#E1-MJAMS-2273" x="1232" y="0"></use>
 <use xlink:href="#E1-MJMAIN-2C" x="2015" y="0"></use>
 <use xlink:href="#E1-MJAMS-2A85" x="2465" y="0"></use>
 <use xlink:href="#E1-MJMAIN-2C" x="3248" y="0"></use>
 <use xlink:href="#E1-MJAMS-2A86" x="3698" y="0"></use>
</g>
</svg>