<?xml version="1.0" standalone="no"?>
<!DOCTYPE svg PUBLIC "-//W3C//DTD SVG 1.1//EN" "http://www.w3.org/Graphics/SVG/1.1/DTD/svg11.dtd">
<svg xmlns:xlink="http://www.w3.org/1999/xlink" width="10.663ex" height="2.843ex" style="vertical-align: -0.838ex;" viewBox="0 -863.1 4591 1223.9" xmlns="http://www.w3.org/2000/svg">
<defs>
<path stroke-width="10" id="E1-MJAMS-25BD" d="M84 556Q84 567 99 576H622Q637 567 637 556Q637 551 572 409T441 127T375 -14Q368 -19 360 -19H358Q349 -19 342 -7T296 92Q249 193 211 275Q84 550 84 556ZM586 534Q586 536 361 536Q135 536 135 535L358 52L361 47L473 290Q584 532 586 534Z"></path>
<path stroke-width="10" id="E1-MJMAIN-2C" d="M78 35T78 60T94 103T137 121Q165 121 187 96T210 8Q210 -27 201 -60T180 -117T154 -158T130 -185T117 -194Q113 -194 104 -185T95 -172Q95 -168 106 -156T131 -126T157 -76T173 -3V9L172 8Q170 7 167 6T161 3T152 1T140 0Q113 0 96 17Z"></path>
<path stroke-width="10" id="E1-MJAMS-25B3" d="M99 -20Q84 -11 84 0Q84 5 148 145T278 424L342 563Q347 575 360 575Q368 575 375 570Q376 569 441 430T571 148T637 0Q637 -11 622 -20H99ZM476 260L360 509L248 266Q137 24 135 22Q135 20 360 20Q586 20 586 21L476 260Z"></path>
<path stroke-width="10" id="E1-MJMAIN-25BD" d="M59 480Q59 485 61 489T66 495T72 498L75 500H814Q828 493 828 480V474L644 132Q458 -210 455 -212Q451 -215 444 -215T433 -212Q429 -210 342 -49T164 282T64 466Q59 478 59 480ZM775 460H113Q113 459 278 153T444 -153T610 153T775 460Z"></path>
<path stroke-width="10" id="E1-MJMAIN-25B3" d="M75 0L72 2Q69 3 67 5T62 11T59 20Q59 24 62 30Q65 37 245 370T428 707Q428 708 430 710T436 714T444 716Q451 716 455 712Q459 710 644 368L828 27V20Q828 7 814 0H75ZM610 347L444 653Q443 653 278 347T113 40H775Q775 42 610 347Z"></path>
</defs>
<g stroke="currentColor" fill="currentColor" stroke-width="0" transform="matrix(1 0 0 -1 0 0)">
 <use xlink:href="#E1-MJAMS-25BD" x="0" y="0"></use>
 <use xlink:href="#E1-MJMAIN-2C" x="727" y="0"></use>
 <use xlink:href="#E1-MJAMS-25B3" x="1176" y="0"></use>
 <use xlink:href="#E1-MJMAIN-2C" x="1903" y="0"></use>
 <use xlink:href="#E1-MJMAIN-25BD" x="2353" y="0"></use>
 <use xlink:href="#E1-MJMAIN-2C" x="3247" y="0"></use>
 <use xlink:href="#E1-MJMAIN-25B3" x="3697" y="0"></use>
</g>
</svg>