<?xml version="1.0" standalone="no"?>
<!DOCTYPE svg PUBLIC "-//W3C//DTD SVG 1.1//EN" "http://www.w3.org/Graphics/SVG/1.1/DTD/svg11.dtd">
<svg xmlns:xlink="http://www.w3.org/1999/xlink" width="22.815ex" height="2.509ex" style="vertical-align: -0.505ex;" viewBox="0 -863.1 9823 1080.4" xmlns="http://www.w3.org/2000/svg">
<defs>
<path stroke-width="10" id="E1-MJCAL-41" d="M576 668Q576 688 606 708T660 728Q676 728 675 712V571Q675 409 688 252Q696 122 720 57Q722 53 723 50T728 46T732 43T737 41T743 39L754 45Q788 61 803 61Q819 61 819 47Q818 43 814 35Q799 15 755 -7T675 -30Q659 -30 648 -25T630 -8T621 11T614 34Q603 77 599 106T594 146T591 160V163H460L329 164L316 145Q241 35 196 -7T119 -50T59 -24T30 43Q30 75 46 100T74 125Q81 125 83 120T88 104T96 84Q118 57 151 57Q189 57 277 182Q432 400 542 625L559 659H567Q574 659 575 660T576 668ZM584 249Q579 333 577 386T575 473T574 520V581L563 560Q497 426 412 290L372 228L370 224H371L383 228L393 232H586L584 249Z"></path>
<path stroke-width="10" id="E1-MJCAL-42" d="M304 342Q292 342 292 353Q292 372 323 391Q331 396 417 428T533 487Q563 512 563 555V562Q563 575 557 589T530 618T475 636Q429 636 396 613T330 539Q263 446 210 238Q196 183 173 120Q135 31 121 16Q108 1 85 -10T47 -22T32 -10Q32 -5 44 18T77 93T112 206Q135 296 154 395T182 550T191 615Q191 616 190 616Q188 616 179 611T157 601T131 594Q113 594 113 605Q113 623 144 644Q154 650 205 676T267 703Q277 705 279 705Q295 705 295 693Q295 686 288 635T278 575Q278 572 287 582Q336 635 402 669T540 704Q603 704 633 673T664 599Q664 559 638 523T580 462Q553 440 504 413L491 407L504 402Q566 381 596 338T627 244Q627 172 575 110T444 13T284 -22Q208 -22 158 28Q144 42 146 50Q150 67 178 85T230 103Q236 103 246 95T267 75T302 56T357 47Q436 47 486 93Q526 136 526 198V210Q526 228 518 249T491 292T436 330T350 345Q335 345 321 344T304 342Z"></path>
<path stroke-width="10" id="E1-MJCAL-43" d="M201 -25Q167 -25 136 -14T75 23T29 94T12 202Q12 290 50 394T161 574Q227 642 303 673T433 704Q435 705 457 705Q533 701 533 640Q533 606 507 548T464 474Q431 444 396 444Q381 444 381 453Q381 459 388 473T407 513T428 563Q433 580 433 594Q433 636 381 636Q314 636 260 594T175 489T128 363T112 247Q112 157 153 101T273 44Q347 44 398 121Q413 144 437 157T481 171Q496 171 496 160Q496 150 476 123Q426 56 350 16T201 -25Z"></path>
<path stroke-width="10" id="E1-MJCAL-44" d="M37 475Q19 475 19 487Q19 536 103 604T327 682H356Q386 683 408 683H419Q475 683 506 681T582 668T667 633Q766 571 766 450Q766 365 723 287T611 152T455 57T279 6Q248 1 160 0Q148 0 131 0T108 -1Q72 -1 72 11Q72 24 90 40T133 64L144 68L152 88Q247 328 272 587Q275 613 272 613Q272 613 269 613Q225 610 195 602T149 579T129 556T119 532Q118 530 116 525T113 518Q102 502 80 490T37 475ZM665 407Q665 596 412 613Q403 614 383 614Q370 614 370 612Q370 598 363 542T323 357T242 103L228 69H265Q391 73 481 119Q536 148 575 188T633 268T658 338T665 392V407Z"></path>
<path stroke-width="10" id="E1-MJCAL-45" d="M144 470Q144 556 240 630T451 705Q564 705 564 637Q564 611 540 573Q529 559 505 547T464 534Q448 534 448 545Q448 552 455 562Q463 577 463 591Q463 600 462 604T456 616T436 627T400 635Q396 635 390 635T380 636Q291 636 258 568Q245 544 245 516Q245 463 290 438T391 410Q415 410 415 398Q415 392 407 380T376 356T326 341Q288 340 260 327Q218 311 187 276T143 208T130 151Q130 113 156 88T211 55T268 47Q349 47 403 125Q415 144 439 157T483 171Q499 171 499 160Q499 148 475 120T413 59T315 3T197 -22Q124 -22 77 14T30 105Q30 126 39 154T66 216T122 288T209 354L223 362Q144 400 144 470Z"></path>
<path stroke-width="10" id="E1-MJCAL-46" d="M199 579Q181 579 181 590Q181 598 188 611T212 639T260 666T335 682Q336 682 349 682T383 682T431 682T493 683T561 683Q776 682 784 681Q826 673 829 647Q829 620 797 600T744 580Q728 580 728 595Q729 607 713 610Q698 613 598 614H500L499 610Q499 598 467 486T428 367Q428 365 551 365H674Q683 360 684 355Q687 346 677 329Q666 312 642 299T598 285Q586 285 582 296H402L394 277Q386 258 373 229T346 167T315 102T286 51Q265 22 225 -5T133 -32Q108 -32 87 -25T54 -7T33 15T21 35T18 47Q18 60 44 80T98 103Q108 103 111 101T119 88Q130 66 150 54T179 39T195 37Q199 37 203 43Q217 67 245 125T318 300T391 532Q393 543 398 564T406 598T409 613T339 614H269Q229 579 199 579Z"></path>
<path stroke-width="10" id="E1-MJCAL-47" d="M216 68Q155 68 115 100T59 177T44 273Q44 299 50 333T73 421T133 533T239 632Q346 704 466 704Q508 704 515 703Q555 696 577 681T599 635Q599 605 570 560T523 496Q490 466 455 466Q440 466 440 475T469 526T499 589Q499 605 489 617Q460 636 403 636Q343 636 295 611T220 548T174 464T150 382T144 318Q144 241 180 189T287 137Q325 137 359 160Q428 205 466 322Q472 342 501 359T551 376Q557 376 560 373T564 368L565 365Q560 341 551 302T512 173T451 31Q359 -119 204 -119Q163 -118 127 -109T74 -91T53 -77Q52 -75 52 -71Q52 -54 79 -35T132 -14H140L151 -19Q210 -49 281 -49H289Q312 -49 329 -31Q351 -7 372 36T405 109T416 142L408 136Q401 131 392 125T369 111T338 96T303 82T261 72T216 68Z"></path>
<path stroke-width="10" id="E1-MJCAL-48" d="M18 487Q18 496 29 517T67 566T127 621T216 665T330 683Q359 683 376 669T397 643T400 622Q400 584 382 488T348 343Q348 342 467 342H587L594 366Q615 440 648 534T690 641Q701 656 723 669T764 683Q783 683 783 672L750 578Q716 485 677 346T625 101Q624 92 623 82T622 65T621 56Q621 20 658 20Q666 20 701 25Q709 52 736 69T785 87Q803 87 803 75T791 44T754 3T685 -33T588 -48Q568 -48 562 -46Q522 -31 522 13V23Q531 129 562 250L569 281L565 280Q561 278 556 277T549 274L438 273H328L321 249Q307 202 275 107T232 0Q219 -16 196 -28T155 -41Q149 -41 145 -39T140 -34T139 -29Q139 -24 148 -3T181 86T233 247Q240 270 240 272Q240 273 194 273H169Q139 273 139 285Q139 295 153 308T187 332Q206 341 236 342L260 343L264 359Q278 414 289 482T300 578Q300 613 260 613H254Q198 613 169 592Q148 578 127 544T104 508Q72 478 37 475Q18 475 18 487Z"></path>
<path stroke-width="10" id="E1-MJCAL-49" d="M174 0H31Q-13 0 -21 2T-30 12Q-30 23 -17 36Q9 60 42 68L155 70Q187 102 214 179T257 333T302 491T366 610L369 614H305Q221 611 188 607T145 596T128 569Q119 543 94 529T47 512Q28 512 28 524Q28 527 32 539Q56 614 159 654Q218 678 312 682Q314 682 339 682T404 682T481 683H632Q642 678 642 671Q642 657 621 641T577 617Q570 615 507 614H444Q427 592 406 542Q382 478 355 366T310 209Q280 123 238 78L230 69H330Q442 70 442 74Q443 74 443 77T447 87T460 105Q490 134 527 137Q545 137 545 125Q545 120 542 112Q531 78 491 49T399 7Q379 2 360 2T174 0Z"></path>
<path stroke-width="10" id="E1-MJCAL-4A" d="M148 78Q148 16 189 -17T286 -50Q319 -50 348 -33T396 10T426 59T444 101L471 204Q498 306 521 372Q575 532 649 605L659 614H591Q517 613 494 607Q433 591 400 550T360 477Q353 454 325 437T275 419Q256 419 260 435Q280 523 376 597T583 681Q603 683 713 683H830Q839 674 839 671Q839 654 810 634T754 614Q735 614 721 601Q688 571 654 495T600 351T561 209T541 132Q507 29 412 -45T213 -119Q141 -119 94 -77T47 33Q47 55 50 69T58 90T71 103Q105 131 135 131Q152 131 152 120Q152 119 151 114T149 99T148 78Z"></path>
<path stroke-width="10" id="E1-MJCAL-4B" d="M194 618Q193 618 182 613T156 601T131 594Q113 594 113 605Q113 623 144 644Q154 650 205 676T267 703Q277 705 279 705Q295 705 295 691Q295 569 250 397Q225 306 197 217T151 81T128 25Q120 8 94 -7T47 -22Q32 -22 32 -10L64 76Q95 163 133 295T185 530Q198 611 194 618ZM331 429Q331 383 364 290T449 117T542 36Q574 36 607 51T652 103Q660 124 677 133T709 143Q727 143 727 128Q727 119 723 111Q704 56 639 17T497 -22H493Q463 -22 425 16Q401 40 382 71Q335 138 296 243T256 399Q256 434 288 473Q342 540 471 622T670 705Q691 704 703 696Q732 678 732 644Q732 613 714 600T677 586Q671 586 667 587T660 592T657 604V619Q657 647 629 647Q623 647 620 646Q576 635 495 583T365 482Q331 448 331 429Z"></path>
<path stroke-width="10" id="E1-MJCAL-4C" d="M62 -22T47 -22T32 -11Q32 -1 56 24T83 55Q113 96 138 172T180 320T234 473T323 609Q364 649 419 677T531 705Q559 705 578 696T604 671T615 645T618 623V611Q618 582 615 571T598 548Q581 531 558 520T518 509Q503 509 503 520Q503 523 505 536T507 560Q507 590 494 610T452 630Q423 630 410 617Q367 578 333 492T271 301T233 170Q211 123 204 112L198 103L224 102Q281 102 369 79T509 52H523Q535 64 544 87T579 128Q616 152 641 152Q656 152 656 142Q656 101 588 40T433 -22Q381 -22 289 1T156 28L141 29L131 20Q111 0 87 -11Z"></path>
<path stroke-width="10" id="E1-MJCAL-4D" d="M28 9Q28 37 43 63T73 90Q77 90 83 84T103 70T141 57H146Q162 57 178 79T222 167Q266 279 295 371T334 513T349 598T358 651T371 677Q397 705 432 705Q442 705 445 699T452 666Q453 661 453 659Q475 538 509 405T568 207L574 192Q581 178 587 164T594 150Q596 150 635 189T693 248Q765 324 863 438T1024 626T1089 701Q1093 705 1100 705Q1111 705 1111 682Q1111 675 1108 660T1099 611T1086 540Q1041 277 1041 144Q1041 98 1044 75T1050 48T1059 42Q1064 41 1075 46Q1102 61 1121 61Q1137 61 1137 50Q1137 28 1087 0T1000 -29Q983 -29 972 -23T955 -9T945 16T942 45T941 83V96Q941 158 952 256T974 422L985 489Q984 489 939 436T821 300T698 164Q665 128 620 85T568 37Q564 34 558 34Q550 34 546 37T535 54Q512 91 496 127T450 259T389 498L384 518Q349 367 294 223T198 15Q155 -50 117 -50Q87 -50 61 -35T30 -6Q28 2 28 9Z"></path>
</defs>
<g stroke="currentColor" fill="currentColor" stroke-width="0" transform="matrix(1 0 0 -1 0 0)">
 <use xlink:href="#E1-MJCAL-41" x="0" y="0"></use>
 <use xlink:href="#E1-MJCAL-42" x="824" y="0"></use>
 <use xlink:href="#E1-MJCAL-43" x="1493" y="0"></use>
 <use xlink:href="#E1-MJCAL-44" x="2031" y="0"></use>
 <use xlink:href="#E1-MJCAL-45" x="2807" y="0"></use>
 <use xlink:href="#E1-MJCAL-46" x="3376" y="0"></use>
 <use xlink:href="#E1-MJCAL-47" x="4210" y="0"></use>
 <use xlink:href="#E1-MJCAL-48" x="4814" y="0"></use>
 <use xlink:href="#E1-MJCAL-49" x="5664" y="0"></use>
 <use xlink:href="#E1-MJCAL-4A" x="6311" y="0"></use>
 <use xlink:href="#E1-MJCAL-4B" x="7155" y="0"></use>
 <use xlink:href="#E1-MJCAL-4C" x="7922" y="0"></use>
 <use xlink:href="#E1-MJCAL-4D" x="8617" y="0"></use>
</g>
</svg>