<?xml version="1.0" standalone="no"?>
<!DOCTYPE svg PUBLIC "-//W3C//DTD SVG 1.1//EN" "http://www.w3.org/Graphics/SVG/1.1/DTD/svg11.dtd">
<svg xmlns:xlink="http://www.w3.org/1999/xlink" width="10.408ex" height="2.509ex" style="vertical-align: -0.671ex;" viewBox="0 -791.3 4481 1080.4" xmlns="http://www.w3.org/2000/svg">
<defs>
<path stroke-width="10" id="E1-MJAMS-2A7D" d="M674 636Q682 636 688 630T694 615T687 601Q686 600 417 472L151 346L399 228Q687 92 691 87Q694 81 694 76Q694 58 676 56H670L382 192Q92 329 90 331Q83 336 83 348Q84 359 96 365Q104 369 382 500T665 634Q669 636 674 636ZM94 170Q102 172 104 172Q110 171 254 103T535 -30T678 -98Q694 -106 694 -118Q694 -136 676 -138H670L382 -2Q92 135 90 137Q83 142 83 154Q84 164 94 170Z"></path>
<path stroke-width="10" id="E1-MJMAIN-2C" d="M78 35T78 60T94 103T137 121Q165 121 187 96T210 8Q210 -27 201 -60T180 -117T154 -158T130 -185T117 -194Q113 -194 104 -185T95 -172Q95 -168 106 -156T131 -126T157 -76T173 -3V9L172 8Q170 7 167 6T161 3T152 1T140 0Q113 0 96 17Z"></path>
<path stroke-width="10" id="E1-MJAMS-2A7E" d="M83 616Q83 624 89 630T99 636Q107 636 253 568T543 431T687 361Q694 356 694 346T687 331Q685 329 395 192L107 56H101Q83 58 83 76Q83 77 83 79Q82 86 98 95Q117 105 248 167Q326 204 378 228L626 346L360 472Q291 505 200 548Q112 589 98 597T83 616ZM674 172Q692 172 694 154Q694 142 687 137Q685 135 395 -2L107 -138H101Q83 -136 83 -118Q83 -106 96 -100Q100 -98 380 35T665 170T674 172Z"></path>
<path stroke-width="10" id="E1-MJAMS-2A95" d="M674 636Q682 636 688 631T694 616Q694 605 687 601Q685 599 395 462L107 326H101Q83 328 83 345Q83 358 96 365Q102 367 382 500T665 634Q671 636 674 636ZM674 442Q692 442 694 424Q694 412 687 407Q686 406 417 278L151 152L399 34Q687 -102 691 -107Q694 -113 694 -118Q694 -136 676 -138H670L382 -2Q92 135 90 137Q83 142 83 154Q84 165 96 171Q104 175 382 306T665 440Q669 442 674 442Z"></path>
<path stroke-width="10" id="E1-MJAMS-2A96" d="M83 616Q83 624 89 630T99 636Q107 636 253 568T543 431T687 361Q694 354 694 346Q694 328 676 326H670L382 462Q317 493 226 535Q119 585 101 595T83 616ZM94 440Q102 442 104 442Q110 441 254 373T535 240T678 172Q679 172 680 171Q694 164 694 153T687 137Q685 135 395 -2L107 -138H101Q83 -136 83 -118Q83 -106 93 -101L128 -84Q163 -68 230 -36T361 26L626 152L360 278Q91 406 90 407Q83 412 83 424Q84 434 94 440Z"></path>
</defs>
<g stroke="currentColor" fill="currentColor" stroke-width="0" transform="matrix(1 0 0 -1 0 0)">
 <use xlink:href="#E1-MJAMS-2A7D" x="0" y="0"></use>
 <use xlink:href="#E1-MJMAIN-2C" x="783" y="0"></use>
 <use xlink:href="#E1-MJAMS-2A7E" x="1232" y="0"></use>
 <use xlink:href="#E1-MJMAIN-2C" x="2015" y="0"></use>
 <use xlink:href="#E1-MJAMS-2A95" x="2465" y="0"></use>
 <use xlink:href="#E1-MJMAIN-2C" x="3248" y="0"></use>
 <use xlink:href="#E1-MJAMS-2A96" x="3698" y="0"></use>
</g>
</svg>