<?xml version="1.0" standalone="no"?>
<!DOCTYPE svg PUBLIC "-//W3C//DTD SVG 1.1//EN" "http://www.w3.org/Graphics/SVG/1.1/DTD/svg11.dtd">
<svg xmlns:xlink="http://www.w3.org/1999/xlink" width="4.682ex" height="2.509ex" style="vertical-align: -0.671ex;" viewBox="0 -791.3 2015.7 1080.4" xmlns="http://www.w3.org/2000/svg">
<defs>
<path stroke-width="10" id="E1-MJAMS-22B4" d="M694 71Q686 58 676 56H670L382 192Q92 329 90 331Q83 336 83 346Q83 359 96 364Q101 367 379 498T665 634Q671 636 674 636Q686 636 694 621V71ZM654 108T654 346T653 584T402 466T151 346L275 287Q399 228 524 169T652 108Q654 108 654 346ZM83 -120Q83 -116 84 -113T86 -108T89 -104T92 -102T96 -100T99 -98H678Q679 -98 681 -99T684 -101T688 -104T691 -108T693 -113T694 -120Q692 -130 679 -138H98Q84 -130 83 -120Z"></path>
<path stroke-width="10" id="E1-MJMAIN-2C" d="M78 35T78 60T94 103T137 121Q165 121 187 96T210 8Q210 -27 201 -60T180 -117T154 -158T130 -185T117 -194Q113 -194 104 -185T95 -172Q95 -168 106 -156T131 -126T157 -76T173 -3V9L172 8Q170 7 167 6T161 3T152 1T140 0Q113 0 96 17Z"></path>
<path stroke-width="10" id="E1-MJAMS-22B5" d="M83 620Q83 621 85 624T92 632T103 636Q107 636 389 503T680 365Q694 357 694 346Q694 336 687 331Q685 329 395 192L107 56H101Q90 58 83 71V620ZM376 465Q323 490 254 522T155 570L125 584Q123 584 123 346T125 108Q127 109 252 168T502 287L626 346L376 465ZM83 -120Q83 -116 84 -113T86 -108T89 -104T92 -102T96 -100T99 -98H678Q679 -98 681 -99T684 -101T688 -104T691 -108T693 -113T694 -120Q692 -130 679 -138H98Q84 -130 83 -120Z"></path>
</defs>
<g stroke="currentColor" fill="currentColor" stroke-width="0" transform="matrix(1 0 0 -1 0 0)">
 <use xlink:href="#E1-MJAMS-22B4" x="0" y="0"></use>
 <use xlink:href="#E1-MJMAIN-2C" x="783" y="0"></use>
 <use xlink:href="#E1-MJAMS-22B5" x="1232" y="0"></use>
</g>
</svg>