<?xml version="1.0" standalone="no"?>
<!DOCTYPE svg PUBLIC "-//W3C//DTD SVG 1.1//EN" "http://www.w3.org/Graphics/SVG/1.1/DTD/svg11.dtd">
<svg xmlns:xlink="http://www.w3.org/1999/xlink" width="24.78ex" height="2.509ex" style="vertical-align: -0.671ex;" viewBox="0 -791.3 10669 1080.4" xmlns="http://www.w3.org/2000/svg">
<defs>
<path stroke-width="10" id="E1-MJMATHBI-73" d="M140 290Q140 311 148 336T176 388T235 433T326 451H336Q355 451 373 449T418 439T460 412T476 363Q476 333 456 311T406 289Q384 289 371 302T357 335Q357 351 364 364T379 384L386 391Q386 392 381 394T362 398T330 400Q299 400 278 393T247 373T235 352T232 335Q232 322 242 312Q258 299 315 290T403 260Q457 224 457 167Q457 152 453 134T435 90T397 43T330 7T229 -8Q133 -8 95 22T57 91Q57 127 81 152T139 177Q161 177 177 164T194 121Q189 80 153 56Q179 43 236 43Q275 43 303 52T343 75T361 101T366 124Q366 148 338 161T272 180T232 186Q187 198 164 227T140 290Z"></path>
<path stroke-width="10" id="E1-MJMATHBI-74" d="M82 382H55Q21 382 21 399Q21 422 33 439Q39 444 93 444H144L162 517Q163 522 167 541T174 567T181 589T192 611T206 627T226 639T253 643Q276 643 291 630T306 594Q306 586 288 514Q284 499 280 481T273 454L271 445Q271 444 317 444Q322 444 331 444T345 445Q377 445 377 428Q377 408 368 390Q360 382 341 382H306H255Q182 86 182 75Q182 43 201 43H204Q242 46 279 81Q298 101 309 119T323 145T330 157T350 162H356H363Q377 162 382 160T387 146Q385 136 372 114T337 64T275 14T192 -7Q131 -7 95 19T59 90V105L128 381Q128 382 82 382Z"></path>
<path stroke-width="10" id="E1-MJMATHBI-75" d="M189 389Q189 397 187 399T176 401Q150 399 126 372T89 304Q84 288 81 285T61 282H55H44Q24 282 24 296Q24 307 35 331T65 383T117 431T187 452Q237 452 272 427T308 362Q308 347 273 254T238 111Q238 43 291 43Q319 43 344 58T380 86T391 103T426 247T464 396Q472 414 491 429T535 444T574 429T588 397Q588 390 570 315T534 168L516 97Q514 89 514 72Q514 42 531 42Q544 42 556 56Q574 76 589 134Q594 155 598 158T619 162H624H635Q655 162 655 148Q654 142 652 132T638 94T614 47T575 9T520 -8Q509 -8 498 -7T478 -3T461 2T446 8T434 16T424 23T416 29T410 35T406 39L405 41L397 34Q347 -7 288 -7H281Q148 -7 122 78Q116 95 116 125V136Q116 174 152 273T189 389Z"></path>
<path stroke-width="10" id="E1-MJMATHBI-76" d="M380 367Q380 397 406 425T465 453Q493 453 516 430T540 357Q540 314 524 250T467 115T373 13Q338 -8 292 -8Q218 -8 167 23T116 129Q116 178 152 275T189 388Q189 396 187 398T176 401Q148 398 125 372T89 304Q84 288 81 285T61 282H55H44Q24 282 24 296Q24 306 34 330T64 382T116 431T189 452Q231 452 269 429T308 362Q308 346 273 255T238 114Q238 43 306 43Q336 43 363 65T407 118T437 182T456 239T462 268Q462 290 417 315Q380 335 380 367Z"></path>
<path stroke-width="10" id="E1-MJMATHBI-77" d="M636 367Q636 400 664 426T719 453Q748 453 772 431T796 357Q796 321 782 256T727 112T633 6Q604 -8 567 -8Q466 -8 415 43Q414 42 410 38T403 31T396 25T388 18T378 11T367 5T355 0T340 -4T324 -7T306 -8Q249 -8 209 5T151 40T125 84T117 129Q117 176 153 274T190 388Q190 408 158 396Q112 376 90 306Q85 288 81 285T61 282H55H44Q24 282 24 296Q24 305 34 328T63 380T114 430T187 452Q240 452 274 427T309 362Q309 346 275 255T240 117Q240 43 317 43Q325 43 333 45T347 50T359 57T369 66T377 75T383 83T388 90L390 95Q390 99 389 110T387 129Q387 139 391 167Q393 177 419 282T448 396Q456 414 475 429T519 444Q546 444 559 428T572 397Q572 384 542 265T511 114Q511 43 579 43Q608 43 633 66T673 122T699 188T714 244L718 267Q718 291 673 315Q636 335 636 367Z"></path>
<path stroke-width="10" id="E1-MJMATHBI-78" d="M74 282H63Q43 282 43 296Q43 298 45 307T56 332T76 365T110 401T159 433Q200 451 233 451H236Q273 451 282 450Q358 437 382 400L392 410Q434 452 483 452Q538 452 568 421T599 346Q599 303 573 280T517 256Q494 256 478 270T462 308Q462 343 488 367Q501 377 520 385Q520 386 516 389T502 396T480 400T462 398Q429 383 415 341Q354 116 354 80T405 44Q449 44 485 74T535 142Q539 156 542 159T562 162H568H579Q599 162 599 148Q599 135 586 111T550 60T485 12T397 -8Q313 -8 266 35L258 44Q215 -7 161 -7H156Q99 -7 71 25T43 95Q43 143 70 165T125 188Q148 188 164 174T180 136Q180 101 154 77Q141 67 122 59Q124 54 136 49T161 43Q183 43 200 61T226 103Q287 328 287 364T236 400Q200 400 164 377T107 302Q103 288 100 285T80 282H74Z"></path>
<path stroke-width="10" id="E1-MJMATHBI-79" d="M206 -150Q240 -150 268 -134T314 -95T344 -48T362 -7T367 14Q339 -7 280 -7Q230 -7 195 5T144 39T122 79T115 122Q115 175 152 274T189 388Q189 396 187 398T176 401Q148 398 125 372T89 304Q84 288 81 285T61 282H55H44Q24 282 24 296Q24 306 34 329T64 381T116 431T188 452Q239 452 273 427T308 361Q308 347 273 253T237 109Q237 43 291 43T388 98Q388 99 425 246T463 396Q471 414 490 429T534 444T573 430T587 399Q587 386 537 186T483 -25Q461 -84 410 -126T296 -188Q248 -202 204 -202Q127 -202 96 -175T64 -114Q64 -82 86 -57T144 -31Q169 -31 184 -45T199 -83Q199 -89 198 -94T196 -104T193 -113T189 -120T184 -128T179 -134T173 -141T168 -147Q189 -150 206 -150Z"></path>
<path stroke-width="10" id="E1-MJMATHBI-7A" d="M66 -8H60Q34 -8 34 5Q34 9 42 22T70 59T115 110Q162 156 255 229T381 332L389 339H381Q348 332 298 329T212 325T172 321Q168 318 151 318H146Q116 318 116 332Q116 334 118 342Q128 374 154 402Q205 452 265 452Q304 452 352 422T426 392Q441 392 462 421T485 451T508 452H518Q539 452 539 438Q539 431 516 401T458 334Q412 289 312 210Q229 146 191 111L183 103H195Q203 103 213 104T240 107T268 110Q301 114 337 116T391 119T428 123T455 134T469 157Q473 166 495 166Q521 166 525 161Q532 156 528 141Q510 81 456 37T337 -7Q297 -7 251 22T177 52Q154 52 134 38T100 8L88 -7Q86 -8 66 -8Z"></path>
<path stroke-width="10" id="E1-MJMAINB-30" d="M266 654H280H282Q500 654 524 418Q529 370 529 320Q529 125 456 52Q397 -10 287 -10Q110 -10 63 154Q45 212 45 316Q45 504 113 585Q140 618 185 636T266 654ZM374 548Q347 604 286 604Q247 604 218 575Q197 552 193 511T188 311Q188 159 196 116Q202 87 225 64T287 41Q339 41 367 87Q379 107 382 152T386 329Q386 518 374 548Z"></path>
<path stroke-width="10" id="E1-MJMAINB-31" d="M481 0L294 3Q136 3 109 0H96V62H227V304Q227 546 225 546Q169 529 97 529H80V591H97Q231 591 308 647L319 655H333Q355 655 359 644Q361 640 361 351V62H494V0H481Z"></path>
<path stroke-width="10" id="E1-MJMAINB-32" d="M175 580Q175 578 185 572T205 551T215 510Q215 467 191 449T137 430Q107 430 83 448T58 511Q58 558 91 592T168 640T259 654Q328 654 383 637Q451 610 484 563T517 459Q517 401 482 360T368 262Q340 243 265 184L210 140H274Q416 140 429 145Q439 148 447 186T455 237H517V233Q516 230 501 119Q489 9 486 4V0H57V25Q57 51 58 54Q60 57 109 106T215 214T288 291Q364 377 364 458Q364 515 328 553T231 592Q214 592 201 589T181 584T175 580Z"></path>
<path stroke-width="10" id="E1-MJMAINB-33" d="M80 503Q80 565 133 610T274 655Q366 655 421 623T491 538Q493 528 493 510Q493 446 453 407T361 348L376 344Q452 324 489 281T526 184Q526 152 514 121T474 58T392 8T265 -11Q175 -11 111 34T48 152Q50 187 72 209T132 232Q171 232 193 208T216 147Q216 136 214 126T207 108T197 94T187 84T178 77T170 72L168 71Q168 70 179 65T215 54T266 48H270Q331 48 350 105Q358 128 358 185Q358 239 348 268T309 313Q292 321 242 322Q205 322 198 324T191 341V348Q191 366 196 369T232 375Q239 375 247 376T260 377T268 378Q284 383 297 393T326 436T341 517Q341 536 339 547T331 573T308 593T266 600Q248 600 241 599Q214 593 183 576Q234 556 234 503Q234 462 210 444T157 426Q126 426 103 446T80 503Z"></path>
<path stroke-width="10" id="E1-MJMAINB-34" d="M531 0Q510 3 381 3Q238 3 214 0H201V62H313V155H32V217L205 434Q342 606 362 630T387 655L391 656Q395 656 401 656T414 656H427Q447 656 451 645Q453 641 453 429V217H542V155H453V62H542V0H531ZM324 217V494L103 218L213 217H324Z"></path>
<path stroke-width="10" id="E1-MJMAINB-35" d="M100 565V605Q100 637 102 646T113 655Q116 655 139 647T202 631T286 623Q332 623 372 631T434 647T459 655Q466 655 469 651T472 643T472 629Q472 613 463 601Q370 487 219 487Q195 487 183 488T169 490T168 433V376Q169 376 174 379T188 387T211 397T244 405T288 409Q390 409 453 352T517 201Q517 106 445 48T253 -11Q169 -11 113 37T57 154Q57 187 79 208T131 229T183 209T206 154Q206 99 155 83Q152 82 157 78Q196 47 253 47Q347 47 358 135Q358 137 358 138Q360 158 360 209Q360 277 355 301T337 338Q315 358 282 358Q202 358 160 303Q153 294 149 292T130 290Q107 290 102 301Q100 304 100 474V565Z"></path>
<path stroke-width="10" id="E1-MJMAINB-36" d="M48 318Q48 395 68 456T120 553T193 613T273 646T350 655Q425 655 461 616T497 524Q497 485 475 468T428 451Q399 451 378 470T357 521Q357 565 403 588Q375 601 351 601Q313 601 282 584Q242 565 222 526Q199 473 199 367Q201 369 210 380T227 396T246 410T275 422T312 426Q438 426 494 332Q526 285 526 208V199Q526 112 465 53Q428 17 388 3T285 -11Q236 -11 195 7T135 43T104 80Q48 165 48 318ZM375 231V244V268Q375 295 373 310T364 342T341 366T299 374H297Q231 374 208 287Q200 257 200 196Q201 120 209 100Q231 47 288 47Q351 47 368 90Q375 112 375 231Z"></path>
<path stroke-width="10" id="E1-MJMAINB-37" d="M256 -11Q231 -11 208 5T185 65Q185 105 193 146T212 220T241 289T275 349T312 402T346 445T377 479T397 502L400 504H301Q156 503 150 497Q142 491 134 456T126 407H64V411Q65 414 82 544T99 675T130 676H161V673Q161 669 162 666T167 661T173 657T181 654T190 652T200 651T210 650T220 649T229 648Q237 648 254 647T276 646Q277 646 426 644H558V620V607Q558 596 551 586T509 537Q489 515 476 500Q390 401 384 393Q349 339 337 259T324 113T322 38Q307 -11 256 -11Z"></path>
<path stroke-width="10" id="E1-MJMAINB-38" d="M80 474Q80 561 139 607T278 654Q357 654 411 632Q490 593 494 509Q494 424 416 376L407 371L418 364Q432 356 447 345T481 312T513 260T526 192Q526 100 461 45T285 -11Q184 -11 116 32T48 164Q48 181 50 196T58 225T69 249T84 270T100 286T117 300T134 311T149 321T162 329L152 336Q120 360 100 397T80 474ZM347 404Q404 446 404 503Q404 579 317 599Q309 600 276 600Q178 600 170 538Q170 532 171 527T173 518T178 509T184 501T194 492T205 484T219 476T235 467T254 456T275 445L347 404ZM289 47Q323 47 351 54T402 82T425 137Q425 147 421 161Q411 183 391 197T303 249Q224 293 223 293Q220 291 215 288T197 273T175 248T157 213T149 167Q149 109 188 78T289 47Z"></path>
<path stroke-width="10" id="E1-MJMAINB-39" d="M178 59Q206 48 238 48Q311 48 345 102Q370 138 375 259V278Q374 278 369 271T350 252T322 232Q297 220 258 220Q172 220 110 275T48 438V446Q54 561 146 618Q199 654 278 654Q321 654 329 653Q526 621 526 330Q526 252 507 190T457 92T388 31T312 -2T240 -11Q165 -11 121 25T77 120Q77 159 99 176T147 193T194 177T217 122Q217 113 216 106T211 92T205 82T198 73T191 67T184 62T178 59ZM374 446V465Q374 523 364 552T315 598Q309 600 293 601Q227 601 210 562Q199 539 199 433Q199 343 204 319T235 279Q250 272 274 271H282Q293 271 303 274T327 288T353 323T371 385Q374 403 374 446Z"></path>
</defs>
<g stroke="currentColor" fill="currentColor" stroke-width="0" transform="matrix(1 0 0 -1 0 0)">
 <use xlink:href="#E1-MJMATHBI-73" x="0" y="0"></use>
 <use xlink:href="#E1-MJMATHBI-74" x="536" y="0"></use>
 <use xlink:href="#E1-MJMATHBI-75" x="956" y="0"></use>
 <use xlink:href="#E1-MJMATHBI-76" x="1642" y="0"></use>
 <use xlink:href="#E1-MJMATHBI-77" x="2214" y="0"></use>
 <use xlink:href="#E1-MJMATHBI-78" x="3050" y="0"></use>
 <use xlink:href="#E1-MJMATHBI-79" x="3714" y="0"></use>
 <use xlink:href="#E1-MJMATHBI-7A" x="4309" y="0"></use>
<g transform="translate(4869,0)">
 <use xlink:href="#E1-MJMAINB-30"></use>
 <use xlink:href="#E1-MJMAINB-31" x="580" y="0"></use>
 <use xlink:href="#E1-MJMAINB-32" x="1160" y="0"></use>
 <use xlink:href="#E1-MJMAINB-33" x="1740" y="0"></use>
 <use xlink:href="#E1-MJMAINB-34" x="2320" y="0"></use>
 <use xlink:href="#E1-MJMAINB-35" x="2900" y="0"></use>
 <use xlink:href="#E1-MJMAINB-36" x="3480" y="0"></use>
 <use xlink:href="#E1-MJMAINB-37" x="4060" y="0"></use>
 <use xlink:href="#E1-MJMAINB-38" x="4640" y="0"></use>
 <use xlink:href="#E1-MJMAINB-39" x="5220" y="0"></use>
</g>
</g>
</svg>