<?xml version="1.0" standalone="no"?>
<!DOCTYPE svg PUBLIC "-//W3C//DTD SVG 1.1//EN" "http://www.w3.org/Graphics/SVG/1.1/DTD/svg11.dtd">
<svg xmlns:xlink="http://www.w3.org/1999/xlink" width="10.408ex" height="4.009ex" style="vertical-align: -1.338ex;" viewBox="0 -1150.1 4481 1726.2" xmlns="http://www.w3.org/2000/svg">
<defs>
<path stroke-width="10" id="E1-MJAMS-22DA" d="M674 445Q674 438 669 432T655 425T369 531T90 640Q83 645 83 655Q83 668 95 673Q644 886 654 886Q662 886 668 880T674 866Q674 856 663 850Q649 843 411 751L160 655L407 560Q474 534 561 501Q646 469 660 462T674 445ZM84 250Q84 260 99 270H658Q674 264 674 250Q674 238 659 230H98Q84 237 84 250ZM83 55Q83 68 94 73Q98 76 104 76Q108 75 383 -30T664 -138Q674 -144 674 -155Q674 -165 667 -170Q664 -173 385 -279T104 -386Q85 -386 83 -368Q83 -354 92 -349Q93 -349 347 -251L597 -155L346 -59Q296 -40 223 -12Q118 28 101 36T83 55Z"></path>
<path stroke-width="10" id="E1-MJMAIN-2C" d="M78 35T78 60T94 103T137 121Q165 121 187 96T210 8Q210 -27 201 -60T180 -117T154 -158T130 -185T117 -194Q113 -194 104 -185T95 -172Q95 -168 106 -156T131 -126T157 -76T173 -3V9L172 8Q170 7 167 6T161 3T152 1T140 0Q113 0 96 17Z"></path>
<path stroke-width="10" id="E1-MJAMS-22DB" d="M111 425T102 425T88 431T83 445V446Q83 455 96 461Q111 469 203 504Q287 536 350 560L597 655L346 751Q94 848 92 850Q83 856 83 866Q83 873 88 879T104 886Q109 885 386 779T667 670Q674 665 674 655T667 640Q665 638 388 532ZM84 250Q84 260 99 270H658Q674 264 674 250Q674 238 659 230H98Q84 237 84 250ZM653 76Q656 76 660 75T669 68T674 56Q674 46 665 40Q663 38 411 -59L160 -155L410 -251Q664 -349 665 -349Q674 -354 674 -368Q672 -386 654 -386Q650 -386 371 -279T90 -170Q83 -165 83 -155Q83 -144 93 -138Q645 76 653 76Z"></path>
<path stroke-width="10" id="E1-MJAMS-2A8B" d="M674 1003Q681 1003 687 999T694 983Q694 973 683 967Q669 959 420 868L162 772L422 676Q683 579 685 577Q694 571 694 560Q694 550 687 546T673 541Q669 542 384 647T93 755Q83 760 83 772Q83 783 91 788Q98 791 383 897T674 1003ZM84 354T84 367T98 387H679Q694 379 694 367Q694 354 679 347H98Q84 354 84 367ZM84 160T84 173T98 193H679Q694 185 694 173Q694 160 679 153H98Q84 160 84 173ZM94 -3Q102 -1 104 -1Q107 -2 392 -107T684 -215Q694 -219 694 -232Q694 -241 687 -247Q686 -248 395 -357Q106 -463 101 -463Q83 -461 83 -443Q83 -431 94 -426Q97 -423 357 -328L615 -232L355 -136Q94 -39 92 -37Q83 -31 83 -21Q83 -9 94 -3Z"></path>
<path stroke-width="10" id="E1-MJAMS-2A8C" d="M104 541Q98 541 91 545T83 560Q83 571 92 577Q94 579 355 676L615 772L357 868Q108 959 94 967Q83 973 83 983Q83 989 87 996T104 1003Q109 1002 396 896T687 787Q694 781 694 772Q694 759 684 755Q678 752 393 647T104 541ZM84 367Q84 380 98 387H679Q694 379 694 367Q694 356 680 348L390 347H100Q84 352 84 367ZM84 173Q84 188 100 193H680Q694 183 694 173Q694 160 679 153H98Q84 160 84 173ZM674 -1Q682 -1 688 -6T694 -20Q694 -31 685 -37Q683 -39 422 -136L162 -232L420 -328Q680 -423 683 -426Q694 -431 694 -443Q694 -461 676 -463Q671 -463 382 -357Q91 -248 90 -247Q83 -242 83 -232Q83 -220 93 -215Q667 -1 674 -1Z"></path>
</defs>
<g stroke="currentColor" fill="currentColor" stroke-width="0" transform="matrix(1 0 0 -1 0 0)">
 <use xlink:href="#E1-MJAMS-22DA" x="0" y="0"></use>
 <use xlink:href="#E1-MJMAIN-2C" x="783" y="0"></use>
 <use xlink:href="#E1-MJAMS-22DB" x="1232" y="0"></use>
 <use xlink:href="#E1-MJMAIN-2C" x="2015" y="0"></use>
 <use xlink:href="#E1-MJAMS-2A8B" x="2465" y="0"></use>
 <use xlink:href="#E1-MJMAIN-2C" x="3248" y="0"></use>
 <use xlink:href="#E1-MJAMS-2A8C" x="3698" y="0"></use>
</g>
</svg>