<?xml version="1.0" standalone="no"?>
<!DOCTYPE svg PUBLIC "-//W3C//DTD SVG 1.1//EN" "http://www.w3.org/Graphics/SVG/1.1/DTD/svg11.dtd">
<svg xmlns:xlink="http://www.w3.org/1999/xlink" width="12.505ex" height="3.343ex" style="vertical-align: -1.338ex;" viewBox="0 -863.1 5384.2 1439.2" xmlns="http://www.w3.org/2000/svg">
<defs>
<path stroke-width="10" id="E1-MJCAL-41" d="M576 668Q576 688 606 708T660 728Q676 728 675 712V571Q675 409 688 252Q696 122 720 57Q722 53 723 50T728 46T732 43T737 41T743 39L754 45Q788 61 803 61Q819 61 819 47Q818 43 814 35Q799 15 755 -7T675 -30Q659 -30 648 -25T630 -8T621 11T614 34Q603 77 599 106T594 146T591 160V163H460L329 164L316 145Q241 35 196 -7T119 -50T59 -24T30 43Q30 75 46 100T74 125Q81 125 83 120T88 104T96 84Q118 57 151 57Q189 57 277 182Q432 400 542 625L559 659H567Q574 659 575 660T576 668ZM584 249Q579 333 577 386T575 473T574 520V581L563 560Q497 426 412 290L372 228L370 224H371L383 228L393 232H586L584 249Z"></path>
<path stroke-width="10" id="E1-MJCAL-4D" d="M28 9Q28 37 43 63T73 90Q77 90 83 84T103 70T141 57H146Q162 57 178 79T222 167Q266 279 295 371T334 513T349 598T358 651T371 677Q397 705 432 705Q442 705 445 699T452 666Q453 661 453 659Q475 538 509 405T568 207L574 192Q581 178 587 164T594 150Q596 150 635 189T693 248Q765 324 863 438T1024 626T1089 701Q1093 705 1100 705Q1111 705 1111 682Q1111 675 1108 660T1099 611T1086 540Q1041 277 1041 144Q1041 98 1044 75T1050 48T1059 42Q1064 41 1075 46Q1102 61 1121 61Q1137 61 1137 50Q1137 28 1087 0T1000 -29Q983 -29 972 -23T955 -9T945 16T942 45T941 83V96Q941 158 952 256T974 422L985 489Q984 489 939 436T821 300T698 164Q665 128 620 85T568 37Q564 34 558 34Q550 34 546 37T535 54Q512 91 496 127T450 259T389 498L384 518Q349 367 294 223T198 15Q155 -50 117 -50Q87 -50 61 -35T30 -6Q28 2 28 9Z"></path>
<path stroke-width="10" id="E1-MJCAL-53" d="M554 512Q536 512 536 522Q536 525 539 539T542 564Q542 588 528 604Q515 616 482 625T410 635Q374 635 349 624T312 594T295 561T290 532Q290 505 303 482T342 442T378 419T409 404Q435 391 451 383T494 357T535 323T562 282T574 231Q574 133 464 56T220 -22Q138 -22 78 21T18 123Q18 184 61 227T156 274Q178 274 178 263Q178 260 177 258Q172 247 164 239T151 227T136 218L127 213L124 202Q118 186 118 163Q120 124 165 86T292 48Q374 48 423 86T473 186V193Q473 267 347 327Q268 364 239 389Q191 431 191 486Q191 547 242 600T356 679T470 705Q472 705 478 705T489 704Q551 704 596 682T642 610Q642 566 621 545Q592 516 554 512Z"></path>
<path stroke-width="10" id="E1-MJMAIN-2D" d="M11 179V252H277V179H11Z"></path>
<path stroke-width="10" id="E1-MJMAIN-4C" d="M128 622Q121 629 117 631T101 634T58 637H25V683H36Q48 680 182 680Q324 680 348 683H360V637H333Q273 637 258 635T233 622L232 342V129Q232 57 237 52Q243 47 313 47Q384 47 410 53Q470 70 498 110T536 221Q536 226 537 238T540 261T542 272T562 273H582V268Q580 265 568 137T554 5V0H25V46H58Q100 47 109 49T128 61V622Z"></path>
<path stroke-width="10" id="E1-MJMAIN-41" d="M255 0Q240 3 140 3Q48 3 39 0H32V46H47Q119 49 139 88Q140 91 192 245T295 553T348 708Q351 716 366 716H376Q396 715 400 709Q402 707 508 390L617 67Q624 54 636 51T687 46H717V0H708Q699 3 581 3Q458 3 437 0H427V46H440Q510 46 510 64Q510 66 486 138L462 209H229L209 150Q189 91 189 85Q189 72 209 59T259 46H264V0H255ZM447 255L345 557L244 256Q244 255 345 255H447Z"></path>
<path stroke-width="10" id="E1-MJMAIN-54" d="M36 443Q37 448 46 558T55 671V677H666V671Q667 666 676 556T685 443V437H645V443Q645 445 642 478T631 544T610 593Q593 614 555 625Q534 630 478 630H451H443Q417 630 414 618Q413 616 413 339V63Q420 53 439 50T528 46H558V0H545L361 3Q186 1 177 0H164V46H194Q264 46 283 49T309 63V339V550Q309 620 304 625T271 630H244H224Q154 630 119 601Q101 585 93 554T81 486T76 443V437H36V443Z"></path>
<path stroke-width="10" id="E1-MJMAIN-45" d="M128 619Q121 626 117 628T101 631T58 634H25V680H597V676Q599 670 611 560T625 444V440H585V444Q584 447 582 465Q578 500 570 526T553 571T528 601T498 619T457 629T411 633T353 634Q266 634 251 633T233 622Q233 622 233 621Q232 619 232 497V376H286Q359 378 377 385Q413 401 416 469Q416 471 416 473V493H456V213H416V233Q415 268 408 288T383 317T349 328T297 330Q290 330 286 330H232V196V114Q232 57 237 52Q243 47 289 47H340H391Q428 47 452 50T505 62T552 92T584 146Q594 172 599 200T607 247T612 270V273H652V270Q651 267 632 137T610 3V0H25V46H58Q100 47 109 49T128 61V619Z"></path>
<path stroke-width="10" id="E1-MJMAIN-58" d="M270 0Q252 3 141 3Q46 3 31 0H23V46H40Q129 50 161 88Q165 94 244 216T324 339Q324 341 235 480T143 622Q133 631 119 634T57 637H37V683H46Q64 680 172 680Q297 680 318 683H329V637H324Q307 637 286 632T263 621Q263 618 322 525T384 431Q385 431 437 511T489 593Q490 595 490 599Q490 611 477 622T436 637H428V683H437Q455 680 566 680Q661 680 676 683H684V637H667Q585 634 551 599Q548 596 478 491Q412 388 412 387Q412 385 514 225T620 62Q628 53 642 50T695 46H726V0H717Q699 3 591 3Q466 3 445 0H434V46H440Q454 46 476 51T499 64Q499 67 463 124T390 238L353 295L350 292Q348 290 343 283T331 265T312 236T286 195Q219 88 218 84Q218 70 234 59T272 46H280V0H270Z"></path>
</defs>
<g stroke="currentColor" fill="currentColor" stroke-width="0" transform="matrix(1 0 0 -1 0 0)">
 <use xlink:href="#E1-MJCAL-41" x="0" y="0"></use>
<g transform="translate(824,0)">
 <use xlink:href="#E1-MJCAL-4D" x="-167" y="-371"></use>
</g>
 <use xlink:href="#E1-MJCAL-53" x="1796" y="0"></use>
 <use xlink:href="#E1-MJMAIN-2D" x="2388" y="0"></use>
<g transform="translate(2726,0)">
 <use xlink:href="#E1-MJMAIN-4C" x="0" y="0"></use>
<g transform="translate(463,0)">
<g transform="translate(-167,412)">
 <use transform="scale(0.707)" xlink:href="#E1-MJMAIN-41" x="0" y="-382"></use>
</g>
</g>
 <use xlink:href="#E1-MJMAIN-54" x="723" y="0"></use>
<g transform="translate(1450,0)">
 <use xlink:href="#E1-MJMAIN-45" x="-167" y="-346"></use>
</g>
 <use xlink:href="#E1-MJMAIN-58" x="1903" y="0"></use>
</g>
</g>
</svg>