<?xml version="1.0" standalone="no"?>
<!DOCTYPE svg PUBLIC "-//W3C//DTD SVG 1.1//EN" "http://www.w3.org/Graphics/SVG/1.1/DTD/svg11.dtd">
<svg xmlns:xlink="http://www.w3.org/1999/xlink" width="16.488ex" height="5.843ex" style="vertical-align: -2.338ex;" viewBox="0 -1508.9 7098.9 2515.6" xmlns="http://www.w3.org/2000/svg">
<defs>
<path stroke-width="10" id="E1-MJSZ2-222C" d="M114 -798Q132 -824 165 -824H167Q195 -824 223 -764T275 -600T320 -391T362 -164Q365 -143 367 -133Q439 292 523 655T645 1127Q651 1145 655 1157T672 1201T699 1257T733 1306T777 1346T828 1360Q884 1360 912 1325T944 1245Q944 1220 932 1205T909 1186T887 1183Q866 1183 849 1198T832 1239Q832 1287 885 1296L882 1300Q879 1303 874 1307T866 1313Q851 1323 833 1323Q819 1323 807 1311T775 1255T736 1139T689 936T633 628Q574 293 510 -5T410 -437T355 -629Q278 -862 165 -862Q125 -862 92 -831T55 -746Q55 -711 74 -698T112 -685Q133 -685 150 -700T167 -741Q167 -789 114 -798ZM642 -798Q660 -824 693 -824H695Q723 -824 751 -764T803 -600T848 -391T890 -164Q893 -143 895 -133Q967 292 1051 655T1173 1127Q1179 1145 1183 1157T1200 1201T1227 1257T1261 1306T1305 1346T1356 1360Q1412 1360 1440 1325T1472 1245Q1472 1220 1460 1205T1437 1186T1415 1183Q1394 1183 1377 1198T1360 1239Q1360 1287 1413 1296L1410 1300Q1407 1303 1402 1307T1394 1313Q1379 1323 1361 1323Q1347 1323 1335 1311T1303 1255T1264 1139T1217 936T1161 628Q1102 293 1038 -5T938 -437T883 -629Q806 -862 693 -862Q653 -862 620 -831T583 -746Q583 -711 602 -698T640 -685Q661 -685 678 -700T695 -741Q695 -789 642 -798Z"></path>
<path stroke-width="10" id="E1-MJMATHI-41" d="M208 74Q208 50 254 46Q272 46 272 35Q272 34 270 22Q267 8 264 4T251 0Q249 0 239 0T205 1T141 2Q70 2 50 0H42Q35 7 35 11Q37 38 48 46H62Q132 49 164 96Q170 102 345 401T523 704Q530 716 547 716H555H572Q578 707 578 706L606 383Q634 60 636 57Q641 46 701 46Q726 46 726 36Q726 34 723 22Q720 7 718 4T704 0Q701 0 690 0T651 1T578 2Q484 2 455 0H443Q437 6 437 9T439 27Q443 40 445 43L449 46H469Q523 49 533 63L521 213H283L249 155Q208 86 208 74ZM516 260Q516 271 504 416T490 562L463 519Q447 492 400 412L310 260L413 259Q516 259 516 260Z"></path>
<path stroke-width="10" id="E1-MJSZ2-222D" d="M114 -798Q132 -824 165 -824H167Q195 -824 223 -764T275 -600T320 -391T362 -164Q365 -143 367 -133Q439 292 523 655T645 1127Q651 1145 655 1157T672 1201T699 1257T733 1306T777 1346T828 1360Q884 1360 912 1325T944 1245Q944 1220 932 1205T909 1186T887 1183Q866 1183 849 1198T832 1239Q832 1287 885 1296L882 1300Q879 1303 874 1307T866 1313Q851 1323 833 1323Q819 1323 807 1311T775 1255T736 1139T689 936T633 628Q574 293 510 -5T410 -437T355 -629Q278 -862 165 -862Q125 -862 92 -831T55 -746Q55 -711 74 -698T112 -685Q133 -685 150 -700T167 -741Q167 -789 114 -798ZM642 -798Q660 -824 693 -824H695Q723 -824 751 -764T803 -600T848 -391T890 -164Q893 -143 895 -133Q967 292 1051 655T1173 1127Q1179 1145 1183 1157T1200 1201T1227 1257T1261 1306T1305 1346T1356 1360Q1412 1360 1440 1325T1472 1245Q1472 1220 1460 1205T1437 1186T1415 1183Q1394 1183 1377 1198T1360 1239Q1360 1287 1413 1296L1410 1300Q1407 1303 1402 1307T1394 1313Q1379 1323 1361 1323Q1347 1323 1335 1311T1303 1255T1264 1139T1217 936T1161 628Q1102 293 1038 -5T938 -437T883 -629Q806 -862 693 -862Q653 -862 620 -831T583 -746Q583 -711 602 -698T640 -685Q661 -685 678 -700T695 -741Q695 -789 642 -798ZM1150 -798Q1168 -824 1201 -824H1203Q1231 -824 1259 -764T1311 -600T1356 -391T1398 -164Q1401 -143 1403 -133Q1475 292 1559 655T1681 1127Q1687 1145 1691 1157T1708 1201T1735 1257T1769 1306T1813 1346T1864 1360Q1920 1360 1948 1325T1980 1245Q1980 1220 1968 1205T1945 1186T1923 1183Q1902 1183 1885 1198T1868 1239Q1868 1287 1921 1296L1918 1300Q1915 1303 1910 1307T1902 1313Q1887 1323 1869 1323Q1855 1323 1843 1311T1811 1255T1772 1139T1725 936T1669 628Q1610 293 1546 -5T1446 -437T1391 -629Q1314 -862 1201 -862Q1161 -862 1128 -831T1091 -746Q1091 -711 1110 -698T1148 -685Q1169 -685 1186 -700T1203 -741Q1203 -789 1150 -798Z"></path>
</defs>
<g stroke="currentColor" fill="currentColor" stroke-width="0" transform="matrix(1 0 0 -1 0 0)">
 <use xlink:href="#E1-MJSZ2-222C" x="0" y="0"></use>
 <use transform="scale(0.707)" xlink:href="#E1-MJMATHI-41" x="1540" y="-1283"></use>
<g transform="translate(1889,0)">
 <use xlink:href="#E1-MJSZ2-222D" x="0" y="0"></use>
 <use transform="scale(0.707)" xlink:href="#E1-MJMATHI-41" x="2258" y="-1283"></use>
</g>
<g transform="translate(4287,0)">
 <use xlink:href="#E1-MJSZ2-222C"></use>
 <use xlink:href="#E1-MJSZ2-222C" x="1089" y="0"></use>
 <use transform="scale(0.707)" xlink:href="#E1-MJMATHI-41" x="3080" y="-1283"></use>
</g>
</g>
</svg>