<?xml version="1.0" standalone="no"?>
<!DOCTYPE svg PUBLIC "-//W3C//DTD SVG 1.1//EN" "http://www.w3.org/Graphics/SVG/1.1/DTD/svg11.dtd">
<svg xmlns:xlink="http://www.w3.org/1999/xlink" width="5.642ex" height="2.343ex" style="vertical-align: -0.338ex;" viewBox="0 -863.1 2429 1008.6" xmlns="http://www.w3.org/2000/svg">
<defs>
<path stroke-width="10" id="E1-MJMAIN-2135" d="M55 613Q55 643 61 663T74 688T85 694Q94 694 94 681Q98 632 134 588L412 285Q416 311 430 397T447 509V519L438 526Q407 554 398 571T388 617T394 664T407 688T418 694Q425 694 427 684Q429 675 454 635T488 586Q490 584 496 579T513 563T537 540Q555 516 555 487Q555 460 549 441T537 416T528 409Q519 409 517 415T513 435T503 463Q492 481 490 481Q454 264 454 246Q454 237 479 212T529 152T555 79Q555 32 538 9Q531 1 524 1Q516 1 516 13Q512 62 476 106Q468 115 337 258T195 412L193 406Q191 401 189 394T183 377T176 352T171 322T167 284T165 240Q165 224 166 220Q171 199 211 152T252 70Q252 45 235 29T203 8T175 1Q170 0 115 0H79Q60 0 58 3T55 20Q55 31 58 34Q60 37 76 37Q112 39 126 46T140 70Q140 96 112 148T83 236Q83 281 102 334T140 419T159 452Q55 556 55 613Z"></path>
<path stroke-width="10" id="E1-MJAMS-2136" d="M56 706V726Q56 763 76 763Q83 763 87 759T98 741Q108 726 116 721L127 717L340 715Q547 712 564 709Q575 705 587 692Q599 680 605 663L609 650V137H676Q687 124 687 115Q687 110 678 100T622 43L558 -21H-9Q-22 -6 -22 -1T-13 14T42 72L107 137H569V339Q569 541 567 546Q558 555 554 557L545 563H329Q118 566 101 569Q90 573 78 586Q54 610 54 661Q54 670 56 706Z"></path>
<path stroke-width="10" id="E1-MJAMS-2137" d="M56 750Q68 764 76 764Q88 764 97 743T125 717Q131 715 240 715T358 713Q421 691 421 640Q421 608 399 588T358 566Q353 566 352 565T351 557L356 526Q356 488 379 346T402 97Q400 21 385 -12Q366 -43 351 -43Q335 -43 329 -10Q316 40 316 64Q316 67 315 67Q313 67 269 26L222 -21H-9Q-22 -7 -22 -1Q-22 4 -14 14T42 73L107 137H311V564H211H164Q115 564 93 573T60 615Q56 630 56 690V750Z"></path>
<path stroke-width="10" id="E1-MJAMS-2138" d="M62 757Q69 764 75 764Q87 764 97 741Q102 731 105 728T117 721L129 715H349Q569 715 580 710Q618 701 635 670Q640 661 640 639Q640 609 622 590Q617 583 604 575T580 566H573V553Q575 547 576 531T582 469T600 353Q624 205 624 104Q624 46 617 17T591 -32Q581 -43 573 -43Q550 -43 540 44Q535 73 533 319V564H322Q117 566 100 570Q90 573 77 586Q54 609 54 663Q54 689 55 706Q55 738 56 745T62 757Z"></path>
</defs>
<g stroke="currentColor" fill="currentColor" stroke-width="0" transform="matrix(1 0 0 -1 0 0)">
 <use xlink:href="#E1-MJMAIN-2135" x="0" y="0"></use>
 <use xlink:href="#E1-MJAMS-2136" x="616" y="0"></use>
 <use xlink:href="#E1-MJAMS-2137" x="1308" y="0"></use>
 <use xlink:href="#E1-MJAMS-2138" x="1757" y="0"></use>
</g>
</svg>