<?xml version="1.0" standalone="no"?>
<!DOCTYPE svg PUBLIC "-//W3C//DTD SVG 1.1//EN" "http://www.w3.org/Graphics/SVG/1.1/DTD/svg11.dtd">
<svg xmlns:xlink="http://www.w3.org/1999/xlink" width="12.986ex" height="1.843ex" style="vertical-align: -0.671ex;" viewBox="0 -504.3 5591 793.3" xmlns="http://www.w3.org/2000/svg">
<defs>
<path stroke-width="10" id="E1-MJAMS-21A0" d="M943 250Q895 221 856 177T801 83H778Q755 83 755 84Q755 86 762 103T791 156T841 222L848 230H723L714 223Q677 194 650 155T611 83H565Q565 87 575 108T606 162T650 221L659 230H365Q66 230 62 234L61 235Q55 241 55 250T61 265L62 266Q66 270 365 270H659L650 279Q627 304 606 337T575 392T565 417H611Q622 384 649 345T714 277L723 270H848L841 278Q813 309 792 344T763 396T755 416Q755 417 778 417H801Q817 367 856 323T943 250Z"></path>
<path stroke-width="10" id="E1-MJMAIN-2C" d="M78 35T78 60T94 103T137 121Q165 121 187 96T210 8Q210 -27 201 -60T180 -117T154 -158T130 -185T117 -194Q113 -194 104 -185T95 -172Q95 -168 106 -156T131 -126T157 -76T173 -3V9L172 8Q170 7 167 6T161 3T152 1T140 0Q113 0 96 17Z"></path>
<path stroke-width="10" id="E1-MJAMS-219E" d="M56 250Q103 277 142 322T199 417H221Q244 417 244 416Q244 414 237 397T208 344T158 278L151 270H276L285 277Q322 306 349 345T388 417H434Q434 413 424 392T393 338T349 279L340 270H634Q933 270 937 266L938 265Q944 259 944 250T938 235L937 234Q933 230 634 230H340L349 221Q372 196 393 163T424 108T434 83H388Q377 116 350 155T285 223L276 230H151L158 222Q186 191 207 156T236 104T244 84Q244 83 221 83H199Q181 133 142 178T56 250Z"></path>
<path stroke-width="10" id="E1-MJAMS-21A3" d="M1054 250Q1006 221 967 177T912 83H889Q866 83 866 84Q866 86 873 103T902 156T952 222L959 230H237L228 223Q191 194 164 155T125 83H79Q79 87 89 108T120 162T164 221L173 230V270L164 279Q141 304 120 337T89 392T79 417H125Q136 384 163 345T228 277L237 270H959L952 278Q924 309 903 344T874 396T866 416Q866 417 889 417H912Q928 367 967 323T1054 250Z"></path>
<path stroke-width="10" id="E1-MJAMS-21A2" d="M56 250Q103 277 142 322T199 417H221Q244 417 244 416Q244 414 237 397T208 344T158 278L151 270H873L882 277Q919 306 946 345T985 417H1031Q1031 413 1021 392T990 338T946 279L937 270V230L946 221Q969 196 990 163T1021 108T1031 83H985Q974 116 947 155T882 223L873 230H151L158 222Q186 191 207 156T236 104T244 84Q244 83 221 83H199Q181 133 142 178T56 250Z"></path>
</defs>
<g stroke="currentColor" fill="currentColor" stroke-width="0" transform="matrix(1 0 0 -1 0 0)">
 <use xlink:href="#E1-MJAMS-21A0" x="0" y="0"></use>
 <use xlink:href="#E1-MJMAIN-2C" x="1005" y="0"></use>
 <use xlink:href="#E1-MJAMS-219E" x="1454" y="0"></use>
 <use xlink:href="#E1-MJMAIN-2C" x="2459" y="0"></use>
 <use xlink:href="#E1-MJAMS-21A3" x="2909" y="0"></use>
 <use xlink:href="#E1-MJMAIN-2C" x="4025" y="0"></use>
 <use xlink:href="#E1-MJAMS-21A2" x="4475" y="0"></use>
</g>
</svg>