<?xml version="1.0" standalone="no"?>
<!DOCTYPE svg PUBLIC "-//W3C//DTD SVG 1.1//EN" "http://www.w3.org/Graphics/SVG/1.1/DTD/svg11.dtd">
<svg xmlns:xlink="http://www.w3.org/1999/xlink" width="12.47ex" height="2.343ex" style="vertical-align: -0.671ex;" viewBox="0 -719.6 5369 1008.6" xmlns="http://www.w3.org/2000/svg">
<defs>
<path stroke-width="10" id="E1-MJMAIN-21D2" d="M580 514Q580 525 596 525Q601 525 604 525T609 525T613 524T615 523T617 520T619 517T622 512Q659 438 720 381T831 300T927 263Q944 258 944 250T935 239T898 228T840 204Q696 134 622 -12Q618 -21 615 -22T600 -24Q580 -24 580 -17Q580 -13 585 0Q620 69 671 123L681 133H70Q56 140 56 153Q56 168 72 173H725L735 181Q774 211 852 250Q851 251 834 259T789 283T735 319L725 327H72Q56 332 56 347Q56 360 70 367H681L671 377Q638 412 609 458T580 514Z"></path>
<path stroke-width="10" id="E1-MJMAIN-2C" d="M78 35T78 60T94 103T137 121Q165 121 187 96T210 8Q210 -27 201 -60T180 -117T154 -158T130 -185T117 -194Q113 -194 104 -185T95 -172Q95 -168 106 -156T131 -126T157 -76T173 -3V9L172 8Q170 7 167 6T161 3T152 1T140 0Q113 0 96 17Z"></path>
<path stroke-width="10" id="E1-MJMAIN-21D0" d="M944 153Q944 140 929 133H318L328 123Q379 69 414 0Q419 -13 419 -17Q419 -24 399 -24Q388 -24 385 -23T377 -12Q332 77 253 144T72 237Q62 240 59 242T56 250T59 257T70 262T89 268T119 278T160 296Q303 366 377 512Q382 522 385 523T401 525Q419 524 419 515Q419 510 414 500Q379 431 328 377L318 367H929Q944 359 944 347Q944 336 930 328L602 327H274L264 319Q225 289 147 250Q148 249 165 241T210 217T264 181L274 173H930Q931 172 933 171T936 169T938 167T941 164T942 162T943 158T944 153Z"></path>
<path stroke-width="10" id="E1-MJAMS-21DB" d="M56 250Q56 260 68 270H808L799 277Q720 338 663 414L655 424H363Q71 424 68 426Q55 432 55 444T68 462Q71 464 349 464H627Q627 466 622 474T604 504T577 558Q557 609 557 610T591 611H626L629 600Q717 376 912 257L923 250L912 243Q715 123 629 -100L626 -111H591Q557 -111 557 -110Q576 -50 618 20Q619 22 620 25T623 29T625 32T626 35L627 36H349Q71 36 68 38Q55 44 55 56T68 74Q71 76 363 76H655L663 86Q722 164 799 223L808 230H438L68 231Q56 236 56 250Z"></path>
<path stroke-width="10" id="E1-MJAMS-21DA" d="M944 54Q942 44 929 36H372Q372 34 377 26T395 -4T422 -58Q442 -109 442 -110T408 -111H374L370 -100Q282 124 87 243L76 250L87 257Q284 377 370 600L374 611H408Q442 611 442 610Q423 550 381 480Q380 478 379 475T376 471T374 468T372 465V464H929Q942 456 944 446Q944 442 943 439T941 434T938 430T935 428T931 426T928 424H344L336 414Q277 336 200 277L191 270H560Q929 270 933 268Q944 262 944 250Q944 237 933 232Q929 230 560 230H191L200 223Q279 162 336 86L344 76H928Q929 76 931 75T934 73T938 70T941 66T943 61T944 54Z"></path>
</defs>
<g stroke="currentColor" fill="currentColor" stroke-width="0" transform="matrix(1 0 0 -1 0 0)">
 <use xlink:href="#E1-MJMAIN-21D2" x="0" y="0"></use>
 <use xlink:href="#E1-MJMAIN-2C" x="1005" y="0"></use>
 <use xlink:href="#E1-MJMAIN-21D0" x="1454" y="0"></use>
 <use xlink:href="#E1-MJMAIN-2C" x="2459" y="0"></use>
 <use xlink:href="#E1-MJAMS-21DB" x="2909" y="0"></use>
 <use xlink:href="#E1-MJMAIN-2C" x="3914" y="0"></use>
 <use xlink:href="#E1-MJAMS-21DA" x="4364" y="0"></use>
</g>
</svg>