<?xml version="1.0" standalone="no"?>
<!DOCTYPE svg PUBLIC "-//W3C//DTD SVG 1.1//EN" "http://www.w3.org/Graphics/SVG/1.1/DTD/svg11.dtd">
<svg xmlns:xlink="http://www.w3.org/1999/xlink" width="12.739ex" height="2.676ex" style="vertical-align: -0.838ex;" viewBox="0 -791.3 5485 1152.1" xmlns="http://www.w3.org/2000/svg">
<defs>
<path stroke-width="10" id="E1-MJMATHBI-3C1" d="M307 -8Q277 -8 251 0T215 14L205 20Q203 18 193 -25T171 -114T155 -168Q134 -211 87 -211Q64 -211 49 -198T34 -162Q34 -158 137 254Q153 299 179 334T232 390T277 419T311 434Q357 451 403 451Q435 451 455 449T506 435T560 400Q603 357 603 285Q603 172 520 82T307 -8ZM474 343Q474 364 458 382T409 400H406Q339 400 299 341Q281 313 264 257Q261 248 242 170T222 89Q222 84 230 74T260 54T308 43Q334 43 365 57T417 110Q437 145 456 228Q474 298 474 332V343Z"></path>
<path stroke-width="10" id="E1-MJMATHBI-3C3" d="M35 151Q35 190 51 236T99 327T184 404T306 443Q307 443 316 443T342 443T378 444T425 444T476 444Q606 444 626 444T655 439Q677 426 677 400Q677 358 639 340Q625 333 563 333Q510 333 510 331Q518 319 518 272Q518 155 437 74T226 -8Q123 -8 79 41T35 151ZM396 278Q396 314 375 323T305 332Q249 332 222 310T180 243Q171 219 162 178T153 116V110Q153 43 234 43Q347 43 382 199Q383 203 383 204Q396 255 396 278Z"></path>
<path stroke-width="10" id="E1-MJMATHBI-3C4" d="M55 289H43Q23 289 23 303Q23 308 33 322Q116 434 199 443Q200 444 386 444Q571 444 577 442Q588 441 599 432T610 402Q610 359 572 340Q561 335 547 334T452 333H353V331Q352 330 342 261T320 119T306 40Q300 18 281 3Q257 -13 233 -13Q210 -13 196 0T181 35Q181 44 182 48Q183 53 229 187T279 331Q279 333 228 333H209Q163 333 136 328T88 301L77 290L55 289Z"></path>
<path stroke-width="10" id="E1-MJMATHBI-3C5" d="M189 388Q189 396 187 398T176 401Q144 399 122 369T89 304Q84 288 81 285T61 282H55H44Q24 282 24 296Q24 306 34 330T64 382T116 431T188 452Q232 452 270 430T308 361Q308 345 275 258T241 123Q241 44 336 44H344Q380 44 415 73T474 140T511 214T526 267Q526 280 513 292Q505 301 486 311T456 333T444 367Q444 400 471 426T529 453Q555 453 579 431T604 358Q604 327 592 271T557 172Q550 157 541 142T510 97T464 47T404 9T328 -8Q264 -8 219 5T154 41T125 85T117 131Q117 182 153 277T189 388Z"></path>
<path stroke-width="10" id="E1-MJMATHBI-3D5" d="M274 -7Q232 -4 195 7T125 38T71 94T51 176V190Q51 213 60 242T95 307T156 373T255 425T393 451L397 452L427 568Q434 597 443 636Q452 677 456 685T472 694H486H495Q517 694 517 680L514 665Q510 650 503 621T489 564L460 451H469Q527 447 574 430T657 370T693 266Q693 163 599 82T350 -7H346L322 -100Q301 -190 295 -197Q291 -202 283 -202H269H258Q238 -202 238 -188Q238 -186 260 -96L283 -7H274ZM449 400Q448 400 404 225T359 47T366 45Q464 55 516 119Q542 149 558 199T575 295Q575 387 462 398L449 400ZM384 398Q384 399 381 399Q350 399 298 378T214 308Q168 236 168 149Q168 68 259 49Q282 44 294 44H295L384 398Z"></path>
<path stroke-width="10" id="E1-MJMATHBI-3C7" d="M58 -194Q32 -194 32 -164Q32 -153 46 -139L175 -13Q296 104 296 106Q271 232 226 308Q165 401 141 401Q128 401 117 390T100 365Q94 350 91 349T69 346H45Q35 348 35 359Q35 380 62 411T133 450Q143 452 165 452Q286 452 329 402Q347 379 366 333T394 254T404 215Q404 213 405 213Q405 212 420 227T463 268T520 324Q637 437 640 438Q647 444 661 444Q667 444 676 438T685 419Q685 405 670 389T549 271L420 145Q433 85 444 53Q466 -25 509 -88T575 -151Q590 -151 600 -140T617 -114T626 -98Q629 -96 650 -96H655Q681 -96 681 -108Q681 -114 679 -119Q670 -148 646 -169T591 -199Q581 -201 550 -201Q422 -201 381 -143Q345 -88 316 20L311 39L230 -40Q144 -126 114 -153Q85 -182 77 -188T58 -194Z"></path>
<path stroke-width="10" id="E1-MJMATHBI-3C8" d="M244 141Q244 117 254 98T277 70T305 55T329 48T342 47L344 48L424 366Q501 678 505 686Q508 691 512 692T533 694T555 693T562 688T565 683Q565 678 486 362T406 45Q406 43 415 43Q467 49 514 78T590 143T636 213T653 266Q653 282 641 293T613 311T585 332T572 367Q572 397 598 425T657 453Q684 453 708 430T732 358Q732 330 723 287T706 225Q671 124 578 58T401 -8H393L370 -101Q346 -196 345 -197Q340 -202 316 -202H306Q286 -202 286 -188Q286 -187 296 -144T318 -57T331 -8Q331 -6 328 -6Q290 -6 233 11T148 62Q119 97 119 146Q119 181 154 275T190 388Q190 401 181 401Q154 401 129 375T90 306Q85 288 81 285T61 282H55H44Q24 282 24 296Q24 306 34 329T64 381T116 431T189 452Q237 452 273 428T309 362Q309 343 277 260T244 141Z"></path>
<path stroke-width="10" id="E1-MJMATHBI-3C9" d="M532 367Q532 399 559 426T618 453Q645 453 668 430T691 357Q691 319 677 261T649 171Q640 149 626 125T586 68T521 14T438 -7Q401 -7 372 7T333 30T311 57Q246 -8 165 -8Q119 -8 82 19T30 102Q24 126 24 163V178Q24 210 37 255Q61 346 118 424Q141 451 161 451Q174 451 184 443T194 419Q194 402 179 387Q91 273 91 206Q91 159 122 138T189 117T281 145V173Q283 223 294 253Q304 276 323 289T364 303Q386 303 400 287T415 250Q415 219 385 157L378 144Q378 142 388 136T419 124T462 117Q522 117 566 165T610 255Q610 288 561 320Q532 337 532 367Z"></path>
</defs>
<g stroke="currentColor" fill="currentColor" stroke-width="0" transform="matrix(1 0 0 -1 0 0)">
 <use xlink:href="#E1-MJMATHBI-3C1" x="0" y="0"></use>
 <use xlink:href="#E1-MJMATHBI-3C3" x="617" y="0"></use>
 <use xlink:href="#E1-MJMATHBI-3C4" x="1308" y="0"></use>
 <use xlink:href="#E1-MJMATHBI-3C5" x="1923" y="0"></use>
 <use xlink:href="#E1-MJMATHBI-3D5" x="2559" y="0"></use>
 <use xlink:href="#E1-MJMATHBI-3C7" x="3276" y="0"></use>
 <use xlink:href="#E1-MJMATHBI-3C8" x="3999" y="0"></use>
 <use xlink:href="#E1-MJMATHBI-3C9" x="4762" y="0"></use>
</g>
</svg>