<?xml version="1.0" standalone="no"?>
<!DOCTYPE svg PUBLIC "-//W3C//DTD SVG 1.1//EN" "http://www.w3.org/Graphics/SVG/1.1/DTD/svg11.dtd">
<svg xmlns:xlink="http://www.w3.org/1999/xlink" width="5.453ex" height="2.343ex" style="vertical-align: -0.338ex;" viewBox="0 -863.1 2348 1008.6" xmlns="http://www.w3.org/2000/svg">
<defs>
<path stroke-width="10" id="E1-MJMAIN-25B3" d="M75 0L72 2Q69 3 67 5T62 11T59 20Q59 24 62 30Q65 37 245 370T428 707Q428 708 430 710T436 714T444 716Q451 716 455 712Q459 710 644 368L828 27V20Q828 7 814 0H75ZM610 347L444 653Q443 653 278 347T113 40H775Q775 42 610 347Z"></path>
<path stroke-width="10" id="E1-MJAMS-25B2" d="M99 -20Q84 -11 84 0Q84 5 148 145T278 424L342 563Q347 575 360 575Q368 575 375 570Q376 569 441 430T571 148T637 0Q637 -11 622 -20H99Z"></path>
<path stroke-width="10" id="E1-MJAMS-25BC" d="M84 556Q84 567 99 576H622Q637 567 637 556Q637 551 572 409T441 127T375 -14Q368 -19 360 -19H358Q349 -19 342 -7T296 92Q249 193 211 275Q84 550 84 556Z"></path>
</defs>
<g stroke="currentColor" fill="currentColor" stroke-width="0" transform="matrix(1 0 0 -1 0 0)">
 <use xlink:href="#E1-MJMAIN-25B3" x="0" y="0"></use>
 <use xlink:href="#E1-MJAMS-25B2" x="894" y="0"></use>
 <use xlink:href="#E1-MJAMS-25BC" x="1621" y="0"></use>
</g>
</svg>