<?xml version="1.0" standalone="no"?>
<!DOCTYPE svg PUBLIC "-//W3C//DTD SVG 1.1//EN" "http://www.w3.org/Graphics/SVG/1.1/DTD/svg11.dtd">
<svg xmlns:xlink="http://www.w3.org/1999/xlink" width="13.501ex" height="3.843ex" style="vertical-align: -1.338ex;" viewBox="0 -1078.4 5813 1654.5" xmlns="http://www.w3.org/2000/svg">
<defs>
<path stroke-width="10" id="E1-MJSZ2-22C3" d="M56 911Q58 926 71 938T103 950Q120 950 134 939T152 911Q153 907 153 463Q153 16 154 6Q165 -143 279 -247T556 -352Q716 -352 830 -248T956 6Q957 16 957 463Q957 907 958 911Q962 928 975 939T1006 950T1037 939T1054 911Q1055 906 1055 451Q1054 -5 1053 -16Q1029 -207 889 -328T555 -449Q363 -449 226 -331T62 -45Q57 -16 57 25T55 451Q55 906 56 911Z"></path>
<path stroke-width="10" id="E1-MJMAIN-2C" d="M78 35T78 60T94 103T137 121Q165 121 187 96T210 8Q210 -27 201 -60T180 -117T154 -158T130 -185T117 -194Q113 -194 104 -185T95 -172Q95 -168 106 -156T131 -126T157 -76T173 -3V9L172 8Q170 7 167 6T161 3T152 1T140 0Q113 0 96 17Z"></path>
<path stroke-width="10" id="E1-MJSZ2-22C2" d="M57 516Q68 602 104 675T190 797T301 882T423 933T542 949Q594 949 606 948Q780 928 901 815T1048 545Q1053 516 1053 475T1055 49Q1055 -406 1054 -410Q1051 -427 1037 -438T1006 -450T976 -439T958 -411Q957 -407 957 37Q957 484 956 494Q945 643 831 747T554 852Q481 852 411 826Q301 786 232 696T154 494Q153 484 153 37Q153 -407 152 -411Q148 -428 135 -439T104 -450T73 -439T56 -410Q55 -406 55 49Q56 505 57 516Z"></path>
<path stroke-width="10" id="E1-MJSZ2-2A04" d="M56 911Q58 926 71 938T103 950Q120 950 134 939T152 911Q153 907 153 463Q153 16 154 6Q165 -143 279 -247T556 -352Q716 -352 830 -248T956 6Q957 16 957 463Q957 907 958 911Q962 928 975 939T1006 950T1037 939T1054 911Q1055 906 1055 451Q1054 -5 1053 -16Q1029 -207 889 -328T555 -449Q363 -449 226 -331T62 -45Q57 -16 57 25T55 451Q55 906 56 911ZM507 554Q511 570 523 581T554 593Q571 593 585 582T603 554Q604 551 604 443V338H709Q817 338 820 337Q835 334 847 321T859 290Q859 254 819 241Q816 240 709 240H604V134Q604 48 604 34T598 11Q583 -15 555 -15Q526 -15 512 11Q507 20 507 34T506 134V240H401H344Q292 240 278 246Q251 259 251 290Q251 309 264 321T290 337Q293 338 401 338H506V443Q506 551 507 554Z"></path>
<path stroke-width="10" id="E1-MJSZ2-2A06" d="M56 911Q60 927 72 938T103 950Q120 950 134 939T152 911Q153 907 153 277V-352H957V277Q957 907 958 911Q962 928 975 939T1006 950T1036 939T1054 911V891Q1054 871 1054 836T1054 754T1054 647T1055 525T1055 390T1055 250T1055 111T1055 -24T1055 -147T1054 -253T1054 -335T1054 -391V-411Q1047 -442 1016 -449Q1011 -450 552 -450L94 -449Q63 -439 56 -411V-391Q56 -371 56 -336T56 -254T56 -147T55 -25T55 110T55 250T55 389T55 524T55 647T56 753T56 835T56 891V911Z"></path>
</defs>
<g stroke="currentColor" fill="currentColor" stroke-width="0" transform="matrix(1 0 0 -1 0 0)">
 <use xlink:href="#E1-MJSZ2-22C3" x="0" y="-1"></use>
 <use xlink:href="#E1-MJMAIN-2C" x="1116" y="0"></use>
 <use xlink:href="#E1-MJSZ2-22C2" x="1565" y="1"></use>
 <use xlink:href="#E1-MJMAIN-2C" x="2681" y="0"></use>
 <use xlink:href="#E1-MJSZ2-2A04" x="3131" y="-1"></use>
 <use xlink:href="#E1-MJMAIN-2C" x="4247" y="0"></use>
 <use xlink:href="#E1-MJSZ2-2A06" x="4697" y="0"></use>
</g>
</svg>