<?xml version="1.0" standalone="no"?>
<!DOCTYPE svg PUBLIC "-//W3C//DTD SVG 1.1//EN" "http://www.w3.org/Graphics/SVG/1.1/DTD/svg11.dtd">
<svg xmlns:xlink="http://www.w3.org/1999/xlink" width="10.408ex" height="3.176ex" style="vertical-align: -1.171ex;" viewBox="0 -863.1 4481 1367.4" xmlns="http://www.w3.org/2000/svg">
<defs>
<path stroke-width="10" id="E1-MJAMS-22E8" d="M95 419Q81 433 81 439T95 459H124Q318 459 455 501Q515 521 556 550T615 607T641 659T652 702T659 725Q667 730 673 730Q680 730 686 724T693 710Q693 682 677 641Q668 616 654 594T622 554T586 522T545 497T504 477T464 462T428 452T397 444T375 439Q379 437 410 430T476 411T551 379T625 321T677 237Q693 196 693 168Q693 161 687 155T673 148Q662 148 658 154T651 181Q638 253 591 300T455 377Q318 419 124 419H95ZM55 -205Q55 -175 64 -142T92 -76T145 -22T222 -1Q288 -1 362 -66Q369 -72 372 -75T378 -79T382 -81T384 -79Q389 -74 439 21Q483 100 490 111T504 122Q510 122 518 118T526 103Q526 101 510 69T467 -12T419 -99L413 -112L433 -128Q498 -180 553 -180Q605 -180 646 -139Q672 -112 681 -77T693 -21T706 -1Q719 -1 719 -33Q719 -39 717 -57Q708 -141 655 -190Q625 -224 586 -232Q568 -237 551 -237Q487 -237 413 -172L391 -155Q391 -157 335 -255Q297 -325 286 -342T268 -359Q260 -359 254 -353T248 -339T304 -230L359 -126Q359 -124 337 -107T302 -81Q262 -57 221 -57Q170 -57 130 -93T84 -201Q82 -236 70 -236Q55 -236 55 -205Z"></path>
<path stroke-width="10" id="E1-MJMAIN-2C" d="M78 35T78 60T94 103T137 121Q165 121 187 96T210 8Q210 -27 201 -60T180 -117T154 -158T130 -185T117 -194Q113 -194 104 -185T95 -172Q95 -168 106 -156T131 -126T157 -76T173 -3V9L172 8Q170 7 167 6T161 3T152 1T140 0Q113 0 96 17Z"></path>
<path stroke-width="10" id="E1-MJAMS-22E9" d="M679 459Q693 445 693 439Q693 430 679 419H651Q455 419 319 377Q231 347 184 300T124 181Q120 161 116 155T102 148Q95 148 89 154T82 168Q82 192 97 237Q111 275 137 306T188 355T249 391T307 414T361 429T399 439Q397 440 364 447T298 467T224 499T149 557T97 641Q82 686 82 710Q82 717 88 723T102 730L115 725Q118 722 124 697Q137 625 184 578T319 501Q456 459 651 459H679ZM55 -205Q55 -175 64 -142T92 -76T145 -22T222 -1Q288 -1 362 -66Q369 -72 372 -75T378 -79T382 -81T384 -79Q389 -74 439 21Q483 100 490 111T504 122Q510 122 518 118T526 103Q526 101 510 69T467 -12T419 -99L413 -112L433 -128Q498 -180 553 -180Q605 -180 646 -139Q672 -112 681 -77T693 -21T706 -1Q719 -1 719 -33Q719 -39 717 -57Q708 -141 655 -190Q625 -224 586 -232Q568 -237 551 -237Q487 -237 413 -172L391 -155Q391 -157 335 -255Q297 -325 286 -342T268 -359Q260 -359 254 -353T248 -339T304 -230L359 -126Q359 -124 337 -107T302 -81Q262 -57 221 -57Q170 -57 130 -93T84 -201Q82 -236 70 -236Q55 -236 55 -205Z"></path>
<path stroke-width="10" id="E1-MJAMS-2AB9" d="M82 494T82 501T95 521H171Q256 523 317 528T441 548T543 584T613 644T651 732Q652 734 653 740T655 748T658 754T663 759T672 761L686 754Q693 747 693 734Q686 686 664 647T615 586T548 545T482 518T417 501Q419 500 451 493T517 471T590 434T657 367T693 267Q693 241 673 241Q664 241 659 245Q656 249 650 273T635 323T593 380T511 432Q406 474 171 481H95Q82 494 82 501ZM57 -26Q57 39 101 87T219 136Q254 136 277 130Q320 114 382 72Q419 50 424 45Q426 45 459 110Q496 178 497 179Q500 180 504 180Q509 180 517 175T526 161Q526 158 495 90L462 25Q462 21 502 5Q519 1 553 1Q586 1 602 5Q641 18 664 45T691 107Q694 136 706 136T718 115Q718 114 718 111T717 105Q717 39 671 -9T554 -58L459 -33Q450 -29 444 -27T437 -26L371 -155L391 -168Q485 -235 538 -235H553Q586 -235 602 -230Q683 -204 691 -128Q694 -99 706 -99T718 -120Q718 -121 718 -124T717 -130Q717 -199 670 -246T557 -294T393 -228Q353 -205 351 -201Q348 -201 315 -266Q294 -310 285 -323T268 -337Q259 -337 254 -331T248 -317Q248 -305 282 -246L313 -181Q313 -177 273 -161Q255 -157 222 -157Q188 -157 173 -161Q134 -174 113 -198T88 -242T82 -278T71 -294Q57 -294 57 -261Q57 -204 91 -161T179 -104Q195 -99 228 -99Q274 -102 315 -124Q337 -132 337 -130L404 -1L384 12Q319 58 273 74Q255 79 222 79Q188 79 173 74Q133 61 112 37T88 -7T82 -43T70 -59Q57 -59 57 -26Z"></path>
<path stroke-width="10" id="E1-MJAMS-2ABA" d="M693 501Q693 493 679 481H604Q548 479 509 477T418 469T331 454T257 429T194 392T150 340T124 270Q117 247 115 245Q101 236 88 247Q82 254 82 267Q89 330 126 379Q147 411 202 444T333 494L357 501Q239 531 188 565Q142 599 126 623Q89 672 82 734Q82 761 102 761L115 756Q116 755 124 732Q133 678 166 640T241 579T349 544T470 527T604 521H679Q693 507 693 501ZM57 -26Q57 39 101 87T219 136Q254 136 277 130Q320 114 382 72Q419 50 424 45Q426 45 459 110Q496 178 497 179Q500 180 504 180Q509 180 517 175T526 161Q526 158 495 90L462 25Q462 21 502 5Q519 1 553 1Q586 1 602 5Q641 18 664 45T691 107Q694 136 706 136T718 115Q718 114 718 111T717 105Q717 39 671 -9T554 -58L459 -33Q450 -29 444 -27T437 -26L371 -155L391 -168Q485 -235 538 -235H553Q586 -235 602 -230Q683 -204 691 -128Q694 -99 706 -99T718 -120Q718 -121 718 -124T717 -130Q717 -199 670 -246T557 -294T393 -228Q353 -205 351 -201Q348 -201 315 -266Q294 -310 285 -323T268 -337Q259 -337 254 -331T248 -317Q248 -305 282 -246L313 -181Q313 -177 273 -161Q255 -157 222 -157Q188 -157 173 -161Q134 -174 113 -198T88 -242T82 -278T71 -294Q57 -294 57 -261Q57 -204 91 -161T179 -104Q195 -99 228 -99Q274 -102 315 -124Q337 -132 337 -130L404 -1L384 12Q319 58 273 74Q255 79 222 79Q188 79 173 74Q133 61 112 37T88 -7T82 -43T70 -59Q57 -59 57 -26Z"></path>
</defs>
<g stroke="currentColor" fill="currentColor" stroke-width="0" transform="matrix(1 0 0 -1 0 0)">
 <use xlink:href="#E1-MJAMS-22E8" x="0" y="0"></use>
 <use xlink:href="#E1-MJMAIN-2C" x="783" y="0"></use>
 <use xlink:href="#E1-MJAMS-22E9" x="1232" y="0"></use>
 <use xlink:href="#E1-MJMAIN-2C" x="2015" y="0"></use>
 <use xlink:href="#E1-MJAMS-2AB9" x="2465" y="0"></use>
 <use xlink:href="#E1-MJMAIN-2C" x="3248" y="0"></use>
 <use xlink:href="#E1-MJAMS-2ABA" x="3698" y="0"></use>
</g>
</svg>