<?xml version="1.0" standalone="no"?>
<!DOCTYPE svg PUBLIC "-//W3C//DTD SVG 1.1//EN" "http://www.w3.org/Graphics/SVG/1.1/DTD/svg11.dtd">
<svg xmlns:xlink="http://www.w3.org/1999/xlink" width="6.113ex" height="3.343ex" style="vertical-align: -1.171ex;" viewBox="0 -934.9 2631.9 1439.2" xmlns="http://www.w3.org/2000/svg">
<defs>
<path stroke-width="10" id="E1-MJAMS-2201" d="M404 269Q412 269 418 267T428 261T435 253T441 245L444 240V172Q444 103 443 96Q440 81 431 65T403 27T344 -7T250 -21T156 -8T97 27T69 65T58 96Q56 103 56 413Q56 722 58 729Q74 822 215 845Q221 846 229 846H243Q282 846 290 845Q422 826 443 729Q444 722 444 653V586L442 583Q441 580 440 578T436 573T430 567T423 562T415 558T404 556Q377 556 367 583Q364 590 364 654V719Q363 721 360 726T355 733Q326 766 250 766H249Q235 766 219 765T174 752T137 719V107Q145 83 178 71T251 58H254Q340 58 364 107V172Q364 176 364 187T363 204Q363 269 404 269Z"></path>
<path stroke-width="10" id="E1-MJAMS-24C8" d="M451 -175Q328 -175 226 -115T66 47T8 267Q8 303 15 342T39 431T94 531T186 622Q239 663 307 686T424 709H440Q604 709 716 622Q757 592 788 555T838 482T869 414T886 350T892 301T894 267Q894 147 835 45T674 -116T451 -175ZM854 268Q854 375 802 467T657 614T450 670Q283 670 166 552T49 267Q49 99 167 -18T453 -136Q617 -136 735 -18T854 268ZM273 378Q273 430 309 474T409 527Q411 527 417 527T428 528Q498 528 549 484L567 505Q583 528 590 528H594Q600 528 606 522V350L600 344H586Q577 344 574 344T569 347T566 357Q542 491 432 491Q389 491 365 465T340 407Q340 391 344 378T358 356T377 340T400 328T421 321T443 316T459 313Q499 305 517 300T559 279T601 238Q629 195 629 148Q629 80 583 33T471 -14Q392 -14 330 30Q312 6 293 -13Q292 -14 285 -14Q279 -14 273 -8V77V138Q273 160 275 165T286 170H294H307Q313 164 313 158Q313 108 350 67T471 26Q512 26 537 54T562 119Q562 137 558 151T544 176T527 193T504 205T483 212T459 218T441 222Q391 232 368 241T318 273Q273 316 273 378Z"></path>
</defs>
<g stroke="currentColor" fill="currentColor" stroke-width="0" transform="matrix(1 0 0 -1 0 0)">
 <use xlink:href="#E1-MJAMS-2201" x="0" y="0"></use>
<g transform="translate(505,0)">
<text font-family="STIXGeneral,'Arial Unicode MS',serif" font-style="" font-weight="" stroke="none" style="font-family: monospace" transform="scale(71.759) matrix(1 0 0 -1 0 0)">¶</text>
</g>
<g transform="translate(1114,0)">
<text font-family="STIXGeneral,'Arial Unicode MS',serif" font-style="" font-weight="" stroke="none" style="font-family: monospace" transform="scale(71.759) matrix(1 0 0 -1 0 0)">§</text>
</g>
 <use xlink:href="#E1-MJAMS-24C8" x="1724" y="0"></use>
</g>
</svg>