<?xml version="1.0" standalone="no"?>
<!DOCTYPE svg PUBLIC "-//W3C//DTD SVG 1.1//EN" "http://www.w3.org/Graphics/SVG/1.1/DTD/svg11.dtd">
<svg xmlns:xlink="http://www.w3.org/1999/xlink" width="10.408ex" height="2.509ex" style="vertical-align: -0.671ex;" viewBox="0 -791.3 4481 1080.4" xmlns="http://www.w3.org/2000/svg">
<defs>
<path stroke-width="10" id="E1-MJAMS-229E" d="M71 0Q59 4 55 16V346L56 676Q64 686 70 689H709Q719 681 722 674V15Q719 10 709 1L390 0H71ZM369 365V649H95V365H369ZM682 365V649H409V365H682ZM369 40V325H95V40H369ZM682 40V325H409V40H682Z"></path>
<path stroke-width="10" id="E1-MJMAIN-2C" d="M78 35T78 60T94 103T137 121Q165 121 187 96T210 8Q210 -27 201 -60T180 -117T154 -158T130 -185T117 -194Q113 -194 104 -185T95 -172Q95 -168 106 -156T131 -126T157 -76T173 -3V9L172 8Q170 7 167 6T161 3T152 1T140 0Q113 0 96 17Z"></path>
<path stroke-width="10" id="E1-MJAMS-229F" d="M71 0Q59 4 55 16V346L56 676Q64 686 70 689H709Q719 681 722 674V15Q719 10 709 1L390 0H71ZM682 365V649H95V365H682ZM682 40V325H95V40H682Z"></path>
<path stroke-width="10" id="E1-MJAMS-22A1" d="M71 0Q59 4 55 16V346L56 676Q64 686 70 689H709Q719 681 722 674V15Q719 10 709 1L390 0H71ZM682 40V649H95V40H682ZM330 345Q330 371 347 388T390 405Q412 405 430 389T448 345Q448 317 430 301T389 285T348 301T330 345Z"></path>
<path stroke-width="10" id="E1-MJAMS-22A0" d="M71 0Q59 4 55 16V346L56 676Q64 686 70 689H707Q714 686 722 676V13Q714 3 707 0H71ZM123 649Q147 625 214 555T335 430T389 374L654 649H123ZM95 70Q99 74 229 209T360 345L95 619V70ZM682 70V619L418 346Q417 344 549 207L682 70ZM654 41L400 304L388 315L123 41L256 40H522L654 41Z"></path>
</defs>
<g stroke="currentColor" fill="currentColor" stroke-width="0" transform="matrix(1 0 0 -1 0 0)">
 <use xlink:href="#E1-MJAMS-229E" x="0" y="0"></use>
 <use xlink:href="#E1-MJMAIN-2C" x="783" y="0"></use>
 <use xlink:href="#E1-MJAMS-229F" x="1232" y="0"></use>
 <use xlink:href="#E1-MJMAIN-2C" x="2015" y="0"></use>
 <use xlink:href="#E1-MJAMS-22A1" x="2465" y="0"></use>
 <use xlink:href="#E1-MJMAIN-2C" x="3248" y="0"></use>
 <use xlink:href="#E1-MJAMS-22A0" x="3698" y="0"></use>
</g>
</svg>