<?xml version="1.0" standalone="no"?>
<!DOCTYPE svg PUBLIC "-//W3C//DTD SVG 1.1//EN" "http://www.w3.org/Graphics/SVG/1.1/DTD/svg11.dtd">
<svg xmlns:xlink="http://www.w3.org/1999/xlink" width="16.01ex" height="2.343ex" style="vertical-align: -0.671ex;" viewBox="0 -719.6 6893 1008.6" xmlns="http://www.w3.org/2000/svg">
<defs>
<path stroke-width="10" id="E1-MJTT-4E" d="M20 571Q20 598 30 604T73 611H105H136Q152 611 160 611T177 607T189 601T198 587T206 568T217 537T231 497Q354 142 365 95L368 84V535H347H342Q314 535 306 552Q304 556 304 573Q304 586 304 590T310 600T326 611H482Q497 602 500 596T504 573Q504 559 501 551T491 540T478 536T460 535H439V25Q432 7 424 4T389 0H374Q334 0 322 31L293 115Q171 468 159 517L156 528V76H177H183Q195 76 202 75T215 64T221 38Q221 10 199 1H43Q32 5 27 11T22 21T21 38V44Q21 66 37 73Q44 76 64 76H85V535H64Q49 535 42 536T28 545T20 571Z"></path>
<path stroke-width="10" id="E1-MJTT-4F" d="M102 588Q140 621 240 621Q323 621 335 620Q393 613 422 588Q450 560 459 493T468 306Q468 185 460 118T422 23Q382 -10 289 -10H262H235Q142 -10 102 23Q74 50 65 118T56 306Q56 427 64 494T102 588ZM363 513Q357 523 347 530T324 540T302 544T280 546H268Q192 546 167 521Q150 501 145 452T140 300Q140 235 142 197T151 130T172 89T207 71T262 65Q317 65 341 81T374 144T384 300Q384 474 363 513Z"></path>
<path stroke-width="10" id="E1-MJTT-50" d="M41 1Q19 9 19 32V38Q19 63 36 73Q42 76 65 76H89V535H65H55Q38 535 29 543T19 576Q19 603 41 610H49Q57 610 70 610T100 610T136 611T175 611Q190 611 216 611T255 612Q321 612 363 598T441 537Q480 486 480 427V421Q480 354 447 311T378 251Q339 230 275 230H239H173V76H197Q220 76 227 73Q244 62 244 38Q244 10 222 1H41ZM396 421Q396 461 369 491T300 533Q294 534 233 535H173V306H233Q294 307 300 308Q345 319 370 352T396 421Z"></path>
<path stroke-width="10" id="E1-MJTT-51" d="M56 306Q56 380 58 426T68 510T87 568T120 600T170 617T240 621Q323 621 335 620Q393 613 422 588Q450 560 459 493T468 306Q468 124 447 66Q433 23 394 6L424 -53Q454 -112 454 -118Q454 -128 441 -138H377Q367 -135 363 -129T333 -69L304 -11H254Q205 -10 180 -8T128 6T91 36T70 92T58 178T56 306ZM227 151Q227 171 262 171H276H281Q292 171 296 171T305 170T313 165T317 158T323 145T332 127L353 88Q356 88 361 95T372 131T382 202Q384 228 384 306Q384 452 371 492T304 544Q296 545 251 545Q230 545 215 543T188 534T169 520T155 497T147 466T143 423T141 371T140 306Q140 248 141 217T146 154T157 109T178 83T212 68T262 65H266L264 70Q261 75 256 85T247 105Q227 145 227 151Z"></path>
<path stroke-width="10" id="E1-MJTT-52" d="M16 571Q16 598 27 605T76 612Q84 612 108 612T148 611Q268 611 294 605Q346 592 389 550T432 440Q432 394 410 359Q393 329 366 310L358 303Q387 273 399 239Q405 219 405 178T408 106T421 68Q426 65 428 65Q433 65 435 74T438 96T441 112Q450 130 480 130H485Q519 130 522 100Q522 79 516 56T488 11T434 -11Q421 -11 408 -8T377 5T344 37T324 93Q322 101 322 154L321 209Q304 257 257 267Q252 268 207 268H165V76H186H192Q204 76 211 75T224 64T230 38Q230 10 208 1H39Q28 5 23 11T18 21T17 38V44Q17 66 33 73Q40 76 60 76H81V535H60Q45 535 38 536T24 545T16 571ZM348 440Q348 478 321 502T260 532Q252 534 208 535H165V344H208Q212 344 223 344T239 345T252 346T266 348T278 351T293 358Q348 387 348 440Z"></path>
<path stroke-width="10" id="E1-MJTT-53" d="M52 454Q52 524 107 572T229 621Q266 621 274 620Q326 610 360 588L371 581Q377 594 379 598T386 610T397 619T412 622Q433 622 439 610T446 570Q446 563 446 545T445 515V479Q445 441 444 432T436 417Q428 408 403 408T370 417Q361 424 361 434Q361 439 360 448T351 476T331 509T295 535T238 546Q194 546 163 522T132 458Q132 435 148 412Q155 401 166 393T192 380T218 371T247 364T270 359Q341 342 349 339Q389 325 418 296T461 229Q472 201 472 164Q469 92 417 41T287 -11Q240 -11 200 -1T143 19L126 29Q117 6 109 -2Q100 -11 84 -11Q64 -11 58 1T51 42Q51 49 51 66T52 95V135Q52 173 53 180T61 194Q70 203 95 203Q119 203 127 194Q136 186 136 168Q143 66 284 66H290Q325 66 350 85Q391 115 391 165Q391 204 369 228T322 260Q320 260 255 275T185 293Q123 309 88 355T52 454Z"></path>
<path stroke-width="10" id="E1-MJTT-54" d="M129 38Q129 51 129 55T135 65T151 76H220V535H110V501Q110 470 109 464T101 450Q93 442 68 442H60Q37 442 28 461Q26 466 26 527L27 589Q36 607 49 610H55Q61 610 72 610T97 610T131 610T170 611T215 611T264 611H476Q478 609 483 606T489 602T493 598T496 593T497 586T498 576T498 562V526V488Q498 452 480 444Q476 442 456 442Q431 442 423 450Q416 457 415 463T414 501V535H304V76H374Q389 67 392 61T396 38Q396 10 374 1H151Q140 5 135 11T130 21T129 38Z"></path>
<path stroke-width="10" id="E1-MJTT-55" d="M-3 573Q-3 597 8 604T50 612Q57 612 77 612T111 611H200Q214 602 218 595T222 573Q222 549 205 538Q198 535 175 535H151V359Q151 333 151 291Q152 177 156 162Q157 160 157 159Q165 123 193 95T262 66Q303 66 330 94T367 159Q371 175 371 191T373 359V535H349H339Q328 535 322 537T309 548T303 573T306 595T325 611H506Q520 602 524 595T528 573Q528 549 511 538Q504 535 481 535H457V364Q457 189 456 182Q448 101 394 45T262 -11Q189 -11 132 43T68 182Q67 189 67 364V535H43H33Q22 535 16 537T3 548T-3 573Z"></path>
<path stroke-width="10" id="E1-MJTT-56" d="M19 578Q19 585 20 590T23 598T29 604T38 608T48 610T62 611T78 612T97 611T119 611H195Q210 602 213 596T217 573Q217 561 216 555T206 542T179 535H164Q166 529 188 435T235 231T261 94L262 84V88Q263 91 263 94Q265 121 289 231T336 438L360 535H345Q308 535 308 566V573Q308 586 308 590T314 600T330 611H484Q499 602 502 595T505 573Q505 560 504 554T493 541T465 535H447L384 278Q321 19 319 14Q309 -7 278 -7H262H246Q215 -7 205 14Q203 19 140 278L78 535H59Q45 535 38 536T25 547T19 573V578Z"></path>
<path stroke-width="10" id="E1-MJTT-57" d="M459 611Q491 611 501 605T512 573Q512 538 482 535H474L439 276Q406 26 402 11Q398 2 389 -3Q387 -3 386 -4L380 -7H359H349Q324 -7 313 13Q307 29 285 139T263 275Q263 283 262 283Q261 282 261 274Q261 248 239 137T211 13Q200 -7 175 -7H165H144Q136 -3 127 3Q121 10 117 36T85 276L50 535H42Q26 536 19 545T12 564V573Q12 603 33 610Q37 611 101 611H134Q165 611 175 604T186 573Q186 563 186 559T182 547T169 538T143 535H122V531Q124 517 133 446T155 266T172 96V84L173 102Q176 157 192 243T215 346Q227 367 259 367H262H265Q297 367 309 346Q316 329 332 243T351 102L352 84V96Q356 161 368 266T390 444T402 531V535H381Q366 535 359 536T345 547T338 573Q338 600 356 608Q362 611 425 611H459Z"></path>
<path stroke-width="10" id="E1-MJTT-58" d="M39 571Q39 597 49 604T93 611H141H218Q233 602 236 595T239 573Q239 538 210 535Q202 535 202 534T215 507T243 454L257 428L307 535H298Q266 538 266 573Q266 584 267 588T273 598T289 611H366H401Q442 611 454 605T466 573Q466 546 448 538Q442 535 421 535H398L299 327Q299 323 362 201L426 77L449 76Q467 76 475 75T489 65T495 38Q495 11 477 3Q473 1 395 1H317Q295 8 295 38Q295 73 325 76L334 77Q333 78 314 117T276 196L257 235L239 196Q221 157 204 118T186 77Q190 76 196 76Q211 74 218 67T227 55T228 38Q228 28 227 24T221 13T206 1H50Q28 9 28 32V38Q28 63 45 73Q51 76 73 76H96L214 324Q215 327 162 431L108 535H85H79Q67 535 60 536T46 546T39 571Z"></path>
<path stroke-width="10" id="E1-MJTT-59" d="M20 573Q20 597 30 604T72 611H121H198Q212 602 216 595T220 573Q220 568 219 563T217 555T214 549T211 544T207 541T203 538T198 537T194 536T190 536L188 535Q179 535 179 534L188 516Q196 497 208 470T232 415T252 363T261 332Q261 329 262 329T263 332Q263 354 333 508L345 534Q345 535 336 535Q305 538 305 567V573Q305 589 308 595T327 611H483Q505 598 505 573Q505 549 488 538Q481 535 460 535H438L304 245V76H325H331Q343 76 350 75T363 64T369 38Q369 10 347 1H178Q167 5 162 11T157 21T156 38V44Q156 66 172 73Q180 76 199 76H220V245L86 535H64Q44 535 36 538Q20 548 20 573Z"></path>
<path stroke-width="10" id="E1-MJTT-5A" d="M71 1Q60 5 55 11T49 23T48 39V46Q48 56 58 73T131 183Q171 242 197 282L366 535H144V501Q144 470 143 464T135 450Q127 442 102 442H94Q71 442 62 461Q60 466 60 527L61 589Q70 607 83 610H88Q93 610 102 610T124 610T154 610T188 611T227 611T270 611H454Q456 609 461 606T467 601T471 597T474 591T475 584T476 572V565Q476 555 466 538T393 428Q353 369 327 329L158 76H397V120V146Q397 169 405 179T439 189Q470 189 479 169Q481 164 481 95V48Q481 24 478 16T459 1H71Z"></path>
</defs>
<g stroke="currentColor" fill="currentColor" stroke-width="0" transform="matrix(1 0 0 -1 0 0)">
 <use xlink:href="#E1-MJTT-4E" x="0" y="0"></use>
 <use xlink:href="#E1-MJTT-4F" x="530" y="0"></use>
 <use xlink:href="#E1-MJTT-50" x="1060" y="0"></use>
 <use xlink:href="#E1-MJTT-51" x="1590" y="0"></use>
 <use xlink:href="#E1-MJTT-52" x="2120" y="0"></use>
 <use xlink:href="#E1-MJTT-53" x="2650" y="0"></use>
 <use xlink:href="#E1-MJTT-54" x="3180" y="0"></use>
 <use xlink:href="#E1-MJTT-55" x="3710" y="0"></use>
 <use xlink:href="#E1-MJTT-56" x="4243" y="0"></use>
 <use xlink:href="#E1-MJTT-57" x="4773" y="0"></use>
 <use xlink:href="#E1-MJTT-58" x="5303" y="0"></use>
 <use xlink:href="#E1-MJTT-59" x="5833" y="0"></use>
 <use xlink:href="#E1-MJTT-5A" x="6363" y="0"></use>
</g>
</svg>