<?xml version="1.0" standalone="no"?>
<!DOCTYPE svg PUBLIC "-//W3C//DTD SVG 1.1//EN" "http://www.w3.org/Graphics/SVG/1.1/DTD/svg11.dtd">
<svg xmlns:xlink="http://www.w3.org/1999/xlink" width="11.069ex" height="2.843ex" style="vertical-align: -0.838ex;" viewBox="0 -863.1 4766 1223.9" xmlns="http://www.w3.org/2000/svg">
<defs>
<path stroke-width="10" id="E1-MJMATHBI-3B1" d="M39 166Q39 213 59 261T117 353T219 424T362 452Q420 452 466 433T536 384T573 325T586 269V265Q593 272 609 308T636 381Q640 397 644 399T669 402H680Q700 402 700 388Q700 379 691 351T659 276T604 188L593 173L595 153Q600 79 612 43H618Q634 45 642 51T653 64T658 71Q661 73 684 73Q712 73 712 59Q712 39 685 16T603 -7Q588 -7 575 -5T551 2T532 12T516 24T503 37T494 49T487 60T481 69L469 61Q362 -8 251 -8Q159 -8 99 36T39 166ZM260 43Q310 43 361 63T438 101T465 124Q458 240 453 277Q435 401 354 401Q291 401 245 355Q230 337 217 313Q201 279 186 216T170 126Q170 72 208 54Q230 43 260 43Z"></path>
<path stroke-width="10" id="E1-MJMATHBI-3B2" d="M59 -194H49Q31 -194 28 -182Q28 -178 107 139T192 473Q212 533 248 580T324 652T395 689T450 701H461Q514 701 551 688T605 652T630 607T637 561Q637 546 634 526T611 465T556 393Q572 382 590 347T608 262Q608 146 522 69T299 -8Q279 -8 261 -6T228 2T204 13T183 26T169 37T157 48L150 56L120 -64Q113 -90 104 -128Q93 -175 89 -184T73 -194H59ZM531 592Q531 651 463 651Q399 651 341 600T253 466Q250 458 217 327T182 185Q180 176 180 159Q180 108 212 76T301 44Q330 44 354 51T393 65T423 91T444 118T459 151T468 179T475 206Q490 264 491 296Q491 313 489 326T484 345L482 350Q481 350 477 348T464 344T444 340T413 335T372 333T334 334T301 340T274 355T265 380Q265 444 397 444Q425 444 445 441T476 436L485 433Q489 433 499 458Q509 482 520 527T531 592ZM424 390Q424 393 389 393Q383 393 374 393T362 392Q348 392 333 388Q345 384 379 384Q424 384 424 390Z"></path>
<path stroke-width="10" id="E1-MJMATHBI-3B3" d="M5 269Q5 285 19 312T57 368T124 421T215 451H241Q274 451 303 439T353 406T389 361T416 311T432 266T442 232L444 220L446 216L450 226Q473 278 513 357T561 441Q566 444 584 444H594Q617 444 617 430Q617 426 596 389T536 273T462 110L452 84L451 70Q447 12 427 -76T388 -192Q375 -211 355 -211Q339 -211 332 -198T325 -171Q325 -114 386 64L393 84V98Q393 181 371 241Q360 280 319 303T210 327Q158 327 126 317T84 296T68 272T59 258Q55 256 36 256Q23 256 18 256T9 260T5 269Z"></path>
<path stroke-width="10" id="E1-MJMATHBI-3B4" d="M216 610Q216 640 229 664T262 700T299 719T327 725Q330 725 406 709T487 690Q513 681 513 651Q513 627 494 607T450 587Q417 587 378 631Q346 663 314 663Q286 663 272 639Q271 637 271 634Q271 609 344 536L397 484Q438 448 458 410T478 313Q478 234 443 147T338 18Q298 -8 249 -8Q214 -8 180 0T113 26T60 81T39 168Q39 200 50 237T87 316T160 391T272 442L260 465Q216 553 216 610ZM348 235Q348 274 336 313T310 372L298 392Q295 391 290 390T269 380T241 359T212 323T185 267Q157 168 157 130Q157 83 186 63T255 43Q280 43 300 67Q317 89 332 138T348 235Z"></path>
<path stroke-width="10" id="E1-MJMATHBI-3F5" d="M415 89Q423 89 429 74T436 46Q436 43 434 39Q432 36 420 29T380 11T322 -5Q311 -7 281 -7Q216 -7 168 10T94 54T56 110T44 167V181Q44 262 94 329Q104 343 119 357T162 391T234 425T327 443Q328 443 348 443T383 444Q434 444 442 438Q450 430 450 416Q446 392 424 383L376 382Q306 381 278 369Q230 349 208 294Q199 274 199 268Q199 267 291 267Q305 267 325 267T353 268Q383 268 394 263T406 241Q406 214 380 206Q375 205 279 205T183 203Q174 176 174 140Q174 87 208 65T292 43Q295 43 300 43T307 44Q337 49 372 69T415 89Z"></path>
<path stroke-width="10" id="E1-MJMATHBI-3B6" d="M361 711Q373 711 381 703T389 683Q389 681 388 676T383 656T376 618V612H379Q385 618 429 618Q521 618 521 572Q521 551 506 534Q483 510 415 507Q385 507 371 511T336 536L326 528Q254 472 204 381T154 209Q154 190 157 177Q159 165 162 154T170 135T182 119T195 106T212 95T229 86T249 78T269 72T290 66T311 60Q385 37 388 36Q437 14 454 -36Q456 -46 456 -64Q456 -83 455 -90Q445 -132 413 -167T333 -202Q300 -202 257 -191T206 -169Q203 -164 203 -158Q203 -148 210 -140T231 -130Q239 -130 263 -139T326 -151H329Q337 -151 342 -150T352 -143T357 -123Q356 -117 355 -113T350 -104T344 -96T335 -90T324 -85T310 -80T294 -74T275 -68T254 -62Q253 -62 231 -56T205 -48T179 -39T150 -26T125 -10T100 11T80 37T62 70T53 109T48 157Q48 281 123 396T317 586V612Q319 638 320 649T325 678T338 703T361 711ZM454 564Q445 567 424 567Q407 567 398 565T387 563Q387 558 411 558Q434 558 450 562L454 564Z"></path>
<path stroke-width="10" id="E1-MJMATHBI-3B7" d="M24 296Q25 302 27 312T41 350T65 397T103 435T157 452Q202 452 233 435Q267 419 284 384L294 392Q304 401 316 410T348 429T388 445Q410 451 445 451H453Q468 451 482 450T519 443T558 425T587 391T600 337V327Q600 311 538 64Q484 -158 478 -168Q457 -211 409 -211Q386 -211 372 -197T357 -161Q357 -158 415 80Q476 330 477 348Q477 366 473 377T461 393T448 399T432 400H427Q379 400 335 363Q300 332 280 298Q277 293 246 170T213 40Q205 22 186 7T142 -8T103 7T89 39Q89 49 106 117T142 260T164 351Q166 363 166 372Q166 402 148 402Q126 402 110 369Q100 350 90 310Q85 289 82 286T60 282H55H44Q24 282 24 296Z"></path>
<path stroke-width="10" id="E1-MJMATHBI-3B8" d="M213 -8Q130 -8 85 50T40 200V207Q40 303 83 428Q122 535 189 608Q279 702 381 702Q410 702 437 693T492 661T537 593T554 486Q554 428 539 362T495 230T425 111T330 25T213 -8ZM433 562Q433 600 419 625T377 651Q363 651 348 644T311 619T268 557T229 453Q225 441 217 411T208 378H401Q433 500 433 562ZM161 140Q161 43 217 43Q249 43 280 74Q310 103 332 150T378 287Q385 313 385 315Q385 316 289 316H192Q191 308 183 275T169 205T161 140Z"></path>
</defs>
<g stroke="currentColor" fill="currentColor" stroke-width="0" transform="matrix(1 0 0 -1 0 0)">
 <use xlink:href="#E1-MJMATHBI-3B1" x="0" y="0"></use>
 <use xlink:href="#E1-MJMATHBI-3B2" x="766" y="0"></use>
 <use xlink:href="#E1-MJMATHBI-3B3" x="1431" y="0"></use>
 <use xlink:href="#E1-MJMATHBI-3B4" x="2053" y="0"></use>
 <use xlink:href="#E1-MJMATHBI-3F5" x="2580" y="0"></use>
 <use xlink:href="#E1-MJMATHBI-3B6" x="3068" y="0"></use>
 <use xlink:href="#E1-MJMATHBI-3B7" x="3594" y="0"></use>
 <use xlink:href="#E1-MJMATHBI-3B8" x="4199" y="0"></use>
</g>
</svg>