<?xml version="1.0" standalone="no"?>
<!DOCTYPE svg PUBLIC "-//W3C//DTD SVG 1.1//EN" "http://www.w3.org/Graphics/SVG/1.1/DTD/svg11.dtd">
<svg xmlns:xlink="http://www.w3.org/1999/xlink" width="6.381ex" height="2.843ex" style="vertical-align: -0.671ex;" viewBox="0 -934.9 2747.3 1223.9" xmlns="http://www.w3.org/2000/svg">
<defs>
<path stroke-width="10" id="E1-MJAMS-22BB" d="M56 697Q56 706 62 711T75 716Q86 716 90 709Q91 708 104 680T147 592T199 483L305 261L411 483Q443 548 481 629Q512 694 518 705T535 716Q543 716 549 710T555 700Q555 693 501 577T388 340T325 210Q316 194 305 194Q292 194 285 210Q282 219 224 339T111 574T56 697ZM55 14T55 20T59 31T66 38T71 40H540Q555 32 555 20T540 0H71Q70 0 67 2T59 9Z"></path>
<path stroke-width="10" id="E1-MJMAIN-2C" d="M78 35T78 60T94 103T137 121Q165 121 187 96T210 8Q210 -27 201 -60T180 -117T154 -158T130 -185T117 -194Q113 -194 104 -185T95 -172Q95 -168 106 -156T131 -126T157 -76T173 -3V9L172 8Q170 7 167 6T161 3T152 1T140 0Q113 0 96 17Z"></path>
<path stroke-width="10" id="E1-MJAMS-22BC" d="M55 698Q56 708 70 716H540Q554 708 555 698Q555 694 554 691T552 686T549 682T546 680T542 678T539 676H71Q70 676 68 677T65 679T61 682T58 686T56 691T55 698ZM555 18Q554 12 549 6T536 0H535Q525 0 515 17T459 132Q430 194 410 235L305 455L199 233Q176 185 147 125T105 36T90 7Q85 0 75 0Q63 0 58 11Q55 15 55 21Q58 31 170 266T285 507Q295 522 305 522T320 515Q322 513 439 268L555 24V18Z"></path>
<path stroke-width="10" id="E1-MJAMS-2A5E" d="M55 795Q56 806 70 813H540Q554 806 555 795Q555 791 554 788T552 783T549 779T546 777T542 775T539 773H71Q70 773 68 774T65 776T61 779T58 783T56 788T55 795ZM55 601Q56 612 70 619H540Q554 612 555 601Q555 597 554 594T552 589T549 585T546 583T542 581T539 579H71Q70 579 68 580T65 582T61 585T58 589T56 594T55 601ZM75 -97Q67 -97 61 -91T55 -81Q55 -71 169 166T285 410Q295 425 305 425Q311 425 316 422T323 414L325 410Q327 404 441 167T555 -81Q555 -85 549 -91T535 -97T520 -90Q519 -89 506 -61T463 27T411 136L305 358L199 136Q167 71 129 -10Q98 -75 92 -86T75 -97Z"></path>
</defs>
<g stroke="currentColor" fill="currentColor" stroke-width="0" transform="matrix(1 0 0 -1 0 0)">
 <use xlink:href="#E1-MJAMS-22BB" x="0" y="0"></use>
 <use xlink:href="#E1-MJMAIN-2C" x="616" y="0"></use>
 <use xlink:href="#E1-MJAMS-22BC" x="1065" y="0"></use>
 <use xlink:href="#E1-MJMAIN-2C" x="1681" y="0"></use>
 <use xlink:href="#E1-MJAMS-2A5E" x="2131" y="0"></use>
</g>
</svg>