<?xml version="1.0" standalone="no"?>
<!DOCTYPE svg PUBLIC "-//W3C//DTD SVG 1.1//EN" "http://www.w3.org/Graphics/SVG/1.1/DTD/svg11.dtd">
<svg xmlns:xlink="http://www.w3.org/1999/xlink" width="10.408ex" height="2.176ex" style="vertical-align: -0.671ex;" viewBox="0 -647.8 4481 936.9" xmlns="http://www.w3.org/2000/svg">
<defs>
<path stroke-width="10" id="E1-MJAMS-22B2" d="M694 -26Q686 -40 676 -41H670L382 95Q92 232 90 234Q83 239 83 249Q83 262 96 267Q101 270 379 401T665 537Q671 539 674 539Q686 539 694 524V-26ZM654 11T654 249T653 487T402 369T151 249L275 190Q399 131 524 72T652 11Q654 11 654 249Z"></path>
<path stroke-width="10" id="E1-MJMAIN-2C" d="M78 35T78 60T94 103T137 121Q165 121 187 96T210 8Q210 -27 201 -60T180 -117T154 -158T130 -185T117 -194Q113 -194 104 -185T95 -172Q95 -168 106 -156T131 -126T157 -76T173 -3V9L172 8Q170 7 167 6T161 3T152 1T140 0Q113 0 96 17Z"></path>
<path stroke-width="10" id="E1-MJAMS-22B3" d="M83 523Q83 524 85 527T92 535T103 539Q107 539 389 406T680 268Q694 260 694 249Q694 239 687 234Q685 232 395 95L107 -41H101Q90 -40 83 -26V523ZM376 368Q323 393 254 425T155 472L125 487Q123 487 123 249T125 11Q127 12 252 71T502 190L626 249L376 368Z"></path>
<path stroke-width="10" id="E1-MJAMS-25C0" d="M694 -26Q686 -40 676 -41H670L382 95Q92 232 90 234Q83 239 83 249Q83 262 96 267Q101 270 379 401T665 537Q671 539 674 539Q686 539 694 524V-26Z"></path>
<path stroke-width="10" id="E1-MJAMS-25B6" d="M83 523Q83 524 85 527T92 535T103 539Q107 539 389 406T680 268Q694 260 694 249Q694 239 687 234Q685 232 395 95L107 -41H101Q90 -40 83 -26V523Z"></path>
</defs>
<g stroke="currentColor" fill="currentColor" stroke-width="0" transform="matrix(1 0 0 -1 0 0)">
 <use xlink:href="#E1-MJAMS-22B2" x="0" y="0"></use>
 <use xlink:href="#E1-MJMAIN-2C" x="783" y="0"></use>
 <use xlink:href="#E1-MJAMS-22B3" x="1232" y="0"></use>
 <use xlink:href="#E1-MJMAIN-2C" x="2015" y="0"></use>
 <use xlink:href="#E1-MJAMS-25C0" x="2465" y="0"></use>
 <use xlink:href="#E1-MJMAIN-2C" x="3248" y="0"></use>
 <use xlink:href="#E1-MJAMS-25B6" x="3698" y="0"></use>
</g>
</svg>