<?xml version="1.0" standalone="no"?>
<!DOCTYPE svg PUBLIC "-//W3C//DTD SVG 1.1//EN" "http://www.w3.org/Graphics/SVG/1.1/DTD/svg11.dtd">
<svg xmlns:xlink="http://www.w3.org/1999/xlink" width="4.682ex" height="2.676ex" style="vertical-align: -0.838ex;" viewBox="0 -791.3 2015.7 1152.1" xmlns="http://www.w3.org/2000/svg">
<defs>
<path stroke-width="10" id="E1-MJAMS-22EA" d="M693 -30Q686 -41 673 -41Q661 -41 506 34L346 110L280 -44Q228 -162 216 -185T193 -208Q177 -208 173 -192Q173 -186 242 -30T311 128Q271 145 184 186T86 236Q82 240 82 246Q82 251 86 259Q96 267 271 350L449 434L506 565Q537 635 551 664T571 700T582 706Q587 706 593 701T600 690Q600 679 553 572Q504 463 504 461L586 501Q672 539 673 539Q679 539 693 525V-30ZM653 10V488L566 445L480 405L422 276Q415 260 405 236T388 199T376 171T368 151T366 145Q368 143 510 77T653 10ZM422 374Q422 376 420 376T285 313T151 248Q315 168 326 163Q415 356 422 374Z"></path>
<path stroke-width="10" id="E1-MJMAIN-2C" d="M78 35T78 60T94 103T137 121Q165 121 187 96T210 8Q210 -27 201 -60T180 -117T154 -158T130 -185T117 -194Q113 -194 104 -185T95 -172Q95 -168 106 -156T131 -126T157 -76T173 -3V9L172 8Q170 7 167 6T161 3T152 1T140 0Q113 0 96 17Z"></path>
<path stroke-width="10" id="E1-MJAMS-22EB" d="M82 525Q96 539 102 539Q103 539 122 530T186 501T266 463L426 388Q428 388 495 541Q564 694 569 699Q573 706 581 706Q587 706 593 702T600 691Q600 676 533 528Q515 486 506 465T485 418T470 381T466 370Q466 369 575 316Q676 269 689 259Q693 253 693 248Q693 242 689 236Q688 235 506 145Q328 63 324 59Q324 50 266 -70Q224 -169 214 -188T193 -208Q177 -208 173 -192Q173 -183 222 -77Q244 -29 257 2T269 34L186 -6Q108 -43 99 -43Q93 -43 82 -30V525ZM271 416Q129 485 126 485H125Q122 485 122 250Q122 10 124 10L211 50L295 92L411 350Q411 351 271 416ZM624 248L449 332L440 319Q434 297 393 214Q353 121 353 119Q355 119 489 182T624 248Z"></path>
</defs>
<g stroke="currentColor" fill="currentColor" stroke-width="0" transform="matrix(1 0 0 -1 0 0)">
 <use xlink:href="#E1-MJAMS-22EA" x="0" y="0"></use>
 <use xlink:href="#E1-MJMAIN-2C" x="783" y="0"></use>
 <use xlink:href="#E1-MJAMS-22EB" x="1232" y="0"></use>
</g>
</svg>