<?xml version="1.0" standalone="no"?>
<!DOCTYPE svg PUBLIC "-//W3C//DTD SVG 1.1//EN" "http://www.w3.org/Graphics/SVG/1.1/DTD/svg11.dtd">
<svg xmlns:xlink="http://www.w3.org/1999/xlink" width="4.682ex" height="3.009ex" style="vertical-align: -1.005ex;" viewBox="0 -863.1 2015.7 1295.7" xmlns="http://www.w3.org/2000/svg">
<defs>
<path stroke-width="10" id="E1-MJAMS-E00C" d="M86 472Q93 477 381 614T673 752Q680 752 686 746T693 732T689 721Q686 715 418 590L151 461L418 332Q684 207 689 201Q693 195 693 190Q693 183 687 177T675 170Q668 170 380 307T86 450Q82 454 82 461Q82 467 86 472ZM369 101V126Q369 156 382 156H384Q385 157 386 157Q409 157 409 115V98V54H680Q693 39 693 34T680 14H409V-142H680Q693 -155 693 -162Q693 -167 680 -182H409V-273Q396 -284 388 -284Q382 -284 369 -275V-182H95Q82 -167 82 -162Q82 -155 95 -142H369V14H95Q93 17 89 21T84 27T82 34T83 40T89 47T95 54H369V101Z"></path>
<path stroke-width="10" id="E1-MJMAIN-2C" d="M78 35T78 60T94 103T137 121Q165 121 187 96T210 8Q210 -27 201 -60T180 -117T154 -158T130 -185T117 -194Q113 -194 104 -185T95 -172Q95 -168 106 -156T131 -126T157 -76T173 -3V9L172 8Q170 7 167 6T161 3T152 1T140 0Q113 0 96 17Z"></path>
<path stroke-width="10" id="E1-MJAMS-E00D" d="M89 745Q95 752 100 752Q106 752 394 615T689 472Q693 468 693 461T689 450Q684 445 396 308T100 170Q95 170 89 176T82 190Q82 195 86 201Q91 208 358 332L624 461L358 590Q90 715 86 721Q82 725 82 731Q82 739 89 745ZM369 101V126Q369 156 382 156H384Q385 157 386 157Q409 157 409 115V98V54H680Q693 39 693 34T680 14H409V-142H680Q693 -155 693 -162Q693 -167 680 -182H409V-273Q396 -284 388 -284Q382 -284 369 -275V-182H95Q82 -167 82 -162Q82 -155 95 -142H369V14H95Q93 17 89 21T84 27T82 34T83 40T89 47T95 54H369V101Z"></path>
</defs>
<g stroke="currentColor" fill="currentColor" stroke-width="0" transform="matrix(1 0 0 -1 0 0)">
 <use xlink:href="#E1-MJAMS-E00C" x="0" y="0"></use>
 <use xlink:href="#E1-MJMAIN-2C" x="783" y="0"></use>
 <use xlink:href="#E1-MJAMS-E00D" x="1232" y="0"></use>
</g>
</svg>