<?xml version="1.0" standalone="no"?>
<!DOCTYPE svg PUBLIC "-//W3C//DTD SVG 1.1//EN" "http://www.w3.org/Graphics/SVG/1.1/DTD/svg11.dtd">
<svg xmlns:xlink="http://www.w3.org/1999/xlink" width="10.042ex" height="2.176ex" style="vertical-align: -0.671ex;" viewBox="0 -647.8 4323.7 936.9" xmlns="http://www.w3.org/2000/svg">
<defs>
<path stroke-width="10" id="E1-MJMAIN-25B9" d="M26 489Q33 505 43 505Q51 505 260 385Q464 266 471 259Q473 257 473 250Q473 242 469 239Q459 231 260 115Q51 -5 43 -5Q39 -5 35 -1T28 7L26 11V489ZM412 250L67 450Q66 450 66 250T67 50Q69 51 240 150T412 250Z"></path>
<path stroke-width="10" id="E1-MJMAIN-2C" d="M78 35T78 60T94 103T137 121Q165 121 187 96T210 8Q210 -27 201 -60T180 -117T154 -158T130 -185T117 -194Q113 -194 104 -185T95 -172Q95 -168 106 -156T131 -126T157 -76T173 -3V9L172 8Q170 7 167 6T161 3T152 1T140 0Q113 0 96 17Z"></path>
<path stroke-width="10" id="E1-MJMAIN-25C3" d="M473 10Q466 -5 454 -5Q451 -5 445 -3Q444 -3 343 56T140 173T35 234Q26 239 26 250T35 266Q40 269 240 384T445 503Q451 505 453 505Q466 505 473 490V10ZM433 50T433 250T432 450T259 351T87 250T258 150T432 50Q433 50 433 250Z"></path>
<path stroke-width="10" id="E1-MJMAIN-22C6" d="M210 282Q210 284 225 381T241 480Q241 484 245 484Q249 486 251 486Q258 486 260 477T272 406Q275 390 276 380Q290 286 290 282L388 299Q484 314 487 314H488Q497 314 497 302Q497 297 434 266Q416 257 404 251L315 206L361 118Q372 98 383 75T401 40L407 28Q407 16 395 16Q394 16 392 16L390 17L250 159L110 17L108 16Q106 16 105 16Q93 16 93 28L99 40Q105 52 116 75T139 118L185 206L96 251Q6 296 4 300Q3 301 3 302Q3 314 12 314H13Q16 314 112 299L210 282Z"></path>
<path stroke-width="10" id="E1-MJMAIN-2217" d="M229 286Q216 420 216 436Q216 454 240 464Q241 464 245 464T251 465Q263 464 273 456T283 436Q283 419 277 356T270 286L328 328Q384 369 389 372T399 375Q412 375 423 365T435 338Q435 325 425 315Q420 312 357 282T289 250L355 219L425 184Q434 175 434 161Q434 146 425 136T401 125Q393 125 383 131T328 171L270 213Q283 79 283 63Q283 53 276 44T250 35Q231 35 224 44T216 63Q216 80 222 143T229 213L171 171Q115 130 110 127Q106 124 100 124Q87 124 76 134T64 161Q64 166 64 169T67 175T72 181T81 188T94 195T113 204T138 215T170 230T210 250L74 315Q65 324 65 338Q65 353 74 363T98 374Q106 374 116 368T171 328L229 286Z"></path>
</defs>
<g stroke="currentColor" fill="currentColor" stroke-width="0" transform="matrix(1 0 0 -1 0 0)">
 <use xlink:href="#E1-MJMAIN-25B9" x="0" y="0"></use>
 <use xlink:href="#E1-MJMAIN-2C" x="505" y="0"></use>
 <use xlink:href="#E1-MJMAIN-25C3" x="954" y="0"></use>
 <use xlink:href="#E1-MJMAIN-2C" x="1459" y="0"></use>
 <use xlink:href="#E1-MJMAIN-22C6" x="1909" y="0"></use>
 <use xlink:href="#E1-MJMAIN-2C" x="2414" y="0"></use>
 <use xlink:href="#E1-MJMAIN-2217" x="2863" y="0"></use>
 <use xlink:href="#E1-MJMAIN-2C" x="3368" y="0"></use>
 <use xlink:href="#E1-MJMAIN-2217" x="3818" y="0"></use>
</g>
</svg>