<?xml version="1.0" standalone="no"?>
<!DOCTYPE svg PUBLIC "-//W3C//DTD SVG 1.1//EN" "http://www.w3.org/Graphics/SVG/1.1/DTD/svg11.dtd">
<svg xmlns:xlink="http://www.w3.org/1999/xlink" width="3.238ex" height="1.343ex" style="vertical-align: 0.17ex; margin-bottom: -0.341ex;" viewBox="0 -504.3 1394 578.1" xmlns="http://www.w3.org/2000/svg">
<defs>
<path stroke-width="10" id="E1-MJAMS-21AD" d="M57 250Q159 311 200 417H246L242 407Q215 340 159 278L152 270H276L315 310Q354 349 358 351Q366 356 376 351Q378 350 455 273L530 196L606 273Q683 350 686 351Q694 354 703 351Q705 350 782 273L858 196L933 273Q1010 350 1012 351Q1022 356 1030 351Q1034 349 1073 310L1112 270H1236L1229 278Q1173 340 1146 407L1142 417H1188Q1233 306 1331 250Q1231 192 1188 83H1142L1146 93Q1173 160 1229 222L1236 230H1168Q1155 230 1139 230T1119 229Q1112 229 1108 229T1099 231T1092 233T1085 238T1078 245T1068 256T1056 269L1021 304L984 267Q948 230 910 191T867 149Q857 144 848 150Q844 151 770 227T694 304T618 228T540 150Q531 144 521 149Q517 152 479 191T404 267L367 304L332 269Q328 264 320 256T310 246T303 239T296 234T289 231T280 229T269 229Q265 229 249 229T220 230H152L159 222Q215 160 242 93L246 83H223L200 84L195 96Q152 190 57 250Z"></path>
</defs>
<g stroke="currentColor" fill="currentColor" stroke-width="0" transform="matrix(1 0 0 -1 0 0)">
 <use xlink:href="#E1-MJAMS-21AD" x="0" y="0"></use>
</g>
</svg>