<?xml version="1.0" standalone="no"?>
<!DOCTYPE svg PUBLIC "-//W3C//DTD SVG 1.1//EN" "http://www.w3.org/Graphics/SVG/1.1/DTD/svg11.dtd">
<svg xmlns:xlink="http://www.w3.org/1999/xlink" width="16.003ex" height="2.009ex" style="vertical-align: -0.338ex;" viewBox="0 -719.6 6890 865.1" xmlns="http://www.w3.org/2000/svg">
<defs>
<path stroke-width="10" id="E1-MJTT-41" d="M191 76Q212 75 220 68T229 38Q229 10 208 1H129H80Q48 1 38 7T28 38Q28 51 29 57T40 69T70 76Q89 76 89 78Q90 79 117 205T173 461T205 599Q212 623 250 623H262H273Q312 623 319 599Q322 591 350 461T406 205T435 78Q435 76 454 76H458Q484 76 493 59Q496 53 496 38Q496 11 478 3Q474 1 395 1H317Q295 8 295 38Q295 65 311 73Q316 75 333 76L348 77V78Q348 80 341 112L334 143H190L183 112Q176 80 176 78Q175 76 178 76Q180 76 191 76ZM318 221Q313 238 288 366T263 519Q263 526 262 527Q261 527 261 520Q261 493 236 365T206 221Q206 219 262 219T318 221Z"></path>
<path stroke-width="10" id="E1-MJTT-42" d="M39 1Q17 10 17 32V38V46Q17 65 34 73Q40 76 61 76H84V535H61H54Q27 535 19 553Q17 557 17 573Q17 583 17 587T23 599T39 610Q40 611 179 611Q320 610 332 607Q332 607 339 605Q394 591 427 547T461 454Q461 413 436 378T369 325L358 320Q405 311 443 270T482 169Q482 112 445 64T345 3L334 1H39ZM309 533Q302 535 234 535H168V356H230Q284 357 296 358T323 368Q346 380 361 402T377 452Q377 482 358 505T309 533ZM398 176Q396 218 371 246T315 279Q310 280 237 280H168V76H239Q316 77 327 81Q329 82 334 84Q398 107 398 176Z"></path>
<path stroke-width="10" id="E1-MJTT-43" d="M40 305Q40 437 110 529T281 622Q315 622 343 611T387 589T404 578Q409 585 415 596T425 611T435 618T452 622Q472 622 478 609T485 566Q485 559 485 540T484 508V460Q484 413 478 403T442 393Q417 393 409 402Q400 409 400 420Q400 428 395 445T380 487T347 528T295 546Q235 546 180 483T124 306Q124 245 141 197T186 121T241 80T296 66Q346 66 373 103T400 178Q400 209 435 209H442H450Q484 209 484 172Q480 96 421 43T281 -11Q177 -11 109 84T40 305Z"></path>
<path stroke-width="10" id="E1-MJTT-44" d="M38 1Q16 8 16 38Q16 62 32 73Q39 76 58 76H78V535H58Q40 535 32 538Q16 548 16 573Q16 587 17 591Q23 604 34 607T83 611H166H176Q188 611 209 611T239 612Q299 612 337 597T415 530Q485 438 485 300Q485 180 431 100T301 3L291 1H38ZM400 301Q400 363 385 410T346 482T303 519T267 534Q261 535 210 535H162V76H214L267 77Q323 89 361 148T400 301Z"></path>
<path stroke-width="10" id="E1-MJTT-45" d="M374 271Q374 241 367 232T332 223Q307 223 299 231Q290 240 290 263V279H173V76H418V118V144Q418 167 426 176T460 186Q491 186 500 166Q502 161 502 93V52Q502 25 499 17T480 1H41Q19 9 19 32V38Q19 63 36 73Q42 76 65 76H89V535H65H55Q44 535 38 537T25 548T19 573Q19 602 41 610H47Q53 610 63 610T88 610T121 610T160 611T204 611T251 611H458Q460 609 465 606T471 602T475 598T478 593T479 586T480 576T480 562V526V488Q480 452 462 444Q458 442 438 442Q413 442 405 450Q398 457 397 463T396 501V535H173V355H290V371Q290 394 299 403T332 412Q363 412 372 392Q374 387 374 317V271Z"></path>
<path stroke-width="10" id="E1-MJTT-46" d="M384 260Q384 230 377 221T342 212Q317 212 309 220Q300 229 300 252V268H179V76H249Q264 67 267 61T271 38Q271 10 249 1H44Q22 9 22 32V38Q22 63 39 73Q45 76 69 76H95V535H69H59Q42 535 32 542T22 573Q22 602 44 610H50Q56 610 66 610T91 610T125 610T164 611T208 611T257 611H468Q470 609 475 606T481 602T485 598T488 593T489 586T490 576T490 562V526V488Q490 452 472 444Q468 442 448 442Q423 442 415 450Q408 457 407 463T406 501V535H179V344H300V360Q300 383 309 392T342 401Q373 401 382 381Q384 376 384 306V260Z"></path>
<path stroke-width="10" id="E1-MJTT-47" d="M38 306Q38 447 105 534T261 622Q280 622 298 618T329 608T350 596T366 585L371 581Q373 581 377 591T390 612T417 622Q437 622 443 609T450 566Q450 559 450 540T449 508V460Q449 413 443 403T407 393Q392 393 386 394T373 402T364 426Q360 472 335 509T271 546Q214 546 168 477T121 308Q121 210 164 138T271 65Q293 65 310 78T337 109T352 147T360 180T362 195Q362 196 333 196L304 197Q282 204 282 227V234Q282 247 282 251T288 261T304 272H474Q488 263 492 256T496 234Q496 211 479 199Q475 197 461 196H449V21Q441 6 434 3T412 -1H407H402Q385 -1 379 3T364 28Q350 14 322 2T260 -11Q173 -11 106 76T38 306Z"></path>
<path stroke-width="10" id="E1-MJTT-48" d="M16 571Q16 597 27 604T74 611H125H208Q223 602 226 596T230 573Q230 559 227 551T217 540T204 536T186 535H165V356H359V535H338H333Q306 535 297 552Q295 556 295 573Q295 586 295 590T301 600T317 611H486Q501 602 504 596T508 573Q508 559 505 551T495 540T482 536T464 535H443V76H464H470Q482 76 489 75T502 64T508 38Q508 10 486 1H317Q306 5 301 11T296 21T295 38V44Q295 66 311 73Q318 76 338 76H359V280H165V76H186H192Q204 76 211 75T224 64T230 38Q230 10 208 1H39Q28 5 23 11T18 21T17 38V44Q17 66 33 73Q40 76 60 76H81V535H60Q45 535 38 536T24 545T16 571Z"></path>
<path stroke-width="10" id="E1-MJTT-49" d="M400 76Q431 76 441 69T452 38Q452 29 452 26T450 18T443 9T430 1H95Q84 6 79 12T73 23T72 38Q72 65 90 73Q96 76 157 76H220V535H157H124Q93 535 83 542T72 573Q72 603 93 610Q97 611 264 611H430Q432 609 436 607T444 602T449 594Q452 588 452 573Q452 546 434 538Q428 535 367 535H304V76H367H400Z"></path>
<path stroke-width="10" id="E1-MJTT-4A" d="M202 543T202 573T224 610H228Q231 610 237 610T251 610T269 610T291 611T315 611T342 611H457Q471 602 475 595T479 573Q479 549 462 538Q454 535 432 535H408V328Q408 159 408 133T402 93Q386 48 340 19T229 -11Q158 -11 108 16T57 100Q57 129 73 141T108 154Q128 154 143 140T159 102Q159 93 155 79Q188 65 228 65H230Q290 65 318 106Q323 115 323 139T324 329V535H274L224 536Q202 543 202 573Z"></path>
<path stroke-width="10" id="E1-MJTT-4B" d="M18 549T18 573T29 604T70 611H118H193Q207 603 210 596T214 573Q214 549 198 538Q191 535 172 535H152V421Q152 344 152 326T153 309L242 422L329 534Q327 535 322 536T314 538T308 542T303 548T300 558T298 573Q298 600 316 608Q322 611 392 611H463Q477 602 481 595T485 573Q485 535 446 535H441H420L281 357L436 77L454 76Q473 75 478 73Q495 62 495 38Q495 10 473 1H345Q334 5 329 11T324 21T323 38Q323 51 324 56T332 68T355 77L233 296L152 192V76H172Q191 76 198 73Q214 63 214 38Q214 9 193 1H41Q18 8 18 38Q18 61 35 73Q42 76 61 76H81V535H61Q42 535 35 538Q18 549 18 573Z"></path>
<path stroke-width="10" id="E1-MJTT-4C" d="M27 594Q34 605 43 608T84 611H154H213Q258 611 269 605T281 573Q281 546 263 538Q257 535 222 535H185V76H404V118V145Q404 168 411 177T446 186H453Q478 186 486 167Q488 161 488 93V50Q488 24 485 17T466 1L258 0H147H99Q47 0 36 6T25 38Q25 59 35 69Q44 76 76 76H101V535H76H64Q36 535 27 552Q25 557 25 573T27 594Z"></path>
<path stroke-width="10" id="E1-MJTT-4D" d="M50 535Q37 536 31 537T18 547T12 573Q12 598 22 604T62 611H91H121Q147 611 158 607T178 587Q183 579 222 446T261 293Q261 289 262 288Q263 288 263 292Q263 311 298 434T346 588Q353 603 365 607T402 611H435H450Q488 611 500 605T512 573Q512 556 506 547T493 537T474 535H459V76H474Q487 75 493 74T505 64T512 38Q512 11 494 3Q490 1 424 1H386Q355 1 345 7T335 38Q335 55 341 64T354 74T373 76H388V302Q388 512 387 519Q382 482 346 359T304 228Q292 204 262 204T220 228Q215 237 179 359T137 519Q136 512 136 302V76H151Q164 75 170 74T182 64T189 38Q189 11 171 3Q167 1 101 1H63Q32 1 22 7T12 38Q12 55 18 64T31 74T50 76H65V535H50Z"></path>
</defs>
<g stroke="currentColor" fill="currentColor" stroke-width="0" transform="matrix(1 0 0 -1 0 0)">
 <use xlink:href="#E1-MJTT-41" x="0" y="0"></use>
 <use xlink:href="#E1-MJTT-42" x="530" y="0"></use>
 <use xlink:href="#E1-MJTT-43" x="1060" y="0"></use>
 <use xlink:href="#E1-MJTT-44" x="1590" y="0"></use>
 <use xlink:href="#E1-MJTT-45" x="2120" y="0"></use>
 <use xlink:href="#E1-MJTT-46" x="2650" y="0"></use>
 <use xlink:href="#E1-MJTT-47" x="3180" y="0"></use>
 <use xlink:href="#E1-MJTT-48" x="3710" y="0"></use>
 <use xlink:href="#E1-MJTT-49" x="4240" y="0"></use>
 <use xlink:href="#E1-MJTT-4A" x="4770" y="0"></use>
 <use xlink:href="#E1-MJTT-4B" x="5300" y="0"></use>
 <use xlink:href="#E1-MJTT-4C" x="5830" y="0"></use>
 <use xlink:href="#E1-MJTT-4D" x="6360" y="0"></use>
</g>
</svg>