<?xml version="1.0" standalone="no"?>
<!DOCTYPE svg PUBLIC "-//W3C//DTD SVG 1.1//EN" "http://www.w3.org/Graphics/SVG/1.1/DTD/svg11.dtd">
<svg xmlns:xlink="http://www.w3.org/1999/xlink" width="10.408ex" height="3.176ex" style="vertical-align: -1.005ex;" viewBox="0 -934.9 4481 1367.4" xmlns="http://www.w3.org/2000/svg">
<defs>
<path stroke-width="10" id="E1-MJAMS-2288" d="M146 -283Q146 -282 174 -213T202 -143H115Q102 -127 102 -123T115 -103H220L291 68L278 73Q203 101 153 157T86 288Q83 309 83 344Q83 380 86 399Q107 480 160 539Q222 601 298 621Q328 630 345 631T435 635L526 637L560 715Q587 778 593 789T609 801Q616 801 622 795T629 781Q629 780 625 771T614 742T600 706L571 637Q571 635 626 635H680Q693 620 693 613T689 601L682 597L618 595H553L449 346Q425 288 399 223T359 127T346 95H356Q365 95 381 95T417 94T463 93T515 93H682Q693 82 693 74T680 53H511Q420 55 335 55L329 57L262 -103H680Q682 -105 684 -108T688 -113T691 -118T693 -124Q693 -134 682 -141L464 -143H246L213 -219Q182 -292 178 -299Q172 -303 166 -303T153 -297T146 -283ZM509 590Q509 595 438 595Q354 595 318 586Q246 567 195 516T126 395Q123 378 123 344T126 293Q141 229 184 181T291 110L306 104L406 346L509 590Z"></path>
<path stroke-width="10" id="E1-MJMAIN-2C" d="M78 35T78 60T94 103T137 121Q165 121 187 96T210 8Q210 -27 201 -60T180 -117T154 -158T130 -185T117 -194Q113 -194 104 -185T95 -172Q95 -168 106 -156T131 -126T157 -76T173 -3V9L172 8Q170 7 167 6T161 3T152 1T140 0Q113 0 96 17Z"></path>
<path stroke-width="10" id="E1-MJAMS-2289" d="M82 606T82 613T95 635H251H348Q408 635 435 632T502 615L515 608L520 617Q520 619 558 708Q584 774 591 787T609 801Q616 801 622 795T629 781Q629 775 562 615L551 590L569 577Q646 527 678 437Q691 398 691 344T678 250Q653 182 597 132T469 64Q427 53 366 53H326L295 -25L262 -103H660Q673 -118 673 -124Q673 -129 669 -136L662 -141L453 -143H246L213 -219Q182 -292 178 -299Q172 -303 166 -303T153 -297T146 -283Q146 -282 174 -213T202 -143H95Q82 -128 82 -123T95 -103H220L251 -25L284 53H189L93 55L86 59Q82 64 82 71T95 93H302L400 333Q498 569 498 573L444 590Q431 593 260 595L93 597L86 601Q82 606 82 613ZM652 344V354Q652 451 575 521Q571 526 557 538T537 551Q534 551 533 548Q533 543 438 319L344 95L371 93H386Q487 93 557 150T649 293Q652 309 652 344Z"></path>
<path stroke-width="10" id="E1-MJAMS-228A" d="M693 72Q693 68 692 66T686 59T680 52H524Q398 52 367 53T309 63Q236 82 180 132T98 250Q84 288 84 343Q84 397 98 437Q126 515 193 568T346 632Q347 632 373 633T440 634T520 635H680Q693 620 693 615Q693 608 680 595H526Q364 595 353 592Q279 582 221 539T138 430Q124 392 124 343Q124 296 138 257Q163 192 221 149T353 95Q364 92 526 92H680Q693 79 693 72ZM102 -132T102 -125T115 -103H382L420 -68Q429 -60 438 -52T452 -39T463 -28T472 -20T478 -14T483 -10T487 -7T490 -6T493 -5T496 -5Q502 -5 508 -12T515 -28Q515 -34 513 -37Q512 -38 507 -42T492 -55T475 -70L440 -101L562 -103H682Q693 -114 693 -122T680 -143H395L355 -179Q289 -241 280 -241Q273 -241 267 -235T260 -221T265 -208T300 -174L335 -143H224L113 -141L106 -137Q102 -132 102 -125Z"></path>
<path stroke-width="10" id="E1-MJAMS-228B" d="M82 615Q82 620 95 635H251Q378 635 409 634T469 623Q540 605 596 555T678 437Q691 397 691 343T678 250Q649 172 581 119T426 55Q415 52 251 52H95Q93 55 89 59T84 65T82 72Q82 79 95 92H249Q411 92 422 95Q496 105 554 148T638 257Q651 296 651 343Q651 391 638 430Q613 495 555 538T422 592Q411 595 249 595H95Q82 608 82 615ZM82 -132T82 -125T95 -103H380L420 -57Q452 -21 460 -14T474 -6Q482 -6 488 -12T495 -25T451 -81L433 -101L549 -103H662Q673 -114 673 -122T660 -143H395L355 -190Q311 -239 309 -239Q305 -241 302 -241Q294 -241 287 -235T280 -221T324 -163L342 -143H218L93 -141L86 -137Q82 -132 82 -125Z"></path>
</defs>
<g stroke="currentColor" fill="currentColor" stroke-width="0" transform="matrix(1 0 0 -1 0 0)">
 <use xlink:href="#E1-MJAMS-2288" x="0" y="0"></use>
 <use xlink:href="#E1-MJMAIN-2C" x="783" y="0"></use>
 <use xlink:href="#E1-MJAMS-2289" x="1232" y="0"></use>
 <use xlink:href="#E1-MJMAIN-2C" x="2015" y="0"></use>
 <use xlink:href="#E1-MJAMS-228A" x="2465" y="0"></use>
 <use xlink:href="#E1-MJMAIN-2C" x="3248" y="0"></use>
 <use xlink:href="#E1-MJAMS-228B" x="3698" y="0"></use>
</g>
</svg>