<?xml version="1.0" standalone="no"?>
<!DOCTYPE svg PUBLIC "-//W3C//DTD SVG 1.1//EN" "http://www.w3.org/Graphics/SVG/1.1/DTD/svg11.dtd">
<svg xmlns:xlink="http://www.w3.org/1999/xlink" width="1.173ex" height="2.843ex" style="vertical-align: -0.838ex;" viewBox="0 -863.1 505 1223.9" xmlns="http://www.w3.org/2000/svg">
<defs>
<path stroke-width="10" id="E1-MJAMS-226C" d="M104 730Q104 749 123 749Q130 749 138 745Q186 717 237 671L250 659L261 670Q297 703 332 726T375 750T389 744T395 730Q395 721 390 717T364 699T322 668Q290 641 283 632Q280 628 281 627T293 612Q425 454 425 250Q425 144 388 51T293 -112Q282 -125 281 -126T283 -132Q306 -162 379 -209Q395 -219 395 -230Q395 -238 389 -244T375 -250T335 -228T262 -171L250 -159L238 -170Q202 -203 167 -226T124 -250T110 -244T104 -230Q104 -219 121 -209Q199 -156 216 -132Q219 -128 218 -127T206 -112Q74 46 74 250T206 612Q217 625 218 626T216 632Q199 656 121 709Q104 719 104 730ZM249 -94Q364 61 364 250Q364 430 265 574Q253 590 249 594L242 583Q134 439 134 250Q134 114 192 -1Q212 -44 242 -83L249 -94Z"></path>
</defs>
<g stroke="currentColor" fill="currentColor" stroke-width="0" transform="matrix(1 0 0 -1 0 0)">
 <use xlink:href="#E1-MJAMS-226C" x="0" y="0"></use>
</g>
</svg>