<?xml version="1.0" standalone="no"?>
<!DOCTYPE svg PUBLIC "-//W3C//DTD SVG 1.1//EN" "http://www.w3.org/Graphics/SVG/1.1/DTD/svg11.dtd">
<svg xmlns:xlink="http://www.w3.org/1999/xlink" width="4.682ex" height="2.843ex" style="vertical-align: -0.838ex;" viewBox="0 -863.1 2015.7 1223.9" xmlns="http://www.w3.org/2000/svg">
<defs>
<path stroke-width="10" id="E1-MJAMS-226E" d="M693 -14T693 -20T687 -33T675 -41Q667 -41 506 37L344 112Q342 112 262 -46Q184 -196 176 -205Q172 -209 168 -209T162 -208Q155 -208 151 -203T146 -190Q146 -178 171 -137Q193 -91 251 21L306 132L198 183Q142 208 118 220T88 238T82 249Q82 253 86 261Q92 267 278 357L464 443L529 572Q561 637 577 667T597 703T607 708Q615 708 622 702T629 688Q629 680 575 579L524 474Q524 473 545 482T598 508Q666 541 673 541T686 535T693 521Q693 512 679 504T589 459L493 414L360 150Q366 148 378 142T431 116T529 70Q686 -8 689 -10Q693 -14 693 -20ZM380 277L433 383Q432 385 292 319T151 250T237 209T324 170L380 277Z"></path>
<path stroke-width="10" id="E1-MJMAIN-2C" d="M78 35T78 60T94 103T137 121Q165 121 187 96T210 8Q210 -27 201 -60T180 -117T154 -158T130 -185T117 -194Q113 -194 104 -185T95 -172Q95 -168 106 -156T131 -126T157 -76T173 -3V9L172 8Q170 7 167 6T161 3T152 1T140 0Q113 0 96 17Z"></path>
<path stroke-width="10" id="E1-MJAMS-226F" d="M82 514T82 520T89 533T100 541Q106 541 271 463Q434 386 435 386L515 543Q593 699 600 706Q604 708 607 708Q615 708 622 702T629 688T549 526Q509 445 491 407T473 368Q522 343 580 317Q636 291 660 278T688 261T693 250V249Q693 241 681 234T580 184Q533 161 502 146Q317 59 315 59Q312 56 246 -74Q197 -170 186 -189T168 -209Q164 -209 162 -208Q155 -208 151 -203T146 -190Q146 -187 200 -79L253 28L218 11Q182 -6 144 -23T100 -41Q95 -41 89 -35T82 -21Q82 -12 96 -4T186 41L284 88L349 217Q377 273 395 311T413 350Q413 351 253 428Q101 498 86 510Q82 514 82 520ZM624 250Q461 330 455 330Q454 331 453 329T448 321T441 308T430 287T416 259T398 223L342 114L624 250Z"></path>
</defs>
<g stroke="currentColor" fill="currentColor" stroke-width="0" transform="matrix(1 0 0 -1 0 0)">
 <use xlink:href="#E1-MJAMS-226E" x="0" y="0"></use>
 <use xlink:href="#E1-MJMAIN-2C" x="783" y="0"></use>
 <use xlink:href="#E1-MJAMS-226F" x="1232" y="0"></use>
</g>
</svg>