<?xml version="1.0" standalone="no"?>
<!DOCTYPE svg PUBLIC "-//W3C//DTD SVG 1.1//EN" "http://www.w3.org/Graphics/SVG/1.1/DTD/svg11.dtd">
<svg xmlns:xlink="http://www.w3.org/1999/xlink" width="10.795ex" height="4.843ex" style="vertical-align: -1.838ex;" viewBox="0 -1293.7 4647.7 2085" xmlns="http://www.w3.org/2000/svg">
<defs>
<path stroke-width="10" id="E1-MJMAIN-7B" d="M434 -231Q434 -244 428 -250H410Q281 -250 230 -184Q225 -177 222 -172T217 -161T213 -148T211 -133T210 -111T209 -84T209 -47T209 0Q209 21 209 53Q208 142 204 153Q203 154 203 155Q189 191 153 211T82 231Q71 231 68 234T65 250T68 266T82 269Q116 269 152 289T203 345Q208 356 208 377T209 529V579Q209 634 215 656T244 698Q270 724 324 740Q361 748 377 749Q379 749 390 749T408 750H428Q434 744 434 732Q434 719 431 716Q429 713 415 713Q362 710 332 689T296 647Q291 634 291 499V417Q291 370 288 353T271 314Q240 271 184 255L170 250L184 245Q202 239 220 230T262 196T290 137Q291 131 291 1Q291 -134 296 -147Q306 -174 339 -192T415 -213Q429 -213 431 -216Q434 -219 434 -231Z"></path>
<path stroke-width="10" id="E1-MJSZ2-7B" d="M547 -643L541 -649H528Q515 -649 503 -645Q324 -582 293 -466Q289 -449 289 -428T287 -200L286 42L284 53Q274 98 248 135T196 190T146 222L121 235Q119 239 119 250Q119 262 121 266T133 273Q262 336 284 449L286 460L287 701Q287 737 287 794Q288 949 292 963Q293 966 293 967Q325 1080 508 1148Q516 1150 527 1150H541L547 1144V1130Q547 1117 546 1115T536 1109Q480 1086 437 1046T381 950L379 940L378 699Q378 657 378 594Q377 452 374 438Q373 437 373 436Q350 348 243 282Q192 257 186 254L176 251L188 245Q211 236 234 223T287 189T340 135T373 65Q373 64 374 63Q377 49 378 -93Q378 -156 378 -198L379 -438L381 -449Q393 -504 436 -544T536 -608Q544 -611 545 -613T547 -629V-643Z"></path>
<path stroke-width="10" id="E1-MJMAIN-2026" d="M78 60Q78 84 95 102T138 120Q162 120 180 104T199 61Q199 36 182 18T139 0T96 17T78 60ZM525 60Q525 84 542 102T585 120Q609 120 627 104T646 61Q646 36 629 18T586 0T543 17T525 60ZM972 60Q972 84 989 102T1032 120Q1056 120 1074 104T1093 61Q1093 36 1076 18T1033 0T990 17T972 60Z"></path>
<path stroke-width="10" id="E1-MJMAIN-7C" d="M139 -249H137Q125 -249 119 -235V251L120 737Q130 750 139 750Q152 750 159 735V-235Q151 -249 141 -249H139Z"></path>
<path stroke-width="10" id="E1-MJMAIN-2223" d="M139 -249H137Q125 -249 119 -235V251L120 737Q130 750 139 750Q152 750 159 735V-235Q151 -249 141 -249H139Z"></path>
<path stroke-width="10" id="E1-MJMAIN-7D" d="M65 731Q65 745 68 747T88 750Q171 750 216 725T279 670Q288 649 289 635T291 501Q292 362 293 357Q306 312 345 291T417 269Q428 269 431 266T434 250T431 234T417 231Q380 231 345 210T298 157Q293 143 292 121T291 -28V-79Q291 -134 285 -156T256 -198Q202 -250 89 -250Q71 -250 68 -247T65 -230Q65 -224 65 -223T66 -218T69 -214T77 -213Q91 -213 108 -210T146 -200T183 -177T207 -139Q208 -134 209 3L210 139Q223 196 280 230Q315 247 330 250Q305 257 280 270Q225 304 212 352L210 362L209 498Q208 635 207 640Q195 680 154 696T77 713Q68 713 67 716T65 731Z"></path>
<path stroke-width="10" id="E1-MJSZ2-7D" d="M119 1130Q119 1144 121 1147T135 1150H139Q151 1150 182 1138T252 1105T326 1046T373 964Q378 942 378 702Q378 469 379 462Q386 394 439 339Q482 296 535 272Q544 268 545 266T547 251Q547 241 547 238T542 231T531 227T510 217T477 194Q390 129 379 39Q378 32 378 -201Q378 -441 373 -463Q342 -580 165 -644Q152 -649 139 -649Q125 -649 122 -646T119 -629Q119 -622 119 -619T121 -614T124 -610T132 -607T143 -602Q195 -579 235 -539T285 -447Q286 -435 287 -199T289 51Q294 74 300 91T329 138T390 197Q412 213 436 226T475 244L489 250L472 258Q455 265 430 279T377 313T327 366T293 434Q289 451 289 472T287 699Q286 941 285 948Q279 978 262 1005T227 1048T184 1080T151 1100T129 1109L127 1110Q119 1113 119 1130Z"></path>
</defs>
<g stroke="currentColor" fill="currentColor" stroke-width="0" transform="matrix(1 0 0 -1 0 0)">
 <use xlink:href="#E1-MJSZ2-7B" x="0" y="-1"></use>
 <use xlink:href="#E1-MJMAIN-2026" x="838" y="0"></use>
<g transform="translate(2182,0)">
<g transform="translate(0,1061)">
 <use xlink:href="#E1-MJMAIN-2223" x="0" y="-760"></use>
 <use xlink:href="#E1-MJMAIN-2223" x="0" y="-1364"></use>
</g>
</g>
 <use xlink:href="#E1-MJMAIN-2026" x="2631" y="0"></use>
 <use xlink:href="#E1-MJSZ2-7D" x="3975" y="-1"></use>
</g>
</svg>