<?xml version="1.0" standalone="no"?>
<!DOCTYPE svg PUBLIC "-//W3C//DTD SVG 1.1//EN" "http://www.w3.org/Graphics/SVG/1.1/DTD/svg11.dtd">
<svg xmlns:xlink="http://www.w3.org/1999/xlink" width="11.979ex" height="2.843ex" style="vertical-align: -0.838ex;" viewBox="0 -863.1 5157.7 1223.9" xmlns="http://www.w3.org/2000/svg">
<defs>
<path stroke-width="10" id="E1-MJAMS-22CB" d="M55 674Q55 682 62 688T76 694H77Q83 694 100 677T208 561Q320 440 410 342Q462 286 541 201Q677 55 699 30T722 -2Q722 -9 716 -15T701 -22T688 -17Q687 -15 542 141T394 301L388 306L240 146Q119 15 101 -3T75 -22T61 -16T55 -2Q55 4 67 19T158 117Q190 151 209 172L361 336L209 500Q62 657 57 667Q55 671 55 674Z"></path>
<path stroke-width="10" id="E1-MJMAIN-2C" d="M78 35T78 60T94 103T137 121Q165 121 187 96T210 8Q210 -27 201 -60T180 -117T154 -158T130 -185T117 -194Q113 -194 104 -185T95 -172Q95 -168 106 -156T131 -126T157 -76T173 -3V9L172 8Q170 7 167 6T161 3T152 1T140 0Q113 0 96 17Z"></path>
<path stroke-width="10" id="E1-MJAMS-22CC" d="M84 -22T76 -22T62 -16T55 -2Q55 4 78 30T249 215Q321 293 367 342Q672 672 683 682Q695 694 702 694Q710 694 716 688T722 674Q722 668 710 653T619 555Q587 521 568 500L416 336L568 172Q715 15 720 5Q722 1 722 -2Q722 -9 716 -15T702 -22H700Q693 -22 671 1T537 146L389 306Q387 304 340 253T237 143T135 33L89 -17Q84 -22 76 -22Z"></path>
<path stroke-width="10" id="E1-MJAMS-2216" d="M91 404T91 410T97 423T111 430Q117 430 395 224Q676 13 678 10Q685 3 685 -3T678 -16T664 -23Q658 -23 380 184T98 397Q91 404 91 410Z"></path>
<path stroke-width="10" id="E1-MJMAIN-2216" d="M56 731Q56 740 62 745T75 750Q85 750 92 740Q96 733 270 255T444 -231Q444 -239 438 -244T424 -250Q414 -250 407 -240Q404 -236 230 242T56 731Z"></path>
<path stroke-width="10" id="E1-MJMAIN-2F" d="M423 750Q432 750 438 744T444 730Q444 725 271 248T92 -240Q85 -250 75 -250Q68 -250 62 -245T56 -231Q56 -221 230 257T407 740Q411 750 423 750Z"></path>
</defs>
<g stroke="currentColor" fill="currentColor" stroke-width="0" transform="matrix(1 0 0 -1 0 0)">
 <use xlink:href="#E1-MJAMS-22CB" x="0" y="0"></use>
 <use xlink:href="#E1-MJMAIN-2C" x="783" y="0"></use>
 <use xlink:href="#E1-MJAMS-22CC" x="1232" y="0"></use>
 <use xlink:href="#E1-MJMAIN-2C" x="2015" y="0"></use>
 <use xlink:href="#E1-MJAMS-2216" x="2465" y="0"></use>
 <use xlink:href="#E1-MJMAIN-2C" x="3248" y="0"></use>
 <use xlink:href="#E1-MJMAIN-2216" x="3698" y="0"></use>
 <use xlink:href="#E1-MJMAIN-2C" x="4203" y="0"></use>
 <use xlink:href="#E1-MJMAIN-2F" x="4652" y="0"></use>
</g>
</svg>