<?xml version="1.0" standalone="no"?>
<!DOCTYPE svg PUBLIC "-//W3C//DTD SVG 1.1//EN" "http://www.w3.org/Graphics/SVG/1.1/DTD/svg11.dtd">
<svg xmlns:xlink="http://www.w3.org/1999/xlink" width="9.091ex" height="2.176ex" style="vertical-align: -0.671ex;" viewBox="0 -647.8 3914.3 936.9" xmlns="http://www.w3.org/2000/svg">
<defs>
<path stroke-width="10" id="E1-MJAMS-219B" d="M54 250Q54 258 66 270H277L488 272L542 350Q596 431 602 435Q604 437 609 437Q617 437 622 432T628 417T582 341L537 272L608 270H751L822 272L808 288Q786 313 761 355T733 414Q733 424 737 426T766 428H793L806 397Q829 354 864 314Q896 284 928 263Q942 257 942 250T928 237Q887 208 864 185Q829 147 806 103L793 74L766 72Q742 72 738 73T733 85Q735 102 756 137T797 198L817 225L822 230H511L457 148Q440 124 420 93Q404 68 400 64T389 60Q381 60 375 66T368 81Q368 88 415 159L462 230H264L66 232Q54 239 54 250Z"></path>
<path stroke-width="10" id="E1-MJMAIN-2C" d="M78 35T78 60T94 103T137 121Q165 121 187 96T210 8Q210 -27 201 -60T180 -117T154 -158T130 -185T117 -194Q113 -194 104 -185T95 -172Q95 -168 106 -156T131 -126T157 -76T173 -3V9L172 8Q170 7 167 6T161 3T152 1T140 0Q113 0 96 17Z"></path>
<path stroke-width="10" id="E1-MJAMS-21CF" d="M346 174Q348 176 378 249T411 325Q411 327 239 327H68Q55 342 55 347Q55 354 68 367H428L459 445Q487 509 494 521T510 534Q517 534 524 527T531 516Q531 515 502 438L471 367H677L666 381Q631 421 605 463T578 516Q578 522 582 523T599 525H615L619 512Q659 437 714 383T812 309T896 272T942 254Q943 246 938 243T911 232Q718 172 619 -13L615 -24L599 -26Q578 -26 578 -17Q578 -11 587 6T617 53T666 118L677 132H373L339 54Q323 12 313 -8T298 -32T288 -35Q280 -35 275 -29T269 -17Q269 -14 298 57T328 132H68Q55 145 55 152Q55 156 56 158T62 165T68 172H206Q346 172 346 174ZM848 249Q763 297 735 318L722 327H455L422 252L391 174Q391 172 557 172H722L735 181Q773 210 819 234L848 249Z"></path>
<path stroke-width="10" id="E1-MJAMS-21CD" d="M397 525Q410 525 414 524T418 516Q418 506 394 467T331 381L319 367H473L624 369L657 445Q674 487 684 507T699 531T709 534Q717 534 722 528T728 516Q728 510 695 434Q689 418 683 402T672 377T668 367H928Q942 355 942 347Q942 341 928 327H791Q651 327 651 325Q649 324 620 251T586 174Q586 172 757 172H928Q942 158 942 152Q942 143 928 132H568L537 54Q510 -9 503 -22T486 -35Q479 -35 473 -29T466 -17T495 61L526 132H319L331 118Q364 81 391 37T418 -17Q418 -23 415 -24T401 -26Q398 -26 397 -26L384 -24L377 -13Q344 49 301 97T218 170T143 210T84 233T55 245Q54 253 59 256T86 267Q281 327 377 512L384 525H397ZM606 325Q606 327 439 327H275Q258 312 179 265L148 249Q228 206 262 181L275 172H544L575 247L606 325Z"></path>
</defs>
<g stroke="currentColor" fill="currentColor" stroke-width="0" transform="matrix(1 0 0 -1 0 0)">
 <use xlink:href="#E1-MJAMS-219B" x="0" y="0"></use>
 <use xlink:href="#E1-MJMAIN-2C" x="1005" y="0"></use>
 <use xlink:href="#E1-MJAMS-21CF" x="1454" y="0"></use>
 <use xlink:href="#E1-MJMAIN-2C" x="2459" y="0"></use>
 <use xlink:href="#E1-MJAMS-21CD" x="2909" y="0"></use>
</g>
</svg>