<?xml version="1.0" standalone="no"?>
<!DOCTYPE svg PUBLIC "-//W3C//DTD SVG 1.1//EN" "http://www.w3.org/Graphics/SVG/1.1/DTD/svg11.dtd">
<svg xmlns:xlink="http://www.w3.org/1999/xlink" width="20.929ex" height="2.509ex" style="vertical-align: -0.505ex;" viewBox="0 -863.1 9011 1080.4" xmlns="http://www.w3.org/2000/svg">
<defs>
<path stroke-width="10" id="E1-MJSS-4E" d="M88 0V694H235L252 659Q261 639 364 428T526 84V694H619V0H472L455 35Q453 39 330 294T185 601L181 611V0H88Z"></path>
<path stroke-width="10" id="E1-MJSS-4F" d="M55 345Q55 504 149 609T361 715Q386 715 406 713Q521 696 600 592T680 344Q680 193 590 86T368 -22Q239 -22 147 84T55 345ZM276 59T368 59T518 146T576 360Q576 473 525 545T401 634Q371 637 362 637Q284 637 222 562T159 360T217 147Z"></path>
<path stroke-width="10" id="E1-MJSS-50" d="M88 0V694H230Q347 693 370 692T410 686Q487 667 535 611T583 485Q583 409 527 348T379 276Q369 274 279 274H192V0H88ZM486 485Q486 523 471 551T432 593T391 612T357 621Q350 622 268 623H189V347H268Q350 348 357 349Q370 351 383 354T416 368T450 391T475 429T486 485Z"></path>
<path stroke-width="10" id="E1-MJSS-51" d="M55 345Q55 504 149 609T361 715Q386 715 406 713Q521 696 600 592T680 344Q680 284 665 231T629 143T587 85T551 48L536 35L648 -120L652 -125H531L452 -8L440 -12Q407 -22 369 -22Q239 -22 147 85T55 345ZM579 345Q579 473 517 555T369 637Q279 637 218 554T156 345Q156 223 215 141T368 58Q376 58 382 58T392 58T397 59T401 60T403 61H404Q404 63 360 128T315 194H421L453 150Q485 105 486 105Q490 108 496 113T517 138T545 182T567 247T579 334V345Z"></path>
<path stroke-width="10" id="E1-MJSS-52" d="M88 0V694H227H259H302Q365 694 399 689T474 663Q528 637 558 595T589 504Q589 482 584 462T569 426T547 396T522 372T495 353T470 338T449 328T434 322L429 320L440 300Q452 280 477 238T523 160L617 1L565 0Q513 0 512 1Q512 2 424 156L337 309H189V0H88ZM492 504Q492 600 367 620Q354 622 271 623H189V385H271Q363 386 388 392Q432 402 462 430T492 504Z"></path>
<path stroke-width="10" id="E1-MJSS-53" d="M55 514Q55 589 115 652T283 716Q315 716 345 711T396 699T432 685T457 672T467 667Q467 666 459 618T449 568Q383 634 282 634Q214 634 182 600T150 525Q150 507 155 492T172 465T194 446T222 432T247 423T272 416T289 412Q353 396 378 384Q432 358 466 307T500 194Q500 110 438 44T272 -22Q215 -22 159 -5T73 28T44 50Q45 51 49 75T57 122T62 146L65 143Q68 140 74 136T88 125T107 111T131 98T160 85T194 74T232 66T274 63H286Q327 63 366 96T406 182Q406 245 352 280Q329 296 265 310T173 339Q124 363 90 409T55 514Z"></path>
<path stroke-width="10" id="E1-MJSS-54" d="M36 608V688H644V608H518L392 609V0H288V609L162 608H36Z"></path>
<path stroke-width="10" id="E1-MJSS-55" d="M87 450V694H191V449Q192 203 193 194Q200 148 220 117T266 72T311 54T347 49Q404 49 446 84T501 178Q505 195 505 218T507 449V694H600V450Q600 414 600 356Q599 198 595 181Q594 178 594 177Q575 89 505 34T345 -22Q258 -22 184 34T89 196Q88 205 87 450Z"></path>
<path stroke-width="10" id="E1-MJSS-56" d="M14 692Q14 694 68 694H122L146 633Q325 165 339 90Q340 87 341 87Q341 124 530 619L558 694H605Q652 694 652 692Q650 690 523 354T390 10L387 0H279L276 10Q271 18 144 354T14 692Z"></path>
<path stroke-width="10" id="E1-MJSS-57" d="M115 694Q115 693 156 550T233 266T270 90L271 85Q272 86 272 92Q272 153 405 616L427 694H524L553 590Q672 174 681 95L682 84L684 95Q689 138 728 287T803 563T841 692Q841 694 885 694T929 693Q929 691 829 346L730 0H679L628 1L606 75Q478 524 470 600L469 611L467 600Q458 518 338 101L310 0H213L114 346Q14 691 14 693Q14 694 64 694H115Z"></path>
<path stroke-width="10" id="E1-MJSS-58" d="M14 0Q16 5 144 184T275 367L153 528Q121 571 88 615T42 674T28 694H150L228 584Q315 463 316 461L326 448L497 694H610L609 692Q606 689 492 528Q440 454 409 410T378 366Q378 365 515 182L652 0H531L326 292Q326 293 299 254T226 146L128 0H14Z"></path>
<path stroke-width="10" id="E1-MJSS-59" d="M4 693L64 694H125L174 621Q335 378 340 364L341 362Q361 398 395 450L558 694H663L383 277V0H282V278L143 485Q112 531 75 586T21 668L4 693Z"></path>
<path stroke-width="10" id="E1-MJSS-5A" d="M69 617V694H555V643L373 362Q190 81 190 79H234Q244 79 272 79T344 80T419 81H560V0H55V53L237 334Q420 615 420 617Q413 618 387 618Q380 618 334 618T245 617H69Z"></path>
</defs>
<g stroke="currentColor" fill="currentColor" stroke-width="0" transform="matrix(1 0 0 -1 0 0)">
 <use xlink:href="#E1-MJSS-4E" x="0" y="0"></use>
 <use xlink:href="#E1-MJSS-4F" x="713" y="0"></use>
 <use xlink:href="#E1-MJSS-50" x="1454" y="0"></use>
 <use xlink:href="#E1-MJSS-51" x="2098" y="0"></use>
 <use xlink:href="#E1-MJSS-52" x="2839" y="0"></use>
 <use xlink:href="#E1-MJSS-53" x="3490" y="0"></use>
 <use xlink:href="#E1-MJSS-54" x="4051" y="0"></use>
 <use xlink:href="#E1-MJSS-55" x="4737" y="0"></use>
 <use xlink:href="#E1-MJSS-56" x="5430" y="0"></use>
 <use xlink:href="#E1-MJSS-57" x="6102" y="0"></use>
 <use xlink:href="#E1-MJSS-58" x="7051" y="0"></use>
 <use xlink:href="#E1-MJSS-59" x="7723" y="0"></use>
 <use xlink:href="#E1-MJSS-5A" x="8395" y="0"></use>
</g>
</svg>