<?xml version="1.0" standalone="no"?>
<!DOCTYPE svg PUBLIC "-//W3C//DTD SVG 1.1//EN" "http://www.w3.org/Graphics/SVG/1.1/DTD/svg11.dtd">
<svg xmlns:xlink="http://www.w3.org/1999/xlink" width="4.099ex" height="2.343ex" style="vertical-align: -0.338ex;" viewBox="0 -863.1 1765 1008.6" xmlns="http://www.w3.org/2000/svg">
<defs>
<path stroke-width="10" id="E2-MJAMS-2514" d="M55 172V287Q55 341 58 353T76 366Q88 366 95 351V18H261Q428 18 432 16Q444 9 444 -2Q444 -11 432 -20Q428 -22 250 -22H120Q67 -22 61 -16Q56 -11 56 10T55 172Z"></path>
<path stroke-width="10" id="E2-MJMATHI-41" d="M208 74Q208 50 254 46Q272 46 272 35Q272 34 270 22Q267 8 264 4T251 0Q249 0 239 0T205 1T141 2Q70 2 50 0H42Q35 7 35 11Q37 38 48 46H62Q132 49 164 96Q170 102 345 401T523 704Q530 716 547 716H555H572Q578 707 578 706L606 383Q634 60 636 57Q641 46 701 46Q726 46 726 36Q726 34 723 22Q720 7 718 4T704 0Q701 0 690 0T651 1T578 2Q484 2 455 0H443Q437 6 437 9T439 27Q443 40 445 43L449 46H469Q523 49 533 63L521 213H283L249 155Q208 86 208 74ZM516 260Q516 271 504 416T490 562L463 519Q447 492 400 412L310 260L413 259Q516 259 516 260Z"></path>
<path stroke-width="10" id="E2-MJAMS-2518" d="M404 351Q410 366 424 366Q437 366 440 353T444 288V172V72Q444 8 443 -4T432 -20Q428 -22 250 -22Q71 -22 68 -20Q55 -14 55 -2T68 16Q71 18 238 18H404V351Z"></path>
</defs>
<g stroke="currentColor" fill="currentColor" stroke-width="0" transform="matrix(1 0 0 -1 0 0)">
 <use xlink:href="#E2-MJAMS-2514" x="0" y="0"></use>
 <use xlink:href="#E2-MJMATHI-41" x="505" y="0"></use>
 <use xlink:href="#E2-MJAMS-2518" x="1260" y="0"></use>
</g>
</svg>