<?xml version="1.0" standalone="no"?>
<!DOCTYPE svg PUBLIC "-//W3C//DTD SVG 1.1//EN" "http://www.w3.org/Graphics/SVG/1.1/DTD/svg11.dtd">
<svg xmlns:xlink="http://www.w3.org/1999/xlink" width="20.913ex" height="2.509ex" style="vertical-align: -0.671ex; margin-right: -0.1ex;" viewBox="0 -791.3 9004 1080.4" xmlns="http://www.w3.org/2000/svg">
<defs>
<path stroke-width="10" id="E1-MJMAINI-73" d="M153 285Q153 349 197 395T311 442Q355 442 386 420T418 356Q418 321 401 308T365 294Q336 294 331 326Q331 336 334 345T343 359T353 368T362 374L366 376Q365 379 362 383T344 396T308 404Q265 404 246 377T226 325T244 289T287 275T339 258T383 212Q395 188 395 163Q395 132 379 95T333 32Q279 -11 207 -11Q154 -11 115 13T76 86Q76 108 83 123T102 145T121 153T135 156Q154 156 164 145T175 117Q175 82 142 66L132 62Q131 62 131 61Q131 57 139 49T166 34T210 26Q250 26 277 44T312 83T321 123Q321 153 301 166T248 185T204 198Q176 211 162 241Q153 258 153 285Z"></path>
<path stroke-width="10" id="E1-MJMAINI-74" d="M94 385Q87 392 87 395Q87 399 90 411T95 425Q97 430 103 430T149 431H196L215 511Q218 521 222 539T228 565T234 585T242 603T251 615T264 623T281 626Q311 626 315 597Q315 591 296 513T275 433Q275 431 320 431H366Q373 424 373 420Q373 398 360 385H263L189 86Q188 80 188 61V54Q188 29 201 27Q213 23 229 30Q253 37 276 66T316 138Q321 149 324 151T342 153H347Q364 153 364 146T360 130Q331 63 290 26T202 -11Q158 -11 135 18T111 81Q111 93 129 168T166 314L184 383Q184 385 139 385H94Z"></path>
<path stroke-width="10" id="E1-MJMAINI-75" d="M75 287Q75 299 89 333T135 404T205 441Q246 441 269 420T293 357Q292 338 259 245T225 95Q225 26 274 26Q301 26 324 43T358 77T369 99Q369 102 406 249T446 404Q460 431 490 431T522 402Q522 394 485 245T446 89Q443 74 443 56Q443 28 461 26Q487 26 507 86Q524 130 524 146Q524 147 530 153H547Q570 153 570 144Q570 138 561 109T544 62Q530 29 512 12Q492 -11 454 -11Q429 -9 410 2T385 23T376 41L363 28Q350 16 325 3T269 -10Q204 -10 176 25T148 108Q148 161 184 262T221 383Q221 405 206 405Q178 405 158 375T128 313T116 279Q115 278 97 278H81Q75 284 75 287Z"></path>
<path stroke-width="10" id="E1-MJMAINI-76" d="M387 386Q387 407 406 425T445 443Q466 443 479 423T492 371Q492 330 473 253Q411 18 307 -8Q298 -10 279 -10Q208 -10 179 26T149 114Q149 162 185 261T221 384Q221 405 206 405Q177 405 157 375T128 313T116 279Q115 278 97 278H81Q75 284 75 287T79 304T93 342T119 388T158 425T210 441H218Q243 441 268 421T293 357Q292 337 259 245T226 102Q226 26 285 26Q328 26 360 72T422 237Q429 265 429 290Q428 324 408 349T387 386Z"></path>
<path stroke-width="10" id="E1-MJMAINI-77" d="M591 386Q591 407 610 425T649 443Q670 443 683 423T696 371Q696 327 672 232T621 85Q575 -11 493 -11Q469 -11 449 -6T418 8T398 24T386 38L382 43Q347 -10 293 -10H286Q221 -10 186 21T150 115Q150 164 185 262T221 384Q221 405 206 405Q177 405 157 375T128 313T116 279Q115 278 97 278H81Q75 284 75 287T79 304T93 342T119 388T158 425T210 441H218Q243 441 268 421T293 357Q292 336 260 246T227 108Q227 26 292 26H295Q332 26 361 93L366 103V119Q366 122 367 133T369 150Q372 167 401 282T433 404Q446 431 477 431Q507 431 509 402Q509 396 500 358T474 254T446 140Q444 126 444 104V92Q444 66 459 46T502 26H505Q527 28 545 43T577 88T602 149T623 226Q633 265 633 290Q632 324 612 349T591 386Z"></path>
<path stroke-width="10" id="E1-MJMAINI-78" d="M275 356Q275 383 262 394T233 405Q196 405 166 371T121 289Q119 280 116 279T98 278H81Q77 282 76 283T75 288T78 300Q88 332 109 363T153 411Q195 442 235 442Q306 442 333 386Q373 442 427 442Q461 442 487 421T513 364T494 312T453 296Q436 296 425 305T414 331Q414 352 424 366T446 386L456 390Q448 404 421 404H418Q382 404 358 341Q355 332 328 227T298 105Q295 90 295 75Q295 26 339 26Q365 26 388 43T424 82T444 123T451 146L457 153H474Q490 153 493 152T496 144Q496 133 486 110T456 58T404 10T333 -11Q276 -11 237 45Q197 -11 146 -11Q108 -11 83 10T58 67Q58 99 76 117T119 135Q136 135 147 124T158 96Q158 89 157 85Q149 57 125 45L115 41Q125 26 151 26Q171 26 187 45T214 93Q217 102 244 210T273 330Q275 339 275 356Z"></path>
<path stroke-width="10" id="E1-MJMAINI-79" d="M75 287Q75 299 89 333T135 404T205 441Q246 441 269 420T293 357Q292 338 259 245T225 95Q225 26 274 26Q325 26 367 93L405 245Q442 393 446 404Q460 431 490 431T522 402Q522 400 416 -24Q389 -102 327 -153T196 -205Q152 -205 122 -181T91 -119Q91 -84 110 -67T152 -49Q170 -49 180 -60T191 -87Q191 -108 174 -128Q167 -134 157 -138T146 -144Q155 -153 159 -156T173 -163T199 -167Q229 -167 255 -149T297 -105T325 -52T342 -6T347 15Q315 -10 269 -10Q204 -10 176 25T148 108Q148 161 184 262T221 383Q221 405 206 405Q178 405 158 375T128 313T116 279Q115 278 97 278H81Q75 284 75 287Z"></path>
<path stroke-width="10" id="E1-MJMAINI-7A" d="M160 317Q158 317 155 317Q136 317 136 324Q136 351 171 396T260 442Q292 442 321 410T365 375H369Q384 375 404 408L425 441Q427 442 444 442H460Q466 436 466 434Q466 419 426 367Q387 314 294 222T178 105L170 95L181 94Q198 93 236 81T295 68Q328 68 356 89T395 141Q398 150 401 151T419 153Q441 153 441 144Q441 110 394 50T282 -11Q251 -11 221 23T171 57Q157 57 143 47T121 26T104 3T95 -10Q93 -11 76 -11H60Q54 -5 54 -2Q54 3 61 14Q103 88 233 215Q349 329 349 338L302 351Q269 362 247 362Q227 362 212 356T192 342T183 327T178 320Q175 317 160 317Z"></path>
<path stroke-width="10" id="E1-MJMAINI-30" d="M414 665Q562 665 562 490Q562 426 534 318Q451 -21 251 -21Q222 -21 202 -15Q155 2 134 40T110 144Q110 201 127 286T187 470T287 614Q348 665 414 665ZM187 98Q187 59 208 37T260 15Q320 15 365 83Q394 128 440 312T487 547Q487 580 471 600T433 627Q428 628 408 628Q381 628 353 609T311 569Q279 526 239 364T190 143Q187 120 187 98Z"></path>
<path stroke-width="10" id="E1-MJMAINI-31" d="M248 491Q228 491 228 502Q228 516 236 532Q237 536 246 537T275 541T314 552Q350 567 382 595T430 644L446 664Q450 666 454 666Q468 666 468 658Q468 647 395 359Q321 63 321 59Q321 52 334 50T388 46H422Q428 37 428 35Q428 19 421 5Q416 0 405 0Q400 0 361 1T263 2Q215 2 185 2T142 1T127 0Q110 0 110 11Q110 13 113 25T118 40Q120 46 146 46Q196 46 212 49T235 61Q238 66 295 295L353 526L340 519Q328 512 302 503T248 491Z"></path>
<path stroke-width="10" id="E1-MJMAINI-32" d="M159 404Q159 433 176 476T222 562T297 635T395 666Q466 666 508 617T551 497Q551 473 545 446Q534 388 482 333Q441 292 355 240T264 184Q216 151 179 101L171 91Q171 90 177 90Q206 90 269 77T366 64Q385 64 390 65Q418 73 441 98T475 156Q479 168 481 170T495 173H518Q524 167 524 166T521 152Q502 86 459 32T353 -22Q315 -22 259 15T172 53Q156 53 143 36T126 1L121 -16Q119 -22 98 -22H82Q76 -16 76 -13T80 5T98 50T132 111T189 178T274 242Q327 273 364 305T420 370T447 427T460 483Q466 514 466 538Q466 586 443 607T389 629Q338 629 293 584T226 487T204 399Q204 390 204 386T209 378T222 373Q258 376 282 422T307 493Q307 506 302 517T297 531Q297 537 308 546T327 551Q329 550 333 543T340 523T344 497Q344 450 306 393T216 336Q186 336 173 355T159 396V404Z"></path>
<path stroke-width="10" id="E1-MJMAINI-33" d="M296 531Q296 536 307 544T322 553Q330 553 338 534T346 501Q346 468 319 440T258 412Q232 412 216 430T200 478Q200 552 281 618Q345 666 416 666Q489 666 525 625T562 530Q562 473 525 419T430 335L416 329Q479 288 479 206Q479 142 440 89T344 7T229 -22Q173 -22 135 12T96 106Q96 192 157 192Q192 192 197 157Q197 134 184 117T142 96Q153 47 180 29Q201 15 232 15Q249 15 275 22Q307 34 331 57Q363 90 379 153T396 246Q396 261 393 272T384 290T371 301T355 308T341 311T326 312H316H307Q287 312 282 313T276 320Q276 323 279 337T283 352Q284 356 290 357T325 358Q364 359 368 360Q386 365 400 372T433 397T464 448T485 527Q487 535 487 556Q487 629 414 629Q350 629 298 580T245 476Q245 450 263 450H264Q280 450 294 463T308 496Q308 508 302 518T296 531Z"></path>
<path stroke-width="10" id="E1-MJMAINI-34" d="M448 34Q453 34 463 22T473 5Q473 -2 457 -7Q417 -22 383 -23H366L350 -91Q348 -98 345 -111T340 -130T335 -146T330 -161T325 -172T318 -182T310 -188T299 -193T286 -194Q256 -194 253 -165Q253 -159 271 -83T292 -5Q231 29 169 29Q114 29 91 14Q72 -2 65 1Q46 20 46 28Q46 35 55 43T77 60T96 74Q306 257 396 623Q410 666 444 666Q459 666 468 657T478 634Q478 627 470 595T440 504T387 381T303 239T187 99L164 75H178Q217 75 260 59L304 43Q304 48 325 127Q342 195 346 207T358 228Q372 242 391 242Q403 242 413 235T423 214Q423 205 402 116T378 25Q378 23 387 23Q405 23 418 25T439 31T448 34Z"></path>
<path stroke-width="10" id="E1-MJMAINI-35" d="M196 304Q189 309 189 314Q189 317 231 487T275 660Q278 666 283 666Q287 666 302 658T346 643T413 635Q447 635 481 642T537 658T559 666Q561 666 564 663T567 658Q565 637 557 629Q528 600 474 573T359 545Q342 545 327 546T304 550T294 552L291 540Q288 529 283 507T273 465L251 379Q307 420 364 420Q415 420 456 382T497 261Q497 165 429 82T262 -20Q256 -20 247 -21T233 -22Q176 -22 141 15T106 112Q106 208 173 208Q192 208 203 197T214 169Q214 143 195 125T156 107H153V100Q155 73 174 47T239 21Q245 21 259 23Q355 46 392 200Q393 205 394 207Q412 276 412 312Q412 352 396 367T358 383Q288 383 233 314Q226 306 224 305T209 304H196Z"></path>
<path stroke-width="10" id="E1-MJMAINI-36" d="M377 434Q425 434 457 404T499 341T509 278Q509 243 496 194T456 105T383 27Q322 -22 256 -22Q142 -22 122 114Q120 130 120 159Q120 221 135 292T195 452T310 599Q390 665 465 665Q565 665 565 583V574Q565 543 546 524Q528 506 504 506Q491 506 478 514T465 543Q465 585 515 602Q505 626 466 626Q419 626 372 587Q334 557 305 503T266 409L255 370Q287 410 339 429Q361 434 377 434ZM424 333Q424 359 411 378T365 397Q318 397 282 356T230 257T205 157T197 94Q197 67 211 45T260 22Q313 22 341 57T386 151Q424 283 424 333Z"></path>
<path stroke-width="10" id="E1-MJMAINI-37" d="M466 519Q448 519 435 528T416 550T400 571T376 581Q324 581 271 540T186 437Q185 435 183 432T181 428T179 426T177 424T174 423T171 422T165 422H159Q141 422 141 423Q136 423 136 431Q136 433 190 548T247 665Q249 666 266 666H282Q288 660 288 657Q288 655 284 646T276 628L273 620Q337 666 390 666Q413 666 425 652T438 620T444 584T457 559Q460 557 470 557Q497 557 524 582T571 635T594 665Q595 666 612 666H628Q634 660 634 657Q634 653 618 629T572 556T510 441T437 269T367 43Q356 -22 304 -22Q291 -22 278 -14T263 14Q263 36 281 95T354 269T486 507Q497 524 495 524Q482 519 466 519Z"></path>
<path stroke-width="10" id="E1-MJMAINI-38" d="M209 449Q209 545 278 605T416 666Q482 666 517 631T553 546Q553 513 539 482T504 430T463 394T426 370L410 360L430 343Q471 309 483 278T495 211Q495 141 441 75Q363 -21 253 -21Q182 -21 141 18T99 117Q99 161 119 201T170 268T222 308T259 331L272 338L259 349Q212 389 209 449ZM492 542Q492 586 469 605T415 625Q360 625 320 587T279 505Q279 495 281 487T286 474T295 460T306 449T321 436T337 422Q379 386 380 386Q389 386 420 412T472 471Q492 513 492 542ZM163 118Q163 76 189 49T258 21Q316 21 368 64T420 170Q420 193 412 208T395 233T350 271L302 312Q298 312 284 303T249 276T209 235T177 181T163 118Z"></path>
<path stroke-width="10" id="E1-MJMAINI-39" d="M297 211Q258 211 230 228T189 273T169 323T163 367Q163 411 183 472T254 585Q327 656 401 665Q403 665 412 665T427 666Q458 664 481 652T518 622T539 580T550 535T553 491Q553 448 544 395T515 277T454 148T358 37Q282 -22 213 -22Q166 -22 137 -1T107 55V64Q107 88 114 104T134 127T154 136T169 138Q185 138 196 128T207 101Q207 82 196 68T172 48L161 43Q161 40 167 36T187 26T219 21Q286 21 344 99Q364 126 382 169T408 241T417 275L412 269Q406 263 395 253T370 234T337 218T297 211ZM476 552Q476 626 417 626Q368 626 330 584Q312 563 300 533T270 433Q248 341 248 312Q248 286 262 267T310 248Q353 248 387 287T440 380T467 480T476 552Z"></path>
</defs>
<g stroke="currentColor" fill="currentColor" stroke-width="0" transform="matrix(1 0 0 -1 0 0)">
 <use xlink:href="#E1-MJMAINI-73" x="0" y="0"></use>
 <use xlink:href="#E1-MJMAINI-74" x="414" y="0"></use>
 <use xlink:href="#E1-MJMAINI-75" x="751" y="0"></use>
 <use xlink:href="#E1-MJMAINI-76" x="1293" y="0"></use>
 <use xlink:href="#E1-MJMAINI-77" x="1758" y="0"></use>
 <use xlink:href="#E1-MJMAINI-78" x="2427" y="0"></use>
 <use xlink:href="#E1-MJMAINI-79" x="2896" y="0"></use>
 <use xlink:href="#E1-MJMAINI-7A" x="3387" y="0"></use>
<g transform="translate(3801,0)">
 <use xlink:href="#E1-MJMAINI-30"></use>
 <use xlink:href="#E1-MJMAINI-31" x="516" y="0"></use>
 <use xlink:href="#E1-MJMAINI-32" x="1032" y="0"></use>
 <use xlink:href="#E1-MJMAINI-33" x="1548" y="0"></use>
 <use xlink:href="#E1-MJMAINI-34" x="2064" y="0"></use>
 <use xlink:href="#E1-MJMAINI-35" x="2580" y="0"></use>
 <use xlink:href="#E1-MJMAINI-36" x="3096" y="0"></use>
 <use xlink:href="#E1-MJMAINI-37" x="3612" y="0"></use>
 <use xlink:href="#E1-MJMAINI-38" x="4128" y="0"></use>
 <use xlink:href="#E1-MJMAINI-39" x="4644" y="0"></use>
</g>
</g>
</svg>