<?xml version="1.0" standalone="no"?>
<!DOCTYPE svg PUBLIC "-//W3C//DTD SVG 1.1//EN" "http://www.w3.org/Graphics/SVG/1.1/DTD/svg11.dtd">
<svg xmlns:xlink="http://www.w3.org/1999/xlink" width="24.162ex" height="2.843ex" style="vertical-align: -0.671ex; margin-left: -0.051ex;" viewBox="-22 -934.9 10403 1223.9" xmlns="http://www.w3.org/2000/svg">
<defs>
<path stroke-width="10" id="E1-MJCAL-4E" d="M343 705Q358 705 358 698Q360 696 370 658T411 524T484 319Q536 174 590 82L595 73L615 152Q646 274 683 407Q729 571 752 637T799 727Q852 780 937 788Q939 788 947 788T958 789H962Q979 789 979 765Q979 722 951 692Q942 683 924 683Q888 681 859 672T818 654T803 639Q784 608 708 322T631 15Q631 14 630 15Q630 17 629 15Q628 14 628 12Q621 -4 601 -17T560 -31Q550 -31 546 -28T530 -7Q484 67 458 123T398 272Q352 392 314 514L306 535V534Q306 533 296 488T272 379T234 239T185 100T127 -7T61 -50Q34 -50 4 -34T-27 8Q-27 33 -12 61T18 90Q21 90 36 77T87 57H92Q109 57 123 78T162 173Q206 299 232 417T265 599T276 667Q284 681 304 693T343 705Z"></path>
<path stroke-width="10" id="E1-MJCAL-4F" d="M308 428Q289 428 289 438Q289 457 318 508T378 593Q417 638 475 671T599 705Q688 705 732 643T777 483Q777 380 733 285T620 123T464 18T293 -22Q188 -22 123 51T58 245Q58 327 87 403T159 533T249 626T333 685T388 705Q404 705 404 693Q404 674 363 649Q333 632 304 606T239 537T181 429T158 290Q158 179 214 114T364 48Q489 48 583 165T677 438Q677 473 670 505T648 568T601 617T528 636Q518 636 513 635Q486 629 460 600T419 544T392 490Q383 470 372 459Q341 430 308 428Z"></path>
<path stroke-width="10" id="E1-MJCAL-50" d="M37 475Q19 475 19 487Q19 536 103 604T327 682Q329 682 344 682T380 682T421 683H463Q625 683 695 615Q718 591 726 564Q733 547 733 525Q733 412 607 312T321 205H312Q293 205 293 217Q293 224 302 236T333 260T385 274Q558 287 614 407Q633 445 633 477Q633 515 612 543T556 585T481 607T399 614H370L368 603Q352 463 312 312T242 82T202 -13Q190 -33 164 -45T121 -57Q108 -57 108 -45Q108 -40 120 -10T151 73T192 190T233 349T266 539Q267 546 269 565T272 598T274 613H270Q209 613 163 588Q131 572 113 518Q102 502 80 490T37 475Z"></path>
<path stroke-width="10" id="E1-MJCAL-51" d="M114 286Q114 358 151 433T249 569T392 667T558 705Q653 705 713 641T774 460Q774 389 750 322T687 206T600 114T504 46T412 4L399 -2Q542 -62 636 -62Q660 -62 670 -54T686 -27T700 0Q734 34 770 34Q787 34 787 23Q787 -18 720 -74T563 -131Q485 -131 350 -83T145 -34Q127 -34 127 -22Q127 -12 144 5T190 31L200 34L237 35Q386 38 467 79Q550 120 612 210T675 416Q675 510 625 573T484 636Q410 636 346 587T248 469T214 333Q214 306 221 281T243 229T288 188T360 172Q403 172 441 188T490 205Q510 205 510 192Q505 162 432 132T287 102Q206 102 160 155T114 286Z"></path>
<path stroke-width="10" id="E1-MJCAL-52" d="M37 475Q19 475 19 487Q19 503 35 530T83 589T180 647T327 682H374Q387 682 417 682T464 683Q519 683 559 679T642 663T708 625T731 557Q731 481 668 411T504 300Q506 296 512 286T528 257T553 202Q594 105 611 82Q635 47 665 47Q708 47 742 93Q758 113 786 128Q804 136 819 137Q837 137 837 125Q837 115 818 92T767 43T687 -2T589 -22Q549 -22 517 22T467 120T422 221T362 273Q346 273 346 287Q348 301 373 320T436 342Q437 342 446 343T462 345T481 348T504 353T527 362T553 375T577 393Q598 412 614 443T630 511Q630 545 613 566T541 600T393 614Q370 614 370 613L366 584Q349 446 311 307T243 96L213 25Q205 8 179 -7T132 -22Q125 -22 120 -18T117 -8Q117 -5 130 26T163 113T205 239T246 408T274 606V614Q273 614 259 613T231 609T198 602T163 588Q131 572 113 518Q102 502 80 490T37 475Z"></path>
<path stroke-width="10" id="E1-MJCAL-53" d="M554 512Q536 512 536 522Q536 525 539 539T542 564Q542 588 528 604Q515 616 482 625T410 635Q374 635 349 624T312 594T295 561T290 532Q290 505 303 482T342 442T378 419T409 404Q435 391 451 383T494 357T535 323T562 282T574 231Q574 133 464 56T220 -22Q138 -22 78 21T18 123Q18 184 61 227T156 274Q178 274 178 263Q178 260 177 258Q172 247 164 239T151 227T136 218L127 213L124 202Q118 186 118 163Q120 124 165 86T292 48Q374 48 423 86T473 186V193Q473 267 347 327Q268 364 239 389Q191 431 191 486Q191 547 242 600T356 679T470 705Q472 705 478 705T489 704Q551 704 596 682T642 610Q642 566 621 545Q592 516 554 512Z"></path>
<path stroke-width="10" id="E1-MJCAL-54" d="M49 475Q34 475 34 490Q34 552 106 611T261 681Q272 683 507 683H742Q790 717 816 717Q833 717 833 708Q833 682 795 653T714 615Q691 610 588 609Q490 609 490 607L483 580Q476 554 462 496T435 392Q410 289 395 231T363 116T335 34T309 -15T279 -47T242 -64Q231 -68 218 -68Q203 -68 203 -57Q203 -52 211 -38Q224 -7 234 20T251 66T268 123T283 179T304 261T328 360Q342 415 360 488Q380 567 384 582T397 605Q400 607 401 609H302H244Q200 609 188 607T167 596Q145 572 145 541Q145 520 109 498T49 475Z"></path>
<path stroke-width="10" id="E1-MJCAL-55" d="M8 592Q8 616 70 649T193 683Q246 683 246 631Q246 587 205 492T124 297T83 143Q83 101 100 75T154 48Q202 48 287 135T450 342T560 553Q589 635 593 640Q603 656 626 668T669 683H670Q687 683 687 672T670 616T617 463T547 220Q525 137 521 68Q521 54 522 50T533 42L543 47Q573 61 588 61Q604 61 604 47Q599 16 506 -22Q486 -28 468 -28T436 -18T421 18Q421 92 468 258Q468 259 467 257T459 248Q426 206 391 167T303 81T194 6T83 -22Q66 -22 58 -20Q25 -11 4 19T-17 99Q-17 146 8 220T64 358T120 488T146 586Q146 604 141 608T123 613H120Q99 613 72 597T25 580Q8 580 8 592Z"></path>
<path stroke-width="10" id="E1-MJCAL-56" d="M25 633Q25 647 47 665T100 683Q291 683 291 306Q291 264 288 213T282 132L279 102Q281 102 308 126T378 191T464 279T545 381T596 479Q600 490 600 502Q600 527 581 550T523 577Q505 577 505 601Q505 622 516 647T542 681Q546 683 558 683Q605 679 631 645T658 559Q658 423 487 215Q409 126 308 37T190 -52Q177 -52 177 -28Q177 -26 183 15T196 127T203 270Q203 356 192 421T165 523T126 583T83 613T41 620Q25 620 25 633Z"></path>
<path stroke-width="10" id="E1-MJCAL-57" d="M25 633Q25 647 46 665T103 683Q168 683 207 632Q228 608 243 568Q269 485 269 374Q269 324 265 271T256 184L251 150L252 152Q254 153 257 157T264 167T274 180T286 197Q359 293 424 398T519 558T549 616Q549 618 547 624T545 638Q550 654 572 668T615 683Q626 683 632 672T657 595Q726 370 741 128L742 110Q752 122 767 142T823 217T894 321T950 424T976 511Q976 544 958 560T918 577Q906 577 906 602Q906 629 918 651T942 681Q948 683 954 683Q983 683 1008 658T1034 569T999 421T915 257T813 109T724 -3T681 -49Q666 -59 660 -45Q659 -41 657 35T639 233T591 477Q573 551 570 551Q569 551 554 523T507 439T433 315T323 155T182 -25Q160 -52 151 -53Q137 -53 137 -30Q137 -29 148 25T170 168T181 338Q181 424 168 483T131 571T87 609T40 620Q25 620 25 633Z"></path>
<path stroke-width="10" id="E1-MJCAL-58" d="M324 614Q291 576 250 573Q231 573 231 584Q231 589 232 592Q235 601 244 614T271 643T324 671T400 683H403Q462 683 481 610Q485 594 490 545T498 454L501 413Q504 413 551 442T648 509T705 561Q707 565 707 578Q707 610 682 614Q667 614 667 626Q667 641 695 662T755 683Q765 683 775 680T796 662T807 623Q807 596 792 572T713 499T530 376L505 361V356Q508 346 511 278T524 148T557 75Q569 69 580 69Q585 69 593 77Q624 108 660 110Q667 110 670 110T676 106T678 94Q668 59 624 30T510 0Q487 0 471 9T445 32T430 71T422 117T417 173Q416 183 416 188Q413 214 411 244T407 286T405 299Q403 299 344 263T223 182T154 122Q152 118 152 105Q152 69 180 69Q183 69 187 66T191 60L192 58V56Q192 41 163 21T105 0Q94 0 84 3T63 21T52 60Q52 77 56 90T85 131T155 191Q197 223 259 263T362 327T402 352L391 489Q391 492 390 505T387 526T384 547T379 568T372 586T361 602T348 611Q346 612 341 613T333 614H324Z"></path>
<path stroke-width="10" id="E1-MJCAL-59" d="M65 599Q65 618 107 650T204 683Q267 683 312 643T380 533T414 385T424 217Q424 186 423 160T422 123Q426 123 468 170T567 304T650 469Q661 503 661 519Q661 546 639 570Q615 591 583 591Q569 591 569 616Q569 640 582 661T613 683Q624 683 638 679T671 664T702 625T714 558Q714 472 639 329T426 45Q361 -21 282 -82T154 -143Q97 -143 64 -104T31 -20Q31 4 44 25T70 46Q78 46 81 39T87 16T97 -9Q127 -51 182 -51Q184 -51 187 -50H190Q233 -41 314 25Q330 36 330 40Q336 79 336 178Q336 508 223 594Q199 614 158 619L148 620L139 611Q111 586 83 586Q65 586 65 599Z"></path>
<path stroke-width="10" id="E1-MJCAL-5A" d="M694 220Q708 220 708 210Q708 195 695 167T658 105T593 42T502 3Q492 1 458 1Q400 1 293 11T150 22Q116 22 92 11T51 0Q37 0 37 10Q37 21 63 44T179 146T367 319L391 343H343L296 344Q285 350 285 358Q285 365 289 372T300 383T313 392T324 398L329 400H450L561 518Q597 558 607 571L621 587H596Q553 589 484 599T383 609Q342 609 326 596T301 555Q294 533 263 514T208 492Q189 492 189 503Q189 510 197 528T215 559Q249 607 318 645T466 683Q504 683 573 673T669 662L690 661Q734 682 748 683Q767 683 767 673Q767 666 746 640Q655 531 555 428L529 400Q529 399 543 399Q604 397 604 366Q604 350 587 337T551 322Q541 322 539 323Q529 328 529 334Q529 339 487 342L470 343L446 320Q272 153 200 96L235 95Q297 95 392 86T533 74H554Q586 116 597 159Q604 179 635 199T694 220Z"></path>
</defs>
<g stroke="currentColor" fill="currentColor" stroke-width="0" transform="matrix(1 0 0 -1 0 0)">
 <use xlink:href="#E1-MJCAL-4E" x="0" y="0"></use>
 <use xlink:href="#E1-MJCAL-4F" x="984" y="0"></use>
 <use xlink:href="#E1-MJCAL-50" x="1785" y="0"></use>
 <use xlink:href="#E1-MJCAL-51" x="2523" y="0"></use>
 <use xlink:href="#E1-MJCAL-52" x="3345" y="0"></use>
 <use xlink:href="#E1-MJCAL-53" x="4198" y="0"></use>
 <use xlink:href="#E1-MJCAL-54" x="4845" y="0"></use>
 <use xlink:href="#E1-MJCAL-55" x="5683" y="0"></use>
 <use xlink:href="#E1-MJCAL-56" x="6375" y="0"></use>
 <use xlink:href="#E1-MJCAL-57" x="7038" y="0"></use>
 <use xlink:href="#E1-MJCAL-58" x="8078" y="0"></use>
 <use xlink:href="#E1-MJCAL-59" x="8890" y="0"></use>
 <use xlink:href="#E1-MJCAL-5A" x="9609" y="0"></use>
</g>
</svg>