<?xml version="1.0" standalone="no"?>
<!DOCTYPE svg PUBLIC "-//W3C//DTD SVG 1.1//EN" "http://www.w3.org/Graphics/SVG/1.1/DTD/svg11.dtd">
<svg xmlns:xlink="http://www.w3.org/1999/xlink" width="9.825ex" height="2.676ex" style="vertical-align: -0.838ex;" viewBox="0 -791.3 4230 1152.1" xmlns="http://www.w3.org/2000/svg">
<defs>
<path stroke-width="10" id="E1-MJMATHI-3B5" d="M190 -22Q124 -22 76 11T27 107Q27 174 97 232L107 239L99 248Q76 273 76 304Q76 364 144 408T290 452H302Q360 452 405 421Q428 405 428 392Q428 381 417 369T391 356Q382 356 371 365T338 383T283 392Q217 392 167 368T116 308Q116 289 133 272Q142 263 145 262T157 264Q188 278 238 278H243Q308 278 308 247Q308 206 223 206Q177 206 142 219L132 212Q68 169 68 112Q68 39 201 39Q253 39 286 49T328 72T345 94T362 105Q376 103 376 88Q376 79 365 62T334 26T275 -8T190 -22Z"></path>
<path stroke-width="10" id="E1-MJMATHI-3D1" d="M537 500Q537 474 533 439T524 383L521 362Q558 355 561 351Q563 349 563 345Q563 321 552 318Q542 318 521 323L510 326Q496 261 459 187T362 51T241 -11Q100 -11 100 105Q100 139 127 242T154 366Q154 405 128 405Q107 405 92 377T68 316T57 280Q55 278 41 278H27Q21 284 21 287Q21 291 27 313T47 368T79 418Q103 442 134 442Q169 442 201 419T233 344Q232 330 206 228T180 98Q180 26 247 26Q292 26 332 90T404 260L427 349Q422 349 398 359T339 392T289 440Q265 476 265 520Q265 590 312 647T417 705Q463 705 491 670T528 592T537 500ZM464 564Q464 668 413 668Q373 668 339 622T304 522Q304 494 317 470T349 431T388 406T421 391T435 387H436L443 415Q450 443 457 485T464 564Z"></path>
<path stroke-width="10" id="E1-MJAMS-3F0" d="M228 325Q170 322 156 316T127 309Q108 309 104 314Q99 319 99 322T108 341Q125 376 171 400T268 425H271Q302 425 319 396Q328 377 328 358Q328 332 324 314Q311 270 286 221Q274 194 274 192H275Q339 234 484 325T639 421Q669 434 691 434T723 425T734 406Q734 394 719 381Q715 376 644 330L575 287L566 267Q543 233 526 176Q520 160 515 143T508 115T506 105Q506 103 533 103Q585 103 607 110T641 118Q670 118 670 107Q670 100 661 85Q643 50 598 27T504 3Q465 3 450 36Q441 51 441 73Q441 84 444 96Q452 146 484 205L497 236L324 125Q143 12 135 10Q103 -6 77 -6Q61 -6 49 2T37 21Q37 36 49 46T124 96L195 141L204 156Q219 179 243 248T264 323Q264 325 228 325Z"></path>
<path stroke-width="10" id="E1-MJMATHI-3D6" d="M206 -10Q158 -10 136 24T114 110Q114 233 199 349L205 358H184Q144 358 121 347Q108 340 95 330T75 312T61 295T53 285Q51 284 38 284Q19 284 19 294Q19 300 38 329T93 391T164 429Q171 431 532 431Q799 431 803 430Q823 423 823 402Q823 377 801 364Q790 358 766 358Q748 358 748 357Q748 355 749 348T752 327T754 297Q754 258 738 207T693 107T618 24T520 -10Q488 -10 466 2T432 36T416 77T411 120Q411 128 410 128T404 122Q373 71 323 31T206 -10ZM714 296Q714 316 707 358H251Q250 357 244 348T230 328T212 301T193 267T176 229T164 187T159 144Q159 62 222 62Q290 62 349 127T432 285Q433 286 434 288T435 291T437 293T440 294T444 294T452 294H466Q472 288 472 286Q472 285 464 244T456 170Q456 62 534 62Q604 62 659 139T714 296Z"></path>
<path stroke-width="10" id="E1-MJMATHI-3F1" d="M205 -174Q136 -174 102 -153T67 -76Q67 -25 91 85T127 234Q143 289 182 341Q252 427 341 441Q343 441 349 441T359 442Q432 442 471 394T510 276Q510 169 431 80T253 -10Q226 -10 204 -2T169 19T146 44T132 64L128 73Q128 72 124 53T116 5T112 -44Q112 -68 117 -78T150 -95T236 -102Q327 -102 356 -111T386 -154Q386 -166 384 -178Q381 -190 378 -192T361 -194H348Q342 -188 342 -179Q342 -169 315 -169Q294 -169 264 -171T205 -174ZM424 322Q424 359 407 382T357 405Q322 405 287 376T231 300Q221 276 204 217Q188 152 188 116Q188 68 210 47T259 26Q297 26 334 62Q367 92 389 158T418 266T424 322Z"></path>
<path stroke-width="10" id="E1-MJMATHI-3C2" d="M31 207Q31 306 115 374T302 442Q341 442 373 430T405 400Q405 392 399 383T379 374Q373 375 348 390T296 405Q222 405 160 357T98 249Q98 232 103 218T112 195T132 175T154 159T186 141T219 122Q234 114 255 102T286 85T299 78L302 74Q306 71 308 69T315 61T322 51T328 40T332 25T334 8Q334 -31 305 -69T224 -107Q194 -107 163 -92Q156 -88 156 -80Q156 -73 162 -67T178 -61Q186 -61 190 -63Q209 -71 224 -71Q244 -71 253 -59T263 -30Q263 -25 263 -21T260 -12T255 -4T248 3T239 9T227 17T213 25T195 34T174 46Q170 48 150 58T122 74T97 90T70 112T51 137T36 169T31 207Z"></path>
<path stroke-width="10" id="E1-MJMATHI-3C6" d="M92 210Q92 176 106 149T142 108T185 85T220 72L235 70L237 71L250 112Q268 170 283 211T322 299T370 375T429 423T502 442Q547 442 582 410T618 302Q618 224 575 152T457 35T299 -10Q273 -10 273 -12L266 -48Q260 -83 252 -125T241 -179Q236 -203 215 -212Q204 -218 190 -218Q159 -215 159 -185Q159 -175 214 -2L209 0Q204 2 195 5T173 14T147 28T120 46T94 71T71 103T56 142T50 190Q50 238 76 311T149 431H162Q183 431 183 423Q183 417 175 409Q134 361 114 300T92 210ZM574 278Q574 320 550 344T486 369Q437 369 394 329T323 218Q309 184 295 109L286 64Q304 62 306 62Q423 62 498 131T574 278Z"></path>
</defs>
<g stroke="currentColor" fill="currentColor" stroke-width="0" transform="matrix(1 0 0 -1 0 0)">
 <use xlink:href="#E1-MJMATHI-3B5" x="0" y="0"></use>
 <use xlink:href="#E1-MJMATHI-3D1" x="471" y="0"></use>
 <use xlink:href="#E1-MJAMS-3F0" x="1067" y="0"></use>
 <use xlink:href="#E1-MJMATHI-3D6" x="1806" y="0"></use>
<g transform="translate(2639,0)">
 <use xlink:href="#E1-MJMATHI-3F1" x="0" y="0"></use>
 <use xlink:href="#E1-MJMATHI-3C2" x="522" y="0"></use>
 <use xlink:href="#E1-MJMATHI-3C6" x="932" y="0"></use>
</g>
</g>
</svg>