<?xml version="1.0" standalone="no"?>
<!DOCTYPE svg PUBLIC "-//W3C//DTD SVG 1.1//EN" "http://www.w3.org/Graphics/SVG/1.1/DTD/svg11.dtd">
<svg xmlns:xlink="http://www.w3.org/1999/xlink" width="10.408ex" height="3.176ex" style="vertical-align: -1.005ex;" viewBox="0 -934.9 4481 1367.4" xmlns="http://www.w3.org/2000/svg">
<defs>
<path stroke-width="10" id="E1-MJAMS-2270" d="M82 -124Q82 -120 83 -117T89 -110T95 -103H220L284 50Q346 204 344 206L218 268Q153 297 123 313T87 333T82 344T86 355Q104 369 291 455Q491 552 491 553L542 673Q581 767 590 784T609 801Q616 801 622 795T629 781Q629 773 586 677Q546 581 546 577L609 606Q669 635 673 635Q680 635 686 629T693 615Q693 610 692 608T670 593T604 561L524 521L400 226L542 157Q617 123 649 107T687 85T694 72Q694 66 690 60T679 54Q664 54 526 121Q513 127 495 136T464 150T438 162T416 173T399 180T388 185L384 186Q383 186 322 41L262 -103H680Q682 -105 684 -108T688 -113T691 -118T693 -124Q693 -134 682 -141L464 -143H246L213 -219Q182 -292 178 -299Q172 -303 166 -303T153 -297T146 -283Q146 -282 174 -213T202 -143H146L93 -141Q82 -134 82 -124ZM418 370L466 495Q464 495 308 420T151 344T204 317T311 267T364 244Q364 247 418 370Z"></path>
<path stroke-width="10" id="E1-MJMAIN-2C" d="M78 35T78 60T94 103T137 121Q165 121 187 96T210 8Q210 -27 201 -60T180 -117T154 -158T130 -185T117 -194Q113 -194 104 -185T95 -172Q95 -168 106 -156T131 -126T157 -76T173 -3V9L172 8Q170 7 167 6T161 3T152 1T140 0Q113 0 96 17Z"></path>
<path stroke-width="10" id="E1-MJAMS-2271" d="M97 54Q82 54 82 72Q82 79 86 84Q95 91 222 153L351 215L398 324L442 433L258 519Q95 597 87 604Q82 608 82 615T88 628T102 635Q107 635 424 484L458 468L524 630Q593 789 597 795Q601 801 609 801Q616 801 622 795T629 781L562 615L493 450L589 406Q665 371 679 362T694 344Q694 339 693 337T677 326T631 302T538 257Q504 241 465 223T406 195T386 186Q384 185 322 39L262 -103H680Q682 -105 684 -108T688 -113T691 -118T693 -124Q693 -134 682 -141L464 -143H246L213 -219Q182 -292 178 -299Q172 -303 166 -303T153 -297T146 -283Q146 -282 174 -213T202 -143H146L93 -141Q82 -134 82 -124Q82 -120 83 -117T89 -110T95 -103H220L273 26Q326 156 326 157L218 106Q109 54 97 54ZM553 379Q480 412 480 415Q479 415 460 372T423 285T406 241Q408 240 516 291T624 344L553 379Z"></path>
<path stroke-width="10" id="E1-MJAMS-2A87" d="M380 497Q445 528 522 564T636 618T673 635Q680 635 686 628T693 615T689 603Q686 599 418 472L151 343L418 215Q686 88 689 83Q693 79 693 72T687 59T675 52Q669 52 381 189T86 332Q82 337 82 344Q82 350 86 355Q91 359 380 497ZM82 -130T82 -124T95 -103H380L431 -54Q476 -6 486 -6Q491 -6 498 -12T505 -27Q505 -28 505 -29T504 -32Q503 -33 498 -38T485 -53T469 -70L438 -103H680Q682 -106 686 -110T691 -116T693 -123Q693 -130 680 -143H398L346 -192Q300 -241 291 -241Q271 -241 271 -221Q271 -209 306 -179L340 -143H95Q82 -130 82 -124Z"></path>
<path stroke-width="10" id="E1-MJAMS-2A88" d="M82 614Q82 620 86 625T94 632T100 635Q106 635 394 498T689 355Q693 349 693 343Q693 338 689 332Q683 327 395 190T100 52Q95 52 89 58T82 72Q82 80 95 88Q114 99 358 215L624 343L358 472Q89 599 86 603Q82 607 82 614ZM82 -130T82 -124T95 -103H380L431 -54Q476 -6 486 -6Q491 -6 498 -12T505 -27Q505 -28 505 -29T504 -32Q503 -33 498 -38T485 -53T469 -70L438 -103H680Q682 -106 686 -110T691 -116T693 -123Q693 -130 680 -143H398L346 -192Q300 -241 291 -241Q271 -241 271 -221Q271 -209 306 -179L340 -143H95Q82 -130 82 -124Z"></path>
</defs>
<g stroke="currentColor" fill="currentColor" stroke-width="0" transform="matrix(1 0 0 -1 0 0)">
 <use xlink:href="#E1-MJAMS-2270" x="0" y="0"></use>
 <use xlink:href="#E1-MJMAIN-2C" x="783" y="0"></use>
 <use xlink:href="#E1-MJAMS-2271" x="1232" y="0"></use>
 <use xlink:href="#E1-MJMAIN-2C" x="2015" y="0"></use>
 <use xlink:href="#E1-MJAMS-2A87" x="2465" y="0"></use>
 <use xlink:href="#E1-MJMAIN-2C" x="3248" y="0"></use>
 <use xlink:href="#E1-MJAMS-2A88" x="3698" y="0"></use>
</g>
</svg>