<?xml version="1.0" standalone="no"?>
<!DOCTYPE svg PUBLIC "-//W3C//DTD SVG 1.1//EN" "http://www.w3.org/Graphics/SVG/1.1/DTD/svg11.dtd">
<svg xmlns:xlink="http://www.w3.org/1999/xlink" width="26.445ex" height="2.343ex" style="vertical-align: -0.338ex;" viewBox="0 -863.1 11386 1008.6" xmlns="http://www.w3.org/2000/svg">
<defs>
<path stroke-width="10" id="E1-MJMATHBI-41" d="M65 0Q45 0 45 18Q48 52 61 60Q65 62 81 62Q155 62 165 74Q166 74 265 228T465 539T569 699Q576 707 583 709T611 711T637 710T649 700Q650 697 695 380L741 63L784 62H827Q839 50 839 45L835 29Q831 9 827 5T806 0Q803 0 790 0T743 1T657 2Q585 2 547 1T504 0Q481 0 481 17Q484 54 497 60Q501 62 541 62Q580 62 580 63Q580 68 573 121T564 179V181H308L271 124Q236 69 236 67T283 62H287Q316 62 316 46Q316 26 307 8Q302 3 295 0L262 1Q242 2 168 2Q119 2 93 1T65 0ZM537 372Q533 402 528 435T521 486T518 504V505Q517 505 433 375L348 244L451 243Q555 243 555 244L537 372Z"></path>
<path stroke-width="10" id="E1-MJMATHBI-42" d="M258 624H235Q214 624 209 626T199 639Q203 678 216 684Q220 686 449 686H477H586Q684 686 733 677T817 634Q853 598 853 547Q853 499 826 460T761 401T695 371T654 360H653L662 358Q670 357 683 354T712 344T744 327T774 303T795 269T804 224Q804 148 732 79T533 1Q524 0 288 0H58Q47 5 43 15Q47 54 60 60Q64 62 113 62H162L302 623Q302 624 258 624ZM703 550Q703 571 695 586T675 609T656 619T643 623L545 624H447L417 504Q386 384 386 383T470 382Q554 383 565 385Q632 397 667 447T703 550ZM651 240Q651 265 645 282T626 309T608 322T592 329Q587 330 479 331H373L340 198Q307 65 306 64Q306 62 406 62L507 63L519 65Q565 76 596 107T639 171T651 240Z"></path>
<path stroke-width="10" id="E1-MJMATHBI-43" d="M380 -17Q335 -17 293 -10T207 16T130 65T76 144T55 256Q55 306 70 361T122 476T211 582T345 663T525 702H545Q673 702 731 634L777 668Q783 672 789 677T800 685T808 691T814 695T818 698T822 700T825 702T828 703T830 703T833 703Q855 703 855 690Q855 686 823 558T789 426Q786 421 782 420T756 419Q734 420 729 421T724 432Q724 434 725 447T726 472Q726 552 678 604Q640 640 586 640H574Q533 640 494 632T409 604T324 541T260 437Q243 397 227 333T210 219Q210 152 237 117Q255 90 299 68T420 46H429Q506 46 580 100T678 234Q683 249 687 251T712 254H723Q743 254 743 240Q743 232 736 213T710 162T663 100T586 40T477 -5Q433 -17 380 -17Z"></path>
<path stroke-width="10" id="E1-MJMATHBI-44" d="M258 624H235Q214 624 209 626T199 639Q203 678 216 684Q220 686 437 686Q659 686 668 685Q727 680 772 662T842 621T883 568T905 517T913 475Q914 466 914 434Q914 373 892 307T828 179T712 69T548 7Q517 2 494 2T279 0H58Q47 5 43 15Q47 54 60 60Q64 62 113 62H162L302 623Q302 624 258 624ZM768 475Q768 515 753 544T718 588T666 611T613 622T563 624H538H532H452L382 344Q311 64 311 63T363 62H405Q490 62 545 76T656 142Q696 185 724 265T760 399T768 475Z"></path>
<path stroke-width="10" id="E1-MJMATHBI-45" d="M257 618H231Q198 618 198 636Q202 672 214 678L219 680H811Q817 677 820 673T824 666L825 664Q825 659 814 549T799 433Q793 424 771 424Q752 424 746 427T740 441Q740 445 742 466T744 505Q744 561 722 585T646 616Q639 617 545 618H456Q456 617 427 502T398 385Q398 384 435 384Q461 385 471 385T499 391T526 405T545 433T562 478Q566 494 571 497T595 501H604Q622 501 626 486Q626 482 593 349T557 213Q552 205 530 205Q499 205 499 219Q499 222 503 242T508 281Q508 308 491 314T429 322Q425 322 423 322H382L317 64Q317 62 390 62Q460 62 493 64T569 80T640 124Q665 149 686 187T719 253T733 283Q739 289 760 289Q791 289 791 274Q791 267 763 201T706 71L678 8Q676 4 667 0H58Q47 5 43 15Q47 54 60 60Q64 62 113 62H162L163 66Q163 67 231 341T301 616Q301 618 257 618Z"></path>
<path stroke-width="10" id="E1-MJMATHBI-46" d="M257 618H231Q198 618 198 636Q202 672 214 678L219 680H795Q801 677 804 673T808 666L809 664Q809 659 798 549T783 433Q777 424 755 424Q736 424 730 427T724 444Q724 448 725 468T727 507V524Q727 541 724 554T713 577T698 594T676 605T653 612T625 616T597 617T566 618T538 618H456L455 614Q455 611 424 491L394 371H429Q454 372 463 372T491 378T517 392T536 419T552 464Q556 481 561 484T586 488Q603 488 607 486Q616 482 616 473Q616 467 584 337T549 201Q542 192 521 192Q503 192 497 195T490 209Q490 212 492 224Q499 251 499 269Q499 288 489 296T465 306T417 308L379 309L348 188Q341 161 334 129T322 80L318 65L317 62H375H409Q430 62 438 59T447 45Q444 8 431 2L426 0L377 1Q347 2 231 2Q152 2 111 1T65 0Q48 0 43 15Q47 54 60 60Q64 62 113 62H162L163 66Q163 67 231 341T301 616Q301 618 257 618Z"></path>
<path stroke-width="10" id="E1-MJMATHBI-47" d="M379 -16Q233 -16 145 52T56 255Q56 310 73 368T127 483T216 586T347 663T518 702H540Q562 702 582 700T616 696T644 689T667 681T686 670T702 659T717 647T731 635L776 668Q782 672 788 677T799 685T807 691T813 695T817 698T821 700T824 702T827 703T829 703T832 703Q854 703 854 690Q854 686 822 558T788 426Q785 421 781 420T755 419Q734 420 729 422T723 432Q723 434 724 446T725 469Q725 531 702 571T642 628Q616 640 575 640Q468 640 390 593T272 464Q247 415 229 340T210 214Q210 166 228 132T277 79T343 54T419 46Q445 46 465 50T500 59T526 76T544 96T557 123T566 150T574 182T581 214H519Q511 214 498 214T479 213Q443 213 443 230Q443 250 452 268Q457 273 464 276L514 275Q546 274 657 274Q735 274 768 275T803 276Q826 276 826 258Q823 224 810 216Q806 214 771 214H736Q736 211 710 109T683 5Q678 0 671 0Q666 0 637 14T597 36Q593 38 590 40T585 44T582 44T576 40Q511 -16 379 -16Z"></path>
<path stroke-width="10" id="E1-MJMATHBI-48" d="M258 624H235Q214 624 209 626T199 639Q203 678 216 684Q220 686 239 686Q290 684 403 684Q475 684 512 685T553 686Q576 686 576 668Q572 632 560 626Q555 624 506 624H457L399 389Q399 388 547 388H695L753 623Q753 624 709 624H686Q665 624 660 626T650 639Q653 678 668 684Q672 686 681 686Q685 686 726 685T847 684Q902 684 937 684T986 685T1004 686Q1027 686 1027 668Q1023 632 1011 626Q1006 624 957 624H908L839 344Q768 64 768 63T812 62H839Q871 62 871 44Q867 6 854 2L850 0L808 1Q782 2 675 2Q600 2 560 1T516 0Q499 0 494 15Q498 54 511 60Q515 62 564 62H613L614 66L679 324Q679 326 531 326H383L382 322L317 64Q317 62 361 62H388Q420 62 420 44Q416 6 403 2L399 0L357 1Q331 2 224 2Q149 2 109 1T65 0Q48 0 43 15Q47 54 60 60Q64 62 113 62H162L302 623Q302 624 258 624Z"></path>
<path stroke-width="10" id="E1-MJMATHBI-49" d="M247 624Q242 624 233 624T220 623Q186 623 186 640Q186 647 190 664T202 684Q206 686 226 686Q277 684 393 684Q435 684 471 684T528 685T553 686Q573 686 573 670Q573 650 564 632Q556 624 537 624H501H449L380 344Q309 64 309 63T356 62Q361 62 370 62T384 63Q417 63 417 46Q417 26 408 8Q403 3 396 0L352 1Q325 2 216 2T82 1L45 0Q30 7 30 16Q33 51 46 60Q51 62 102 62H154L294 623Q294 624 247 624Z"></path>
<path stroke-width="10" id="E1-MJMATHBI-4A" d="M205 131Q205 105 192 84T165 54L152 45Q152 44 160 42T182 37T213 35H216Q255 35 289 65Q314 90 329 129Q331 136 392 378T453 623Q453 624 393 624H332Q318 631 318 640Q318 647 322 664T334 684Q338 686 359 686Q413 684 533 684Q566 684 605 685T652 686Q677 686 685 683T694 669Q694 664 691 652Q686 631 681 628T647 624H602L542 380Q531 336 518 285T500 212T487 161T475 122T463 97T448 74T429 55Q351 -17 213 -17Q142 -17 99 7T43 70Q42 75 42 93Q42 143 73 168T139 194Q168 194 186 177T205 131Z"></path>
<path stroke-width="10" id="E1-MJMATHBI-4B" d="M536 0Q522 6 522 18Q522 35 533 57Q539 62 557 62Q595 62 601 65L472 330L365 255L342 160Q318 65 317 64Q317 62 361 62H388Q420 62 420 44Q416 6 403 2L399 0L357 1Q331 2 224 2Q149 2 109 1T65 0Q48 0 43 15Q47 54 60 60Q64 62 113 62H162L302 623Q302 624 258 624H235Q214 624 209 626T199 639Q203 678 216 684Q220 686 239 686Q290 684 403 684Q475 684 512 685T553 686Q576 686 576 668Q572 632 560 626Q555 624 506 624H457L422 481Q386 339 386 337L785 621Q779 624 749 624Q726 624 726 641Q726 645 730 659Q734 675 736 679T747 686L786 685Q812 684 888 684Q908 684 934 685T968 686Q1003 686 1003 669Q1003 646 991 629Q985 624 967 624Q918 624 888 617Q884 617 874 613L865 609Q864 608 732 515T599 420Q599 418 686 242T775 65Q784 62 829 62Q847 62 850 61T860 54Q862 52 862 43Q862 10 845 1Q844 1 842 1T836 0T797 1T694 2Q599 2 573 1L536 0Z"></path>
<path stroke-width="10" id="E1-MJMATHBI-4C" d="M258 624H235Q214 624 209 626T199 639Q203 678 216 684Q220 686 239 686Q290 684 409 684Q454 684 492 684T552 685T579 686Q603 686 603 668Q599 632 587 626Q583 624 520 624H457L388 344Q317 64 317 63T353 62H390Q418 62 440 64T493 78T548 110T598 169T643 261Q651 282 655 285T680 289Q696 289 700 288T709 279Q711 274 711 269Q710 265 663 138T613 8Q611 4 602 0H58Q47 5 43 15Q47 54 60 60Q64 62 113 62H162L302 623Q302 624 258 624Z"></path>
<path stroke-width="10" id="E1-MJMATHBI-4D" d="M258 624H231Q214 624 208 626T199 639Q203 678 216 684Q220 686 347 686H473Q474 685 478 682T484 677Q487 673 535 413L584 153L608 187Q631 221 672 281T761 410Q935 663 943 671Q949 678 962 686H1082H1166Q1201 686 1210 683T1219 668Q1215 632 1203 626Q1199 624 1149 624H1100L1031 344Q960 64 960 63T1004 62H1031Q1063 62 1063 44Q1060 7 1046 2Q1042 0 1034 0Q1030 0 990 1T875 2Q804 2 767 1T725 0H723Q707 0 703 15Q707 54 720 60Q724 62 773 62H822Q961 618 961 619L754 318Q546 15 543 12Q531 0 510 0Q500 0 495 0T484 5T477 19Q477 20 421 315L367 604L299 335Q234 72 234 68Q234 62 302 62Q334 62 334 46Q332 8 317 2Q313 0 306 0Q301 0 267 1T181 2Q125 2 96 1T63 0Q48 0 43 15Q43 19 47 35Q52 55 57 58T94 62Q147 64 164 69L233 345Q302 619 302 622Q302 624 258 624Z"></path>
</defs>
<g stroke="currentColor" fill="currentColor" stroke-width="0" transform="matrix(1 0 0 -1 0 0)">
 <use xlink:href="#E1-MJMATHBI-41" x="0" y="0"></use>
 <use xlink:href="#E1-MJMATHBI-42" x="874" y="0"></use>
 <use xlink:href="#E1-MJMATHBI-43" x="1745" y="0"></use>
 <use xlink:href="#E1-MJMATHBI-44" x="2605" y="0"></use>
 <use xlink:href="#E1-MJMATHBI-45" x="3548" y="0"></use>
 <use xlink:href="#E1-MJMATHBI-46" x="4378" y="0"></use>
 <use xlink:href="#E1-MJMATHBI-47" x="5192" y="0"></use>
 <use xlink:href="#E1-MJMATHBI-48" x="6084" y="0"></use>
 <use xlink:href="#E1-MJMATHBI-49" x="7116" y="0"></use>
 <use xlink:href="#E1-MJMATHBI-4A" x="7694" y="0"></use>
 <use xlink:href="#E1-MJMATHBI-4B" x="8393" y="0"></use>
 <use xlink:href="#E1-MJMATHBI-4C" x="9401" y="0"></use>
 <use xlink:href="#E1-MJMATHBI-4D" x="10162" y="0"></use>
</g>
</svg>