<?xml version="1.0" standalone="no"?>
<!DOCTYPE svg PUBLIC "-//W3C//DTD SVG 1.1//EN" "http://www.w3.org/Graphics/SVG/1.1/DTD/svg11.dtd">
<svg xmlns:xlink="http://www.w3.org/1999/xlink" width="4.809ex" height="2.509ex" style="vertical-align: -0.671ex;" viewBox="0 -791.3 2070.7 1080.4" xmlns="http://www.w3.org/2000/svg">
<defs>
<path stroke-width="10" id="E1-MJAMS-22A9" d="M55 678Q55 679 56 681T58 684T61 688T65 691T70 693T77 694Q88 692 95 679V15Q88 2 77 0Q73 0 70 1T65 3T61 6T59 9T57 13T55 16V678ZM249 678Q249 679 250 681T252 684T255 688T259 691T264 693T271 694Q282 692 289 679V367H651Q666 359 666 347Q666 334 651 327H289V15Q282 2 271 0Q267 0 264 1T259 3T255 6T253 9T251 13T249 16V678Z"></path>
<path stroke-width="10" id="E1-MJMAIN-2C" d="M78 35T78 60T94 103T137 121Q165 121 187 96T210 8Q210 -27 201 -60T180 -117T154 -158T130 -185T117 -194Q113 -194 104 -185T95 -172Q95 -168 106 -156T131 -126T157 -76T173 -3V9L172 8Q170 7 167 6T161 3T152 1T140 0Q113 0 96 17Z"></path>
<path stroke-width="10" id="E1-MJAMS-22AA" d="M55 678Q55 679 56 681T58 684T61 688T65 691T70 693T77 694Q88 692 95 679V15Q88 2 77 0Q73 0 70 1T65 3T61 6T59 9T57 13T55 16V678ZM237 678Q237 679 238 681T240 684T243 688T247 691T252 693T259 694Q270 692 277 679V15Q270 2 259 0Q255 0 252 1T247 3T243 6T241 9T239 13T237 16V678ZM419 678Q419 679 420 681T422 684T425 688T429 691T434 693T441 694Q452 692 459 679V367H818Q833 359 833 347Q833 334 818 327H459V15Q452 2 441 0Q437 0 434 1T429 3T425 6T423 9T421 13T419 16V678Z"></path>
</defs>
<g stroke="currentColor" fill="currentColor" stroke-width="0" transform="matrix(1 0 0 -1 0 0)">
 <use xlink:href="#E1-MJAMS-22A9" x="0" y="0"></use>
 <use xlink:href="#E1-MJMAIN-2C" x="727" y="0"></use>
 <use xlink:href="#E1-MJAMS-22AA" x="1176" y="0"></use>
</g>
</svg>