<?xml version="1.0" standalone="no"?>
<!DOCTYPE svg PUBLIC "-//W3C//DTD SVG 1.1//EN" "http://www.w3.org/Graphics/SVG/1.1/DTD/svg11.dtd">
<svg xmlns:xlink="http://www.w3.org/1999/xlink" width="4.682ex" height="2.176ex" style="vertical-align: -0.671ex;" viewBox="0 -647.8 2015.7 936.9" xmlns="http://www.w3.org/2000/svg">
<defs>
<path stroke-width="10" id="E1-MJMAIN-227A" d="M84 249Q84 262 91 266T117 270Q120 270 126 270T137 269Q388 273 512 333T653 512Q657 539 676 539Q685 538 689 532T694 520V515Q689 469 672 431T626 366T569 320T500 286T435 265T373 249Q379 248 404 242T440 233T477 221T533 199Q681 124 694 -17Q694 -41 674 -41Q658 -41 653 -17Q646 41 613 84T533 154T418 197T284 220T137 229H114Q104 229 98 230T88 235T84 249Z"></path>
<path stroke-width="10" id="E1-MJMAIN-2C" d="M78 35T78 60T94 103T137 121Q165 121 187 96T210 8Q210 -27 201 -60T180 -117T154 -158T130 -185T117 -194Q113 -194 104 -185T95 -172Q95 -168 106 -156T131 -126T157 -76T173 -3V9L172 8Q170 7 167 6T161 3T152 1T140 0Q113 0 96 17Z"></path>
<path stroke-width="10" id="E1-MJMAIN-227B" d="M84 517Q84 539 102 539Q115 539 119 529T125 503T137 459T171 404Q277 275 640 269H661Q694 269 694 249T661 229H640Q526 227 439 214T283 173T173 98T124 -17Q118 -41 103 -41Q83 -41 83 -17Q88 29 105 67T151 132T208 178T277 212T342 233T404 249Q401 250 380 254T345 263T302 276T245 299Q125 358 92 468Q84 502 84 517Z"></path>
</defs>
<g stroke="currentColor" fill="currentColor" stroke-width="0" transform="matrix(1 0 0 -1 0 0)">
 <use xlink:href="#E1-MJMAIN-227A" x="0" y="0"></use>
 <use xlink:href="#E1-MJMAIN-2C" x="783" y="0"></use>
 <use xlink:href="#E1-MJMAIN-227B" x="1232" y="0"></use>
</g>
</svg>