<?xml version="1.0" standalone="no"?>
<!DOCTYPE svg PUBLIC "-//W3C//DTD SVG 1.1//EN" "http://www.w3.org/Graphics/SVG/1.1/DTD/svg11.dtd">
<svg xmlns:xlink="http://www.w3.org/1999/xlink" width="10.408ex" height="3.009ex" style="vertical-align: -1.005ex;" viewBox="0 -863.1 4481 1295.7" xmlns="http://www.w3.org/2000/svg">
<defs>
<path stroke-width="10" id="E1-MJAMS-227E" d="M84 442Q84 455 91 459T117 463Q120 463 126 463T137 462Q388 466 512 526T653 705Q657 732 676 732Q685 731 689 725T694 714V708Q689 662 672 624T626 559T569 513T500 479T435 458T373 442Q379 441 404 435T440 426T477 414T533 392Q592 362 630 319T681 241T694 174Q694 153 674 153Q662 153 657 163T652 188T640 231T606 287Q500 416 137 422H114Q104 422 98 423T88 428T84 442ZM56 -194Q56 -107 106 -51T222 6Q260 6 296 -12T362 -56T420 -108T483 -153T554 -171Q616 -171 654 -128T694 -29Q696 6 708 6Q722 6 722 -26Q722 -102 676 -164T557 -227Q518 -227 481 -209T415 -165T358 -113T294 -69T223 -51Q163 -51 125 -93T83 -196Q81 -228 69 -228Q56 -228 56 -202V-194Z"></path>
<path stroke-width="10" id="E1-MJMAIN-2C" d="M78 35T78 60T94 103T137 121Q165 121 187 96T210 8Q210 -27 201 -60T180 -117T154 -158T130 -185T117 -194Q113 -194 104 -185T95 -172Q95 -168 106 -156T131 -126T157 -76T173 -3V9L172 8Q170 7 167 6T161 3T152 1T140 0Q113 0 96 17Z"></path>
<path stroke-width="10" id="E1-MJAMS-227F" d="M84 710Q84 732 102 732Q115 732 119 722T125 696T137 652T171 597Q277 468 640 462H661Q694 462 694 442T661 422H640Q578 421 526 417T415 403T309 376T222 333T156 268T124 179Q122 162 118 158T103 153Q100 153 98 153T95 154T93 155T90 158T85 163Q83 167 83 176Q88 222 105 260T151 325T208 371T277 405T342 426T404 442Q401 443 380 447T345 456T302 469T245 492Q125 551 92 661Q84 695 84 710ZM56 -194Q56 -107 106 -51T222 6Q260 6 296 -12T362 -56T420 -108T483 -153T554 -171Q616 -171 654 -128T694 -29Q696 6 708 6Q722 6 722 -26Q722 -102 676 -164T557 -227Q518 -227 481 -209T415 -165T358 -113T294 -69T223 -51Q163 -51 125 -93T83 -196Q81 -228 69 -228Q56 -228 56 -202V-194Z"></path>
<path stroke-width="10" id="E1-MJAMS-2AB7" d="M82 494T82 501T95 521H171Q405 527 511 569Q630 618 651 732Q652 734 653 740T655 748T658 754T663 759T672 761L686 754Q693 747 693 734Q684 668 648 623Q627 591 573 557T442 507L417 501Q428 496 442 494Q520 478 573 444T648 378Q684 333 693 267Q693 254 686 247Q673 234 659 245Q657 247 651 269Q630 383 511 432Q406 474 171 481H95Q82 494 82 501ZM70 -59Q57 -59 57 -26Q57 30 90 73T177 132Q191 136 226 136Q228 136 239 136T253 135T267 132T287 125T311 113T346 95T391 67Q462 20 502 5Q519 1 553 1Q586 1 602 5Q641 18 664 45T691 107Q694 136 704 136Q717 136 717 115V105Q717 39 671 -9T554 -58Q518 -58 481 -43T382 14Q302 63 273 74Q255 78 222 78Q188 78 173 74Q90 46 84 -28Q82 -59 70 -59ZM71 -294Q57 -294 57 -262Q57 -205 90 -162T177 -104Q191 -99 226 -99Q266 -103 277 -106Q310 -119 391 -168Q455 -212 502 -231Q519 -235 553 -235Q586 -235 602 -231Q640 -218 661 -195T686 -151T693 -115T704 -99Q717 -99 717 -121V-131Q717 -198 671 -246T556 -294Q519 -294 482 -279T382 -222Q307 -175 273 -162Q255 -157 222 -157Q188 -157 173 -162Q133 -175 110 -201T84 -264Q82 -294 71 -294Z"></path>
<path stroke-width="10" id="E1-MJAMS-2AB8" d="M693 501Q693 493 679 481H604Q369 474 264 432Q143 382 124 269Q116 246 115 245Q101 234 88 247Q82 254 82 267Q89 329 126 378Q147 410 201 444T333 494L357 501Q354 502 340 505T318 510T295 516T269 525T243 535T215 548T188 565Q142 599 126 623Q89 672 82 734Q82 761 102 761L115 756Q116 755 124 732Q143 619 264 569Q371 527 604 521H679Q693 507 693 501ZM70 -59Q57 -59 57 -26Q57 30 90 73T177 132Q191 136 226 136Q228 136 239 136T253 135T267 132T287 125T311 113T346 95T391 67Q462 20 502 5Q519 1 553 1Q586 1 602 5Q641 18 664 45T691 107Q694 136 704 136Q717 136 717 115V105Q717 39 671 -9T554 -58Q518 -58 481 -43T382 14Q302 63 273 74Q255 78 222 78Q188 78 173 74Q90 46 84 -28Q82 -59 70 -59ZM71 -294Q57 -294 57 -262Q57 -205 90 -162T177 -104Q191 -99 226 -99Q266 -103 277 -106Q310 -119 391 -168Q455 -212 502 -231Q519 -235 553 -235Q586 -235 602 -231Q640 -218 661 -195T686 -151T693 -115T704 -99Q717 -99 717 -121V-131Q717 -198 671 -246T556 -294Q519 -294 482 -279T382 -222Q307 -175 273 -162Q255 -157 222 -157Q188 -157 173 -162Q133 -175 110 -201T84 -264Q82 -294 71 -294Z"></path>
</defs>
<g stroke="currentColor" fill="currentColor" stroke-width="0" transform="matrix(1 0 0 -1 0 0)">
 <use xlink:href="#E1-MJAMS-227E" x="0" y="0"></use>
 <use xlink:href="#E1-MJMAIN-2C" x="783" y="0"></use>
 <use xlink:href="#E1-MJAMS-227F" x="1232" y="0"></use>
 <use xlink:href="#E1-MJMAIN-2C" x="2015" y="0"></use>
 <use xlink:href="#E1-MJAMS-2AB7" x="2465" y="0"></use>
 <use xlink:href="#E1-MJMAIN-2C" x="3248" y="0"></use>
 <use xlink:href="#E1-MJAMS-2AB8" x="3698" y="0"></use>
</g>
</svg>