<?xml version="1.0" standalone="no"?>
<!DOCTYPE svg PUBLIC "-//W3C//DTD SVG 1.1//EN" "http://www.w3.org/Graphics/SVG/1.1/DTD/svg11.dtd">
<svg xmlns:xlink="http://www.w3.org/1999/xlink" width="18.957ex" height="2.176ex" style="vertical-align: -0.338ex;" viewBox="0 -791.3 8162 936.9" xmlns="http://www.w3.org/2000/svg">
<defs>
<path stroke-width="10" id="E1-MJSS-41" d="M183 181Q183 179 152 91T118 0H28L154 346L280 693Q281 694 333 694H385L511 349Q636 4 638 2Q638 0 584 0H530L464 183H184L183 181ZM324 606Q319 578 292 492T238 332T210 256Q210 254 324 254T438 255L429 281L419 308Q409 336 395 378T365 465T339 551T324 611V606Z"></path>
<path stroke-width="10" id="E1-MJSS-42" d="M425 363Q438 363 465 353T526 324T585 270T610 192Q610 132 561 78T426 7Q404 2 387 2T240 0H90V694H227Q373 693 396 689Q484 673 533 623T583 517Q583 494 574 473T551 437T520 409T487 388T456 374T433 366L425 363ZM490 516Q490 527 485 539T467 568T423 599T347 621Q340 622 262 623H188V399H261H286Q432 399 478 475Q490 496 490 516ZM514 190Q514 245 462 280T343 322Q336 323 259 323H188V71H274Q365 72 388 77Q445 88 479 121T514 190Z"></path>
<path stroke-width="10" id="E1-MJSS-43" d="M59 347Q59 440 100 521T218 654T392 705Q473 705 550 680Q577 670 577 667Q576 666 572 642T564 595T559 571Q515 601 479 613T392 626Q300 626 232 549T164 347Q164 231 229 150T397 68Q453 68 489 80T568 120L581 129L582 110Q584 91 585 71T587 46Q580 40 566 31T502 5T396 -11Q296 -11 218 41T99 174T59 347Z"></path>
<path stroke-width="10" id="E1-MJSS-44" d="M88 0V694H237H258H316Q383 694 425 686T511 648Q578 604 622 525T666 343Q666 190 564 86Q494 18 400 3Q387 1 237 0H88ZM565 341Q565 409 546 463T495 550T429 600T359 621Q348 623 267 623H189V71H267Q272 71 286 71T310 70Q461 70 527 184Q565 251 565 341Z"></path>
<path stroke-width="10" id="E1-MJSS-45" d="M86 0V691H541V611H366L190 612V397H513V321H190V85H372L554 86V0H86Z"></path>
<path stroke-width="10" id="E1-MJSS-46" d="M86 0V691H526V611H358L190 612V384H485V308H190V0H86Z"></path>
<path stroke-width="10" id="E1-MJSS-47" d="M59 346Q59 499 157 601T384 704Q436 704 466 700T541 679Q551 674 560 670T575 664T583 660T588 658T590 656Q590 652 582 605T573 557L564 564Q489 626 392 626Q301 626 233 549T164 347T233 145T392 68Q441 68 506 84V223H388V299H599V38L588 33Q494 -11 393 -11Q296 -11 219 40T100 172T59 346Z"></path>
<path stroke-width="10" id="E1-MJSS-48" d="M86 0V694H190V399H517V694H621V0H517V323H190V0H86Z"></path>
<path stroke-width="10" id="E1-MJSS-49" d="M87 0V694H191V0H87Z"></path>
<path stroke-width="10" id="E1-MJSS-4A" d="M181 53Q200 53 215 56T241 66T259 79T272 95T280 109T285 122L287 129V694H388V415V229Q388 135 385 112T369 63Q364 51 355 39T328 12T280 -12T212 -22Q172 -22 130 -12T66 8T43 20L46 42Q50 65 54 88L58 110Q58 111 65 104Q107 53 181 53Z"></path>
<path stroke-width="10" id="E1-MJSS-4B" d="M88 0V694H188V519L189 343L525 694H638L375 419L651 0H541L309 351L188 225V0H88Z"></path>
<path stroke-width="10" id="E1-MJSS-4C" d="M87 0V694H191V79L297 80H451L499 81V0H87Z"></path>
<path stroke-width="10" id="E1-MJSS-4D" d="M92 0V694H228L233 680Q236 675 284 547T382 275T436 106Q446 149 497 292T594 558L640 680L645 694H782V0H689V305L688 606Q688 577 500 78L479 23H392L364 96Q364 97 342 156T296 280T246 418T203 544T186 609V588Q185 568 185 517T185 427T185 305V0H92Z"></path>
</defs>
<g stroke="currentColor" fill="currentColor" stroke-width="0" transform="matrix(1 0 0 -1 0 0)">
 <use xlink:href="#E1-MJSS-41" x="0" y="0"></use>
 <use xlink:href="#E1-MJSS-42" x="672" y="0"></use>
 <use xlink:href="#E1-MJSS-43" x="1344" y="0"></use>
 <use xlink:href="#E1-MJSS-44" x="1988" y="0"></use>
 <use xlink:href="#E1-MJSS-45" x="2715" y="0"></use>
 <use xlink:href="#E1-MJSS-46" x="3317" y="0"></use>
 <use xlink:href="#E1-MJSS-47" x="3891" y="0"></use>
 <use xlink:href="#E1-MJSS-48" x="4563" y="0"></use>
 <use xlink:href="#E1-MJSS-49" x="5276" y="0"></use>
 <use xlink:href="#E1-MJSS-4A" x="5559" y="0"></use>
 <use xlink:href="#E1-MJSS-4B" x="6036" y="0"></use>
 <use xlink:href="#E1-MJSS-4C" x="6735" y="0"></use>
 <use xlink:href="#E1-MJSS-4D" x="7282" y="0"></use>
</g>
</svg>