<?xml version="1.0" standalone="no"?>
<!DOCTYPE svg PUBLIC "-//W3C//DTD SVG 1.1//EN" "http://www.w3.org/Graphics/SVG/1.1/DTD/svg11.dtd">
<svg xmlns:xlink="http://www.w3.org/1999/xlink" width="10.408ex" height="2.676ex" style="vertical-align: -0.671ex;" viewBox="0 -863.1 4481 1152.1" xmlns="http://www.w3.org/2000/svg">
<defs>
<path stroke-width="10" id="E1-MJMAIN-B1" d="M56 320T56 333T70 353H369V502Q369 651 371 655Q376 666 388 666Q402 666 405 654T409 596V500V353H707Q722 345 722 333Q722 320 707 313H409V40H707Q722 32 722 20T707 0H70Q56 7 56 20T70 40H369V313H70Q56 320 56 333Z"></path>
<path stroke-width="10" id="E1-MJMAIN-2C" d="M78 35T78 60T94 103T137 121Q165 121 187 96T210 8Q210 -27 201 -60T180 -117T154 -158T130 -185T117 -194Q113 -194 104 -185T95 -172Q95 -168 106 -156T131 -126T157 -76T173 -3V9L172 8Q170 7 167 6T161 3T152 1T140 0Q113 0 96 17Z"></path>
<path stroke-width="10" id="E1-MJMAIN-2213" d="M56 467T56 480T70 500H707Q722 492 722 480T707 460H409V187H707Q722 179 722 167Q722 154 707 147H409V0V-93Q409 -144 406 -155T389 -166Q376 -166 372 -155T368 -105Q368 -96 368 -62T369 -2V147H70Q56 154 56 167T70 187H369V460H70Q56 467 56 480Z"></path>
<path stroke-width="10" id="E1-MJAMS-2214" d="M339 717Q339 739 354 752T388 766Q410 766 424 751T439 716T424 681T390 666Q369 666 354 681T339 717ZM57 237T57 250T71 270H369V425L370 581Q380 594 389 594Q402 594 409 579V270H707Q722 262 722 250T707 230H409V-79Q401 -93 391 -93H389H387Q375 -93 369 -79V230H71Q57 237 57 250Z"></path>
<path stroke-width="10" id="E1-MJMAIN-F7" d="M318 466Q318 500 339 518T386 537Q418 537 438 517T458 466Q458 438 440 417T388 396Q355 396 337 417T318 466ZM56 237T56 250T70 270H706Q721 262 721 250T706 230H70Q56 237 56 250ZM318 34Q318 68 339 86T386 105Q418 105 438 85T458 34Q458 6 440 -15T388 -36Q355 -36 337 -15T318 34Z"></path>
</defs>
<g stroke="currentColor" fill="currentColor" stroke-width="0" transform="matrix(1 0 0 -1 0 0)">
 <use xlink:href="#E1-MJMAIN-B1" x="0" y="0"></use>
 <use xlink:href="#E1-MJMAIN-2C" x="783" y="0"></use>
 <use xlink:href="#E1-MJMAIN-2213" x="1232" y="0"></use>
 <use xlink:href="#E1-MJMAIN-2C" x="2015" y="0"></use>
 <use xlink:href="#E1-MJAMS-2214" x="2465" y="0"></use>
 <use xlink:href="#E1-MJMAIN-2C" x="3248" y="0"></use>
 <use xlink:href="#E1-MJMAIN-F7" x="3698" y="0"></use>
</g>
</svg>