<?xml version="1.0" standalone="no"?>
<!DOCTYPE svg PUBLIC "-//W3C//DTD SVG 1.1//EN" "http://www.w3.org/Graphics/SVG/1.1/DTD/svg11.dtd">
<svg xmlns:xlink="http://www.w3.org/1999/xlink" width="7.57ex" height="2.676ex" style="vertical-align: -0.671ex;" viewBox="0 -863.1 3259.3 1152.1" xmlns="http://www.w3.org/2000/svg">
<defs>
<path stroke-width="10" id="E1-MJMAIN-22C8" d="M833 50T833 250T832 450T659 351T487 250T658 150T832 50Q833 50 833 250ZM873 10Q866 -5 854 -5Q851 -5 845 -3L449 226L260 115Q51 -5 43 -5Q39 -5 35 -1T28 7L26 11V489Q33 505 43 505Q51 505 260 385L449 274L845 503Q851 505 853 505Q866 505 873 490V10ZM412 250L67 450Q66 450 66 250T67 50Q69 51 240 150T412 250Z"></path>
<path stroke-width="10" id="E1-MJMAIN-2C" d="M78 35T78 60T94 103T137 121Q165 121 187 96T210 8Q210 -27 201 -60T180 -117T154 -158T130 -185T117 -194Q113 -194 104 -185T95 -172Q95 -168 106 -156T131 -126T157 -76T173 -3V9L172 8Q170 7 167 6T161 3T152 1T140 0Q113 0 96 17Z"></path>
<path stroke-width="10" id="E1-MJAMS-22D4" d="M76 -22Q64 -22 56 -7V176L57 360L59 370Q66 401 83 426T123 468T171 495T221 513T265 522T298 527L311 528H314V625L315 723Q325 736 334 736Q346 736 354 721V528H356L368 527Q380 526 399 523T441 515T490 498T537 472T578 433T606 379Q611 359 611 171V-7Q604 -21 591 -21T571 -7V170Q571 313 571 337T565 375Q555 408 526 432T461 467T402 482T365 487H354V-7Q347 -21 334 -21T314 -7V487H303Q251 484 207 467Q121 438 99 367L97 357L96 174V-9Q86 -22 76 -22Z"></path>
<path stroke-width="10" id="E1-MJMAIN-22A5" d="M369 652Q369 653 370 655T372 658T375 662T379 665T384 667T391 668Q402 666 409 653V40H708Q723 32 723 20T708 0H71Q70 0 67 2T59 9T55 20T59 31T66 38T71 40H369V652Z"></path>
</defs>
<g stroke="currentColor" fill="currentColor" stroke-width="0" transform="matrix(1 0 0 -1 0 0)">
 <use xlink:href="#E1-MJMAIN-22C8" x="0" y="0"></use>
 <use xlink:href="#E1-MJMAIN-2C" x="905" y="0"></use>
 <use xlink:href="#E1-MJAMS-22D4" x="1354" y="0"></use>
 <use xlink:href="#E1-MJMAIN-2C" x="2026" y="0"></use>
 <use xlink:href="#E1-MJMAIN-22A5" x="2476" y="0"></use>
</g>
</svg>