<?xml version="1.0" standalone="no"?>
<!DOCTYPE svg PUBLIC "-//W3C//DTD SVG 1.1//EN" "http://www.w3.org/Graphics/SVG/1.1/DTD/svg11.dtd">
<svg xmlns:xlink="http://www.w3.org/1999/xlink" width="10.408ex" height="2.343ex" style="vertical-align: -0.671ex;" viewBox="0 -719.6 4481 1008.6" xmlns="http://www.w3.org/2000/svg">
<defs>
<path stroke-width="10" id="E1-MJMAIN-2243" d="M55 283Q55 356 103 409T217 463Q262 463 297 447T395 382Q431 355 446 344T493 320T554 307H558Q613 307 652 344T694 433Q694 464 708 464T722 432Q722 356 673 304T564 251H554Q510 251 465 275T387 329T310 382T223 407H219Q164 407 122 367Q91 333 85 295T76 253T69 250Q55 250 55 283ZM56 56Q56 71 72 76H706Q722 70 722 56Q722 44 707 36H70Q56 43 56 56Z"></path>
<path stroke-width="10" id="E1-MJMAIN-2C" d="M78 35T78 60T94 103T137 121Q165 121 187 96T210 8Q210 -27 201 -60T180 -117T154 -158T130 -185T117 -194Q113 -194 104 -185T95 -172Q95 -168 106 -156T131 -126T157 -76T173 -3V9L172 8Q170 7 167 6T161 3T152 1T140 0Q113 0 96 17Z"></path>
<path stroke-width="10" id="E1-MJAMS-22CD" d="M56 433Q56 464 71 464Q74 464 77 461Q82 454 82 438T91 397T123 347Q166 307 222 307Q264 307 308 331T386 385T465 438T556 463Q631 463 676 408T722 283Q722 250 708 250Q704 250 699 257Q695 265 693 286T682 330Q670 350 655 367Q612 407 556 407Q514 407 470 383T393 329T314 276T222 251Q148 251 102 306T56 433ZM57 56Q57 71 73 76H706Q722 70 722 56Q722 44 707 36H71Q57 43 57 56Z"></path>
<path stroke-width="10" id="E1-MJMAIN-2245" d="M55 388Q55 463 101 526T222 589Q260 589 296 571T362 526T421 474T484 430T554 411Q616 411 655 458T694 560Q694 572 698 580T708 589Q722 589 722 556Q722 482 677 419T562 356H554Q517 356 481 374T414 418T355 471T292 515T223 533Q179 533 145 508Q109 479 96 440T80 378T69 355Q55 355 55 388ZM56 236Q56 249 70 256H707Q722 248 722 236Q722 225 708 217L390 216H72Q56 221 56 236ZM56 42Q56 57 72 62H708Q722 52 722 42Q722 30 707 22H70Q56 29 56 42Z"></path>
<path stroke-width="10" id="E1-MJAMS-224A" d="M220 523Q163 523 124 486T84 412Q81 383 69 383Q56 383 56 413Q56 441 67 470Q78 508 111 537T187 575Q203 579 219 579Q248 579 271 572Q304 565 393 508Q498 439 551 439Q620 439 662 486Q688 512 693 557Q693 565 697 572T707 579Q719 579 719 548Q719 483 673 434T550 384Q512 384 467 405T386 453T305 501T220 523ZM222 288Q164 288 124 251T84 177Q81 148 69 148Q56 148 56 178Q56 206 67 235Q78 274 111 302T187 339Q198 343 220 343Q244 343 259 341T308 322T393 272Q496 203 553 203Q612 203 651 241T691 312Q693 343 705 343Q719 343 719 313Q719 245 673 199Q626 148 552 148Q513 148 467 170T385 218T304 266T222 288ZM51 -19Q51 -6 62 -1H387Q713 -1 715 -3Q725 -10 725 -20Q725 -27 718 -34Q714 -38 672 -38T387 -39H62Q51 -25 51 -19Z"></path>
</defs>
<g stroke="currentColor" fill="currentColor" stroke-width="0" transform="matrix(1 0 0 -1 0 0)">
 <use xlink:href="#E1-MJMAIN-2243" x="0" y="0"></use>
 <use xlink:href="#E1-MJMAIN-2C" x="783" y="0"></use>
 <use xlink:href="#E1-MJAMS-22CD" x="1232" y="0"></use>
 <use xlink:href="#E1-MJMAIN-2C" x="2015" y="0"></use>
 <use xlink:href="#E1-MJMAIN-2245" x="2465" y="0"></use>
 <use xlink:href="#E1-MJMAIN-2C" x="3248" y="0"></use>
 <use xlink:href="#E1-MJAMS-224A" x="3698" y="0"></use>
</g>
</svg>