<?xml version="1.0" standalone="no"?>
<!DOCTYPE svg PUBLIC "-//W3C//DTD SVG 1.1//EN" "http://www.w3.org/Graphics/SVG/1.1/DTD/svg11.dtd">
<svg xmlns:xlink="http://www.w3.org/1999/xlink" width="4.682ex" height="3.176ex" style="vertical-align: -1.005ex;" viewBox="0 -934.9 2015.7 1367.4" xmlns="http://www.w3.org/2000/svg">
<defs>
<path stroke-width="10" id="E1-MJAMS-E010" d="M102 168Q103 168 151 146T247 102T295 81Q299 85 322 144T344 206L218 268Q153 297 123 313T87 333T82 344T86 355Q104 369 291 455Q491 552 491 553L542 673Q581 767 590 784T609 801Q616 801 622 795T629 781Q629 773 586 677Q546 581 546 577L609 606Q669 635 673 635Q680 635 686 629T693 615Q693 610 692 608T670 593T604 561L524 521L400 226L542 157Q617 123 649 107T687 85T694 72Q694 66 690 60T679 54Q665 54 526 119Q394 186 386 186Q385 186 342 88L331 61L509 -23Q680 -105 688 -111Q693 -115 693 -122T688 -135T675 -141H673Q664 -141 491 -59Q320 21 316 21H315L249 -136Q183 -293 178 -299Q172 -303 166 -303T153 -297T146 -283Q146 -282 154 -261T181 -197T213 -119L280 41Q280 46 186 86Q157 101 121 119Q92 133 87 136T82 148Q82 155 88 161T102 168ZM418 370L466 495Q464 495 308 420T151 344T204 317T311 267T364 244Q364 247 418 370Z"></path>
<path stroke-width="10" id="E1-MJMAIN-2C" d="M78 35T78 60T94 103T137 121Q165 121 187 96T210 8Q210 -27 201 -60T180 -117T154 -158T130 -185T117 -194Q113 -194 104 -185T95 -172Q95 -168 106 -156T131 -126T157 -76T173 -3V9L172 8Q170 7 167 6T161 3T152 1T140 0Q113 0 96 17Z"></path>
<path stroke-width="10" id="E1-MJAMS-E00F" d="M97 54Q82 54 82 72Q82 79 86 84Q95 91 222 153L351 215L398 324L442 433L258 519Q95 597 87 604Q82 608 82 615T88 628T102 635Q107 635 424 484L458 468L524 630Q593 789 597 795Q601 801 609 801Q616 801 622 795T629 781L562 615L493 450L589 406Q665 371 679 362T694 344Q694 339 693 337T677 326T631 302T538 257Q504 241 465 223T406 195T386 186Q383 185 344 92T306 -3L486 81Q662 168 673 168Q680 168 686 162T693 148T689 137Q688 136 482 35L280 -59L233 -176Q184 -291 178 -299Q172 -303 166 -303T153 -297T146 -283Q146 -279 185 -186T224 -90Q225 -88 223 -88Q219 -88 193 -101Q109 -143 98 -143Q82 -138 82 -122Q82 -116 85 -113T108 -98T171 -67L249 -30L289 61Q297 81 307 107T321 144T326 157L218 106Q109 54 97 54ZM553 379Q480 412 480 415Q479 415 460 372T423 285T406 241Q408 240 516 291T624 344L553 379Z"></path>
</defs>
<g stroke="currentColor" fill="currentColor" stroke-width="0" transform="matrix(1 0 0 -1 0 0)">
 <use xlink:href="#E1-MJAMS-E010" x="0" y="0"></use>
 <use xlink:href="#E1-MJMAIN-2C" x="783" y="0"></use>
 <use xlink:href="#E1-MJAMS-E00F" x="1232" y="0"></use>
</g>
</svg>